G04 #@! TF.FileFunction,Soldermask,Bot*
%FSLAX46Y46*%
G04 Gerber Fmt 4.6, Leading zero omitted, Abs format (unit mm)*
G04 Created by KiCad (PCBNEW 4.0.7) date 07/22/18 01:51:21*
%MOMM*%
%LPD*%
G01*
G04 APERTURE LIST*
%ADD10C,0.100000*%
%ADD11O,2.400000X4.400000*%
G04 APERTURE END LIST*
D10*
D11*
X150241000Y-125984000D03*
X146431000Y-125984000D03*
X142621000Y-125984000D03*
X148336000Y-120904000D03*
X144526000Y-120904000D03*
X140716000Y-120904000D03*
X138811000Y-125984000D03*
X136906000Y-120904000D03*
X135001000Y-125984000D03*
X133096000Y-120904000D03*
X131191000Y-125984000D03*
X129286000Y-120904000D03*
X167386000Y-120904000D03*
X165481000Y-125984000D03*
X163576000Y-120904000D03*
X161671000Y-125984000D03*
X159766000Y-120904000D03*
X157861000Y-125984000D03*
X155956000Y-120904000D03*
X154051000Y-125984000D03*
X152146000Y-120904000D03*
X146431000Y-105156000D03*
X150241000Y-105156000D03*
X154051000Y-105156000D03*
X148336000Y-110236000D03*
X152146000Y-110236000D03*
X155956000Y-110236000D03*
X157861000Y-105156000D03*
X159766000Y-110236000D03*
X161671000Y-105156000D03*
X163576000Y-110236000D03*
X165481000Y-105156000D03*
X167386000Y-110236000D03*
X129286000Y-110236000D03*
X131191000Y-105156000D03*
X133096000Y-110236000D03*
X135001000Y-105156000D03*
X136906000Y-110236000D03*
X138811000Y-105156000D03*
X140716000Y-110236000D03*
X142621000Y-105156000D03*
X144526000Y-110236000D03*
M02*
