G04 #@! TF.FileFunction,Legend,Top*
%FSLAX46Y46*%
G04 Gerber Fmt 4.6, Leading zero omitted, Abs format (unit mm)*
G04 Created by KiCad (PCBNEW 4.0.7) date 07/22/18 01:51:21*
%MOMM*%
%LPD*%
G01*
G04 APERTURE LIST*
%ADD10C,0.100000*%
%ADD11C,0.300000*%
%ADD12C,0.150000*%
G04 APERTURE END LIST*
D10*
D11*
X130621715Y-131512571D02*
X131478858Y-131512571D01*
X131050287Y-133012571D02*
X131050287Y-131512571D01*
X131978858Y-133012571D02*
X131978858Y-132012571D01*
X131978858Y-131512571D02*
X131907429Y-131584000D01*
X131978858Y-131655429D01*
X132050286Y-131584000D01*
X131978858Y-131512571D01*
X131978858Y-131655429D01*
X132693144Y-132012571D02*
X132693144Y-133012571D01*
X132693144Y-132155429D02*
X132764572Y-132084000D01*
X132907430Y-132012571D01*
X133121715Y-132012571D01*
X133264572Y-132084000D01*
X133336001Y-132226857D01*
X133336001Y-133012571D01*
X134050287Y-133012571D02*
X134050287Y-131512571D01*
X134193144Y-132441143D02*
X134621715Y-133012571D01*
X134621715Y-132012571D02*
X134050287Y-132584000D01*
X135836001Y-132941143D02*
X135693144Y-133012571D01*
X135407430Y-133012571D01*
X135264573Y-132941143D01*
X135193144Y-132798286D01*
X135193144Y-132226857D01*
X135264573Y-132084000D01*
X135407430Y-132012571D01*
X135693144Y-132012571D01*
X135836001Y-132084000D01*
X135907430Y-132226857D01*
X135907430Y-132369714D01*
X135193144Y-132512571D01*
X136550287Y-133012571D02*
X136550287Y-132012571D01*
X136550287Y-132298286D02*
X136621715Y-132155429D01*
X136693144Y-132084000D01*
X136836001Y-132012571D01*
X136978858Y-132012571D01*
X137478858Y-132012571D02*
X137478858Y-133512571D01*
X137478858Y-132084000D02*
X137621715Y-132012571D01*
X137907429Y-132012571D01*
X138050286Y-132084000D01*
X138121715Y-132155429D01*
X138193144Y-132298286D01*
X138193144Y-132726857D01*
X138121715Y-132869714D01*
X138050286Y-132941143D01*
X137907429Y-133012571D01*
X137621715Y-133012571D01*
X137478858Y-132941143D01*
X139050287Y-133012571D02*
X138907429Y-132941143D01*
X138836001Y-132798286D01*
X138836001Y-131512571D01*
X140264572Y-132012571D02*
X140264572Y-133012571D01*
X139621715Y-132012571D02*
X139621715Y-132798286D01*
X139693143Y-132941143D01*
X139836001Y-133012571D01*
X140050286Y-133012571D01*
X140193143Y-132941143D01*
X140264572Y-132869714D01*
X140978858Y-132012571D02*
X140978858Y-133012571D01*
X140978858Y-132155429D02*
X141050286Y-132084000D01*
X141193144Y-132012571D01*
X141407429Y-132012571D01*
X141550286Y-132084000D01*
X141621715Y-132226857D01*
X141621715Y-133012571D01*
X142336001Y-133012571D02*
X142336001Y-131512571D01*
X142478858Y-132441143D02*
X142907429Y-133012571D01*
X142907429Y-132012571D02*
X142336001Y-132584000D01*
X143550287Y-132869714D02*
X143621715Y-132941143D01*
X143550287Y-133012571D01*
X143478858Y-132941143D01*
X143550287Y-132869714D01*
X143550287Y-133012571D01*
X144907430Y-132941143D02*
X144764573Y-133012571D01*
X144478859Y-133012571D01*
X144336001Y-132941143D01*
X144264573Y-132869714D01*
X144193144Y-132726857D01*
X144193144Y-132298286D01*
X144264573Y-132155429D01*
X144336001Y-132084000D01*
X144478859Y-132012571D01*
X144764573Y-132012571D01*
X144907430Y-132084000D01*
X145764573Y-133012571D02*
X145621715Y-132941143D01*
X145550287Y-132869714D01*
X145478858Y-132726857D01*
X145478858Y-132298286D01*
X145550287Y-132155429D01*
X145621715Y-132084000D01*
X145764573Y-132012571D01*
X145978858Y-132012571D01*
X146121715Y-132084000D01*
X146193144Y-132155429D01*
X146264573Y-132298286D01*
X146264573Y-132726857D01*
X146193144Y-132869714D01*
X146121715Y-132941143D01*
X145978858Y-133012571D01*
X145764573Y-133012571D01*
X146907430Y-133012571D02*
X146907430Y-132012571D01*
X146907430Y-132155429D02*
X146978858Y-132084000D01*
X147121716Y-132012571D01*
X147336001Y-132012571D01*
X147478858Y-132084000D01*
X147550287Y-132226857D01*
X147550287Y-133012571D01*
X147550287Y-132226857D02*
X147621716Y-132084000D01*
X147764573Y-132012571D01*
X147978858Y-132012571D01*
X148121716Y-132084000D01*
X148193144Y-132226857D01*
X148193144Y-133012571D01*
X150478858Y-131512571D02*
X150478858Y-132584000D01*
X150407430Y-132798286D01*
X150264573Y-132941143D01*
X150050287Y-133012571D01*
X149907430Y-133012571D01*
X151193144Y-133012571D02*
X151193144Y-131512571D01*
X151764572Y-131512571D01*
X151907430Y-131584000D01*
X151978858Y-131655429D01*
X152050287Y-131798286D01*
X152050287Y-132012571D01*
X151978858Y-132155429D01*
X151907430Y-132226857D01*
X151764572Y-132298286D01*
X151193144Y-132298286D01*
X152621715Y-131655429D02*
X152693144Y-131584000D01*
X152836001Y-131512571D01*
X153193144Y-131512571D01*
X153336001Y-131584000D01*
X153407430Y-131655429D01*
X153478858Y-131798286D01*
X153478858Y-131941143D01*
X153407430Y-132155429D01*
X152550287Y-133012571D01*
X153478858Y-133012571D01*
X154907429Y-133012571D02*
X154050286Y-133012571D01*
X154478858Y-133012571D02*
X154478858Y-131512571D01*
X154336001Y-131726857D01*
X154193143Y-131869714D01*
X154050286Y-131941143D01*
X156693143Y-132441143D02*
X157836000Y-132441143D01*
X157550286Y-132726857D02*
X157836000Y-132441143D01*
X157550286Y-132155429D01*
X156978857Y-132155429D02*
X156693143Y-132441143D01*
X156978857Y-132726857D01*
X159621714Y-132941143D02*
X159836000Y-133012571D01*
X160193143Y-133012571D01*
X160336000Y-132941143D01*
X160407429Y-132869714D01*
X160478857Y-132726857D01*
X160478857Y-132584000D01*
X160407429Y-132441143D01*
X160336000Y-132369714D01*
X160193143Y-132298286D01*
X159907429Y-132226857D01*
X159764571Y-132155429D01*
X159693143Y-132084000D01*
X159621714Y-131941143D01*
X159621714Y-131798286D01*
X159693143Y-131655429D01*
X159764571Y-131584000D01*
X159907429Y-131512571D01*
X160264571Y-131512571D01*
X160478857Y-131584000D01*
X161978857Y-132869714D02*
X161907428Y-132941143D01*
X161693142Y-133012571D01*
X161550285Y-133012571D01*
X161336000Y-132941143D01*
X161193142Y-132798286D01*
X161121714Y-132655429D01*
X161050285Y-132369714D01*
X161050285Y-132155429D01*
X161121714Y-131869714D01*
X161193142Y-131726857D01*
X161336000Y-131584000D01*
X161550285Y-131512571D01*
X161693142Y-131512571D01*
X161907428Y-131584000D01*
X161978857Y-131655429D01*
X162550285Y-132584000D02*
X163264571Y-132584000D01*
X162407428Y-133012571D02*
X162907428Y-131512571D01*
X163407428Y-133012571D01*
X164764571Y-133012571D02*
X164264571Y-132298286D01*
X163907428Y-133012571D02*
X163907428Y-131512571D01*
X164478856Y-131512571D01*
X164621714Y-131584000D01*
X164693142Y-131655429D01*
X164764571Y-131798286D01*
X164764571Y-132012571D01*
X164693142Y-132155429D01*
X164621714Y-132226857D01*
X164478856Y-132298286D01*
X163907428Y-132298286D01*
X165193142Y-131512571D02*
X166050285Y-131512571D01*
X165621714Y-133012571D02*
X165621714Y-131512571D01*
D12*
X172036000Y-136684000D02*
X124636000Y-136684000D01*
X124636000Y-94456000D02*
X172036000Y-94456000D01*
X146661429Y-112736381D02*
X146661429Y-113450667D01*
X146613809Y-113593524D01*
X146518571Y-113688762D01*
X146375714Y-113736381D01*
X146280476Y-113736381D01*
X147137619Y-113736381D02*
X147137619Y-112736381D01*
X147518572Y-112736381D01*
X147613810Y-112784000D01*
X147661429Y-112831619D01*
X147709048Y-112926857D01*
X147709048Y-113069714D01*
X147661429Y-113164952D01*
X147613810Y-113212571D01*
X147518572Y-113260190D01*
X147137619Y-113260190D01*
X148137619Y-113355429D02*
X148899524Y-113355429D01*
X149328095Y-112831619D02*
X149375714Y-112784000D01*
X149470952Y-112736381D01*
X149709048Y-112736381D01*
X149804286Y-112784000D01*
X149851905Y-112831619D01*
X149899524Y-112926857D01*
X149899524Y-113022095D01*
X149851905Y-113164952D01*
X149280476Y-113736381D01*
X149899524Y-113736381D01*
X150851905Y-113736381D02*
X150280476Y-113736381D01*
X150566190Y-113736381D02*
X150566190Y-112736381D01*
X150470952Y-112879238D01*
X150375714Y-112974476D01*
X150280476Y-113022095D01*
X146574095Y-117530571D02*
X146907429Y-117530571D01*
X147050286Y-118054381D02*
X146574095Y-118054381D01*
X146574095Y-117054381D01*
X147050286Y-117054381D01*
X147478857Y-117054381D02*
X147478857Y-117863905D01*
X147526476Y-117959143D01*
X147574095Y-118006762D01*
X147669333Y-118054381D01*
X147859810Y-118054381D01*
X147955048Y-118006762D01*
X148002667Y-117959143D01*
X148050286Y-117863905D01*
X148050286Y-117054381D01*
X149097905Y-118054381D02*
X148764571Y-117578190D01*
X148526476Y-118054381D02*
X148526476Y-117054381D01*
X148907429Y-117054381D01*
X149002667Y-117102000D01*
X149050286Y-117149619D01*
X149097905Y-117244857D01*
X149097905Y-117387714D01*
X149050286Y-117482952D01*
X149002667Y-117530571D01*
X148907429Y-117578190D01*
X148526476Y-117578190D01*
X149716952Y-117054381D02*
X149907429Y-117054381D01*
X150002667Y-117102000D01*
X150097905Y-117197238D01*
X150145524Y-117387714D01*
X150145524Y-117721048D01*
X150097905Y-117911524D01*
X150002667Y-118006762D01*
X149907429Y-118054381D01*
X149716952Y-118054381D01*
X149621714Y-118006762D01*
X149526476Y-117911524D01*
X149478857Y-117721048D01*
X149478857Y-117387714D01*
X149526476Y-117197238D01*
X149621714Y-117102000D01*
X149716952Y-117054381D01*
M02*
