M48
;DRILL file {KiCad 4.0.7} date 07/22/18 01:51:17
;FORMAT={-:-/ absolute / inch / decimal}
FMAT,2
INCH,TZ
T1C0.016
T2C0.051
%
G90
G05
M72
T1
X4.85Y-3.77
X4.85Y-3.92
X4.85Y-4.28
X4.85Y-4.75
X4.85Y-4.99
X4.85Y-5.19
X4.85Y-5.33
X4.98Y-3.77
X5.09Y-4.55
X5.09Y-5.33
X5.24Y-3.77
X5.34Y-5.33
X5.57Y-3.77
X5.66Y-5.33
X6.02Y-3.77
X6.18Y-5.33
X6.2Y-4.5
X6.51Y-4.65
X6.57Y-4.53
X6.65Y-3.77
X6.83Y-3.77
X6.83Y-3.99
X6.83Y-5.33
X6.84Y-4.23
X6.84Y-4.54
X6.84Y-5.05
T2
X5.09Y-4.34
X5.09Y-4.76
X5.165Y-4.14
X5.165Y-4.96
X5.24Y-4.34
X5.24Y-4.76
X5.315Y-4.14
X5.315Y-4.96
X5.39Y-4.34
X5.39Y-4.76
X5.465Y-4.14
X5.465Y-4.96
X5.54Y-4.34
X5.54Y-4.76
X5.615Y-4.14
X5.615Y-4.96
X5.69Y-4.34
X5.69Y-4.76
X5.765Y-4.14
X5.765Y-4.96
X5.84Y-4.34
X5.84Y-4.76
X5.915Y-4.14
X5.915Y-4.96
X5.99Y-4.34
X5.99Y-4.76
X6.065Y-4.14
X6.065Y-4.96
X6.14Y-4.34
X6.14Y-4.76
X6.215Y-4.14
X6.215Y-4.96
X6.29Y-4.34
X6.29Y-4.76
X6.365Y-4.14
X6.365Y-4.96
X6.44Y-4.34
X6.44Y-4.76
X6.515Y-4.14
X6.515Y-4.96
X6.59Y-4.34
X6.59Y-4.76
T0
M30
