M48
; DRILL file {KiCad (5.1.0)-1} date 8/12/2019 2:02:25 PM
; FORMAT={-:-/ absolute / inch / decimal}
; #@! TF.CreationDate,2019-08-12T14:02:25-04:00
; #@! TF.GenerationSoftware,Kicad,Pcbnew,(5.1.0)-1
FMAT,2
INCH
T1C0.0157
T2C0.0520
T3C0.1190
%
G90
G05
T1
X4.1772Y-3.3425
X4.1988Y-3.6102
X4.2303Y-2.8228
X4.3661Y-3.2441
X4.5591Y-2.8012
X4.5709Y-3.2756
X4.6654Y-3.122
X4.6732Y-3.2441
X4.7106Y-2.8071
X4.8268Y-3.2441
X4.9867Y-3.5064
X5.0709Y-3.4764
X5.1102Y-3.4803
X5.122Y-3.2323
X5.1516Y-2.8091
X5.187Y-3.2874
X5.2657Y-3.0787
X5.3504Y-3.4488
X5.4154Y-2.8091
X5.4173Y-3.0965
X5.565Y-3.0945
X5.5689Y-2.8091
X5.7185Y-3.2421
X5.7618Y-2.8209
X5.7953Y-3.2815
X5.9724Y-2.8287
X6.2539Y-2.8346
X6.3169Y-3.5709
X6.3327Y-3.3091
T2
X4.5177Y-3.3634
X4.5927Y-3.1634
X4.6677Y-3.3634
X4.7427Y-3.1634
X4.8177Y-3.3634
X4.8927Y-3.1634
X4.9677Y-3.3634
X5.0427Y-3.1634
X5.1177Y-3.3634
X5.1927Y-3.1634
X5.2677Y-3.3634
X5.3427Y-3.1634
X5.4177Y-3.3634
X5.4927Y-3.1634
X5.5677Y-3.3634
X5.6427Y-3.1634
X5.7177Y-3.3634
X5.7927Y-3.1634
X5.8677Y-3.3634
X5.9427Y-3.1634
X6.0177Y-3.3634
T3
X4.2277Y-3.0334
X4.2277Y-3.1734
X6.3077Y-3.0334
X6.3077Y-3.1734
T0
M30
