M48
; DRILL file {KiCad (5.1.0)-1} date 8/9/2019 3:31:14 PM
; FORMAT={-:-/ absolute / inch / decimal}
; #@! TF.CreationDate,2019-08-09T15:31:14-04:00
; #@! TF.GenerationSoftware,Kicad,Pcbnew,(5.1.0)-1
FMAT,2
INCH
T1C0.0157
T2C0.0520
T3C0.1190
%
G90
G05
T1
X4.1024Y-3.2598
X4.1024Y-4.2362
X4.1181Y-5.4134
X4.1181Y-6.3898
X4.124Y-3.5276
X4.124Y-4.5039
X4.1299Y-5.2126
X4.1299Y-6.189
X4.1339Y-5.3189
X4.1339Y-6.2953
X4.1555Y-2.7402
X4.1555Y-3.7165
X4.1575Y-4.6417
X4.1575Y-4.7244
X4.1575Y-5.5118
X4.1575Y-5.6181
X4.1575Y-5.7008
X4.1575Y-6.4882
X4.2559Y-4.6417
X4.2559Y-5.5118
X4.2559Y-5.6181
X4.2559Y-6.4882
X4.2913Y-3.1614
X4.2913Y-4.1378
X4.3228Y-5.1181
X4.3228Y-5.2638
X4.3228Y-6.0945
X4.3228Y-6.2402
X4.3543Y-4.6417
X4.3543Y-5.6181
X4.3858Y-5.0079
X4.3858Y-5.9843
X4.4173Y-3.1319
X4.4173Y-4.1083
X4.4528Y-4.6417
X4.4528Y-5.6181
X4.4843Y-2.7185
X4.4843Y-3.6949
X4.4921Y-3.3799
X4.4921Y-4.3563
X4.5157Y-5.185
X4.5157Y-5.311
X4.5157Y-6.1614
X4.5157Y-6.2874
X4.5315Y-4.9134
X4.5315Y-5.8898
X4.5512Y-4.6417
X4.5512Y-5.6181
X4.6358Y-2.7244
X4.6358Y-3.7008
X4.6496Y-4.6417
X4.6496Y-5.6181
X4.6614Y-5.3583
X4.6614Y-6.3346
X4.748Y-4.6417
X4.748Y-5.6181
X4.752Y-5.3425
X4.752Y-6.3189
X4.813Y-3.4016
X4.813Y-4.378
X4.815Y-3.2106
X4.815Y-4.187
X4.815Y-5.3622
X4.815Y-6.3386
X4.8465Y-4.6417
X4.8465Y-5.6181
X4.8937Y-4.8898
X4.8937Y-5.8661
X4.9119Y-3.4237
X4.9119Y-4.4001
X4.9449Y-4.6417
X4.9449Y-5.6181
X4.9764Y-3.3809
X4.9764Y-4.3543
X5.0394Y-5.0866
X5.0433Y-4.6417
X5.0433Y-5.6181
X5.0433Y-6.0669
X5.0472Y-3.1496
X5.0472Y-3.4016
X5.0472Y-4.126
X5.0472Y-4.374
X5.063Y-4.9134
X5.063Y-5.8898
X5.0768Y-2.7264
X5.0768Y-3.7028
X5.1122Y-3.2047
X5.1122Y-4.1811
X5.1171Y-5.1508
X5.122Y-6.1272
X5.1417Y-4.6417
X5.1417Y-5.6181
X5.1909Y-2.9961
X5.1909Y-3.9724
X5.1929Y-5.0
X5.1929Y-5.9764
X5.2402Y-4.6417
X5.2402Y-5.6181
X5.2756Y-3.3661
X5.2756Y-4.3425
X5.3386Y-4.6417
X5.3386Y-5.6181
X5.3406Y-2.7264
X5.3406Y-3.7028
X5.3425Y-3.0138
X5.3425Y-3.9902
X5.3425Y-4.9409
X5.3425Y-5.9173
X5.4173Y-5.2323
X5.4173Y-6.2087
X5.437Y-4.6417
X5.437Y-5.6181
X5.4902Y-3.0118
X5.4902Y-3.9882
X5.4941Y-2.7264
X5.4941Y-3.7028
X5.5197Y-5.3346
X5.5197Y-6.311
X5.5354Y-4.6417
X5.5354Y-5.6181
X5.5384Y-5.36
X5.5384Y-6.3364
X5.6339Y-4.6417
X5.6339Y-5.6181
X5.6437Y-3.1594
X5.6437Y-4.1358
X5.687Y-2.7382
X5.687Y-3.7146
X5.7165Y-5.2323
X5.7165Y-6.2087
X5.7205Y-3.1988
X5.7205Y-4.1752
X5.7323Y-4.6417
X5.7323Y-5.6181
X5.7677Y-5.3661
X5.7677Y-6.3425
X5.8307Y-4.6417
X5.8307Y-5.6181
X5.8976Y-2.7461
X5.8976Y-3.7224
X5.9291Y-4.6417
X5.9291Y-5.6181
X6.0276Y-4.6417
X6.0276Y-5.5118
X6.0276Y-5.6181
X6.0276Y-6.4882
X6.0906Y-5.5157
X6.0906Y-6.4921
X6.126Y-4.6417
X6.126Y-5.6181
X6.1791Y-2.752
X6.1791Y-3.7283
X6.2244Y-4.6417
X6.2244Y-4.7244
X6.2244Y-5.6181
X6.2244Y-5.7008
X6.2362Y-5.4094
X6.2362Y-6.3858
X6.2421Y-3.4882
X6.2421Y-4.4646
X6.248Y-5.2126
X6.248Y-5.3189
X6.248Y-6.189
X6.248Y-6.2953
X6.2579Y-3.2264
X6.2579Y-4.2028
X6.2677Y-5.5118
X6.2677Y-6.4882
T2
X4.4429Y-5.2354
X4.5179Y-5.0354
X4.5929Y-5.2354
X4.6679Y-5.0354
X4.7429Y-5.2354
X4.8179Y-5.0354
X4.8929Y-5.2354
X4.9679Y-5.0354
X5.0429Y-5.2354
X5.1179Y-5.0354
X5.1929Y-5.2354
X5.2679Y-5.0354
X5.3429Y-5.2354
X5.4179Y-5.0354
X5.4929Y-5.2354
X5.5679Y-5.0354
X5.6429Y-5.2354
X5.7179Y-5.0354
X5.7929Y-5.2354
X5.8679Y-5.0354
X5.9429Y-5.2354
X4.4429Y-3.2807
X4.5179Y-3.0807
X4.5929Y-3.2807
X4.6679Y-3.0807
X4.7429Y-3.2807
X4.8179Y-3.0807
X4.8929Y-3.2807
X4.9679Y-3.0807
X5.0429Y-3.2807
X5.1179Y-3.0807
X5.1929Y-3.2807
X5.2679Y-3.0807
X5.3429Y-3.2807
X5.4179Y-3.0807
X5.4929Y-3.2807
X5.5679Y-3.0807
X5.6429Y-3.2807
X5.7179Y-3.0807
X5.7929Y-3.2807
X5.8679Y-3.0807
X5.9429Y-3.2807
X4.4429Y-6.2118
X4.5179Y-6.0118
X4.5929Y-6.2118
X4.6679Y-6.0118
X4.7429Y-6.2118
X4.8179Y-6.0118
X4.8929Y-6.2118
X4.9679Y-6.0118
X5.0429Y-6.2118
X5.1179Y-6.0118
X5.1929Y-6.2118
X5.2679Y-6.0118
X5.3429Y-6.2118
X5.4179Y-6.0118
X5.4929Y-6.2118
X5.5679Y-6.0118
X5.6429Y-6.2118
X5.7179Y-6.0118
X5.7929Y-6.2118
X5.8679Y-6.0118
X5.9429Y-6.2118
X4.4429Y-4.2571
X4.5179Y-4.0571
X4.5929Y-4.2571
X4.6679Y-4.0571
X4.7429Y-4.2571
X4.8179Y-4.0571
X4.8929Y-4.2571
X4.9679Y-4.0571
X5.0429Y-4.2571
X5.1179Y-4.0571
X5.1929Y-4.2571
X5.2679Y-4.0571
X5.3429Y-4.2571
X5.4179Y-4.0571
X5.4929Y-4.2571
X5.5679Y-4.0571
X5.6429Y-4.2571
X5.7179Y-4.0571
X5.7929Y-4.2571
X5.8679Y-4.0571
X5.9429Y-4.2571
T3
X4.1529Y-3.9271
X4.1529Y-4.0671
X6.2329Y-3.9271
X6.2329Y-4.0671
X4.1529Y-4.9054
X4.1529Y-5.0454
X6.2329Y-4.9054
X6.2329Y-5.0454
X4.1529Y-2.9507
X4.1529Y-3.0907
X6.2329Y-2.9507
X6.2329Y-3.0907
X4.1529Y-5.8818
X4.1529Y-6.0218
X6.2329Y-5.8818
X6.2329Y-6.0218
T0
M30
