G04 #@! TF.GenerationSoftware,KiCad,Pcbnew,(5.1.0)-1*
G04 #@! TF.CreationDate,2019-08-12T16:28:21-04:00*
G04 #@! TF.ProjectId,4x_PANEL,34785f50-414e-4454-9c2e-6b696361645f,rev?*
G04 #@! TF.SameCoordinates,Original*
G04 #@! TF.FileFunction,Copper,L2,Bot*
G04 #@! TF.FilePolarity,Positive*
%FSLAX46Y46*%
G04 Gerber Fmt 4.6, Leading zero omitted, Abs format (unit mm)*
G04 Created by KiCad (PCBNEW (5.1.0)-1) date 2019-08-12 16:28:21*
%MOMM*%
%LPD*%
G04 APERTURE LIST*
%ADD10R,2.500000X4.000000*%
%ADD11O,1.981200X3.962400*%
%ADD12C,0.600000*%
%ADD13C,0.250000*%
%ADD14C,0.254000*%
G04 APERTURE END LIST*
D10*
X150825000Y-114550000D03*
X147025000Y-114550000D03*
X143225000Y-114550000D03*
X139425000Y-114550000D03*
X135625000Y-114550000D03*
X131825000Y-114550000D03*
X128025000Y-114550000D03*
X124225000Y-114550000D03*
X120425000Y-114550000D03*
X116625000Y-114550000D03*
X112825000Y-114550000D03*
X150825000Y-139340501D03*
X147025000Y-139340501D03*
X143225000Y-139340501D03*
X139425000Y-139340501D03*
X135625000Y-139340501D03*
X131825000Y-139340501D03*
X128025000Y-139340501D03*
X124225000Y-139340501D03*
X120425000Y-139340501D03*
X116625000Y-139340501D03*
X112825000Y-139340501D03*
D11*
X150950000Y-132980000D03*
X149045000Y-127900000D03*
X147140000Y-132980000D03*
X145235000Y-127900000D03*
X143330000Y-132980000D03*
X141425000Y-127900000D03*
X139520000Y-132980000D03*
X137615000Y-127900000D03*
X135710000Y-132980000D03*
X133805000Y-127900000D03*
X131900000Y-132980000D03*
X129995000Y-127900000D03*
X128090000Y-132980000D03*
X126185000Y-127900000D03*
X124280000Y-132980000D03*
X122375000Y-127900000D03*
X120470000Y-132980000D03*
X118565000Y-127900000D03*
X116660000Y-132980000D03*
X114755000Y-127900000D03*
X112850000Y-132980000D03*
X112850000Y-83330000D03*
X114755000Y-78250000D03*
X116660000Y-83330000D03*
X118565000Y-78250000D03*
X120470000Y-83330000D03*
X122375000Y-78250000D03*
X124280000Y-83330000D03*
X126185000Y-78250000D03*
X128090000Y-83330000D03*
X129995000Y-78250000D03*
X131900000Y-83330000D03*
X133805000Y-78250000D03*
X135710000Y-83330000D03*
X137615000Y-78250000D03*
X139520000Y-83330000D03*
X141425000Y-78250000D03*
X143330000Y-83330000D03*
X145235000Y-78250000D03*
X147140000Y-83330000D03*
X149045000Y-78250000D03*
X150950000Y-83330000D03*
D10*
X112825000Y-89750000D03*
X116625000Y-89750000D03*
X120425000Y-89750000D03*
X124225000Y-89750000D03*
X128025000Y-89750000D03*
X131825000Y-89750000D03*
X135625000Y-89750000D03*
X139425000Y-89750000D03*
X143225000Y-89750000D03*
X147025000Y-89750000D03*
X150825000Y-89750000D03*
D11*
X150950000Y-108130000D03*
X149045000Y-103050000D03*
X147140000Y-108130000D03*
X145235000Y-103050000D03*
X143330000Y-108130000D03*
X141425000Y-103050000D03*
X139520000Y-108130000D03*
X137615000Y-103050000D03*
X135710000Y-108130000D03*
X133805000Y-103050000D03*
X131900000Y-108130000D03*
X129995000Y-103050000D03*
X128090000Y-108130000D03*
X126185000Y-103050000D03*
X124280000Y-108130000D03*
X122375000Y-103050000D03*
X120470000Y-108130000D03*
X118565000Y-103050000D03*
X116660000Y-108130000D03*
X114755000Y-103050000D03*
X112850000Y-108130000D03*
D10*
X112825000Y-164140501D03*
X116625000Y-164140501D03*
X120425000Y-164140501D03*
X124225000Y-164140501D03*
X128025000Y-164140501D03*
X131825000Y-164140501D03*
X135625000Y-164140501D03*
X139425000Y-164140501D03*
X143225000Y-164140501D03*
X147025000Y-164140501D03*
X150825000Y-164140501D03*
D11*
X112850000Y-157780000D03*
X114755000Y-152700000D03*
X116660000Y-157780000D03*
X118565000Y-152700000D03*
X120470000Y-157780000D03*
X122375000Y-152700000D03*
X124280000Y-157780000D03*
X126185000Y-152700000D03*
X128090000Y-157780000D03*
X129995000Y-152700000D03*
X131900000Y-157780000D03*
X133805000Y-152700000D03*
X135710000Y-157780000D03*
X137615000Y-152700000D03*
X139520000Y-157780000D03*
X141425000Y-152700000D03*
X143330000Y-157780000D03*
X145235000Y-152700000D03*
X147140000Y-157780000D03*
X149045000Y-152700000D03*
X150950000Y-157780000D03*
D12*
X124762500Y-111762500D03*
X140200000Y-160300000D03*
X124762500Y-86962500D03*
X140200000Y-135500000D03*
X140675000Y-160943721D03*
X140675000Y-136143721D03*
X126400000Y-85875000D03*
X126400000Y-110600000D03*
X129973790Y-130831210D03*
X130100000Y-155631210D03*
X128200000Y-86400000D03*
X128200000Y-111100000D03*
X128000000Y-129200000D03*
X128100000Y-154100000D03*
X145300000Y-106050000D03*
X143350000Y-105050000D03*
X135700000Y-101350000D03*
X139450000Y-101300000D03*
X131850000Y-100900000D03*
X129850000Y-106200000D03*
X134000000Y-110300000D03*
X113900000Y-93850000D03*
X117750000Y-94000000D03*
X128950000Y-94050000D03*
X135650000Y-94050000D03*
X139550000Y-94050000D03*
X144450000Y-94350000D03*
X149800000Y-94550000D03*
X156950000Y-94700000D03*
X158950000Y-106750000D03*
X158550000Y-113400000D03*
X104750000Y-114400000D03*
X104200000Y-107600000D03*
X109000000Y-105100000D03*
X105550000Y-94400000D03*
X158100000Y-142700000D03*
X155600000Y-142700000D03*
X153100000Y-142700000D03*
X150600000Y-142700000D03*
X148100000Y-142700000D03*
X145600000Y-142700000D03*
X143100000Y-142700000D03*
X140600000Y-142700000D03*
X138100000Y-142700000D03*
X135600000Y-142700000D03*
X133100000Y-142700000D03*
X130600000Y-142700000D03*
X128100000Y-142700000D03*
X125600000Y-142700000D03*
X123100000Y-142700000D03*
X120600000Y-142700000D03*
X118100000Y-142700000D03*
X115600000Y-142700000D03*
X113100000Y-142700000D03*
X110600000Y-142700000D03*
X108100000Y-142700000D03*
X105600000Y-142700000D03*
X153100000Y-164800000D03*
X158100000Y-144800000D03*
X105600000Y-144800000D03*
X105600000Y-164800000D03*
X108100000Y-164800000D03*
X128600000Y-149600000D03*
X135700000Y-150300000D03*
X131900000Y-151800000D03*
X146500000Y-161100000D03*
X137600000Y-157700000D03*
X145200000Y-157700000D03*
X104900000Y-157200000D03*
X105000000Y-159900000D03*
X104600000Y-162300000D03*
X154700000Y-164900000D03*
X158400000Y-162200000D03*
X158700000Y-159900000D03*
X158700000Y-157200000D03*
X159200000Y-164799998D03*
X158550000Y-88600000D03*
X139450000Y-76500000D03*
X145300000Y-81250000D03*
X143350000Y-80250000D03*
X129850000Y-81400000D03*
X131850000Y-76100000D03*
X134000000Y-85500000D03*
X113900000Y-69050000D03*
X135650000Y-69250000D03*
X139550000Y-69250000D03*
X144450000Y-69550000D03*
X149800000Y-69750000D03*
X156950000Y-69900000D03*
X104750000Y-89600000D03*
X104200000Y-82800000D03*
X128950000Y-69250000D03*
X117750000Y-69200000D03*
X135700000Y-76550000D03*
X158950000Y-81950000D03*
X105550000Y-69600000D03*
X109000000Y-80300000D03*
X150600000Y-117900000D03*
X148100000Y-117900000D03*
X108100000Y-117900000D03*
X131900000Y-127000000D03*
X105000000Y-135100000D03*
X145200000Y-132900000D03*
X104600000Y-137500000D03*
X154700000Y-140100000D03*
X130600000Y-117900000D03*
X105600000Y-140000000D03*
X153100000Y-140000000D03*
X137600000Y-132900000D03*
X158400000Y-137400000D03*
X120600000Y-117900000D03*
X158700000Y-135100000D03*
X158700000Y-132400000D03*
X159200000Y-139999998D03*
X135700000Y-125500000D03*
X133100000Y-117900000D03*
X146500000Y-136300000D03*
X104900000Y-132400000D03*
X143100000Y-117900000D03*
X110600000Y-117900000D03*
X118100000Y-117900000D03*
X135600000Y-117900000D03*
X125600000Y-117900000D03*
X158100000Y-120000000D03*
X113100000Y-117900000D03*
X123100000Y-117900000D03*
X128600000Y-124800000D03*
X122300000Y-136200000D03*
X138100000Y-117900000D03*
X128100000Y-117900000D03*
X115600000Y-117900000D03*
X105600000Y-120000000D03*
X145600000Y-117900000D03*
X140600000Y-117900000D03*
X105600000Y-117900000D03*
X108100000Y-140000000D03*
X158100000Y-117900000D03*
X153100000Y-117900000D03*
X155600000Y-117900000D03*
X122352417Y-161087512D03*
X128200000Y-104800000D03*
X128200000Y-80000000D03*
D13*
X146650000Y-111600000D02*
X147025000Y-111975000D01*
X143948847Y-111600000D02*
X146650000Y-111600000D01*
X131900000Y-107139400D02*
X133665620Y-105373780D01*
X131900000Y-108130000D02*
X131900000Y-107139400D01*
X147025000Y-111975000D02*
X147025000Y-114550000D01*
X133665620Y-105373780D02*
X140251344Y-105373781D01*
X140251344Y-105373781D02*
X142014390Y-107136827D01*
X142014390Y-107136827D02*
X142014390Y-109665543D01*
X142014390Y-109665543D02*
X143948847Y-111600000D01*
X147140000Y-156789400D02*
X147140000Y-157780000D01*
X145824390Y-155473790D02*
X147140000Y-156789400D01*
X135165057Y-155473790D02*
X145824390Y-155473790D01*
X134394390Y-156244457D02*
X135165057Y-155473790D01*
X134394390Y-159321111D02*
X134394390Y-156244457D01*
X131825000Y-161890501D02*
X134394390Y-159321111D01*
X131825000Y-164140501D02*
X131825000Y-161890501D01*
X142014390Y-84865543D02*
X143948847Y-86800000D01*
X147025000Y-87175000D02*
X147025000Y-89750000D01*
X133665620Y-80573780D02*
X140251344Y-80573781D01*
X140251344Y-80573781D02*
X142014390Y-82336827D01*
X142014390Y-82336827D02*
X142014390Y-84865543D01*
X131900000Y-82339400D02*
X133665620Y-80573780D01*
X131900000Y-83330000D02*
X131900000Y-82339400D01*
X143948847Y-86800000D02*
X146650000Y-86800000D01*
X146650000Y-86800000D02*
X147025000Y-87175000D01*
X134394390Y-131444457D02*
X135165057Y-130673790D01*
X147140000Y-131989400D02*
X147140000Y-132980000D01*
X134394390Y-134521111D02*
X134394390Y-131444457D01*
X145824390Y-130673790D02*
X147140000Y-131989400D01*
X135165057Y-130673790D02*
X145824390Y-130673790D01*
X131825000Y-139340501D02*
X131825000Y-137090501D01*
X131825000Y-137090501D02*
X134394390Y-134521111D01*
X135710000Y-114465000D02*
X135625000Y-114550000D01*
X135710000Y-108130000D02*
X135710000Y-114465000D01*
X135625000Y-157865000D02*
X135710000Y-157780000D01*
X135625000Y-164140501D02*
X135625000Y-157865000D01*
X135710000Y-83330000D02*
X135710000Y-89665000D01*
X135710000Y-89665000D02*
X135625000Y-89750000D01*
X135625000Y-133065000D02*
X135710000Y-132980000D01*
X135625000Y-139340501D02*
X135625000Y-133065000D01*
X139520000Y-114455000D02*
X139425000Y-114550000D01*
X139520000Y-108130000D02*
X139520000Y-114455000D01*
X139520000Y-160880000D02*
X139520000Y-157780000D01*
X139500000Y-160900000D02*
X139520000Y-160880000D01*
X139500000Y-163315501D02*
X139500000Y-160900000D01*
X139425000Y-164140501D02*
X139425000Y-163390501D01*
X139425000Y-163390501D02*
X139500000Y-163315501D01*
X139520000Y-89655000D02*
X139425000Y-89750000D01*
X139520000Y-83330000D02*
X139520000Y-89655000D01*
X139425000Y-138590501D02*
X139500000Y-138515501D01*
X139500000Y-136100000D02*
X139520000Y-136080000D01*
X139520000Y-136080000D02*
X139520000Y-132980000D01*
X139500000Y-138515501D02*
X139500000Y-136100000D01*
X139425000Y-139340501D02*
X139425000Y-138590501D01*
X124225000Y-112300000D02*
X124225000Y-114550000D01*
X125595610Y-106594457D02*
X125595610Y-110929390D01*
X124869390Y-105868237D02*
X125595610Y-106594457D01*
X124869390Y-101514457D02*
X124869390Y-105868237D01*
X147590010Y-105728857D02*
X147590010Y-101917447D01*
X148455610Y-106594457D02*
X147590010Y-105728857D01*
X147590010Y-101917447D02*
X144022553Y-98349990D01*
X147684943Y-110436210D02*
X148455610Y-109665543D01*
X144022553Y-98349990D02*
X128033857Y-98349990D01*
X144645610Y-110436210D02*
X147684943Y-110436210D01*
X128033857Y-98349990D02*
X124869390Y-101514457D01*
X143330000Y-109120600D02*
X144645610Y-110436210D01*
X148455610Y-109665543D02*
X148455610Y-106594457D01*
X143330000Y-108130000D02*
X143330000Y-109120600D01*
X125595610Y-110929390D02*
X124762500Y-111762500D01*
X124762500Y-111762500D02*
X124225000Y-112300000D01*
X140000000Y-160500000D02*
X140200000Y-160300000D01*
X140000000Y-161300000D02*
X140000000Y-160500000D01*
X140300000Y-161600000D02*
X140000000Y-161300000D01*
X143200000Y-161600000D02*
X140300000Y-161600000D01*
X143225000Y-164140501D02*
X143225000Y-161625000D01*
X143225000Y-161625000D02*
X143200000Y-161600000D01*
X144022553Y-73549990D02*
X128033857Y-73549990D01*
X143330000Y-83330000D02*
X143330000Y-84320600D01*
X124762500Y-86962500D02*
X124225000Y-87500000D01*
X125595610Y-86129390D02*
X124762500Y-86962500D01*
X143330000Y-84320600D02*
X144645610Y-85636210D01*
X124869390Y-76714457D02*
X124869390Y-81068237D01*
X125595610Y-81794457D02*
X125595610Y-86129390D01*
X128033857Y-73549990D02*
X124869390Y-76714457D01*
X147590010Y-80928857D02*
X147590010Y-77117447D01*
X148455610Y-81794457D02*
X147590010Y-80928857D01*
X148455610Y-84865543D02*
X148455610Y-81794457D01*
X124225000Y-87500000D02*
X124225000Y-89750000D01*
X124869390Y-81068237D02*
X125595610Y-81794457D01*
X144645610Y-85636210D02*
X147684943Y-85636210D01*
X147590010Y-77117447D02*
X144022553Y-73549990D01*
X147684943Y-85636210D02*
X148455610Y-84865543D01*
X140000000Y-136500000D02*
X140000000Y-135700000D01*
X140300000Y-136800000D02*
X140000000Y-136500000D01*
X143225000Y-136825000D02*
X143200000Y-136800000D01*
X140000000Y-135700000D02*
X140200000Y-135500000D01*
X143200000Y-136800000D02*
X140300000Y-136800000D01*
X143225000Y-139340501D02*
X143225000Y-136825000D01*
X126185000Y-128843800D02*
X126185000Y-128151410D01*
X124280000Y-130748800D02*
X126185000Y-128843800D01*
X124280000Y-132980000D02*
X124280000Y-130748800D01*
X126185000Y-128151410D02*
X126185000Y-127900000D01*
X126185000Y-153643800D02*
X126185000Y-152951410D01*
X126185000Y-152951410D02*
X126185000Y-152700000D01*
X124280000Y-157780000D02*
X124280000Y-155548800D01*
X124280000Y-155548800D02*
X126185000Y-153643800D01*
X147025000Y-164140501D02*
X147025000Y-163390501D01*
X143719501Y-160800000D02*
X140650010Y-160800000D01*
X147025000Y-164140501D02*
X147025000Y-164105499D01*
X147025000Y-164105499D02*
X143719501Y-160800000D01*
X140650010Y-160800000D02*
X140650010Y-160918731D01*
X140650010Y-160918731D02*
X140675000Y-160943721D01*
X140650010Y-136118731D02*
X140675000Y-136143721D01*
X147025000Y-139305499D02*
X143719501Y-136000000D01*
X147025000Y-139340501D02*
X147025000Y-139305499D01*
X143719501Y-136000000D02*
X140650010Y-136000000D01*
X147025000Y-139340501D02*
X147025000Y-138590501D01*
X140650010Y-136000000D02*
X140650010Y-136118731D01*
X126400000Y-85875000D02*
X126400000Y-85900000D01*
X126050000Y-85525000D02*
X126400000Y-85875000D01*
X126050000Y-81300000D02*
X126050000Y-85525000D01*
X147140000Y-77303847D02*
X143836153Y-74000000D01*
X147140000Y-83330000D02*
X147140000Y-77303847D01*
X143836153Y-74000000D02*
X131393847Y-74000000D01*
X131393847Y-74000000D02*
X127500610Y-77893237D01*
X127500610Y-77893237D02*
X127500610Y-79849390D01*
X127500610Y-79849390D02*
X126050000Y-81300000D01*
X126050000Y-106100000D02*
X126050000Y-110250000D01*
X147140000Y-108130000D02*
X147140000Y-102103847D01*
X126050000Y-110250000D02*
X126400000Y-110600000D01*
X143836153Y-98800000D02*
X131393847Y-98800000D01*
X147140000Y-102103847D02*
X143836153Y-98800000D01*
X131393847Y-98800000D02*
X127500610Y-102693237D01*
X127500610Y-102693237D02*
X127500610Y-104649390D01*
X127500610Y-104649390D02*
X126050000Y-106100000D01*
X129973790Y-127921210D02*
X129995000Y-127900000D01*
X129973790Y-130831210D02*
X129973790Y-127921210D01*
X130100000Y-152805000D02*
X129995000Y-152700000D01*
X130100000Y-155631210D02*
X130100000Y-152805000D01*
X128200000Y-89575000D02*
X128025000Y-89750000D01*
X128200000Y-86400000D02*
X128200000Y-89575000D01*
X128200000Y-114375000D02*
X128025000Y-114550000D01*
X128200000Y-111100000D02*
X128200000Y-114375000D01*
X128000000Y-132890000D02*
X128090000Y-132980000D01*
X128000000Y-129200000D02*
X128000000Y-132890000D01*
X128100000Y-157770000D02*
X128090000Y-157780000D01*
X128100000Y-154100000D02*
X128100000Y-157770000D01*
X150825000Y-108255000D02*
X150950000Y-108130000D01*
X150825000Y-114550000D02*
X150825000Y-108255000D01*
X150825000Y-157905000D02*
X150950000Y-157780000D01*
X150825000Y-164140501D02*
X150825000Y-157905000D01*
X150825000Y-164140501D02*
X158540503Y-164140501D01*
X158900001Y-164499999D02*
X159200000Y-164799998D01*
X158540503Y-164140501D02*
X158900001Y-164499999D01*
X150825000Y-89750000D02*
X150825000Y-83455000D01*
X150825000Y-83455000D02*
X150950000Y-83330000D01*
X158900001Y-139699999D02*
X159200000Y-139999998D01*
X158540503Y-139340501D02*
X158900001Y-139699999D01*
X150825000Y-133105000D02*
X150950000Y-132980000D01*
X150825000Y-139340501D02*
X150825000Y-133105000D01*
X150825000Y-139340501D02*
X158540503Y-139340501D01*
X122375000Y-126909400D02*
X122375000Y-127900000D01*
X120609380Y-125143780D02*
X122375000Y-126909400D01*
X114660067Y-125143780D02*
X120609380Y-125143780D01*
X111534390Y-128269457D02*
X114660067Y-125143780D01*
X111534390Y-134515543D02*
X111534390Y-128269457D01*
X112825000Y-135806153D02*
X111534390Y-134515543D01*
X112825000Y-139340501D02*
X112825000Y-135806153D01*
X120609380Y-149943780D02*
X122375000Y-151709400D01*
X114660067Y-149943780D02*
X120609380Y-149943780D01*
X111534390Y-153069457D02*
X114660067Y-149943780D01*
X111534390Y-160599891D02*
X111534390Y-153069457D01*
X112825000Y-161890501D02*
X111534390Y-160599891D01*
X122375000Y-151709400D02*
X122375000Y-152700000D01*
X112825000Y-164140501D02*
X112825000Y-161890501D01*
X116520620Y-75493780D02*
X114755000Y-77259400D01*
X122469933Y-75493780D02*
X116520620Y-75493780D01*
X123690610Y-76714457D02*
X122469933Y-75493780D01*
X123690610Y-79785543D02*
X123690610Y-76714457D01*
X122964390Y-80511763D02*
X123690610Y-79785543D01*
X114755000Y-77259400D02*
X114755000Y-78250000D01*
X122964390Y-83686763D02*
X122964390Y-80511763D01*
X120425000Y-86226153D02*
X122964390Y-83686763D01*
X120425000Y-89750000D02*
X120425000Y-86226153D01*
X114755000Y-102059400D02*
X114755000Y-103050000D01*
X116520620Y-100293780D02*
X114755000Y-102059400D01*
X122469933Y-100293780D02*
X116520620Y-100293780D01*
X123690610Y-101514457D02*
X122469933Y-100293780D01*
X123690610Y-104585543D02*
X123690610Y-101514457D01*
X122964390Y-105311763D02*
X123690610Y-104585543D01*
X122964390Y-109760610D02*
X122964390Y-105311763D01*
X120425000Y-112300000D02*
X122964390Y-109760610D01*
X120425000Y-114550000D02*
X120425000Y-112300000D01*
X114755000Y-126909400D02*
X114755000Y-127900000D01*
X116070610Y-125593790D02*
X114755000Y-126909400D01*
X119880610Y-126364457D02*
X119109943Y-125593790D01*
X119880610Y-129435543D02*
X119880610Y-126364457D01*
X119109943Y-125593790D02*
X116070610Y-125593790D01*
X119109943Y-130206210D02*
X119880610Y-129435543D01*
X119109943Y-134605558D02*
X119109943Y-130206210D01*
X116625000Y-137090501D02*
X119109943Y-134605558D01*
X116625000Y-139340501D02*
X116625000Y-137090501D01*
X114755000Y-151709400D02*
X114755000Y-152700000D01*
X116070610Y-150393790D02*
X114755000Y-151709400D01*
X119109943Y-150393790D02*
X116070610Y-150393790D01*
X119880610Y-151164457D02*
X119109943Y-150393790D01*
X119880610Y-155319390D02*
X119880610Y-151164457D01*
X119154390Y-156045610D02*
X119880610Y-155319390D01*
X119154390Y-160861111D02*
X119154390Y-156045610D01*
X116625000Y-163390501D02*
X119154390Y-160861111D01*
X116625000Y-164140501D02*
X116625000Y-163390501D01*
X118565000Y-80481200D02*
X118565000Y-78250000D01*
X118565000Y-85560000D02*
X118565000Y-80481200D01*
X116625000Y-87500000D02*
X118565000Y-85560000D01*
X116625000Y-89750000D02*
X116625000Y-87500000D01*
X118565000Y-105281200D02*
X118565000Y-103050000D01*
X118565000Y-109076153D02*
X118565000Y-105281200D01*
X116625000Y-111016153D02*
X118565000Y-109076153D01*
X116625000Y-114550000D02*
X116625000Y-111016153D01*
X117324400Y-127900000D02*
X118565000Y-127900000D01*
X116660000Y-128564400D02*
X117324400Y-127900000D01*
X116660000Y-132980000D02*
X116660000Y-128564400D01*
X117324400Y-152700000D02*
X118565000Y-152700000D01*
X116660000Y-153364400D02*
X117324400Y-152700000D01*
X116660000Y-157780000D02*
X116660000Y-153364400D01*
X120425000Y-164140501D02*
X120425000Y-163390501D01*
X120425000Y-139340501D02*
X120425000Y-138590501D01*
X145547563Y-127900000D02*
X145235000Y-127900000D01*
X147853773Y-130206210D02*
X145547563Y-127900000D01*
X150360610Y-126364457D02*
X150360610Y-129435543D01*
X149589943Y-130206210D02*
X147853773Y-130206210D01*
X147196153Y-123200000D02*
X150360610Y-126364457D01*
X127300000Y-123200000D02*
X147196153Y-123200000D01*
X120425000Y-137090501D02*
X122500000Y-135015501D01*
X122500000Y-135015501D02*
X122500000Y-131200000D01*
X150360610Y-129435543D02*
X149589943Y-130206210D01*
X120425000Y-139340501D02*
X120425000Y-137090501D01*
X122500000Y-131200000D02*
X124400000Y-129300000D01*
X124400000Y-129300000D02*
X124400000Y-126100000D01*
X124400000Y-126100000D02*
X127300000Y-123200000D01*
X147853773Y-155006210D02*
X145547563Y-152700000D01*
X149589943Y-155006210D02*
X147853773Y-155006210D01*
X122526153Y-159513717D02*
X122514379Y-159501943D01*
X122526153Y-159773847D02*
X122526153Y-159513717D01*
X122514379Y-159501943D02*
X122514379Y-156058057D01*
X121785610Y-160514390D02*
X122526153Y-159773847D01*
X124400000Y-150900000D02*
X127300000Y-148000000D01*
X120425000Y-164140501D02*
X120425000Y-161890501D01*
X122526153Y-156046283D02*
X122526153Y-155873847D01*
X120425000Y-161890501D02*
X121785610Y-160529891D01*
X147196153Y-148000000D02*
X150360610Y-151164457D01*
X122514379Y-156058057D02*
X122526153Y-156046283D01*
X145547563Y-152700000D02*
X145235000Y-152700000D01*
X150360610Y-154235543D02*
X149589943Y-155006210D01*
X122526153Y-155873847D02*
X124400000Y-154000000D01*
X121785610Y-160529891D02*
X121785610Y-160514390D01*
X124400000Y-154000000D02*
X124400000Y-150900000D01*
X127300000Y-148000000D02*
X147196153Y-148000000D01*
X150360610Y-151164457D02*
X150360610Y-154235543D01*
X122375000Y-77259400D02*
X122375000Y-78250000D01*
X118020057Y-75943790D02*
X121059390Y-75943790D01*
X117249390Y-76714457D02*
X118020057Y-75943790D01*
X117249390Y-79350610D02*
X117249390Y-76714457D01*
X115344390Y-81255610D02*
X117249390Y-79350610D01*
X115344390Y-86480610D02*
X115344390Y-81255610D01*
X112825000Y-89000000D02*
X115344390Y-86480610D01*
X121059390Y-75943790D02*
X122375000Y-77259400D01*
X112825000Y-89750000D02*
X112825000Y-89000000D01*
X121059390Y-100743790D02*
X122375000Y-102059400D01*
X118020057Y-100743790D02*
X121059390Y-100743790D01*
X117249390Y-101514457D02*
X118020057Y-100743790D01*
X117249390Y-103406763D02*
X117249390Y-101514457D01*
X115344390Y-105311763D02*
X117249390Y-103406763D01*
X122375000Y-102059400D02*
X122375000Y-103050000D01*
X115344390Y-109780610D02*
X115344390Y-105311763D01*
X112825000Y-112300000D02*
X115344390Y-109780610D01*
X112825000Y-114550000D02*
X112825000Y-112300000D01*
X124225000Y-164140501D02*
X124225000Y-163390501D01*
X124225000Y-139340501D02*
X124225000Y-138590501D01*
X145835600Y-123700000D02*
X149045000Y-126909400D01*
X149045000Y-126909400D02*
X149045000Y-127900000D01*
X124225000Y-139340501D02*
X124225000Y-137090501D01*
X127533847Y-123700000D02*
X145835600Y-123700000D01*
X124869390Y-126364457D02*
X127533847Y-123700000D01*
X122964390Y-131372020D02*
X124869390Y-129467020D01*
X124869390Y-129467020D02*
X124869390Y-126364457D01*
X122964390Y-135829891D02*
X122964390Y-131372020D01*
X124225000Y-137090501D02*
X122964390Y-135829891D01*
X122964390Y-159315543D02*
X122964390Y-156244457D01*
X124869390Y-154230610D02*
X124869390Y-151164457D01*
X145835600Y-148500000D02*
X149045000Y-151709400D01*
X127533847Y-148500000D02*
X145835600Y-148500000D01*
X122976164Y-156123836D02*
X124869390Y-154230610D01*
X124225000Y-164140501D02*
X124225000Y-160576153D01*
X122964390Y-156244457D02*
X122976164Y-156232683D01*
X124869390Y-151164457D02*
X127533847Y-148500000D01*
X124225000Y-160576153D02*
X122964390Y-159315543D01*
X122976164Y-156232683D02*
X122976164Y-156123836D01*
X149045000Y-151709400D02*
X149045000Y-152700000D01*
X131825000Y-113800000D02*
X128461210Y-110436210D01*
X131825000Y-114550000D02*
X131825000Y-113800000D01*
X128461210Y-110436210D02*
X127545057Y-110436210D01*
X127545057Y-110436210D02*
X126774390Y-109665543D01*
X126774390Y-109665543D02*
X126774390Y-106225610D01*
X126774390Y-106225610D02*
X128200000Y-104800000D01*
X131825000Y-89750000D02*
X131825000Y-89000000D01*
X131825000Y-89000000D02*
X128461210Y-85636210D01*
X127545057Y-85636210D02*
X126774390Y-84865543D01*
X126774390Y-84865543D02*
X126774390Y-81425610D01*
X126774390Y-81425610D02*
X128200000Y-80000000D01*
X128461210Y-85636210D02*
X127545057Y-85636210D01*
X140064943Y-105823790D02*
X141000000Y-106758847D01*
X135165057Y-105823790D02*
X140064943Y-105823790D01*
X128090000Y-109120600D02*
X129405610Y-110436210D01*
X128090000Y-108130000D02*
X128090000Y-109120600D01*
X129405610Y-110436210D02*
X132444943Y-110436210D01*
X134394390Y-108486763D02*
X134394390Y-106594457D01*
X132444943Y-110436210D02*
X134394390Y-108486763D01*
X134394390Y-106594457D02*
X135165057Y-105823790D01*
X143225000Y-112300000D02*
X143225000Y-114550000D01*
X141000000Y-110075000D02*
X143225000Y-112300000D01*
X141000000Y-106758847D02*
X141000000Y-110075000D01*
X143330000Y-158770600D02*
X143330000Y-157780000D01*
X144645610Y-160086210D02*
X143330000Y-158770600D01*
X147684943Y-160086210D02*
X144645610Y-160086210D01*
X148455610Y-159315543D02*
X147684943Y-160086210D01*
X148455610Y-156244457D02*
X148455610Y-159315543D01*
X133944381Y-156058056D02*
X134978657Y-155023780D01*
X133944380Y-158586773D02*
X133944381Y-156058056D01*
X132444943Y-160086210D02*
X133944380Y-158586773D01*
X147234933Y-155023780D02*
X148455610Y-156244457D01*
X129829291Y-160086210D02*
X132444943Y-160086210D01*
X128025000Y-161890501D02*
X129829291Y-160086210D01*
X134978657Y-155023780D02*
X147234933Y-155023780D01*
X128025000Y-164140501D02*
X128025000Y-161890501D01*
X128090000Y-84320600D02*
X129405610Y-85636210D01*
X129405610Y-85636210D02*
X132444943Y-85636210D01*
X134394390Y-81794457D02*
X135165057Y-81023790D01*
X128090000Y-83330000D02*
X128090000Y-84320600D01*
X135165057Y-81023790D02*
X140064943Y-81023790D01*
X134394390Y-83686763D02*
X134394390Y-81794457D01*
X143225000Y-87500000D02*
X143225000Y-89750000D01*
X141000000Y-85275000D02*
X143225000Y-87500000D01*
X141000000Y-81958847D02*
X141000000Y-85275000D01*
X132444943Y-85636210D02*
X134394390Y-83686763D01*
X140064943Y-81023790D02*
X141000000Y-81958847D01*
X128025000Y-137090501D02*
X129829291Y-135286210D01*
X128025000Y-139340501D02*
X128025000Y-137090501D01*
X148455610Y-131444457D02*
X148455610Y-134515543D01*
X133944380Y-133786773D02*
X133944381Y-131258056D01*
X143330000Y-133970600D02*
X143330000Y-132980000D01*
X132444943Y-135286210D02*
X133944380Y-133786773D01*
X144645610Y-135286210D02*
X143330000Y-133970600D01*
X133944381Y-131258056D02*
X134978657Y-130223780D01*
X134978657Y-130223780D02*
X147234933Y-130223780D01*
X148455610Y-134515543D02*
X147684943Y-135286210D01*
X129829291Y-135286210D02*
X132444943Y-135286210D01*
X147684943Y-135286210D02*
X144645610Y-135286210D01*
X147234933Y-130223780D02*
X148455610Y-131444457D01*
D14*
G36*
X160390001Y-99087191D02*
G01*
X160345868Y-98948068D01*
X160322290Y-98893058D01*
X160299508Y-98837783D01*
X160295125Y-98829677D01*
X160151836Y-98569034D01*
X160118048Y-98519687D01*
X160084936Y-98469850D01*
X160079062Y-98462749D01*
X159887876Y-98234904D01*
X159845146Y-98193060D01*
X159802987Y-98150605D01*
X159795846Y-98144781D01*
X159564045Y-97958408D01*
X159514031Y-97925680D01*
X159464398Y-97892202D01*
X159456261Y-97887876D01*
X159192675Y-97750077D01*
X159137219Y-97727672D01*
X159082068Y-97704488D01*
X159073246Y-97701825D01*
X158787915Y-97617847D01*
X158729175Y-97606642D01*
X158670558Y-97594609D01*
X158661386Y-97593710D01*
X158365178Y-97566753D01*
X158305361Y-97567171D01*
X158245544Y-97566753D01*
X158236372Y-97567653D01*
X157940569Y-97598742D01*
X157881972Y-97610771D01*
X157823210Y-97621980D01*
X157814388Y-97624644D01*
X157530257Y-97712598D01*
X157475139Y-97735768D01*
X157419650Y-97758186D01*
X157411514Y-97762513D01*
X157149878Y-97903979D01*
X157100311Y-97937412D01*
X157050232Y-97970183D01*
X157043091Y-97976008D01*
X156813915Y-98165597D01*
X156771774Y-98208034D01*
X156729024Y-98249897D01*
X156723150Y-98256998D01*
X156535164Y-98487492D01*
X156502049Y-98537334D01*
X156468265Y-98586674D01*
X156463882Y-98594781D01*
X156324246Y-98857399D01*
X156301458Y-98912687D01*
X156277886Y-98967683D01*
X156275162Y-98976487D01*
X156189193Y-99261225D01*
X156177570Y-99319925D01*
X156165137Y-99378419D01*
X156164174Y-99387584D01*
X156135150Y-99683596D01*
X156135150Y-99812406D01*
X156155801Y-99916697D01*
X156155800Y-103137952D01*
X156145478Y-103171300D01*
X156136932Y-103252622D01*
X156135299Y-103260870D01*
X156135299Y-103268164D01*
X156132016Y-103299404D01*
X156132016Y-103308620D01*
X156132165Y-103329898D01*
X156135298Y-103359700D01*
X156135298Y-103389680D01*
X156136262Y-103398844D01*
X156169416Y-103694424D01*
X156181853Y-103752936D01*
X156193471Y-103811614D01*
X156196196Y-103820413D01*
X156196197Y-103820419D01*
X156196199Y-103820425D01*
X156286130Y-104103928D01*
X156309691Y-104158899D01*
X156332491Y-104214217D01*
X156336874Y-104222323D01*
X156480163Y-104482965D01*
X156513947Y-104532305D01*
X156547062Y-104582147D01*
X156552936Y-104589247D01*
X156744122Y-104817094D01*
X156786853Y-104858939D01*
X156829013Y-104901395D01*
X156836155Y-104907219D01*
X157067956Y-105093591D01*
X157117968Y-105126318D01*
X157167600Y-105159795D01*
X157175737Y-105164121D01*
X157439323Y-105301921D01*
X157494783Y-105324328D01*
X157549931Y-105347511D01*
X157558753Y-105350174D01*
X157844083Y-105434152D01*
X157902837Y-105445360D01*
X157961441Y-105457390D01*
X157970613Y-105458289D01*
X158266820Y-105485246D01*
X158326637Y-105484828D01*
X158386455Y-105485246D01*
X158395626Y-105484347D01*
X158691430Y-105453257D01*
X158750017Y-105441230D01*
X158808787Y-105430020D01*
X158817609Y-105427356D01*
X159101740Y-105339403D01*
X159156883Y-105316223D01*
X159212348Y-105293814D01*
X159220485Y-105289487D01*
X159482121Y-105148021D01*
X159531705Y-105114576D01*
X159581768Y-105081816D01*
X159588909Y-105075992D01*
X159818085Y-104886401D01*
X159860224Y-104843966D01*
X159902974Y-104802103D01*
X159908848Y-104795002D01*
X160096834Y-104564509D01*
X160129938Y-104514682D01*
X160163733Y-104465327D01*
X160168116Y-104457221D01*
X160307753Y-104194603D01*
X160330560Y-104139269D01*
X160354114Y-104084314D01*
X160356838Y-104075515D01*
X160356840Y-104075509D01*
X160390001Y-103965674D01*
X160390000Y-116090000D01*
X152712248Y-116090000D01*
X152710000Y-114835750D01*
X152551250Y-114677000D01*
X152427000Y-114677000D01*
X152427000Y-114423000D01*
X152551250Y-114423000D01*
X152710000Y-114264250D01*
X152713072Y-112550000D01*
X152700812Y-112425518D01*
X152664502Y-112305820D01*
X152605537Y-112195506D01*
X152526185Y-112098815D01*
X152429494Y-112019463D01*
X152319180Y-111960498D01*
X152199482Y-111924188D01*
X152075000Y-111911928D01*
X151110750Y-111915000D01*
X150952000Y-112073750D01*
X150952000Y-112173000D01*
X150698000Y-112173000D01*
X150698000Y-112073750D01*
X150539250Y-111915000D01*
X149575000Y-111911928D01*
X149450518Y-111924188D01*
X149330820Y-111960498D01*
X149220506Y-112019463D01*
X149123815Y-112098815D01*
X149062933Y-112173000D01*
X148787067Y-112173000D01*
X148726185Y-112098815D01*
X148629494Y-112019463D01*
X148519180Y-111960498D01*
X148399482Y-111924188D01*
X148275000Y-111911928D01*
X147782465Y-111911928D01*
X147774003Y-111826014D01*
X147730546Y-111682753D01*
X147659974Y-111550724D01*
X147565001Y-111434999D01*
X147535998Y-111411197D01*
X147321011Y-111196210D01*
X147647621Y-111196210D01*
X147684943Y-111199886D01*
X147722265Y-111196210D01*
X147722276Y-111196210D01*
X147833929Y-111185213D01*
X147977190Y-111141756D01*
X148109219Y-111071184D01*
X148224944Y-110976211D01*
X148248746Y-110947208D01*
X148966614Y-110229341D01*
X148995611Y-110205544D01*
X149090584Y-110089819D01*
X149161156Y-109957790D01*
X149204613Y-109814529D01*
X149215610Y-109702876D01*
X149215610Y-109702868D01*
X149219286Y-109665543D01*
X149215610Y-109628218D01*
X149215610Y-108257000D01*
X149324400Y-108257000D01*
X149324400Y-109247600D01*
X149380412Y-109562299D01*
X149496742Y-109860023D01*
X149668920Y-110129332D01*
X149890329Y-110359876D01*
X150152461Y-110542795D01*
X150445242Y-110671060D01*
X150571041Y-110701411D01*
X150823000Y-110581942D01*
X150823000Y-108257000D01*
X151077000Y-108257000D01*
X151077000Y-110581942D01*
X151328959Y-110701411D01*
X151454758Y-110671060D01*
X151747539Y-110542795D01*
X152009671Y-110359876D01*
X152231080Y-110129332D01*
X152403258Y-109860023D01*
X152519588Y-109562299D01*
X152575600Y-109247600D01*
X152575600Y-108257000D01*
X151077000Y-108257000D01*
X150823000Y-108257000D01*
X149324400Y-108257000D01*
X149215610Y-108257000D01*
X149215610Y-107012400D01*
X149324400Y-107012400D01*
X149324400Y-108003000D01*
X150823000Y-108003000D01*
X150823000Y-105678058D01*
X151077000Y-105678058D01*
X151077000Y-108003000D01*
X152575600Y-108003000D01*
X152575600Y-107012400D01*
X152519588Y-106697701D01*
X152403258Y-106399977D01*
X152231080Y-106130668D01*
X152009671Y-105900124D01*
X151747539Y-105717205D01*
X151454758Y-105588940D01*
X151328959Y-105558589D01*
X151077000Y-105678058D01*
X150823000Y-105678058D01*
X150571041Y-105558589D01*
X150445242Y-105588940D01*
X150152461Y-105717205D01*
X149890329Y-105900124D01*
X149668920Y-106130668D01*
X149496742Y-106399977D01*
X149380412Y-106697701D01*
X149324400Y-107012400D01*
X149215610Y-107012400D01*
X149215610Y-106631779D01*
X149219286Y-106594456D01*
X149215610Y-106557133D01*
X149215610Y-106557124D01*
X149204613Y-106445471D01*
X149161156Y-106302210D01*
X149090584Y-106170181D01*
X148995611Y-106054456D01*
X148966613Y-106030658D01*
X148514322Y-105578367D01*
X148726327Y-105642678D01*
X149045000Y-105674065D01*
X149363672Y-105642678D01*
X149670099Y-105549725D01*
X149952504Y-105398777D01*
X150200034Y-105195634D01*
X150403177Y-104948105D01*
X150554125Y-104665700D01*
X150647078Y-104359273D01*
X150670600Y-104120454D01*
X150670600Y-101979546D01*
X150647078Y-101740727D01*
X150554125Y-101434300D01*
X150403177Y-101151895D01*
X150200034Y-100904366D01*
X149952505Y-100701223D01*
X149670100Y-100550275D01*
X149363673Y-100457322D01*
X149045000Y-100425935D01*
X148726328Y-100457322D01*
X148419901Y-100550275D01*
X148137496Y-100701223D01*
X147889967Y-100904366D01*
X147782581Y-101035216D01*
X144586357Y-97838993D01*
X144562554Y-97809989D01*
X144446829Y-97715016D01*
X144314800Y-97644444D01*
X144171539Y-97600987D01*
X144059886Y-97589990D01*
X144059875Y-97589990D01*
X144022553Y-97586314D01*
X143985231Y-97589990D01*
X128071179Y-97589990D01*
X128033856Y-97586314D01*
X127996533Y-97589990D01*
X127996524Y-97589990D01*
X127884871Y-97600987D01*
X127744824Y-97643469D01*
X127741610Y-97644444D01*
X127609580Y-97715016D01*
X127551704Y-97762514D01*
X127493856Y-97809989D01*
X127470058Y-97838987D01*
X124358393Y-100950653D01*
X124329389Y-100974456D01*
X124280000Y-101034637D01*
X124254409Y-101003454D01*
X124230611Y-100974456D01*
X124201613Y-100950658D01*
X123033737Y-99782783D01*
X123009934Y-99753779D01*
X122894209Y-99658806D01*
X122762180Y-99588234D01*
X122618919Y-99544777D01*
X122507266Y-99533780D01*
X122507255Y-99533780D01*
X122469933Y-99530104D01*
X122432611Y-99533780D01*
X116557945Y-99533780D01*
X116520620Y-99530104D01*
X116483295Y-99533780D01*
X116483287Y-99533780D01*
X116371634Y-99544777D01*
X116228373Y-99588234D01*
X116096344Y-99658806D01*
X115980619Y-99753779D01*
X115956821Y-99782777D01*
X115233725Y-100505873D01*
X115073673Y-100457322D01*
X114755000Y-100425935D01*
X114436328Y-100457322D01*
X114129901Y-100550275D01*
X113847496Y-100701223D01*
X113599967Y-100904366D01*
X113396824Y-101151895D01*
X113245876Y-101434300D01*
X113152923Y-101740727D01*
X113129401Y-101979546D01*
X113129400Y-104120453D01*
X113152922Y-104359272D01*
X113245875Y-104665699D01*
X113396823Y-104948104D01*
X113599966Y-105195634D01*
X113847495Y-105398777D01*
X114129900Y-105549725D01*
X114436327Y-105642678D01*
X114584391Y-105657261D01*
X114584390Y-109465808D01*
X114382911Y-109667287D01*
X114452078Y-109439273D01*
X114475600Y-109200454D01*
X114475600Y-107059546D01*
X114452078Y-106820727D01*
X114359125Y-106514300D01*
X114208177Y-106231895D01*
X114005034Y-105984366D01*
X113757505Y-105781223D01*
X113475100Y-105630275D01*
X113168673Y-105537322D01*
X112850000Y-105505935D01*
X112531328Y-105537322D01*
X112224901Y-105630275D01*
X111942496Y-105781223D01*
X111694967Y-105984366D01*
X111491824Y-106231895D01*
X111340876Y-106514300D01*
X111247923Y-106820727D01*
X111224401Y-107059546D01*
X111224400Y-109200453D01*
X111247922Y-109439272D01*
X111340875Y-109745699D01*
X111491823Y-110028104D01*
X111694966Y-110275634D01*
X111942495Y-110478777D01*
X112224900Y-110629725D01*
X112531327Y-110722678D01*
X112850000Y-110754065D01*
X113168672Y-110722678D01*
X113396688Y-110653511D01*
X112313998Y-111736201D01*
X112285000Y-111759999D01*
X112261202Y-111788997D01*
X112261201Y-111788998D01*
X112190026Y-111875724D01*
X112170674Y-111911928D01*
X111575000Y-111911928D01*
X111450518Y-111924188D01*
X111330820Y-111960498D01*
X111220506Y-112019463D01*
X111123815Y-112098815D01*
X111044463Y-112195506D01*
X110985498Y-112305820D01*
X110949188Y-112425518D01*
X110936928Y-112550000D01*
X110936928Y-116090000D01*
X103410000Y-116090000D01*
X103410000Y-103964810D01*
X103454130Y-104103928D01*
X103477691Y-104158899D01*
X103500491Y-104214217D01*
X103504874Y-104222323D01*
X103648163Y-104482965D01*
X103681947Y-104532305D01*
X103715062Y-104582147D01*
X103720936Y-104589247D01*
X103912122Y-104817094D01*
X103954853Y-104858939D01*
X103997013Y-104901395D01*
X104004155Y-104907219D01*
X104235956Y-105093591D01*
X104285968Y-105126318D01*
X104335600Y-105159795D01*
X104343737Y-105164121D01*
X104607323Y-105301921D01*
X104662783Y-105324328D01*
X104717931Y-105347511D01*
X104726753Y-105350174D01*
X105012083Y-105434152D01*
X105070837Y-105445360D01*
X105129441Y-105457390D01*
X105138613Y-105458289D01*
X105434820Y-105485246D01*
X105494637Y-105484828D01*
X105554455Y-105485246D01*
X105563626Y-105484347D01*
X105859430Y-105453257D01*
X105918017Y-105441230D01*
X105976787Y-105430020D01*
X105985609Y-105427356D01*
X106269740Y-105339403D01*
X106324883Y-105316223D01*
X106380348Y-105293814D01*
X106388485Y-105289487D01*
X106650121Y-105148021D01*
X106699705Y-105114576D01*
X106749768Y-105081816D01*
X106756909Y-105075992D01*
X106986085Y-104886401D01*
X107028224Y-104843966D01*
X107070974Y-104802103D01*
X107076848Y-104795002D01*
X107264834Y-104564509D01*
X107297938Y-104514682D01*
X107331733Y-104465327D01*
X107336116Y-104457221D01*
X107475753Y-104194603D01*
X107498560Y-104139269D01*
X107522114Y-104084314D01*
X107524838Y-104075515D01*
X107524840Y-104075509D01*
X107610806Y-103790773D01*
X107622422Y-103732108D01*
X107634862Y-103673584D01*
X107635825Y-103664419D01*
X107664850Y-103368406D01*
X107664850Y-103239596D01*
X107644200Y-103135305D01*
X107644200Y-99914047D01*
X107654522Y-99880699D01*
X107663068Y-99799377D01*
X107664701Y-99791129D01*
X107664701Y-99783835D01*
X107667984Y-99752594D01*
X107667984Y-99743379D01*
X107667835Y-99722100D01*
X107664702Y-99692298D01*
X107664702Y-99662319D01*
X107663738Y-99653154D01*
X107630584Y-99357575D01*
X107618151Y-99299081D01*
X107606528Y-99240381D01*
X107603803Y-99231578D01*
X107513868Y-98948068D01*
X107490290Y-98893058D01*
X107467508Y-98837783D01*
X107463125Y-98829677D01*
X107319836Y-98569034D01*
X107286048Y-98519687D01*
X107252936Y-98469850D01*
X107247062Y-98462749D01*
X107055876Y-98234904D01*
X107013146Y-98193060D01*
X106970987Y-98150605D01*
X106963846Y-98144781D01*
X106732045Y-97958408D01*
X106682031Y-97925680D01*
X106632398Y-97892202D01*
X106624261Y-97887876D01*
X106360675Y-97750077D01*
X106305219Y-97727672D01*
X106250068Y-97704488D01*
X106241246Y-97701825D01*
X105955915Y-97617847D01*
X105897175Y-97606642D01*
X105838558Y-97594609D01*
X105829386Y-97593710D01*
X105533178Y-97566753D01*
X105473361Y-97567171D01*
X105413544Y-97566753D01*
X105404372Y-97567653D01*
X105108569Y-97598742D01*
X105049972Y-97610771D01*
X104991210Y-97621980D01*
X104982388Y-97624644D01*
X104698257Y-97712598D01*
X104643139Y-97735768D01*
X104587650Y-97758186D01*
X104579514Y-97762513D01*
X104317878Y-97903979D01*
X104268311Y-97937412D01*
X104218232Y-97970183D01*
X104211091Y-97976008D01*
X103981915Y-98165597D01*
X103939774Y-98208034D01*
X103897024Y-98249897D01*
X103891150Y-98256998D01*
X103703164Y-98487492D01*
X103670049Y-98537334D01*
X103636265Y-98586674D01*
X103631882Y-98594781D01*
X103492246Y-98857399D01*
X103469458Y-98912687D01*
X103445886Y-98967683D01*
X103443162Y-98976487D01*
X103410000Y-99086323D01*
X103410000Y-92710000D01*
X160390001Y-92710000D01*
X160390001Y-99087191D01*
X160390001Y-99087191D01*
G37*
X160390001Y-99087191D02*
X160345868Y-98948068D01*
X160322290Y-98893058D01*
X160299508Y-98837783D01*
X160295125Y-98829677D01*
X160151836Y-98569034D01*
X160118048Y-98519687D01*
X160084936Y-98469850D01*
X160079062Y-98462749D01*
X159887876Y-98234904D01*
X159845146Y-98193060D01*
X159802987Y-98150605D01*
X159795846Y-98144781D01*
X159564045Y-97958408D01*
X159514031Y-97925680D01*
X159464398Y-97892202D01*
X159456261Y-97887876D01*
X159192675Y-97750077D01*
X159137219Y-97727672D01*
X159082068Y-97704488D01*
X159073246Y-97701825D01*
X158787915Y-97617847D01*
X158729175Y-97606642D01*
X158670558Y-97594609D01*
X158661386Y-97593710D01*
X158365178Y-97566753D01*
X158305361Y-97567171D01*
X158245544Y-97566753D01*
X158236372Y-97567653D01*
X157940569Y-97598742D01*
X157881972Y-97610771D01*
X157823210Y-97621980D01*
X157814388Y-97624644D01*
X157530257Y-97712598D01*
X157475139Y-97735768D01*
X157419650Y-97758186D01*
X157411514Y-97762513D01*
X157149878Y-97903979D01*
X157100311Y-97937412D01*
X157050232Y-97970183D01*
X157043091Y-97976008D01*
X156813915Y-98165597D01*
X156771774Y-98208034D01*
X156729024Y-98249897D01*
X156723150Y-98256998D01*
X156535164Y-98487492D01*
X156502049Y-98537334D01*
X156468265Y-98586674D01*
X156463882Y-98594781D01*
X156324246Y-98857399D01*
X156301458Y-98912687D01*
X156277886Y-98967683D01*
X156275162Y-98976487D01*
X156189193Y-99261225D01*
X156177570Y-99319925D01*
X156165137Y-99378419D01*
X156164174Y-99387584D01*
X156135150Y-99683596D01*
X156135150Y-99812406D01*
X156155801Y-99916697D01*
X156155800Y-103137952D01*
X156145478Y-103171300D01*
X156136932Y-103252622D01*
X156135299Y-103260870D01*
X156135299Y-103268164D01*
X156132016Y-103299404D01*
X156132016Y-103308620D01*
X156132165Y-103329898D01*
X156135298Y-103359700D01*
X156135298Y-103389680D01*
X156136262Y-103398844D01*
X156169416Y-103694424D01*
X156181853Y-103752936D01*
X156193471Y-103811614D01*
X156196196Y-103820413D01*
X156196197Y-103820419D01*
X156196199Y-103820425D01*
X156286130Y-104103928D01*
X156309691Y-104158899D01*
X156332491Y-104214217D01*
X156336874Y-104222323D01*
X156480163Y-104482965D01*
X156513947Y-104532305D01*
X156547062Y-104582147D01*
X156552936Y-104589247D01*
X156744122Y-104817094D01*
X156786853Y-104858939D01*
X156829013Y-104901395D01*
X156836155Y-104907219D01*
X157067956Y-105093591D01*
X157117968Y-105126318D01*
X157167600Y-105159795D01*
X157175737Y-105164121D01*
X157439323Y-105301921D01*
X157494783Y-105324328D01*
X157549931Y-105347511D01*
X157558753Y-105350174D01*
X157844083Y-105434152D01*
X157902837Y-105445360D01*
X157961441Y-105457390D01*
X157970613Y-105458289D01*
X158266820Y-105485246D01*
X158326637Y-105484828D01*
X158386455Y-105485246D01*
X158395626Y-105484347D01*
X158691430Y-105453257D01*
X158750017Y-105441230D01*
X158808787Y-105430020D01*
X158817609Y-105427356D01*
X159101740Y-105339403D01*
X159156883Y-105316223D01*
X159212348Y-105293814D01*
X159220485Y-105289487D01*
X159482121Y-105148021D01*
X159531705Y-105114576D01*
X159581768Y-105081816D01*
X159588909Y-105075992D01*
X159818085Y-104886401D01*
X159860224Y-104843966D01*
X159902974Y-104802103D01*
X159908848Y-104795002D01*
X160096834Y-104564509D01*
X160129938Y-104514682D01*
X160163733Y-104465327D01*
X160168116Y-104457221D01*
X160307753Y-104194603D01*
X160330560Y-104139269D01*
X160354114Y-104084314D01*
X160356838Y-104075515D01*
X160356840Y-104075509D01*
X160390001Y-103965674D01*
X160390000Y-116090000D01*
X152712248Y-116090000D01*
X152710000Y-114835750D01*
X152551250Y-114677000D01*
X152427000Y-114677000D01*
X152427000Y-114423000D01*
X152551250Y-114423000D01*
X152710000Y-114264250D01*
X152713072Y-112550000D01*
X152700812Y-112425518D01*
X152664502Y-112305820D01*
X152605537Y-112195506D01*
X152526185Y-112098815D01*
X152429494Y-112019463D01*
X152319180Y-111960498D01*
X152199482Y-111924188D01*
X152075000Y-111911928D01*
X151110750Y-111915000D01*
X150952000Y-112073750D01*
X150952000Y-112173000D01*
X150698000Y-112173000D01*
X150698000Y-112073750D01*
X150539250Y-111915000D01*
X149575000Y-111911928D01*
X149450518Y-111924188D01*
X149330820Y-111960498D01*
X149220506Y-112019463D01*
X149123815Y-112098815D01*
X149062933Y-112173000D01*
X148787067Y-112173000D01*
X148726185Y-112098815D01*
X148629494Y-112019463D01*
X148519180Y-111960498D01*
X148399482Y-111924188D01*
X148275000Y-111911928D01*
X147782465Y-111911928D01*
X147774003Y-111826014D01*
X147730546Y-111682753D01*
X147659974Y-111550724D01*
X147565001Y-111434999D01*
X147535998Y-111411197D01*
X147321011Y-111196210D01*
X147647621Y-111196210D01*
X147684943Y-111199886D01*
X147722265Y-111196210D01*
X147722276Y-111196210D01*
X147833929Y-111185213D01*
X147977190Y-111141756D01*
X148109219Y-111071184D01*
X148224944Y-110976211D01*
X148248746Y-110947208D01*
X148966614Y-110229341D01*
X148995611Y-110205544D01*
X149090584Y-110089819D01*
X149161156Y-109957790D01*
X149204613Y-109814529D01*
X149215610Y-109702876D01*
X149215610Y-109702868D01*
X149219286Y-109665543D01*
X149215610Y-109628218D01*
X149215610Y-108257000D01*
X149324400Y-108257000D01*
X149324400Y-109247600D01*
X149380412Y-109562299D01*
X149496742Y-109860023D01*
X149668920Y-110129332D01*
X149890329Y-110359876D01*
X150152461Y-110542795D01*
X150445242Y-110671060D01*
X150571041Y-110701411D01*
X150823000Y-110581942D01*
X150823000Y-108257000D01*
X151077000Y-108257000D01*
X151077000Y-110581942D01*
X151328959Y-110701411D01*
X151454758Y-110671060D01*
X151747539Y-110542795D01*
X152009671Y-110359876D01*
X152231080Y-110129332D01*
X152403258Y-109860023D01*
X152519588Y-109562299D01*
X152575600Y-109247600D01*
X152575600Y-108257000D01*
X151077000Y-108257000D01*
X150823000Y-108257000D01*
X149324400Y-108257000D01*
X149215610Y-108257000D01*
X149215610Y-107012400D01*
X149324400Y-107012400D01*
X149324400Y-108003000D01*
X150823000Y-108003000D01*
X150823000Y-105678058D01*
X151077000Y-105678058D01*
X151077000Y-108003000D01*
X152575600Y-108003000D01*
X152575600Y-107012400D01*
X152519588Y-106697701D01*
X152403258Y-106399977D01*
X152231080Y-106130668D01*
X152009671Y-105900124D01*
X151747539Y-105717205D01*
X151454758Y-105588940D01*
X151328959Y-105558589D01*
X151077000Y-105678058D01*
X150823000Y-105678058D01*
X150571041Y-105558589D01*
X150445242Y-105588940D01*
X150152461Y-105717205D01*
X149890329Y-105900124D01*
X149668920Y-106130668D01*
X149496742Y-106399977D01*
X149380412Y-106697701D01*
X149324400Y-107012400D01*
X149215610Y-107012400D01*
X149215610Y-106631779D01*
X149219286Y-106594456D01*
X149215610Y-106557133D01*
X149215610Y-106557124D01*
X149204613Y-106445471D01*
X149161156Y-106302210D01*
X149090584Y-106170181D01*
X148995611Y-106054456D01*
X148966613Y-106030658D01*
X148514322Y-105578367D01*
X148726327Y-105642678D01*
X149045000Y-105674065D01*
X149363672Y-105642678D01*
X149670099Y-105549725D01*
X149952504Y-105398777D01*
X150200034Y-105195634D01*
X150403177Y-104948105D01*
X150554125Y-104665700D01*
X150647078Y-104359273D01*
X150670600Y-104120454D01*
X150670600Y-101979546D01*
X150647078Y-101740727D01*
X150554125Y-101434300D01*
X150403177Y-101151895D01*
X150200034Y-100904366D01*
X149952505Y-100701223D01*
X149670100Y-100550275D01*
X149363673Y-100457322D01*
X149045000Y-100425935D01*
X148726328Y-100457322D01*
X148419901Y-100550275D01*
X148137496Y-100701223D01*
X147889967Y-100904366D01*
X147782581Y-101035216D01*
X144586357Y-97838993D01*
X144562554Y-97809989D01*
X144446829Y-97715016D01*
X144314800Y-97644444D01*
X144171539Y-97600987D01*
X144059886Y-97589990D01*
X144059875Y-97589990D01*
X144022553Y-97586314D01*
X143985231Y-97589990D01*
X128071179Y-97589990D01*
X128033856Y-97586314D01*
X127996533Y-97589990D01*
X127996524Y-97589990D01*
X127884871Y-97600987D01*
X127744824Y-97643469D01*
X127741610Y-97644444D01*
X127609580Y-97715016D01*
X127551704Y-97762514D01*
X127493856Y-97809989D01*
X127470058Y-97838987D01*
X124358393Y-100950653D01*
X124329389Y-100974456D01*
X124280000Y-101034637D01*
X124254409Y-101003454D01*
X124230611Y-100974456D01*
X124201613Y-100950658D01*
X123033737Y-99782783D01*
X123009934Y-99753779D01*
X122894209Y-99658806D01*
X122762180Y-99588234D01*
X122618919Y-99544777D01*
X122507266Y-99533780D01*
X122507255Y-99533780D01*
X122469933Y-99530104D01*
X122432611Y-99533780D01*
X116557945Y-99533780D01*
X116520620Y-99530104D01*
X116483295Y-99533780D01*
X116483287Y-99533780D01*
X116371634Y-99544777D01*
X116228373Y-99588234D01*
X116096344Y-99658806D01*
X115980619Y-99753779D01*
X115956821Y-99782777D01*
X115233725Y-100505873D01*
X115073673Y-100457322D01*
X114755000Y-100425935D01*
X114436328Y-100457322D01*
X114129901Y-100550275D01*
X113847496Y-100701223D01*
X113599967Y-100904366D01*
X113396824Y-101151895D01*
X113245876Y-101434300D01*
X113152923Y-101740727D01*
X113129401Y-101979546D01*
X113129400Y-104120453D01*
X113152922Y-104359272D01*
X113245875Y-104665699D01*
X113396823Y-104948104D01*
X113599966Y-105195634D01*
X113847495Y-105398777D01*
X114129900Y-105549725D01*
X114436327Y-105642678D01*
X114584391Y-105657261D01*
X114584390Y-109465808D01*
X114382911Y-109667287D01*
X114452078Y-109439273D01*
X114475600Y-109200454D01*
X114475600Y-107059546D01*
X114452078Y-106820727D01*
X114359125Y-106514300D01*
X114208177Y-106231895D01*
X114005034Y-105984366D01*
X113757505Y-105781223D01*
X113475100Y-105630275D01*
X113168673Y-105537322D01*
X112850000Y-105505935D01*
X112531328Y-105537322D01*
X112224901Y-105630275D01*
X111942496Y-105781223D01*
X111694967Y-105984366D01*
X111491824Y-106231895D01*
X111340876Y-106514300D01*
X111247923Y-106820727D01*
X111224401Y-107059546D01*
X111224400Y-109200453D01*
X111247922Y-109439272D01*
X111340875Y-109745699D01*
X111491823Y-110028104D01*
X111694966Y-110275634D01*
X111942495Y-110478777D01*
X112224900Y-110629725D01*
X112531327Y-110722678D01*
X112850000Y-110754065D01*
X113168672Y-110722678D01*
X113396688Y-110653511D01*
X112313998Y-111736201D01*
X112285000Y-111759999D01*
X112261202Y-111788997D01*
X112261201Y-111788998D01*
X112190026Y-111875724D01*
X112170674Y-111911928D01*
X111575000Y-111911928D01*
X111450518Y-111924188D01*
X111330820Y-111960498D01*
X111220506Y-112019463D01*
X111123815Y-112098815D01*
X111044463Y-112195506D01*
X110985498Y-112305820D01*
X110949188Y-112425518D01*
X110936928Y-112550000D01*
X110936928Y-116090000D01*
X103410000Y-116090000D01*
X103410000Y-103964810D01*
X103454130Y-104103928D01*
X103477691Y-104158899D01*
X103500491Y-104214217D01*
X103504874Y-104222323D01*
X103648163Y-104482965D01*
X103681947Y-104532305D01*
X103715062Y-104582147D01*
X103720936Y-104589247D01*
X103912122Y-104817094D01*
X103954853Y-104858939D01*
X103997013Y-104901395D01*
X104004155Y-104907219D01*
X104235956Y-105093591D01*
X104285968Y-105126318D01*
X104335600Y-105159795D01*
X104343737Y-105164121D01*
X104607323Y-105301921D01*
X104662783Y-105324328D01*
X104717931Y-105347511D01*
X104726753Y-105350174D01*
X105012083Y-105434152D01*
X105070837Y-105445360D01*
X105129441Y-105457390D01*
X105138613Y-105458289D01*
X105434820Y-105485246D01*
X105494637Y-105484828D01*
X105554455Y-105485246D01*
X105563626Y-105484347D01*
X105859430Y-105453257D01*
X105918017Y-105441230D01*
X105976787Y-105430020D01*
X105985609Y-105427356D01*
X106269740Y-105339403D01*
X106324883Y-105316223D01*
X106380348Y-105293814D01*
X106388485Y-105289487D01*
X106650121Y-105148021D01*
X106699705Y-105114576D01*
X106749768Y-105081816D01*
X106756909Y-105075992D01*
X106986085Y-104886401D01*
X107028224Y-104843966D01*
X107070974Y-104802103D01*
X107076848Y-104795002D01*
X107264834Y-104564509D01*
X107297938Y-104514682D01*
X107331733Y-104465327D01*
X107336116Y-104457221D01*
X107475753Y-104194603D01*
X107498560Y-104139269D01*
X107522114Y-104084314D01*
X107524838Y-104075515D01*
X107524840Y-104075509D01*
X107610806Y-103790773D01*
X107622422Y-103732108D01*
X107634862Y-103673584D01*
X107635825Y-103664419D01*
X107664850Y-103368406D01*
X107664850Y-103239596D01*
X107644200Y-103135305D01*
X107644200Y-99914047D01*
X107654522Y-99880699D01*
X107663068Y-99799377D01*
X107664701Y-99791129D01*
X107664701Y-99783835D01*
X107667984Y-99752594D01*
X107667984Y-99743379D01*
X107667835Y-99722100D01*
X107664702Y-99692298D01*
X107664702Y-99662319D01*
X107663738Y-99653154D01*
X107630584Y-99357575D01*
X107618151Y-99299081D01*
X107606528Y-99240381D01*
X107603803Y-99231578D01*
X107513868Y-98948068D01*
X107490290Y-98893058D01*
X107467508Y-98837783D01*
X107463125Y-98829677D01*
X107319836Y-98569034D01*
X107286048Y-98519687D01*
X107252936Y-98469850D01*
X107247062Y-98462749D01*
X107055876Y-98234904D01*
X107013146Y-98193060D01*
X106970987Y-98150605D01*
X106963846Y-98144781D01*
X106732045Y-97958408D01*
X106682031Y-97925680D01*
X106632398Y-97892202D01*
X106624261Y-97887876D01*
X106360675Y-97750077D01*
X106305219Y-97727672D01*
X106250068Y-97704488D01*
X106241246Y-97701825D01*
X105955915Y-97617847D01*
X105897175Y-97606642D01*
X105838558Y-97594609D01*
X105829386Y-97593710D01*
X105533178Y-97566753D01*
X105473361Y-97567171D01*
X105413544Y-97566753D01*
X105404372Y-97567653D01*
X105108569Y-97598742D01*
X105049972Y-97610771D01*
X104991210Y-97621980D01*
X104982388Y-97624644D01*
X104698257Y-97712598D01*
X104643139Y-97735768D01*
X104587650Y-97758186D01*
X104579514Y-97762513D01*
X104317878Y-97903979D01*
X104268311Y-97937412D01*
X104218232Y-97970183D01*
X104211091Y-97976008D01*
X103981915Y-98165597D01*
X103939774Y-98208034D01*
X103897024Y-98249897D01*
X103891150Y-98256998D01*
X103703164Y-98487492D01*
X103670049Y-98537334D01*
X103636265Y-98586674D01*
X103631882Y-98594781D01*
X103492246Y-98857399D01*
X103469458Y-98912687D01*
X103445886Y-98967683D01*
X103443162Y-98976487D01*
X103410000Y-99086323D01*
X103410000Y-92710000D01*
X160390001Y-92710000D01*
X160390001Y-99087191D01*
G36*
X134351823Y-110028104D02*
G01*
X134554966Y-110275634D01*
X134802495Y-110478777D01*
X134950000Y-110557620D01*
X134950001Y-111911928D01*
X134375000Y-111911928D01*
X134250518Y-111924188D01*
X134130820Y-111960498D01*
X134020506Y-112019463D01*
X133923815Y-112098815D01*
X133862933Y-112173000D01*
X133587067Y-112173000D01*
X133526185Y-112098815D01*
X133429494Y-112019463D01*
X133319180Y-111960498D01*
X133199482Y-111924188D01*
X133075000Y-111911928D01*
X131011730Y-111911928D01*
X130296012Y-111196210D01*
X132407621Y-111196210D01*
X132444943Y-111199886D01*
X132482265Y-111196210D01*
X132482276Y-111196210D01*
X132593929Y-111185213D01*
X132737190Y-111141756D01*
X132869219Y-111071184D01*
X132984944Y-110976211D01*
X133008747Y-110947208D01*
X134204143Y-109751813D01*
X134351823Y-110028104D01*
X134351823Y-110028104D01*
G37*
X134351823Y-110028104D02*
X134554966Y-110275634D01*
X134802495Y-110478777D01*
X134950000Y-110557620D01*
X134950001Y-111911928D01*
X134375000Y-111911928D01*
X134250518Y-111924188D01*
X134130820Y-111960498D01*
X134020506Y-112019463D01*
X133923815Y-112098815D01*
X133862933Y-112173000D01*
X133587067Y-112173000D01*
X133526185Y-112098815D01*
X133429494Y-112019463D01*
X133319180Y-111960498D01*
X133199482Y-111924188D01*
X133075000Y-111911928D01*
X131011730Y-111911928D01*
X130296012Y-111196210D01*
X132407621Y-111196210D01*
X132444943Y-111199886D01*
X132482265Y-111196210D01*
X132482276Y-111196210D01*
X132593929Y-111185213D01*
X132737190Y-111141756D01*
X132869219Y-111071184D01*
X132984944Y-110976211D01*
X133008747Y-110947208D01*
X134204143Y-109751813D01*
X134351823Y-110028104D01*
G36*
X144545858Y-100584506D02*
G01*
X144327496Y-100701223D01*
X144079967Y-100904366D01*
X143876824Y-101151895D01*
X143725876Y-101434300D01*
X143632923Y-101740727D01*
X143609401Y-101979546D01*
X143609400Y-104120453D01*
X143632922Y-104359272D01*
X143725875Y-104665699D01*
X143876823Y-104948104D01*
X144079966Y-105195634D01*
X144327495Y-105398777D01*
X144609900Y-105549725D01*
X144916327Y-105642678D01*
X145235000Y-105674065D01*
X145553672Y-105642678D01*
X145860099Y-105549725D01*
X146142504Y-105398777D01*
X146380000Y-105203868D01*
X146380000Y-105702381D01*
X146232496Y-105781223D01*
X145984967Y-105984366D01*
X145781824Y-106231895D01*
X145630876Y-106514300D01*
X145537923Y-106820727D01*
X145514401Y-107059546D01*
X145514400Y-109200453D01*
X145537922Y-109439272D01*
X145609796Y-109676210D01*
X144960412Y-109676210D01*
X144883527Y-109599325D01*
X144932078Y-109439273D01*
X144955600Y-109200454D01*
X144955600Y-107059546D01*
X144932078Y-106820727D01*
X144839125Y-106514300D01*
X144688177Y-106231895D01*
X144485034Y-105984366D01*
X144237505Y-105781223D01*
X143955100Y-105630275D01*
X143648673Y-105537322D01*
X143330000Y-105505935D01*
X143011328Y-105537322D01*
X142704901Y-105630275D01*
X142422496Y-105781223D01*
X142174967Y-105984366D01*
X142067581Y-106115216D01*
X141608369Y-105656004D01*
X141743672Y-105642678D01*
X142050099Y-105549725D01*
X142332504Y-105398777D01*
X142580034Y-105195634D01*
X142783177Y-104948105D01*
X142934125Y-104665700D01*
X143027078Y-104359273D01*
X143050600Y-104120454D01*
X143050600Y-101979546D01*
X143027078Y-101740727D01*
X142934125Y-101434300D01*
X142783177Y-101151895D01*
X142580034Y-100904366D01*
X142332505Y-100701223D01*
X142050100Y-100550275D01*
X141743673Y-100457322D01*
X141425000Y-100425935D01*
X141106328Y-100457322D01*
X140799901Y-100550275D01*
X140517496Y-100701223D01*
X140269967Y-100904366D01*
X140066824Y-101151895D01*
X139915876Y-101434300D01*
X139822923Y-101740727D01*
X139799401Y-101979546D01*
X139799400Y-104120453D01*
X139822922Y-104359272D01*
X139900126Y-104613782D01*
X139139874Y-104613782D01*
X139217078Y-104359273D01*
X139240600Y-104120454D01*
X139240600Y-101979546D01*
X139217078Y-101740727D01*
X139124125Y-101434300D01*
X138973177Y-101151895D01*
X138770034Y-100904366D01*
X138522505Y-100701223D01*
X138240100Y-100550275D01*
X137933673Y-100457322D01*
X137615000Y-100425935D01*
X137296328Y-100457322D01*
X136989901Y-100550275D01*
X136707496Y-100701223D01*
X136459967Y-100904366D01*
X136256824Y-101151895D01*
X136105876Y-101434300D01*
X136012923Y-101740727D01*
X135989401Y-101979546D01*
X135989400Y-104120453D01*
X136012922Y-104359272D01*
X136090126Y-104613781D01*
X135329875Y-104613781D01*
X135407078Y-104359273D01*
X135430600Y-104120454D01*
X135430600Y-101979546D01*
X135407078Y-101740727D01*
X135314125Y-101434300D01*
X135163177Y-101151895D01*
X134960034Y-100904366D01*
X134712505Y-100701223D01*
X134430100Y-100550275D01*
X134123673Y-100457322D01*
X133805000Y-100425935D01*
X133486328Y-100457322D01*
X133179901Y-100550275D01*
X132897496Y-100701223D01*
X132649967Y-100904366D01*
X132446824Y-101151895D01*
X132295876Y-101434300D01*
X132202923Y-101740727D01*
X132179401Y-101979546D01*
X132179400Y-104120453D01*
X132202922Y-104359272D01*
X132295875Y-104665699D01*
X132446823Y-104948104D01*
X132649966Y-105195634D01*
X132715325Y-105249273D01*
X132378725Y-105585873D01*
X132218673Y-105537322D01*
X131900000Y-105505935D01*
X131581328Y-105537322D01*
X131274901Y-105630275D01*
X130992496Y-105781223D01*
X130744967Y-105984366D01*
X130541824Y-106231895D01*
X130390876Y-106514300D01*
X130297923Y-106820727D01*
X130274401Y-107059546D01*
X130274400Y-109200453D01*
X130297922Y-109439272D01*
X130369796Y-109676210D01*
X129720412Y-109676210D01*
X129643527Y-109599325D01*
X129692078Y-109439273D01*
X129715600Y-109200454D01*
X129715600Y-107059546D01*
X129692078Y-106820727D01*
X129599125Y-106514300D01*
X129448177Y-106231895D01*
X129245034Y-105984366D01*
X128997505Y-105781223D01*
X128715100Y-105630275D01*
X128663697Y-105614682D01*
X128796028Y-105526262D01*
X128926262Y-105396028D01*
X128982177Y-105312345D01*
X129087495Y-105398777D01*
X129369900Y-105549725D01*
X129676327Y-105642678D01*
X129995000Y-105674065D01*
X130313672Y-105642678D01*
X130620099Y-105549725D01*
X130902504Y-105398777D01*
X131150034Y-105195634D01*
X131353177Y-104948105D01*
X131504125Y-104665700D01*
X131597078Y-104359273D01*
X131620600Y-104120454D01*
X131620600Y-101979546D01*
X131597078Y-101740727D01*
X131504125Y-101434300D01*
X131353177Y-101151895D01*
X131150034Y-100904366D01*
X130902505Y-100701223D01*
X130684142Y-100584506D01*
X131708649Y-99560000D01*
X143521352Y-99560000D01*
X144545858Y-100584506D01*
X144545858Y-100584506D01*
G37*
X144545858Y-100584506D02*
X144327496Y-100701223D01*
X144079967Y-100904366D01*
X143876824Y-101151895D01*
X143725876Y-101434300D01*
X143632923Y-101740727D01*
X143609401Y-101979546D01*
X143609400Y-104120453D01*
X143632922Y-104359272D01*
X143725875Y-104665699D01*
X143876823Y-104948104D01*
X144079966Y-105195634D01*
X144327495Y-105398777D01*
X144609900Y-105549725D01*
X144916327Y-105642678D01*
X145235000Y-105674065D01*
X145553672Y-105642678D01*
X145860099Y-105549725D01*
X146142504Y-105398777D01*
X146380000Y-105203868D01*
X146380000Y-105702381D01*
X146232496Y-105781223D01*
X145984967Y-105984366D01*
X145781824Y-106231895D01*
X145630876Y-106514300D01*
X145537923Y-106820727D01*
X145514401Y-107059546D01*
X145514400Y-109200453D01*
X145537922Y-109439272D01*
X145609796Y-109676210D01*
X144960412Y-109676210D01*
X144883527Y-109599325D01*
X144932078Y-109439273D01*
X144955600Y-109200454D01*
X144955600Y-107059546D01*
X144932078Y-106820727D01*
X144839125Y-106514300D01*
X144688177Y-106231895D01*
X144485034Y-105984366D01*
X144237505Y-105781223D01*
X143955100Y-105630275D01*
X143648673Y-105537322D01*
X143330000Y-105505935D01*
X143011328Y-105537322D01*
X142704901Y-105630275D01*
X142422496Y-105781223D01*
X142174967Y-105984366D01*
X142067581Y-106115216D01*
X141608369Y-105656004D01*
X141743672Y-105642678D01*
X142050099Y-105549725D01*
X142332504Y-105398777D01*
X142580034Y-105195634D01*
X142783177Y-104948105D01*
X142934125Y-104665700D01*
X143027078Y-104359273D01*
X143050600Y-104120454D01*
X143050600Y-101979546D01*
X143027078Y-101740727D01*
X142934125Y-101434300D01*
X142783177Y-101151895D01*
X142580034Y-100904366D01*
X142332505Y-100701223D01*
X142050100Y-100550275D01*
X141743673Y-100457322D01*
X141425000Y-100425935D01*
X141106328Y-100457322D01*
X140799901Y-100550275D01*
X140517496Y-100701223D01*
X140269967Y-100904366D01*
X140066824Y-101151895D01*
X139915876Y-101434300D01*
X139822923Y-101740727D01*
X139799401Y-101979546D01*
X139799400Y-104120453D01*
X139822922Y-104359272D01*
X139900126Y-104613782D01*
X139139874Y-104613782D01*
X139217078Y-104359273D01*
X139240600Y-104120454D01*
X139240600Y-101979546D01*
X139217078Y-101740727D01*
X139124125Y-101434300D01*
X138973177Y-101151895D01*
X138770034Y-100904366D01*
X138522505Y-100701223D01*
X138240100Y-100550275D01*
X137933673Y-100457322D01*
X137615000Y-100425935D01*
X137296328Y-100457322D01*
X136989901Y-100550275D01*
X136707496Y-100701223D01*
X136459967Y-100904366D01*
X136256824Y-101151895D01*
X136105876Y-101434300D01*
X136012923Y-101740727D01*
X135989401Y-101979546D01*
X135989400Y-104120453D01*
X136012922Y-104359272D01*
X136090126Y-104613781D01*
X135329875Y-104613781D01*
X135407078Y-104359273D01*
X135430600Y-104120454D01*
X135430600Y-101979546D01*
X135407078Y-101740727D01*
X135314125Y-101434300D01*
X135163177Y-101151895D01*
X134960034Y-100904366D01*
X134712505Y-100701223D01*
X134430100Y-100550275D01*
X134123673Y-100457322D01*
X133805000Y-100425935D01*
X133486328Y-100457322D01*
X133179901Y-100550275D01*
X132897496Y-100701223D01*
X132649967Y-100904366D01*
X132446824Y-101151895D01*
X132295876Y-101434300D01*
X132202923Y-101740727D01*
X132179401Y-101979546D01*
X132179400Y-104120453D01*
X132202922Y-104359272D01*
X132295875Y-104665699D01*
X132446823Y-104948104D01*
X132649966Y-105195634D01*
X132715325Y-105249273D01*
X132378725Y-105585873D01*
X132218673Y-105537322D01*
X131900000Y-105505935D01*
X131581328Y-105537322D01*
X131274901Y-105630275D01*
X130992496Y-105781223D01*
X130744967Y-105984366D01*
X130541824Y-106231895D01*
X130390876Y-106514300D01*
X130297923Y-106820727D01*
X130274401Y-107059546D01*
X130274400Y-109200453D01*
X130297922Y-109439272D01*
X130369796Y-109676210D01*
X129720412Y-109676210D01*
X129643527Y-109599325D01*
X129692078Y-109439273D01*
X129715600Y-109200454D01*
X129715600Y-107059546D01*
X129692078Y-106820727D01*
X129599125Y-106514300D01*
X129448177Y-106231895D01*
X129245034Y-105984366D01*
X128997505Y-105781223D01*
X128715100Y-105630275D01*
X128663697Y-105614682D01*
X128796028Y-105526262D01*
X128926262Y-105396028D01*
X128982177Y-105312345D01*
X129087495Y-105398777D01*
X129369900Y-105549725D01*
X129676327Y-105642678D01*
X129995000Y-105674065D01*
X130313672Y-105642678D01*
X130620099Y-105549725D01*
X130902504Y-105398777D01*
X131150034Y-105195634D01*
X131353177Y-104948105D01*
X131504125Y-104665700D01*
X131597078Y-104359273D01*
X131620600Y-104120454D01*
X131620600Y-101979546D01*
X131597078Y-101740727D01*
X131504125Y-101434300D01*
X131353177Y-101151895D01*
X131150034Y-100904366D01*
X130902505Y-100701223D01*
X130684142Y-100584506D01*
X131708649Y-99560000D01*
X143521352Y-99560000D01*
X144545858Y-100584506D01*
G36*
X160390001Y-74287191D02*
G01*
X160345868Y-74148068D01*
X160322290Y-74093058D01*
X160299508Y-74037783D01*
X160295125Y-74029677D01*
X160151836Y-73769034D01*
X160118048Y-73719687D01*
X160084936Y-73669850D01*
X160079062Y-73662749D01*
X159887876Y-73434904D01*
X159845146Y-73393060D01*
X159802987Y-73350605D01*
X159795846Y-73344781D01*
X159564045Y-73158408D01*
X159514031Y-73125680D01*
X159464398Y-73092202D01*
X159456261Y-73087876D01*
X159192675Y-72950077D01*
X159137219Y-72927672D01*
X159082068Y-72904488D01*
X159073246Y-72901825D01*
X158787915Y-72817847D01*
X158729175Y-72806642D01*
X158670558Y-72794609D01*
X158661386Y-72793710D01*
X158365178Y-72766753D01*
X158305361Y-72767171D01*
X158245544Y-72766753D01*
X158236372Y-72767653D01*
X157940569Y-72798742D01*
X157881972Y-72810771D01*
X157823210Y-72821980D01*
X157814388Y-72824644D01*
X157530257Y-72912598D01*
X157475139Y-72935768D01*
X157419650Y-72958186D01*
X157411514Y-72962513D01*
X157149878Y-73103979D01*
X157100311Y-73137412D01*
X157050232Y-73170183D01*
X157043091Y-73176008D01*
X156813915Y-73365597D01*
X156771774Y-73408034D01*
X156729024Y-73449897D01*
X156723150Y-73456998D01*
X156535164Y-73687492D01*
X156502049Y-73737334D01*
X156468265Y-73786674D01*
X156463882Y-73794781D01*
X156324246Y-74057399D01*
X156301458Y-74112687D01*
X156277886Y-74167683D01*
X156275162Y-74176487D01*
X156189193Y-74461225D01*
X156177570Y-74519925D01*
X156165137Y-74578419D01*
X156164174Y-74587584D01*
X156135150Y-74883596D01*
X156135150Y-75012406D01*
X156155801Y-75116697D01*
X156155800Y-78337952D01*
X156145478Y-78371300D01*
X156136932Y-78452622D01*
X156135299Y-78460870D01*
X156135299Y-78468164D01*
X156132016Y-78499404D01*
X156132016Y-78508620D01*
X156132165Y-78529898D01*
X156135298Y-78559700D01*
X156135298Y-78589680D01*
X156136262Y-78598844D01*
X156169416Y-78894424D01*
X156181853Y-78952936D01*
X156193471Y-79011614D01*
X156196196Y-79020413D01*
X156196197Y-79020419D01*
X156196199Y-79020425D01*
X156286130Y-79303928D01*
X156309691Y-79358899D01*
X156332491Y-79414217D01*
X156336874Y-79422323D01*
X156480163Y-79682965D01*
X156513947Y-79732305D01*
X156547062Y-79782147D01*
X156552936Y-79789247D01*
X156744122Y-80017094D01*
X156786853Y-80058939D01*
X156829013Y-80101395D01*
X156836155Y-80107219D01*
X157067956Y-80293591D01*
X157117968Y-80326318D01*
X157167600Y-80359795D01*
X157175737Y-80364121D01*
X157439323Y-80501921D01*
X157494783Y-80524328D01*
X157549931Y-80547511D01*
X157558753Y-80550174D01*
X157844083Y-80634152D01*
X157902837Y-80645360D01*
X157961441Y-80657390D01*
X157970613Y-80658289D01*
X158266820Y-80685246D01*
X158326638Y-80684828D01*
X158386455Y-80685246D01*
X158395626Y-80684347D01*
X158691430Y-80653257D01*
X158750017Y-80641230D01*
X158808787Y-80630020D01*
X158817609Y-80627356D01*
X159101740Y-80539403D01*
X159156883Y-80516223D01*
X159212348Y-80493814D01*
X159220485Y-80489487D01*
X159482121Y-80348021D01*
X159531705Y-80314576D01*
X159581768Y-80281816D01*
X159588909Y-80275992D01*
X159818085Y-80086401D01*
X159860224Y-80043966D01*
X159902974Y-80002103D01*
X159908848Y-79995002D01*
X160096834Y-79764509D01*
X160129938Y-79714682D01*
X160163733Y-79665327D01*
X160168116Y-79657221D01*
X160307753Y-79394603D01*
X160330560Y-79339269D01*
X160354114Y-79284314D01*
X160356838Y-79275515D01*
X160356840Y-79275509D01*
X160390001Y-79165674D01*
X160390000Y-91290000D01*
X152712248Y-91290000D01*
X152710000Y-90035750D01*
X152551250Y-89877000D01*
X152427000Y-89877000D01*
X152427000Y-89623000D01*
X152551250Y-89623000D01*
X152710000Y-89464250D01*
X152713072Y-87750000D01*
X152700812Y-87625518D01*
X152664502Y-87505820D01*
X152605537Y-87395506D01*
X152526185Y-87298815D01*
X152429494Y-87219463D01*
X152319180Y-87160498D01*
X152199482Y-87124188D01*
X152075000Y-87111928D01*
X151110750Y-87115000D01*
X150952000Y-87273750D01*
X150952000Y-87373000D01*
X150698000Y-87373000D01*
X150698000Y-87273750D01*
X150539250Y-87115000D01*
X149575000Y-87111928D01*
X149450518Y-87124188D01*
X149330820Y-87160498D01*
X149220506Y-87219463D01*
X149123815Y-87298815D01*
X149062933Y-87373000D01*
X148787067Y-87373000D01*
X148726185Y-87298815D01*
X148629494Y-87219463D01*
X148519180Y-87160498D01*
X148399482Y-87124188D01*
X148275000Y-87111928D01*
X147782465Y-87111928D01*
X147774003Y-87026014D01*
X147730546Y-86882753D01*
X147659974Y-86750724D01*
X147565001Y-86634999D01*
X147535998Y-86611197D01*
X147321011Y-86396210D01*
X147647621Y-86396210D01*
X147684943Y-86399886D01*
X147722265Y-86396210D01*
X147722276Y-86396210D01*
X147833929Y-86385213D01*
X147977190Y-86341756D01*
X148109219Y-86271184D01*
X148224944Y-86176211D01*
X148248746Y-86147208D01*
X148966614Y-85429341D01*
X148995611Y-85405544D01*
X149090584Y-85289819D01*
X149161156Y-85157790D01*
X149204613Y-85014529D01*
X149215610Y-84902876D01*
X149215610Y-84902868D01*
X149219286Y-84865543D01*
X149215610Y-84828218D01*
X149215610Y-83457000D01*
X149324400Y-83457000D01*
X149324400Y-84447600D01*
X149380412Y-84762299D01*
X149496742Y-85060023D01*
X149668920Y-85329332D01*
X149890329Y-85559876D01*
X150152461Y-85742795D01*
X150445242Y-85871060D01*
X150571041Y-85901411D01*
X150823000Y-85781942D01*
X150823000Y-83457000D01*
X151077000Y-83457000D01*
X151077000Y-85781942D01*
X151328959Y-85901411D01*
X151454758Y-85871060D01*
X151747539Y-85742795D01*
X152009671Y-85559876D01*
X152231080Y-85329332D01*
X152403258Y-85060023D01*
X152519588Y-84762299D01*
X152575600Y-84447600D01*
X152575600Y-83457000D01*
X151077000Y-83457000D01*
X150823000Y-83457000D01*
X149324400Y-83457000D01*
X149215610Y-83457000D01*
X149215610Y-82212400D01*
X149324400Y-82212400D01*
X149324400Y-83203000D01*
X150823000Y-83203000D01*
X150823000Y-80878058D01*
X151077000Y-80878058D01*
X151077000Y-83203000D01*
X152575600Y-83203000D01*
X152575600Y-82212400D01*
X152519588Y-81897701D01*
X152403258Y-81599977D01*
X152231080Y-81330668D01*
X152009671Y-81100124D01*
X151747539Y-80917205D01*
X151454758Y-80788940D01*
X151328959Y-80758589D01*
X151077000Y-80878058D01*
X150823000Y-80878058D01*
X150571041Y-80758589D01*
X150445242Y-80788940D01*
X150152461Y-80917205D01*
X149890329Y-81100124D01*
X149668920Y-81330668D01*
X149496742Y-81599977D01*
X149380412Y-81897701D01*
X149324400Y-82212400D01*
X149215610Y-82212400D01*
X149215610Y-81831779D01*
X149219286Y-81794456D01*
X149215610Y-81757133D01*
X149215610Y-81757124D01*
X149204613Y-81645471D01*
X149161156Y-81502210D01*
X149090584Y-81370181D01*
X148995611Y-81254456D01*
X148966613Y-81230658D01*
X148514322Y-80778367D01*
X148726327Y-80842678D01*
X149045000Y-80874065D01*
X149363672Y-80842678D01*
X149670099Y-80749725D01*
X149952504Y-80598777D01*
X150200034Y-80395634D01*
X150403177Y-80148105D01*
X150554125Y-79865700D01*
X150647078Y-79559273D01*
X150670600Y-79320454D01*
X150670600Y-77179546D01*
X150647078Y-76940727D01*
X150554125Y-76634300D01*
X150403177Y-76351895D01*
X150200034Y-76104366D01*
X149952505Y-75901223D01*
X149670100Y-75750275D01*
X149363673Y-75657322D01*
X149045000Y-75625935D01*
X148726328Y-75657322D01*
X148419901Y-75750275D01*
X148137496Y-75901223D01*
X147889967Y-76104366D01*
X147782581Y-76235216D01*
X144586357Y-73038993D01*
X144562554Y-73009989D01*
X144446829Y-72915016D01*
X144314800Y-72844444D01*
X144171539Y-72800987D01*
X144059886Y-72789990D01*
X144059875Y-72789990D01*
X144022553Y-72786314D01*
X143985231Y-72789990D01*
X128071179Y-72789990D01*
X128033856Y-72786314D01*
X127996533Y-72789990D01*
X127996524Y-72789990D01*
X127884871Y-72800987D01*
X127744824Y-72843469D01*
X127741610Y-72844444D01*
X127609580Y-72915016D01*
X127551704Y-72962514D01*
X127493856Y-73009989D01*
X127470058Y-73038987D01*
X124358393Y-76150653D01*
X124329389Y-76174456D01*
X124280000Y-76234637D01*
X124254409Y-76203454D01*
X124230611Y-76174456D01*
X124201613Y-76150658D01*
X123033737Y-74982783D01*
X123009934Y-74953779D01*
X122894209Y-74858806D01*
X122762180Y-74788234D01*
X122618919Y-74744777D01*
X122507266Y-74733780D01*
X122507255Y-74733780D01*
X122469933Y-74730104D01*
X122432611Y-74733780D01*
X116557945Y-74733780D01*
X116520620Y-74730104D01*
X116483295Y-74733780D01*
X116483287Y-74733780D01*
X116371634Y-74744777D01*
X116228373Y-74788234D01*
X116096344Y-74858806D01*
X115980619Y-74953779D01*
X115956821Y-74982777D01*
X115233725Y-75705873D01*
X115073673Y-75657322D01*
X114755000Y-75625935D01*
X114436328Y-75657322D01*
X114129901Y-75750275D01*
X113847496Y-75901223D01*
X113599967Y-76104366D01*
X113396824Y-76351895D01*
X113245876Y-76634300D01*
X113152923Y-76940727D01*
X113129401Y-77179546D01*
X113129400Y-79320453D01*
X113152922Y-79559272D01*
X113245875Y-79865699D01*
X113396823Y-80148104D01*
X113599966Y-80395634D01*
X113847495Y-80598777D01*
X114129900Y-80749725D01*
X114436327Y-80842678D01*
X114689998Y-80867663D01*
X114638844Y-80963364D01*
X114613943Y-81045454D01*
X114604119Y-81077843D01*
X114595388Y-81106625D01*
X114580714Y-81255610D01*
X114584391Y-81292942D01*
X114584390Y-86165808D01*
X113638270Y-87111928D01*
X111575000Y-87111928D01*
X111450518Y-87124188D01*
X111330820Y-87160498D01*
X111220506Y-87219463D01*
X111123815Y-87298815D01*
X111044463Y-87395506D01*
X110985498Y-87505820D01*
X110949188Y-87625518D01*
X110936928Y-87750000D01*
X110936928Y-91290000D01*
X103410000Y-91290000D01*
X103410000Y-84400453D01*
X111224400Y-84400453D01*
X111247922Y-84639272D01*
X111340875Y-84945699D01*
X111491823Y-85228104D01*
X111694966Y-85475634D01*
X111942495Y-85678777D01*
X112224900Y-85829725D01*
X112531327Y-85922678D01*
X112850000Y-85954065D01*
X113168672Y-85922678D01*
X113475099Y-85829725D01*
X113757504Y-85678777D01*
X114005034Y-85475634D01*
X114208177Y-85228105D01*
X114359125Y-84945700D01*
X114452078Y-84639273D01*
X114475600Y-84400454D01*
X114475600Y-82259546D01*
X114452078Y-82020727D01*
X114359125Y-81714300D01*
X114208177Y-81431895D01*
X114005034Y-81184366D01*
X113757505Y-80981223D01*
X113475100Y-80830275D01*
X113168673Y-80737322D01*
X112850000Y-80705935D01*
X112531328Y-80737322D01*
X112224901Y-80830275D01*
X111942496Y-80981223D01*
X111694967Y-81184366D01*
X111491824Y-81431895D01*
X111340876Y-81714300D01*
X111247923Y-82020727D01*
X111224401Y-82259546D01*
X111224400Y-84400453D01*
X103410000Y-84400453D01*
X103410000Y-79164810D01*
X103454130Y-79303928D01*
X103477691Y-79358899D01*
X103500491Y-79414217D01*
X103504874Y-79422323D01*
X103648163Y-79682965D01*
X103681947Y-79732305D01*
X103715062Y-79782147D01*
X103720936Y-79789247D01*
X103912122Y-80017094D01*
X103954853Y-80058939D01*
X103997013Y-80101395D01*
X104004155Y-80107219D01*
X104235956Y-80293591D01*
X104285968Y-80326318D01*
X104335600Y-80359795D01*
X104343737Y-80364121D01*
X104607323Y-80501921D01*
X104662783Y-80524328D01*
X104717931Y-80547511D01*
X104726753Y-80550174D01*
X105012083Y-80634152D01*
X105070837Y-80645360D01*
X105129441Y-80657390D01*
X105138613Y-80658289D01*
X105434820Y-80685246D01*
X105494638Y-80684828D01*
X105554455Y-80685246D01*
X105563626Y-80684347D01*
X105859430Y-80653257D01*
X105918017Y-80641230D01*
X105976787Y-80630020D01*
X105985609Y-80627356D01*
X106269740Y-80539403D01*
X106324883Y-80516223D01*
X106380348Y-80493814D01*
X106388485Y-80489487D01*
X106650121Y-80348021D01*
X106699705Y-80314576D01*
X106749768Y-80281816D01*
X106756909Y-80275992D01*
X106986085Y-80086401D01*
X107028224Y-80043966D01*
X107070974Y-80002103D01*
X107076848Y-79995002D01*
X107264834Y-79764509D01*
X107297938Y-79714682D01*
X107331733Y-79665327D01*
X107336116Y-79657221D01*
X107475753Y-79394603D01*
X107498560Y-79339269D01*
X107522114Y-79284314D01*
X107524838Y-79275515D01*
X107524840Y-79275509D01*
X107610806Y-78990773D01*
X107622422Y-78932108D01*
X107634862Y-78873584D01*
X107635825Y-78864419D01*
X107664850Y-78568406D01*
X107664850Y-78439596D01*
X107644200Y-78335305D01*
X107644200Y-75114047D01*
X107654522Y-75080699D01*
X107663068Y-74999377D01*
X107664701Y-74991129D01*
X107664701Y-74983835D01*
X107667984Y-74952594D01*
X107667984Y-74943379D01*
X107667835Y-74922100D01*
X107664702Y-74892298D01*
X107664702Y-74862319D01*
X107663738Y-74853154D01*
X107630584Y-74557575D01*
X107618151Y-74499081D01*
X107606528Y-74440381D01*
X107603803Y-74431578D01*
X107513868Y-74148068D01*
X107490290Y-74093058D01*
X107467508Y-74037783D01*
X107463125Y-74029677D01*
X107319836Y-73769034D01*
X107286048Y-73719687D01*
X107252936Y-73669850D01*
X107247062Y-73662749D01*
X107055876Y-73434904D01*
X107013146Y-73393060D01*
X106970987Y-73350605D01*
X106963846Y-73344781D01*
X106732045Y-73158408D01*
X106682031Y-73125680D01*
X106632398Y-73092202D01*
X106624261Y-73087876D01*
X106360675Y-72950077D01*
X106305219Y-72927672D01*
X106250068Y-72904488D01*
X106241246Y-72901825D01*
X105955915Y-72817847D01*
X105897175Y-72806642D01*
X105838558Y-72794609D01*
X105829386Y-72793710D01*
X105533178Y-72766753D01*
X105473361Y-72767171D01*
X105413544Y-72766753D01*
X105404372Y-72767653D01*
X105108569Y-72798742D01*
X105049972Y-72810771D01*
X104991210Y-72821980D01*
X104982388Y-72824644D01*
X104698257Y-72912598D01*
X104643139Y-72935768D01*
X104587650Y-72958186D01*
X104579514Y-72962513D01*
X104317878Y-73103979D01*
X104268311Y-73137412D01*
X104218232Y-73170183D01*
X104211091Y-73176008D01*
X103981915Y-73365597D01*
X103939774Y-73408034D01*
X103897024Y-73449897D01*
X103891150Y-73456998D01*
X103703164Y-73687492D01*
X103670049Y-73737334D01*
X103636265Y-73786674D01*
X103631882Y-73794781D01*
X103492246Y-74057399D01*
X103469458Y-74112687D01*
X103445886Y-74167683D01*
X103443162Y-74176487D01*
X103410000Y-74286323D01*
X103410000Y-67910000D01*
X160390001Y-67910000D01*
X160390001Y-74287191D01*
X160390001Y-74287191D01*
G37*
X160390001Y-74287191D02*
X160345868Y-74148068D01*
X160322290Y-74093058D01*
X160299508Y-74037783D01*
X160295125Y-74029677D01*
X160151836Y-73769034D01*
X160118048Y-73719687D01*
X160084936Y-73669850D01*
X160079062Y-73662749D01*
X159887876Y-73434904D01*
X159845146Y-73393060D01*
X159802987Y-73350605D01*
X159795846Y-73344781D01*
X159564045Y-73158408D01*
X159514031Y-73125680D01*
X159464398Y-73092202D01*
X159456261Y-73087876D01*
X159192675Y-72950077D01*
X159137219Y-72927672D01*
X159082068Y-72904488D01*
X159073246Y-72901825D01*
X158787915Y-72817847D01*
X158729175Y-72806642D01*
X158670558Y-72794609D01*
X158661386Y-72793710D01*
X158365178Y-72766753D01*
X158305361Y-72767171D01*
X158245544Y-72766753D01*
X158236372Y-72767653D01*
X157940569Y-72798742D01*
X157881972Y-72810771D01*
X157823210Y-72821980D01*
X157814388Y-72824644D01*
X157530257Y-72912598D01*
X157475139Y-72935768D01*
X157419650Y-72958186D01*
X157411514Y-72962513D01*
X157149878Y-73103979D01*
X157100311Y-73137412D01*
X157050232Y-73170183D01*
X157043091Y-73176008D01*
X156813915Y-73365597D01*
X156771774Y-73408034D01*
X156729024Y-73449897D01*
X156723150Y-73456998D01*
X156535164Y-73687492D01*
X156502049Y-73737334D01*
X156468265Y-73786674D01*
X156463882Y-73794781D01*
X156324246Y-74057399D01*
X156301458Y-74112687D01*
X156277886Y-74167683D01*
X156275162Y-74176487D01*
X156189193Y-74461225D01*
X156177570Y-74519925D01*
X156165137Y-74578419D01*
X156164174Y-74587584D01*
X156135150Y-74883596D01*
X156135150Y-75012406D01*
X156155801Y-75116697D01*
X156155800Y-78337952D01*
X156145478Y-78371300D01*
X156136932Y-78452622D01*
X156135299Y-78460870D01*
X156135299Y-78468164D01*
X156132016Y-78499404D01*
X156132016Y-78508620D01*
X156132165Y-78529898D01*
X156135298Y-78559700D01*
X156135298Y-78589680D01*
X156136262Y-78598844D01*
X156169416Y-78894424D01*
X156181853Y-78952936D01*
X156193471Y-79011614D01*
X156196196Y-79020413D01*
X156196197Y-79020419D01*
X156196199Y-79020425D01*
X156286130Y-79303928D01*
X156309691Y-79358899D01*
X156332491Y-79414217D01*
X156336874Y-79422323D01*
X156480163Y-79682965D01*
X156513947Y-79732305D01*
X156547062Y-79782147D01*
X156552936Y-79789247D01*
X156744122Y-80017094D01*
X156786853Y-80058939D01*
X156829013Y-80101395D01*
X156836155Y-80107219D01*
X157067956Y-80293591D01*
X157117968Y-80326318D01*
X157167600Y-80359795D01*
X157175737Y-80364121D01*
X157439323Y-80501921D01*
X157494783Y-80524328D01*
X157549931Y-80547511D01*
X157558753Y-80550174D01*
X157844083Y-80634152D01*
X157902837Y-80645360D01*
X157961441Y-80657390D01*
X157970613Y-80658289D01*
X158266820Y-80685246D01*
X158326638Y-80684828D01*
X158386455Y-80685246D01*
X158395626Y-80684347D01*
X158691430Y-80653257D01*
X158750017Y-80641230D01*
X158808787Y-80630020D01*
X158817609Y-80627356D01*
X159101740Y-80539403D01*
X159156883Y-80516223D01*
X159212348Y-80493814D01*
X159220485Y-80489487D01*
X159482121Y-80348021D01*
X159531705Y-80314576D01*
X159581768Y-80281816D01*
X159588909Y-80275992D01*
X159818085Y-80086401D01*
X159860224Y-80043966D01*
X159902974Y-80002103D01*
X159908848Y-79995002D01*
X160096834Y-79764509D01*
X160129938Y-79714682D01*
X160163733Y-79665327D01*
X160168116Y-79657221D01*
X160307753Y-79394603D01*
X160330560Y-79339269D01*
X160354114Y-79284314D01*
X160356838Y-79275515D01*
X160356840Y-79275509D01*
X160390001Y-79165674D01*
X160390000Y-91290000D01*
X152712248Y-91290000D01*
X152710000Y-90035750D01*
X152551250Y-89877000D01*
X152427000Y-89877000D01*
X152427000Y-89623000D01*
X152551250Y-89623000D01*
X152710000Y-89464250D01*
X152713072Y-87750000D01*
X152700812Y-87625518D01*
X152664502Y-87505820D01*
X152605537Y-87395506D01*
X152526185Y-87298815D01*
X152429494Y-87219463D01*
X152319180Y-87160498D01*
X152199482Y-87124188D01*
X152075000Y-87111928D01*
X151110750Y-87115000D01*
X150952000Y-87273750D01*
X150952000Y-87373000D01*
X150698000Y-87373000D01*
X150698000Y-87273750D01*
X150539250Y-87115000D01*
X149575000Y-87111928D01*
X149450518Y-87124188D01*
X149330820Y-87160498D01*
X149220506Y-87219463D01*
X149123815Y-87298815D01*
X149062933Y-87373000D01*
X148787067Y-87373000D01*
X148726185Y-87298815D01*
X148629494Y-87219463D01*
X148519180Y-87160498D01*
X148399482Y-87124188D01*
X148275000Y-87111928D01*
X147782465Y-87111928D01*
X147774003Y-87026014D01*
X147730546Y-86882753D01*
X147659974Y-86750724D01*
X147565001Y-86634999D01*
X147535998Y-86611197D01*
X147321011Y-86396210D01*
X147647621Y-86396210D01*
X147684943Y-86399886D01*
X147722265Y-86396210D01*
X147722276Y-86396210D01*
X147833929Y-86385213D01*
X147977190Y-86341756D01*
X148109219Y-86271184D01*
X148224944Y-86176211D01*
X148248746Y-86147208D01*
X148966614Y-85429341D01*
X148995611Y-85405544D01*
X149090584Y-85289819D01*
X149161156Y-85157790D01*
X149204613Y-85014529D01*
X149215610Y-84902876D01*
X149215610Y-84902868D01*
X149219286Y-84865543D01*
X149215610Y-84828218D01*
X149215610Y-83457000D01*
X149324400Y-83457000D01*
X149324400Y-84447600D01*
X149380412Y-84762299D01*
X149496742Y-85060023D01*
X149668920Y-85329332D01*
X149890329Y-85559876D01*
X150152461Y-85742795D01*
X150445242Y-85871060D01*
X150571041Y-85901411D01*
X150823000Y-85781942D01*
X150823000Y-83457000D01*
X151077000Y-83457000D01*
X151077000Y-85781942D01*
X151328959Y-85901411D01*
X151454758Y-85871060D01*
X151747539Y-85742795D01*
X152009671Y-85559876D01*
X152231080Y-85329332D01*
X152403258Y-85060023D01*
X152519588Y-84762299D01*
X152575600Y-84447600D01*
X152575600Y-83457000D01*
X151077000Y-83457000D01*
X150823000Y-83457000D01*
X149324400Y-83457000D01*
X149215610Y-83457000D01*
X149215610Y-82212400D01*
X149324400Y-82212400D01*
X149324400Y-83203000D01*
X150823000Y-83203000D01*
X150823000Y-80878058D01*
X151077000Y-80878058D01*
X151077000Y-83203000D01*
X152575600Y-83203000D01*
X152575600Y-82212400D01*
X152519588Y-81897701D01*
X152403258Y-81599977D01*
X152231080Y-81330668D01*
X152009671Y-81100124D01*
X151747539Y-80917205D01*
X151454758Y-80788940D01*
X151328959Y-80758589D01*
X151077000Y-80878058D01*
X150823000Y-80878058D01*
X150571041Y-80758589D01*
X150445242Y-80788940D01*
X150152461Y-80917205D01*
X149890329Y-81100124D01*
X149668920Y-81330668D01*
X149496742Y-81599977D01*
X149380412Y-81897701D01*
X149324400Y-82212400D01*
X149215610Y-82212400D01*
X149215610Y-81831779D01*
X149219286Y-81794456D01*
X149215610Y-81757133D01*
X149215610Y-81757124D01*
X149204613Y-81645471D01*
X149161156Y-81502210D01*
X149090584Y-81370181D01*
X148995611Y-81254456D01*
X148966613Y-81230658D01*
X148514322Y-80778367D01*
X148726327Y-80842678D01*
X149045000Y-80874065D01*
X149363672Y-80842678D01*
X149670099Y-80749725D01*
X149952504Y-80598777D01*
X150200034Y-80395634D01*
X150403177Y-80148105D01*
X150554125Y-79865700D01*
X150647078Y-79559273D01*
X150670600Y-79320454D01*
X150670600Y-77179546D01*
X150647078Y-76940727D01*
X150554125Y-76634300D01*
X150403177Y-76351895D01*
X150200034Y-76104366D01*
X149952505Y-75901223D01*
X149670100Y-75750275D01*
X149363673Y-75657322D01*
X149045000Y-75625935D01*
X148726328Y-75657322D01*
X148419901Y-75750275D01*
X148137496Y-75901223D01*
X147889967Y-76104366D01*
X147782581Y-76235216D01*
X144586357Y-73038993D01*
X144562554Y-73009989D01*
X144446829Y-72915016D01*
X144314800Y-72844444D01*
X144171539Y-72800987D01*
X144059886Y-72789990D01*
X144059875Y-72789990D01*
X144022553Y-72786314D01*
X143985231Y-72789990D01*
X128071179Y-72789990D01*
X128033856Y-72786314D01*
X127996533Y-72789990D01*
X127996524Y-72789990D01*
X127884871Y-72800987D01*
X127744824Y-72843469D01*
X127741610Y-72844444D01*
X127609580Y-72915016D01*
X127551704Y-72962514D01*
X127493856Y-73009989D01*
X127470058Y-73038987D01*
X124358393Y-76150653D01*
X124329389Y-76174456D01*
X124280000Y-76234637D01*
X124254409Y-76203454D01*
X124230611Y-76174456D01*
X124201613Y-76150658D01*
X123033737Y-74982783D01*
X123009934Y-74953779D01*
X122894209Y-74858806D01*
X122762180Y-74788234D01*
X122618919Y-74744777D01*
X122507266Y-74733780D01*
X122507255Y-74733780D01*
X122469933Y-74730104D01*
X122432611Y-74733780D01*
X116557945Y-74733780D01*
X116520620Y-74730104D01*
X116483295Y-74733780D01*
X116483287Y-74733780D01*
X116371634Y-74744777D01*
X116228373Y-74788234D01*
X116096344Y-74858806D01*
X115980619Y-74953779D01*
X115956821Y-74982777D01*
X115233725Y-75705873D01*
X115073673Y-75657322D01*
X114755000Y-75625935D01*
X114436328Y-75657322D01*
X114129901Y-75750275D01*
X113847496Y-75901223D01*
X113599967Y-76104366D01*
X113396824Y-76351895D01*
X113245876Y-76634300D01*
X113152923Y-76940727D01*
X113129401Y-77179546D01*
X113129400Y-79320453D01*
X113152922Y-79559272D01*
X113245875Y-79865699D01*
X113396823Y-80148104D01*
X113599966Y-80395634D01*
X113847495Y-80598777D01*
X114129900Y-80749725D01*
X114436327Y-80842678D01*
X114689998Y-80867663D01*
X114638844Y-80963364D01*
X114613943Y-81045454D01*
X114604119Y-81077843D01*
X114595388Y-81106625D01*
X114580714Y-81255610D01*
X114584391Y-81292942D01*
X114584390Y-86165808D01*
X113638270Y-87111928D01*
X111575000Y-87111928D01*
X111450518Y-87124188D01*
X111330820Y-87160498D01*
X111220506Y-87219463D01*
X111123815Y-87298815D01*
X111044463Y-87395506D01*
X110985498Y-87505820D01*
X110949188Y-87625518D01*
X110936928Y-87750000D01*
X110936928Y-91290000D01*
X103410000Y-91290000D01*
X103410000Y-84400453D01*
X111224400Y-84400453D01*
X111247922Y-84639272D01*
X111340875Y-84945699D01*
X111491823Y-85228104D01*
X111694966Y-85475634D01*
X111942495Y-85678777D01*
X112224900Y-85829725D01*
X112531327Y-85922678D01*
X112850000Y-85954065D01*
X113168672Y-85922678D01*
X113475099Y-85829725D01*
X113757504Y-85678777D01*
X114005034Y-85475634D01*
X114208177Y-85228105D01*
X114359125Y-84945700D01*
X114452078Y-84639273D01*
X114475600Y-84400454D01*
X114475600Y-82259546D01*
X114452078Y-82020727D01*
X114359125Y-81714300D01*
X114208177Y-81431895D01*
X114005034Y-81184366D01*
X113757505Y-80981223D01*
X113475100Y-80830275D01*
X113168673Y-80737322D01*
X112850000Y-80705935D01*
X112531328Y-80737322D01*
X112224901Y-80830275D01*
X111942496Y-80981223D01*
X111694967Y-81184366D01*
X111491824Y-81431895D01*
X111340876Y-81714300D01*
X111247923Y-82020727D01*
X111224401Y-82259546D01*
X111224400Y-84400453D01*
X103410000Y-84400453D01*
X103410000Y-79164810D01*
X103454130Y-79303928D01*
X103477691Y-79358899D01*
X103500491Y-79414217D01*
X103504874Y-79422323D01*
X103648163Y-79682965D01*
X103681947Y-79732305D01*
X103715062Y-79782147D01*
X103720936Y-79789247D01*
X103912122Y-80017094D01*
X103954853Y-80058939D01*
X103997013Y-80101395D01*
X104004155Y-80107219D01*
X104235956Y-80293591D01*
X104285968Y-80326318D01*
X104335600Y-80359795D01*
X104343737Y-80364121D01*
X104607323Y-80501921D01*
X104662783Y-80524328D01*
X104717931Y-80547511D01*
X104726753Y-80550174D01*
X105012083Y-80634152D01*
X105070837Y-80645360D01*
X105129441Y-80657390D01*
X105138613Y-80658289D01*
X105434820Y-80685246D01*
X105494638Y-80684828D01*
X105554455Y-80685246D01*
X105563626Y-80684347D01*
X105859430Y-80653257D01*
X105918017Y-80641230D01*
X105976787Y-80630020D01*
X105985609Y-80627356D01*
X106269740Y-80539403D01*
X106324883Y-80516223D01*
X106380348Y-80493814D01*
X106388485Y-80489487D01*
X106650121Y-80348021D01*
X106699705Y-80314576D01*
X106749768Y-80281816D01*
X106756909Y-80275992D01*
X106986085Y-80086401D01*
X107028224Y-80043966D01*
X107070974Y-80002103D01*
X107076848Y-79995002D01*
X107264834Y-79764509D01*
X107297938Y-79714682D01*
X107331733Y-79665327D01*
X107336116Y-79657221D01*
X107475753Y-79394603D01*
X107498560Y-79339269D01*
X107522114Y-79284314D01*
X107524838Y-79275515D01*
X107524840Y-79275509D01*
X107610806Y-78990773D01*
X107622422Y-78932108D01*
X107634862Y-78873584D01*
X107635825Y-78864419D01*
X107664850Y-78568406D01*
X107664850Y-78439596D01*
X107644200Y-78335305D01*
X107644200Y-75114047D01*
X107654522Y-75080699D01*
X107663068Y-74999377D01*
X107664701Y-74991129D01*
X107664701Y-74983835D01*
X107667984Y-74952594D01*
X107667984Y-74943379D01*
X107667835Y-74922100D01*
X107664702Y-74892298D01*
X107664702Y-74862319D01*
X107663738Y-74853154D01*
X107630584Y-74557575D01*
X107618151Y-74499081D01*
X107606528Y-74440381D01*
X107603803Y-74431578D01*
X107513868Y-74148068D01*
X107490290Y-74093058D01*
X107467508Y-74037783D01*
X107463125Y-74029677D01*
X107319836Y-73769034D01*
X107286048Y-73719687D01*
X107252936Y-73669850D01*
X107247062Y-73662749D01*
X107055876Y-73434904D01*
X107013146Y-73393060D01*
X106970987Y-73350605D01*
X106963846Y-73344781D01*
X106732045Y-73158408D01*
X106682031Y-73125680D01*
X106632398Y-73092202D01*
X106624261Y-73087876D01*
X106360675Y-72950077D01*
X106305219Y-72927672D01*
X106250068Y-72904488D01*
X106241246Y-72901825D01*
X105955915Y-72817847D01*
X105897175Y-72806642D01*
X105838558Y-72794609D01*
X105829386Y-72793710D01*
X105533178Y-72766753D01*
X105473361Y-72767171D01*
X105413544Y-72766753D01*
X105404372Y-72767653D01*
X105108569Y-72798742D01*
X105049972Y-72810771D01*
X104991210Y-72821980D01*
X104982388Y-72824644D01*
X104698257Y-72912598D01*
X104643139Y-72935768D01*
X104587650Y-72958186D01*
X104579514Y-72962513D01*
X104317878Y-73103979D01*
X104268311Y-73137412D01*
X104218232Y-73170183D01*
X104211091Y-73176008D01*
X103981915Y-73365597D01*
X103939774Y-73408034D01*
X103897024Y-73449897D01*
X103891150Y-73456998D01*
X103703164Y-73687492D01*
X103670049Y-73737334D01*
X103636265Y-73786674D01*
X103631882Y-73794781D01*
X103492246Y-74057399D01*
X103469458Y-74112687D01*
X103445886Y-74167683D01*
X103443162Y-74176487D01*
X103410000Y-74286323D01*
X103410000Y-67910000D01*
X160390001Y-67910000D01*
X160390001Y-74287191D01*
G36*
X134351823Y-85228104D02*
G01*
X134554966Y-85475634D01*
X134802495Y-85678777D01*
X134950000Y-85757620D01*
X134950001Y-87111928D01*
X134375000Y-87111928D01*
X134250518Y-87124188D01*
X134130820Y-87160498D01*
X134020506Y-87219463D01*
X133923815Y-87298815D01*
X133862933Y-87373000D01*
X133587067Y-87373000D01*
X133526185Y-87298815D01*
X133429494Y-87219463D01*
X133319180Y-87160498D01*
X133199482Y-87124188D01*
X133075000Y-87111928D01*
X131011730Y-87111928D01*
X130296012Y-86396210D01*
X132407621Y-86396210D01*
X132444943Y-86399886D01*
X132482265Y-86396210D01*
X132482276Y-86396210D01*
X132593929Y-86385213D01*
X132737190Y-86341756D01*
X132869219Y-86271184D01*
X132984944Y-86176211D01*
X133008747Y-86147208D01*
X134204143Y-84951813D01*
X134351823Y-85228104D01*
X134351823Y-85228104D01*
G37*
X134351823Y-85228104D02*
X134554966Y-85475634D01*
X134802495Y-85678777D01*
X134950000Y-85757620D01*
X134950001Y-87111928D01*
X134375000Y-87111928D01*
X134250518Y-87124188D01*
X134130820Y-87160498D01*
X134020506Y-87219463D01*
X133923815Y-87298815D01*
X133862933Y-87373000D01*
X133587067Y-87373000D01*
X133526185Y-87298815D01*
X133429494Y-87219463D01*
X133319180Y-87160498D01*
X133199482Y-87124188D01*
X133075000Y-87111928D01*
X131011730Y-87111928D01*
X130296012Y-86396210D01*
X132407621Y-86396210D01*
X132444943Y-86399886D01*
X132482265Y-86396210D01*
X132482276Y-86396210D01*
X132593929Y-86385213D01*
X132737190Y-86341756D01*
X132869219Y-86271184D01*
X132984944Y-86176211D01*
X133008747Y-86147208D01*
X134204143Y-84951813D01*
X134351823Y-85228104D01*
G36*
X144545858Y-75784506D02*
G01*
X144327496Y-75901223D01*
X144079967Y-76104366D01*
X143876824Y-76351895D01*
X143725876Y-76634300D01*
X143632923Y-76940727D01*
X143609401Y-77179546D01*
X143609400Y-79320453D01*
X143632922Y-79559272D01*
X143725875Y-79865699D01*
X143876823Y-80148104D01*
X144079966Y-80395634D01*
X144327495Y-80598777D01*
X144609900Y-80749725D01*
X144916327Y-80842678D01*
X145235000Y-80874065D01*
X145553672Y-80842678D01*
X145860099Y-80749725D01*
X146142504Y-80598777D01*
X146380000Y-80403868D01*
X146380000Y-80902381D01*
X146232496Y-80981223D01*
X145984967Y-81184366D01*
X145781824Y-81431895D01*
X145630876Y-81714300D01*
X145537923Y-82020727D01*
X145514401Y-82259546D01*
X145514400Y-84400453D01*
X145537922Y-84639272D01*
X145609796Y-84876210D01*
X144960412Y-84876210D01*
X144883527Y-84799325D01*
X144932078Y-84639273D01*
X144955600Y-84400454D01*
X144955600Y-82259546D01*
X144932078Y-82020727D01*
X144839125Y-81714300D01*
X144688177Y-81431895D01*
X144485034Y-81184366D01*
X144237505Y-80981223D01*
X143955100Y-80830275D01*
X143648673Y-80737322D01*
X143330000Y-80705935D01*
X143011328Y-80737322D01*
X142704901Y-80830275D01*
X142422496Y-80981223D01*
X142174967Y-81184366D01*
X142067581Y-81315216D01*
X141608369Y-80856004D01*
X141743672Y-80842678D01*
X142050099Y-80749725D01*
X142332504Y-80598777D01*
X142580034Y-80395634D01*
X142783177Y-80148105D01*
X142934125Y-79865700D01*
X143027078Y-79559273D01*
X143050600Y-79320454D01*
X143050600Y-77179546D01*
X143027078Y-76940727D01*
X142934125Y-76634300D01*
X142783177Y-76351895D01*
X142580034Y-76104366D01*
X142332505Y-75901223D01*
X142050100Y-75750275D01*
X141743673Y-75657322D01*
X141425000Y-75625935D01*
X141106328Y-75657322D01*
X140799901Y-75750275D01*
X140517496Y-75901223D01*
X140269967Y-76104366D01*
X140066824Y-76351895D01*
X139915876Y-76634300D01*
X139822923Y-76940727D01*
X139799401Y-77179546D01*
X139799400Y-79320453D01*
X139822922Y-79559272D01*
X139900126Y-79813782D01*
X139139874Y-79813782D01*
X139217078Y-79559273D01*
X139240600Y-79320454D01*
X139240600Y-77179546D01*
X139217078Y-76940727D01*
X139124125Y-76634300D01*
X138973177Y-76351895D01*
X138770034Y-76104366D01*
X138522505Y-75901223D01*
X138240100Y-75750275D01*
X137933673Y-75657322D01*
X137615000Y-75625935D01*
X137296328Y-75657322D01*
X136989901Y-75750275D01*
X136707496Y-75901223D01*
X136459967Y-76104366D01*
X136256824Y-76351895D01*
X136105876Y-76634300D01*
X136012923Y-76940727D01*
X135989401Y-77179546D01*
X135989400Y-79320453D01*
X136012922Y-79559272D01*
X136090126Y-79813781D01*
X135329875Y-79813781D01*
X135407078Y-79559273D01*
X135430600Y-79320454D01*
X135430600Y-77179546D01*
X135407078Y-76940727D01*
X135314125Y-76634300D01*
X135163177Y-76351895D01*
X134960034Y-76104366D01*
X134712505Y-75901223D01*
X134430100Y-75750275D01*
X134123673Y-75657322D01*
X133805000Y-75625935D01*
X133486328Y-75657322D01*
X133179901Y-75750275D01*
X132897496Y-75901223D01*
X132649967Y-76104366D01*
X132446824Y-76351895D01*
X132295876Y-76634300D01*
X132202923Y-76940727D01*
X132179401Y-77179546D01*
X132179400Y-79320453D01*
X132202922Y-79559272D01*
X132295875Y-79865699D01*
X132446823Y-80148104D01*
X132649966Y-80395634D01*
X132715325Y-80449273D01*
X132378725Y-80785873D01*
X132218673Y-80737322D01*
X131900000Y-80705935D01*
X131581328Y-80737322D01*
X131274901Y-80830275D01*
X130992496Y-80981223D01*
X130744967Y-81184366D01*
X130541824Y-81431895D01*
X130390876Y-81714300D01*
X130297923Y-82020727D01*
X130274401Y-82259546D01*
X130274400Y-84400453D01*
X130297922Y-84639272D01*
X130369796Y-84876210D01*
X129720412Y-84876210D01*
X129643527Y-84799325D01*
X129692078Y-84639273D01*
X129715600Y-84400454D01*
X129715600Y-82259546D01*
X129692078Y-82020727D01*
X129599125Y-81714300D01*
X129448177Y-81431895D01*
X129245034Y-81184366D01*
X128997505Y-80981223D01*
X128715100Y-80830275D01*
X128663697Y-80814682D01*
X128796028Y-80726262D01*
X128926262Y-80596028D01*
X128982177Y-80512345D01*
X129087495Y-80598777D01*
X129369900Y-80749725D01*
X129676327Y-80842678D01*
X129995000Y-80874065D01*
X130313672Y-80842678D01*
X130620099Y-80749725D01*
X130902504Y-80598777D01*
X131150034Y-80395634D01*
X131353177Y-80148105D01*
X131504125Y-79865700D01*
X131597078Y-79559273D01*
X131620600Y-79320454D01*
X131620600Y-77179546D01*
X131597078Y-76940727D01*
X131504125Y-76634300D01*
X131353177Y-76351895D01*
X131150034Y-76104366D01*
X130902505Y-75901223D01*
X130684142Y-75784506D01*
X131708649Y-74760000D01*
X143521352Y-74760000D01*
X144545858Y-75784506D01*
X144545858Y-75784506D01*
G37*
X144545858Y-75784506D02*
X144327496Y-75901223D01*
X144079967Y-76104366D01*
X143876824Y-76351895D01*
X143725876Y-76634300D01*
X143632923Y-76940727D01*
X143609401Y-77179546D01*
X143609400Y-79320453D01*
X143632922Y-79559272D01*
X143725875Y-79865699D01*
X143876823Y-80148104D01*
X144079966Y-80395634D01*
X144327495Y-80598777D01*
X144609900Y-80749725D01*
X144916327Y-80842678D01*
X145235000Y-80874065D01*
X145553672Y-80842678D01*
X145860099Y-80749725D01*
X146142504Y-80598777D01*
X146380000Y-80403868D01*
X146380000Y-80902381D01*
X146232496Y-80981223D01*
X145984967Y-81184366D01*
X145781824Y-81431895D01*
X145630876Y-81714300D01*
X145537923Y-82020727D01*
X145514401Y-82259546D01*
X145514400Y-84400453D01*
X145537922Y-84639272D01*
X145609796Y-84876210D01*
X144960412Y-84876210D01*
X144883527Y-84799325D01*
X144932078Y-84639273D01*
X144955600Y-84400454D01*
X144955600Y-82259546D01*
X144932078Y-82020727D01*
X144839125Y-81714300D01*
X144688177Y-81431895D01*
X144485034Y-81184366D01*
X144237505Y-80981223D01*
X143955100Y-80830275D01*
X143648673Y-80737322D01*
X143330000Y-80705935D01*
X143011328Y-80737322D01*
X142704901Y-80830275D01*
X142422496Y-80981223D01*
X142174967Y-81184366D01*
X142067581Y-81315216D01*
X141608369Y-80856004D01*
X141743672Y-80842678D01*
X142050099Y-80749725D01*
X142332504Y-80598777D01*
X142580034Y-80395634D01*
X142783177Y-80148105D01*
X142934125Y-79865700D01*
X143027078Y-79559273D01*
X143050600Y-79320454D01*
X143050600Y-77179546D01*
X143027078Y-76940727D01*
X142934125Y-76634300D01*
X142783177Y-76351895D01*
X142580034Y-76104366D01*
X142332505Y-75901223D01*
X142050100Y-75750275D01*
X141743673Y-75657322D01*
X141425000Y-75625935D01*
X141106328Y-75657322D01*
X140799901Y-75750275D01*
X140517496Y-75901223D01*
X140269967Y-76104366D01*
X140066824Y-76351895D01*
X139915876Y-76634300D01*
X139822923Y-76940727D01*
X139799401Y-77179546D01*
X139799400Y-79320453D01*
X139822922Y-79559272D01*
X139900126Y-79813782D01*
X139139874Y-79813782D01*
X139217078Y-79559273D01*
X139240600Y-79320454D01*
X139240600Y-77179546D01*
X139217078Y-76940727D01*
X139124125Y-76634300D01*
X138973177Y-76351895D01*
X138770034Y-76104366D01*
X138522505Y-75901223D01*
X138240100Y-75750275D01*
X137933673Y-75657322D01*
X137615000Y-75625935D01*
X137296328Y-75657322D01*
X136989901Y-75750275D01*
X136707496Y-75901223D01*
X136459967Y-76104366D01*
X136256824Y-76351895D01*
X136105876Y-76634300D01*
X136012923Y-76940727D01*
X135989401Y-77179546D01*
X135989400Y-79320453D01*
X136012922Y-79559272D01*
X136090126Y-79813781D01*
X135329875Y-79813781D01*
X135407078Y-79559273D01*
X135430600Y-79320454D01*
X135430600Y-77179546D01*
X135407078Y-76940727D01*
X135314125Y-76634300D01*
X135163177Y-76351895D01*
X134960034Y-76104366D01*
X134712505Y-75901223D01*
X134430100Y-75750275D01*
X134123673Y-75657322D01*
X133805000Y-75625935D01*
X133486328Y-75657322D01*
X133179901Y-75750275D01*
X132897496Y-75901223D01*
X132649967Y-76104366D01*
X132446824Y-76351895D01*
X132295876Y-76634300D01*
X132202923Y-76940727D01*
X132179401Y-77179546D01*
X132179400Y-79320453D01*
X132202922Y-79559272D01*
X132295875Y-79865699D01*
X132446823Y-80148104D01*
X132649966Y-80395634D01*
X132715325Y-80449273D01*
X132378725Y-80785873D01*
X132218673Y-80737322D01*
X131900000Y-80705935D01*
X131581328Y-80737322D01*
X131274901Y-80830275D01*
X130992496Y-80981223D01*
X130744967Y-81184366D01*
X130541824Y-81431895D01*
X130390876Y-81714300D01*
X130297923Y-82020727D01*
X130274401Y-82259546D01*
X130274400Y-84400453D01*
X130297922Y-84639272D01*
X130369796Y-84876210D01*
X129720412Y-84876210D01*
X129643527Y-84799325D01*
X129692078Y-84639273D01*
X129715600Y-84400454D01*
X129715600Y-82259546D01*
X129692078Y-82020727D01*
X129599125Y-81714300D01*
X129448177Y-81431895D01*
X129245034Y-81184366D01*
X128997505Y-80981223D01*
X128715100Y-80830275D01*
X128663697Y-80814682D01*
X128796028Y-80726262D01*
X128926262Y-80596028D01*
X128982177Y-80512345D01*
X129087495Y-80598777D01*
X129369900Y-80749725D01*
X129676327Y-80842678D01*
X129995000Y-80874065D01*
X130313672Y-80842678D01*
X130620099Y-80749725D01*
X130902504Y-80598777D01*
X131150034Y-80395634D01*
X131353177Y-80148105D01*
X131504125Y-79865700D01*
X131597078Y-79559273D01*
X131620600Y-79320454D01*
X131620600Y-77179546D01*
X131597078Y-76940727D01*
X131504125Y-76634300D01*
X131353177Y-76351895D01*
X131150034Y-76104366D01*
X130902505Y-75901223D01*
X130684142Y-75784506D01*
X131708649Y-74760000D01*
X143521352Y-74760000D01*
X144545858Y-75784506D01*
G36*
X160390001Y-123937191D02*
G01*
X160345868Y-123798068D01*
X160322290Y-123743058D01*
X160299508Y-123687783D01*
X160295125Y-123679677D01*
X160151836Y-123419034D01*
X160118048Y-123369687D01*
X160084936Y-123319850D01*
X160079062Y-123312749D01*
X159887876Y-123084904D01*
X159845146Y-123043060D01*
X159802987Y-123000605D01*
X159795846Y-122994781D01*
X159564045Y-122808408D01*
X159514031Y-122775680D01*
X159464398Y-122742202D01*
X159456261Y-122737876D01*
X159192675Y-122600077D01*
X159137219Y-122577672D01*
X159082068Y-122554488D01*
X159073246Y-122551825D01*
X158787915Y-122467847D01*
X158729175Y-122456642D01*
X158670558Y-122444609D01*
X158661386Y-122443710D01*
X158365178Y-122416753D01*
X158305361Y-122417171D01*
X158245544Y-122416753D01*
X158236372Y-122417653D01*
X157940569Y-122448742D01*
X157881972Y-122460771D01*
X157823210Y-122471980D01*
X157814388Y-122474644D01*
X157530257Y-122562598D01*
X157475139Y-122585768D01*
X157419650Y-122608186D01*
X157411514Y-122612513D01*
X157149878Y-122753979D01*
X157100311Y-122787412D01*
X157050232Y-122820183D01*
X157043091Y-122826008D01*
X156813915Y-123015597D01*
X156771774Y-123058034D01*
X156729024Y-123099897D01*
X156723150Y-123106998D01*
X156535164Y-123337492D01*
X156502049Y-123387334D01*
X156468265Y-123436674D01*
X156463882Y-123444781D01*
X156324246Y-123707399D01*
X156301458Y-123762687D01*
X156277886Y-123817683D01*
X156275162Y-123826487D01*
X156189193Y-124111225D01*
X156177570Y-124169925D01*
X156165137Y-124228419D01*
X156164174Y-124237584D01*
X156135150Y-124533596D01*
X156135150Y-124662406D01*
X156155801Y-124766697D01*
X156155800Y-127987952D01*
X156145478Y-128021300D01*
X156136932Y-128102622D01*
X156135299Y-128110870D01*
X156135299Y-128118164D01*
X156132016Y-128149404D01*
X156132016Y-128158620D01*
X156132165Y-128179898D01*
X156135298Y-128209700D01*
X156135298Y-128239680D01*
X156136262Y-128248844D01*
X156169416Y-128544424D01*
X156181853Y-128602936D01*
X156193471Y-128661614D01*
X156196196Y-128670413D01*
X156196197Y-128670419D01*
X156196199Y-128670425D01*
X156286130Y-128953928D01*
X156309691Y-129008899D01*
X156332491Y-129064217D01*
X156336874Y-129072323D01*
X156480163Y-129332965D01*
X156513947Y-129382305D01*
X156547062Y-129432147D01*
X156552936Y-129439247D01*
X156744122Y-129667094D01*
X156786853Y-129708939D01*
X156829013Y-129751395D01*
X156836155Y-129757219D01*
X157067956Y-129943591D01*
X157117968Y-129976318D01*
X157167600Y-130009795D01*
X157175737Y-130014121D01*
X157439323Y-130151921D01*
X157494783Y-130174328D01*
X157549931Y-130197511D01*
X157558753Y-130200174D01*
X157844083Y-130284152D01*
X157902837Y-130295360D01*
X157961441Y-130307390D01*
X157970613Y-130308289D01*
X158266820Y-130335246D01*
X158326638Y-130334828D01*
X158386455Y-130335246D01*
X158395626Y-130334347D01*
X158691430Y-130303257D01*
X158750017Y-130291230D01*
X158808787Y-130280020D01*
X158817609Y-130277356D01*
X159101740Y-130189403D01*
X159156883Y-130166223D01*
X159212348Y-130143814D01*
X159220485Y-130139487D01*
X159482121Y-129998021D01*
X159531705Y-129964576D01*
X159581768Y-129931816D01*
X159588909Y-129925992D01*
X159818085Y-129736401D01*
X159860224Y-129693966D01*
X159902974Y-129652103D01*
X159908848Y-129645002D01*
X160096834Y-129414509D01*
X160129938Y-129364682D01*
X160163733Y-129315327D01*
X160168116Y-129307221D01*
X160307753Y-129044603D01*
X160330560Y-128989269D01*
X160354114Y-128934314D01*
X160356838Y-128925515D01*
X160356840Y-128925509D01*
X160390001Y-128815674D01*
X160390000Y-140890000D01*
X152712265Y-140890000D01*
X152710000Y-139626251D01*
X152551250Y-139467501D01*
X152427000Y-139467501D01*
X152427000Y-139213501D01*
X152551250Y-139213501D01*
X152710000Y-139054751D01*
X152713072Y-137340501D01*
X152700812Y-137216019D01*
X152664502Y-137096321D01*
X152605537Y-136986007D01*
X152526185Y-136889316D01*
X152429494Y-136809964D01*
X152319180Y-136750999D01*
X152199482Y-136714689D01*
X152075000Y-136702429D01*
X151110750Y-136705501D01*
X150952000Y-136864251D01*
X150952000Y-136973000D01*
X150698000Y-136973000D01*
X150698000Y-136864251D01*
X150539250Y-136705501D01*
X149575000Y-136702429D01*
X149450518Y-136714689D01*
X149330820Y-136750999D01*
X149220506Y-136809964D01*
X149123815Y-136889316D01*
X149055138Y-136973000D01*
X148794862Y-136973000D01*
X148726185Y-136889316D01*
X148629494Y-136809964D01*
X148519180Y-136750999D01*
X148399482Y-136714689D01*
X148275000Y-136702429D01*
X145775000Y-136702429D01*
X145650518Y-136714689D01*
X145541931Y-136747629D01*
X144840512Y-136046210D01*
X147647621Y-136046210D01*
X147684943Y-136049886D01*
X147722265Y-136046210D01*
X147722276Y-136046210D01*
X147833929Y-136035213D01*
X147977190Y-135991756D01*
X148109219Y-135921184D01*
X148224944Y-135826211D01*
X148248746Y-135797208D01*
X148966612Y-135079342D01*
X148995611Y-135055544D01*
X149090584Y-134939819D01*
X149161156Y-134807790D01*
X149204613Y-134664529D01*
X149215610Y-134552876D01*
X149215610Y-134552868D01*
X149219286Y-134515543D01*
X149215610Y-134478218D01*
X149215610Y-133107000D01*
X149324400Y-133107000D01*
X149324400Y-134097600D01*
X149380412Y-134412299D01*
X149496742Y-134710023D01*
X149668920Y-134979332D01*
X149890329Y-135209876D01*
X150152461Y-135392795D01*
X150445242Y-135521060D01*
X150571041Y-135551411D01*
X150823000Y-135431942D01*
X150823000Y-133107000D01*
X151077000Y-133107000D01*
X151077000Y-135431942D01*
X151328959Y-135551411D01*
X151454758Y-135521060D01*
X151747539Y-135392795D01*
X152009671Y-135209876D01*
X152231080Y-134979332D01*
X152403258Y-134710023D01*
X152519588Y-134412299D01*
X152575600Y-134097600D01*
X152575600Y-133107000D01*
X151077000Y-133107000D01*
X150823000Y-133107000D01*
X149324400Y-133107000D01*
X149215610Y-133107000D01*
X149215610Y-131481780D01*
X149219286Y-131444457D01*
X149215610Y-131407134D01*
X149215610Y-131407124D01*
X149204613Y-131295471D01*
X149161156Y-131152210D01*
X149145787Y-131123457D01*
X149090584Y-131020180D01*
X149046291Y-130966210D01*
X149552621Y-130966210D01*
X149589943Y-130969886D01*
X149627265Y-130966210D01*
X149627276Y-130966210D01*
X149688606Y-130960169D01*
X149668920Y-130980668D01*
X149496742Y-131249977D01*
X149380412Y-131547701D01*
X149324400Y-131862400D01*
X149324400Y-132853000D01*
X150823000Y-132853000D01*
X150823000Y-130528058D01*
X151077000Y-130528058D01*
X151077000Y-132853000D01*
X152575600Y-132853000D01*
X152575600Y-131862400D01*
X152519588Y-131547701D01*
X152403258Y-131249977D01*
X152231080Y-130980668D01*
X152009671Y-130750124D01*
X151747539Y-130567205D01*
X151454758Y-130438940D01*
X151328959Y-130408589D01*
X151077000Y-130528058D01*
X150823000Y-130528058D01*
X150571041Y-130408589D01*
X150445242Y-130438940D01*
X150421701Y-130449253D01*
X150871612Y-129999342D01*
X150900611Y-129975544D01*
X150995584Y-129859819D01*
X151066156Y-129727790D01*
X151109613Y-129584529D01*
X151120610Y-129472876D01*
X151120610Y-129472868D01*
X151124286Y-129435543D01*
X151120610Y-129398218D01*
X151120610Y-126401779D01*
X151124286Y-126364456D01*
X151120610Y-126327134D01*
X151120610Y-126327124D01*
X151109613Y-126215471D01*
X151066156Y-126072210D01*
X151031674Y-126007700D01*
X150995584Y-125940180D01*
X150924409Y-125853454D01*
X150900611Y-125824456D01*
X150871614Y-125800659D01*
X147759957Y-122689003D01*
X147736154Y-122659999D01*
X147620429Y-122565026D01*
X147488400Y-122494454D01*
X147345139Y-122450997D01*
X147233486Y-122440000D01*
X147233475Y-122440000D01*
X147196153Y-122436324D01*
X147158831Y-122440000D01*
X127337322Y-122440000D01*
X127299999Y-122436324D01*
X127262676Y-122440000D01*
X127262667Y-122440000D01*
X127151014Y-122450997D01*
X127007753Y-122494454D01*
X126875724Y-122565026D01*
X126759999Y-122659999D01*
X126736201Y-122688997D01*
X123888998Y-125536201D01*
X123860000Y-125559999D01*
X123836202Y-125588997D01*
X123836201Y-125588998D01*
X123765026Y-125675724D01*
X123694454Y-125807754D01*
X123670708Y-125886037D01*
X123661907Y-125915052D01*
X123530034Y-125754366D01*
X123282505Y-125551223D01*
X123000100Y-125400275D01*
X122693673Y-125307322D01*
X122375000Y-125275935D01*
X122056328Y-125307322D01*
X121896275Y-125355873D01*
X121173184Y-124632783D01*
X121149381Y-124603779D01*
X121033656Y-124508806D01*
X120901627Y-124438234D01*
X120758366Y-124394777D01*
X120646713Y-124383780D01*
X120646702Y-124383780D01*
X120609380Y-124380104D01*
X120572058Y-124383780D01*
X114697390Y-124383780D01*
X114660067Y-124380104D01*
X114622744Y-124383780D01*
X114622734Y-124383780D01*
X114511081Y-124394777D01*
X114367820Y-124438234D01*
X114235791Y-124508806D01*
X114120066Y-124603779D01*
X114096268Y-124632777D01*
X111023388Y-127705658D01*
X110994390Y-127729456D01*
X110970592Y-127758454D01*
X110970591Y-127758455D01*
X110899416Y-127845181D01*
X110828844Y-127977211D01*
X110807072Y-128048986D01*
X110785388Y-128120471D01*
X110785052Y-128123882D01*
X110770714Y-128269457D01*
X110774391Y-128306789D01*
X110774390Y-134478220D01*
X110770714Y-134515543D01*
X110774390Y-134552865D01*
X110774390Y-134552875D01*
X110785387Y-134664528D01*
X110812693Y-134754544D01*
X110828844Y-134807789D01*
X110899416Y-134939819D01*
X110931844Y-134979332D01*
X110994389Y-135055544D01*
X111023393Y-135079347D01*
X112065001Y-136120956D01*
X112065001Y-136702429D01*
X111575000Y-136702429D01*
X111450518Y-136714689D01*
X111330820Y-136750999D01*
X111220506Y-136809964D01*
X111123815Y-136889316D01*
X111044463Y-136986007D01*
X110985498Y-137096321D01*
X110949188Y-137216019D01*
X110936928Y-137340501D01*
X110936928Y-140890000D01*
X103410000Y-140890000D01*
X103410000Y-128814810D01*
X103454130Y-128953928D01*
X103477691Y-129008899D01*
X103500491Y-129064217D01*
X103504874Y-129072323D01*
X103648163Y-129332965D01*
X103681947Y-129382305D01*
X103715062Y-129432147D01*
X103720936Y-129439247D01*
X103912122Y-129667094D01*
X103954853Y-129708939D01*
X103997013Y-129751395D01*
X104004155Y-129757219D01*
X104235956Y-129943591D01*
X104285968Y-129976318D01*
X104335600Y-130009795D01*
X104343737Y-130014121D01*
X104607323Y-130151921D01*
X104662783Y-130174328D01*
X104717931Y-130197511D01*
X104726753Y-130200174D01*
X105012083Y-130284152D01*
X105070837Y-130295360D01*
X105129441Y-130307390D01*
X105138613Y-130308289D01*
X105434820Y-130335246D01*
X105494638Y-130334828D01*
X105554455Y-130335246D01*
X105563626Y-130334347D01*
X105859430Y-130303257D01*
X105918017Y-130291230D01*
X105976787Y-130280020D01*
X105985609Y-130277356D01*
X106269740Y-130189403D01*
X106324883Y-130166223D01*
X106380348Y-130143814D01*
X106388485Y-130139487D01*
X106650121Y-129998021D01*
X106699705Y-129964576D01*
X106749768Y-129931816D01*
X106756909Y-129925992D01*
X106986085Y-129736401D01*
X107028224Y-129693966D01*
X107070974Y-129652103D01*
X107076848Y-129645002D01*
X107264834Y-129414509D01*
X107297938Y-129364682D01*
X107331733Y-129315327D01*
X107336116Y-129307221D01*
X107475753Y-129044603D01*
X107498560Y-128989269D01*
X107522114Y-128934314D01*
X107524838Y-128925515D01*
X107524840Y-128925509D01*
X107610806Y-128640773D01*
X107622422Y-128582108D01*
X107634862Y-128523584D01*
X107635825Y-128514419D01*
X107664850Y-128218406D01*
X107664850Y-128089596D01*
X107644200Y-127985305D01*
X107644200Y-124764047D01*
X107654522Y-124730699D01*
X107663068Y-124649377D01*
X107664701Y-124641129D01*
X107664701Y-124633835D01*
X107667984Y-124602594D01*
X107667984Y-124593379D01*
X107667835Y-124572100D01*
X107664702Y-124542298D01*
X107664702Y-124512319D01*
X107663738Y-124503154D01*
X107630584Y-124207575D01*
X107618151Y-124149081D01*
X107606528Y-124090381D01*
X107603803Y-124081578D01*
X107513868Y-123798068D01*
X107490290Y-123743058D01*
X107467508Y-123687783D01*
X107463125Y-123679677D01*
X107319836Y-123419034D01*
X107286048Y-123369687D01*
X107252936Y-123319850D01*
X107247062Y-123312749D01*
X107055876Y-123084904D01*
X107013146Y-123043060D01*
X106970987Y-123000605D01*
X106963846Y-122994781D01*
X106732045Y-122808408D01*
X106682031Y-122775680D01*
X106632398Y-122742202D01*
X106624261Y-122737876D01*
X106360675Y-122600077D01*
X106305219Y-122577672D01*
X106250068Y-122554488D01*
X106241246Y-122551825D01*
X105955915Y-122467847D01*
X105897175Y-122456642D01*
X105838558Y-122444609D01*
X105829386Y-122443710D01*
X105533178Y-122416753D01*
X105473361Y-122417171D01*
X105413544Y-122416753D01*
X105404372Y-122417653D01*
X105108569Y-122448742D01*
X105049972Y-122460771D01*
X104991210Y-122471980D01*
X104982388Y-122474644D01*
X104698257Y-122562598D01*
X104643139Y-122585768D01*
X104587650Y-122608186D01*
X104579514Y-122612513D01*
X104317878Y-122753979D01*
X104268311Y-122787412D01*
X104218232Y-122820183D01*
X104211091Y-122826008D01*
X103981915Y-123015597D01*
X103939774Y-123058034D01*
X103897024Y-123099897D01*
X103891150Y-123106998D01*
X103703164Y-123337492D01*
X103670049Y-123387334D01*
X103636265Y-123436674D01*
X103631882Y-123444781D01*
X103492246Y-123707399D01*
X103469458Y-123762687D01*
X103445886Y-123817683D01*
X103443162Y-123826487D01*
X103410000Y-123936323D01*
X103410000Y-117510000D01*
X160390001Y-117510000D01*
X160390001Y-123937191D01*
X160390001Y-123937191D01*
G37*
X160390001Y-123937191D02*
X160345868Y-123798068D01*
X160322290Y-123743058D01*
X160299508Y-123687783D01*
X160295125Y-123679677D01*
X160151836Y-123419034D01*
X160118048Y-123369687D01*
X160084936Y-123319850D01*
X160079062Y-123312749D01*
X159887876Y-123084904D01*
X159845146Y-123043060D01*
X159802987Y-123000605D01*
X159795846Y-122994781D01*
X159564045Y-122808408D01*
X159514031Y-122775680D01*
X159464398Y-122742202D01*
X159456261Y-122737876D01*
X159192675Y-122600077D01*
X159137219Y-122577672D01*
X159082068Y-122554488D01*
X159073246Y-122551825D01*
X158787915Y-122467847D01*
X158729175Y-122456642D01*
X158670558Y-122444609D01*
X158661386Y-122443710D01*
X158365178Y-122416753D01*
X158305361Y-122417171D01*
X158245544Y-122416753D01*
X158236372Y-122417653D01*
X157940569Y-122448742D01*
X157881972Y-122460771D01*
X157823210Y-122471980D01*
X157814388Y-122474644D01*
X157530257Y-122562598D01*
X157475139Y-122585768D01*
X157419650Y-122608186D01*
X157411514Y-122612513D01*
X157149878Y-122753979D01*
X157100311Y-122787412D01*
X157050232Y-122820183D01*
X157043091Y-122826008D01*
X156813915Y-123015597D01*
X156771774Y-123058034D01*
X156729024Y-123099897D01*
X156723150Y-123106998D01*
X156535164Y-123337492D01*
X156502049Y-123387334D01*
X156468265Y-123436674D01*
X156463882Y-123444781D01*
X156324246Y-123707399D01*
X156301458Y-123762687D01*
X156277886Y-123817683D01*
X156275162Y-123826487D01*
X156189193Y-124111225D01*
X156177570Y-124169925D01*
X156165137Y-124228419D01*
X156164174Y-124237584D01*
X156135150Y-124533596D01*
X156135150Y-124662406D01*
X156155801Y-124766697D01*
X156155800Y-127987952D01*
X156145478Y-128021300D01*
X156136932Y-128102622D01*
X156135299Y-128110870D01*
X156135299Y-128118164D01*
X156132016Y-128149404D01*
X156132016Y-128158620D01*
X156132165Y-128179898D01*
X156135298Y-128209700D01*
X156135298Y-128239680D01*
X156136262Y-128248844D01*
X156169416Y-128544424D01*
X156181853Y-128602936D01*
X156193471Y-128661614D01*
X156196196Y-128670413D01*
X156196197Y-128670419D01*
X156196199Y-128670425D01*
X156286130Y-128953928D01*
X156309691Y-129008899D01*
X156332491Y-129064217D01*
X156336874Y-129072323D01*
X156480163Y-129332965D01*
X156513947Y-129382305D01*
X156547062Y-129432147D01*
X156552936Y-129439247D01*
X156744122Y-129667094D01*
X156786853Y-129708939D01*
X156829013Y-129751395D01*
X156836155Y-129757219D01*
X157067956Y-129943591D01*
X157117968Y-129976318D01*
X157167600Y-130009795D01*
X157175737Y-130014121D01*
X157439323Y-130151921D01*
X157494783Y-130174328D01*
X157549931Y-130197511D01*
X157558753Y-130200174D01*
X157844083Y-130284152D01*
X157902837Y-130295360D01*
X157961441Y-130307390D01*
X157970613Y-130308289D01*
X158266820Y-130335246D01*
X158326638Y-130334828D01*
X158386455Y-130335246D01*
X158395626Y-130334347D01*
X158691430Y-130303257D01*
X158750017Y-130291230D01*
X158808787Y-130280020D01*
X158817609Y-130277356D01*
X159101740Y-130189403D01*
X159156883Y-130166223D01*
X159212348Y-130143814D01*
X159220485Y-130139487D01*
X159482121Y-129998021D01*
X159531705Y-129964576D01*
X159581768Y-129931816D01*
X159588909Y-129925992D01*
X159818085Y-129736401D01*
X159860224Y-129693966D01*
X159902974Y-129652103D01*
X159908848Y-129645002D01*
X160096834Y-129414509D01*
X160129938Y-129364682D01*
X160163733Y-129315327D01*
X160168116Y-129307221D01*
X160307753Y-129044603D01*
X160330560Y-128989269D01*
X160354114Y-128934314D01*
X160356838Y-128925515D01*
X160356840Y-128925509D01*
X160390001Y-128815674D01*
X160390000Y-140890000D01*
X152712265Y-140890000D01*
X152710000Y-139626251D01*
X152551250Y-139467501D01*
X152427000Y-139467501D01*
X152427000Y-139213501D01*
X152551250Y-139213501D01*
X152710000Y-139054751D01*
X152713072Y-137340501D01*
X152700812Y-137216019D01*
X152664502Y-137096321D01*
X152605537Y-136986007D01*
X152526185Y-136889316D01*
X152429494Y-136809964D01*
X152319180Y-136750999D01*
X152199482Y-136714689D01*
X152075000Y-136702429D01*
X151110750Y-136705501D01*
X150952000Y-136864251D01*
X150952000Y-136973000D01*
X150698000Y-136973000D01*
X150698000Y-136864251D01*
X150539250Y-136705501D01*
X149575000Y-136702429D01*
X149450518Y-136714689D01*
X149330820Y-136750999D01*
X149220506Y-136809964D01*
X149123815Y-136889316D01*
X149055138Y-136973000D01*
X148794862Y-136973000D01*
X148726185Y-136889316D01*
X148629494Y-136809964D01*
X148519180Y-136750999D01*
X148399482Y-136714689D01*
X148275000Y-136702429D01*
X145775000Y-136702429D01*
X145650518Y-136714689D01*
X145541931Y-136747629D01*
X144840512Y-136046210D01*
X147647621Y-136046210D01*
X147684943Y-136049886D01*
X147722265Y-136046210D01*
X147722276Y-136046210D01*
X147833929Y-136035213D01*
X147977190Y-135991756D01*
X148109219Y-135921184D01*
X148224944Y-135826211D01*
X148248746Y-135797208D01*
X148966612Y-135079342D01*
X148995611Y-135055544D01*
X149090584Y-134939819D01*
X149161156Y-134807790D01*
X149204613Y-134664529D01*
X149215610Y-134552876D01*
X149215610Y-134552868D01*
X149219286Y-134515543D01*
X149215610Y-134478218D01*
X149215610Y-133107000D01*
X149324400Y-133107000D01*
X149324400Y-134097600D01*
X149380412Y-134412299D01*
X149496742Y-134710023D01*
X149668920Y-134979332D01*
X149890329Y-135209876D01*
X150152461Y-135392795D01*
X150445242Y-135521060D01*
X150571041Y-135551411D01*
X150823000Y-135431942D01*
X150823000Y-133107000D01*
X151077000Y-133107000D01*
X151077000Y-135431942D01*
X151328959Y-135551411D01*
X151454758Y-135521060D01*
X151747539Y-135392795D01*
X152009671Y-135209876D01*
X152231080Y-134979332D01*
X152403258Y-134710023D01*
X152519588Y-134412299D01*
X152575600Y-134097600D01*
X152575600Y-133107000D01*
X151077000Y-133107000D01*
X150823000Y-133107000D01*
X149324400Y-133107000D01*
X149215610Y-133107000D01*
X149215610Y-131481780D01*
X149219286Y-131444457D01*
X149215610Y-131407134D01*
X149215610Y-131407124D01*
X149204613Y-131295471D01*
X149161156Y-131152210D01*
X149145787Y-131123457D01*
X149090584Y-131020180D01*
X149046291Y-130966210D01*
X149552621Y-130966210D01*
X149589943Y-130969886D01*
X149627265Y-130966210D01*
X149627276Y-130966210D01*
X149688606Y-130960169D01*
X149668920Y-130980668D01*
X149496742Y-131249977D01*
X149380412Y-131547701D01*
X149324400Y-131862400D01*
X149324400Y-132853000D01*
X150823000Y-132853000D01*
X150823000Y-130528058D01*
X151077000Y-130528058D01*
X151077000Y-132853000D01*
X152575600Y-132853000D01*
X152575600Y-131862400D01*
X152519588Y-131547701D01*
X152403258Y-131249977D01*
X152231080Y-130980668D01*
X152009671Y-130750124D01*
X151747539Y-130567205D01*
X151454758Y-130438940D01*
X151328959Y-130408589D01*
X151077000Y-130528058D01*
X150823000Y-130528058D01*
X150571041Y-130408589D01*
X150445242Y-130438940D01*
X150421701Y-130449253D01*
X150871612Y-129999342D01*
X150900611Y-129975544D01*
X150995584Y-129859819D01*
X151066156Y-129727790D01*
X151109613Y-129584529D01*
X151120610Y-129472876D01*
X151120610Y-129472868D01*
X151124286Y-129435543D01*
X151120610Y-129398218D01*
X151120610Y-126401779D01*
X151124286Y-126364456D01*
X151120610Y-126327134D01*
X151120610Y-126327124D01*
X151109613Y-126215471D01*
X151066156Y-126072210D01*
X151031674Y-126007700D01*
X150995584Y-125940180D01*
X150924409Y-125853454D01*
X150900611Y-125824456D01*
X150871614Y-125800659D01*
X147759957Y-122689003D01*
X147736154Y-122659999D01*
X147620429Y-122565026D01*
X147488400Y-122494454D01*
X147345139Y-122450997D01*
X147233486Y-122440000D01*
X147233475Y-122440000D01*
X147196153Y-122436324D01*
X147158831Y-122440000D01*
X127337322Y-122440000D01*
X127299999Y-122436324D01*
X127262676Y-122440000D01*
X127262667Y-122440000D01*
X127151014Y-122450997D01*
X127007753Y-122494454D01*
X126875724Y-122565026D01*
X126759999Y-122659999D01*
X126736201Y-122688997D01*
X123888998Y-125536201D01*
X123860000Y-125559999D01*
X123836202Y-125588997D01*
X123836201Y-125588998D01*
X123765026Y-125675724D01*
X123694454Y-125807754D01*
X123670708Y-125886037D01*
X123661907Y-125915052D01*
X123530034Y-125754366D01*
X123282505Y-125551223D01*
X123000100Y-125400275D01*
X122693673Y-125307322D01*
X122375000Y-125275935D01*
X122056328Y-125307322D01*
X121896275Y-125355873D01*
X121173184Y-124632783D01*
X121149381Y-124603779D01*
X121033656Y-124508806D01*
X120901627Y-124438234D01*
X120758366Y-124394777D01*
X120646713Y-124383780D01*
X120646702Y-124383780D01*
X120609380Y-124380104D01*
X120572058Y-124383780D01*
X114697390Y-124383780D01*
X114660067Y-124380104D01*
X114622744Y-124383780D01*
X114622734Y-124383780D01*
X114511081Y-124394777D01*
X114367820Y-124438234D01*
X114235791Y-124508806D01*
X114120066Y-124603779D01*
X114096268Y-124632777D01*
X111023388Y-127705658D01*
X110994390Y-127729456D01*
X110970592Y-127758454D01*
X110970591Y-127758455D01*
X110899416Y-127845181D01*
X110828844Y-127977211D01*
X110807072Y-128048986D01*
X110785388Y-128120471D01*
X110785052Y-128123882D01*
X110770714Y-128269457D01*
X110774391Y-128306789D01*
X110774390Y-134478220D01*
X110770714Y-134515543D01*
X110774390Y-134552865D01*
X110774390Y-134552875D01*
X110785387Y-134664528D01*
X110812693Y-134754544D01*
X110828844Y-134807789D01*
X110899416Y-134939819D01*
X110931844Y-134979332D01*
X110994389Y-135055544D01*
X111023393Y-135079347D01*
X112065001Y-136120956D01*
X112065001Y-136702429D01*
X111575000Y-136702429D01*
X111450518Y-136714689D01*
X111330820Y-136750999D01*
X111220506Y-136809964D01*
X111123815Y-136889316D01*
X111044463Y-136986007D01*
X110985498Y-137096321D01*
X110949188Y-137216019D01*
X110936928Y-137340501D01*
X110936928Y-140890000D01*
X103410000Y-140890000D01*
X103410000Y-128814810D01*
X103454130Y-128953928D01*
X103477691Y-129008899D01*
X103500491Y-129064217D01*
X103504874Y-129072323D01*
X103648163Y-129332965D01*
X103681947Y-129382305D01*
X103715062Y-129432147D01*
X103720936Y-129439247D01*
X103912122Y-129667094D01*
X103954853Y-129708939D01*
X103997013Y-129751395D01*
X104004155Y-129757219D01*
X104235956Y-129943591D01*
X104285968Y-129976318D01*
X104335600Y-130009795D01*
X104343737Y-130014121D01*
X104607323Y-130151921D01*
X104662783Y-130174328D01*
X104717931Y-130197511D01*
X104726753Y-130200174D01*
X105012083Y-130284152D01*
X105070837Y-130295360D01*
X105129441Y-130307390D01*
X105138613Y-130308289D01*
X105434820Y-130335246D01*
X105494638Y-130334828D01*
X105554455Y-130335246D01*
X105563626Y-130334347D01*
X105859430Y-130303257D01*
X105918017Y-130291230D01*
X105976787Y-130280020D01*
X105985609Y-130277356D01*
X106269740Y-130189403D01*
X106324883Y-130166223D01*
X106380348Y-130143814D01*
X106388485Y-130139487D01*
X106650121Y-129998021D01*
X106699705Y-129964576D01*
X106749768Y-129931816D01*
X106756909Y-129925992D01*
X106986085Y-129736401D01*
X107028224Y-129693966D01*
X107070974Y-129652103D01*
X107076848Y-129645002D01*
X107264834Y-129414509D01*
X107297938Y-129364682D01*
X107331733Y-129315327D01*
X107336116Y-129307221D01*
X107475753Y-129044603D01*
X107498560Y-128989269D01*
X107522114Y-128934314D01*
X107524838Y-128925515D01*
X107524840Y-128925509D01*
X107610806Y-128640773D01*
X107622422Y-128582108D01*
X107634862Y-128523584D01*
X107635825Y-128514419D01*
X107664850Y-128218406D01*
X107664850Y-128089596D01*
X107644200Y-127985305D01*
X107644200Y-124764047D01*
X107654522Y-124730699D01*
X107663068Y-124649377D01*
X107664701Y-124641129D01*
X107664701Y-124633835D01*
X107667984Y-124602594D01*
X107667984Y-124593379D01*
X107667835Y-124572100D01*
X107664702Y-124542298D01*
X107664702Y-124512319D01*
X107663738Y-124503154D01*
X107630584Y-124207575D01*
X107618151Y-124149081D01*
X107606528Y-124090381D01*
X107603803Y-124081578D01*
X107513868Y-123798068D01*
X107490290Y-123743058D01*
X107467508Y-123687783D01*
X107463125Y-123679677D01*
X107319836Y-123419034D01*
X107286048Y-123369687D01*
X107252936Y-123319850D01*
X107247062Y-123312749D01*
X107055876Y-123084904D01*
X107013146Y-123043060D01*
X106970987Y-123000605D01*
X106963846Y-122994781D01*
X106732045Y-122808408D01*
X106682031Y-122775680D01*
X106632398Y-122742202D01*
X106624261Y-122737876D01*
X106360675Y-122600077D01*
X106305219Y-122577672D01*
X106250068Y-122554488D01*
X106241246Y-122551825D01*
X105955915Y-122467847D01*
X105897175Y-122456642D01*
X105838558Y-122444609D01*
X105829386Y-122443710D01*
X105533178Y-122416753D01*
X105473361Y-122417171D01*
X105413544Y-122416753D01*
X105404372Y-122417653D01*
X105108569Y-122448742D01*
X105049972Y-122460771D01*
X104991210Y-122471980D01*
X104982388Y-122474644D01*
X104698257Y-122562598D01*
X104643139Y-122585768D01*
X104587650Y-122608186D01*
X104579514Y-122612513D01*
X104317878Y-122753979D01*
X104268311Y-122787412D01*
X104218232Y-122820183D01*
X104211091Y-122826008D01*
X103981915Y-123015597D01*
X103939774Y-123058034D01*
X103897024Y-123099897D01*
X103891150Y-123106998D01*
X103703164Y-123337492D01*
X103670049Y-123387334D01*
X103636265Y-123436674D01*
X103631882Y-123444781D01*
X103492246Y-123707399D01*
X103469458Y-123762687D01*
X103445886Y-123817683D01*
X103443162Y-123826487D01*
X103410000Y-123936323D01*
X103410000Y-117510000D01*
X160390001Y-117510000D01*
X160390001Y-123937191D01*
G36*
X122360667Y-136292246D02*
G01*
X122424389Y-136369892D01*
X122453393Y-136393695D01*
X122792106Y-136732408D01*
X122730820Y-136750999D01*
X122620506Y-136809964D01*
X122523815Y-136889316D01*
X122455138Y-136973000D01*
X122194862Y-136973000D01*
X122126185Y-136889316D01*
X122029494Y-136809964D01*
X121919180Y-136750999D01*
X121857894Y-136732408D01*
X122332445Y-136257858D01*
X122360667Y-136292246D01*
X122360667Y-136292246D01*
G37*
X122360667Y-136292246D02*
X122424389Y-136369892D01*
X122453393Y-136393695D01*
X122792106Y-136732408D01*
X122730820Y-136750999D01*
X122620506Y-136809964D01*
X122523815Y-136889316D01*
X122455138Y-136973000D01*
X122194862Y-136973000D01*
X122126185Y-136889316D01*
X122029494Y-136809964D01*
X121919180Y-136750999D01*
X121857894Y-136732408D01*
X122332445Y-136257858D01*
X122360667Y-136292246D01*
G36*
X137917923Y-131670727D02*
G01*
X137894401Y-131909546D01*
X137894400Y-134050453D01*
X137917922Y-134289272D01*
X138010875Y-134595699D01*
X138161823Y-134878104D01*
X138364966Y-135125634D01*
X138612495Y-135328777D01*
X138760000Y-135407620D01*
X138760000Y-135921338D01*
X138755492Y-135936201D01*
X138750998Y-135951015D01*
X138736324Y-136100000D01*
X138740001Y-136137332D01*
X138740001Y-136702429D01*
X138175000Y-136702429D01*
X138050518Y-136714689D01*
X137930820Y-136750999D01*
X137820506Y-136809964D01*
X137723815Y-136889316D01*
X137655138Y-136973000D01*
X137394862Y-136973000D01*
X137326185Y-136889316D01*
X137229494Y-136809964D01*
X137119180Y-136750999D01*
X136999482Y-136714689D01*
X136875000Y-136702429D01*
X136385000Y-136702429D01*
X136385000Y-135453052D01*
X136617504Y-135328777D01*
X136865034Y-135125634D01*
X137068177Y-134878105D01*
X137219125Y-134595700D01*
X137312078Y-134289273D01*
X137335600Y-134050454D01*
X137335600Y-131909546D01*
X137312078Y-131670727D01*
X137240204Y-131433790D01*
X137989797Y-131433790D01*
X137917923Y-131670727D01*
X137917923Y-131670727D01*
G37*
X137917923Y-131670727D02*
X137894401Y-131909546D01*
X137894400Y-134050453D01*
X137917922Y-134289272D01*
X138010875Y-134595699D01*
X138161823Y-134878104D01*
X138364966Y-135125634D01*
X138612495Y-135328777D01*
X138760000Y-135407620D01*
X138760000Y-135921338D01*
X138755492Y-135936201D01*
X138750998Y-135951015D01*
X138736324Y-136100000D01*
X138740001Y-136137332D01*
X138740001Y-136702429D01*
X138175000Y-136702429D01*
X138050518Y-136714689D01*
X137930820Y-136750999D01*
X137820506Y-136809964D01*
X137723815Y-136889316D01*
X137655138Y-136973000D01*
X137394862Y-136973000D01*
X137326185Y-136889316D01*
X137229494Y-136809964D01*
X137119180Y-136750999D01*
X136999482Y-136714689D01*
X136875000Y-136702429D01*
X136385000Y-136702429D01*
X136385000Y-135453052D01*
X136617504Y-135328777D01*
X136865034Y-135125634D01*
X137068177Y-134878105D01*
X137219125Y-134595700D01*
X137312078Y-134289273D01*
X137335600Y-134050454D01*
X137335600Y-131909546D01*
X137312078Y-131670727D01*
X137240204Y-131433790D01*
X137989797Y-131433790D01*
X137917923Y-131670727D01*
G36*
X145586474Y-131510675D02*
G01*
X145537923Y-131670727D01*
X145514401Y-131909546D01*
X145514400Y-134050453D01*
X145537922Y-134289272D01*
X145609796Y-134526210D01*
X144960412Y-134526210D01*
X144883527Y-134449325D01*
X144932078Y-134289273D01*
X144955600Y-134050454D01*
X144955600Y-131909546D01*
X144932078Y-131670727D01*
X144860204Y-131433790D01*
X145509589Y-131433790D01*
X145586474Y-131510675D01*
X145586474Y-131510675D01*
G37*
X145586474Y-131510675D02*
X145537923Y-131670727D01*
X145514401Y-131909546D01*
X145514400Y-134050453D01*
X145537922Y-134289272D01*
X145609796Y-134526210D01*
X144960412Y-134526210D01*
X144883527Y-134449325D01*
X144932078Y-134289273D01*
X144955600Y-134050454D01*
X144955600Y-131909546D01*
X144932078Y-131670727D01*
X144860204Y-131433790D01*
X145509589Y-131433790D01*
X145586474Y-131510675D01*
G36*
X147491474Y-126430675D02*
G01*
X147442923Y-126590727D01*
X147419401Y-126829546D01*
X147419400Y-128697035D01*
X146860600Y-128138235D01*
X146860600Y-126829546D01*
X146837078Y-126590727D01*
X146744125Y-126284300D01*
X146593177Y-126001895D01*
X146390034Y-125754366D01*
X146142505Y-125551223D01*
X145860100Y-125400275D01*
X145553673Y-125307322D01*
X145235000Y-125275935D01*
X144916328Y-125307322D01*
X144609901Y-125400275D01*
X144327496Y-125551223D01*
X144079967Y-125754366D01*
X143876824Y-126001895D01*
X143725876Y-126284300D01*
X143632923Y-126590727D01*
X143609401Y-126829546D01*
X143609400Y-128970453D01*
X143632922Y-129209272D01*
X143710126Y-129463780D01*
X142949875Y-129463780D01*
X143027078Y-129209273D01*
X143050600Y-128970454D01*
X143050600Y-126829546D01*
X143027078Y-126590727D01*
X142934125Y-126284300D01*
X142783177Y-126001895D01*
X142580034Y-125754366D01*
X142332505Y-125551223D01*
X142050100Y-125400275D01*
X141743673Y-125307322D01*
X141425000Y-125275935D01*
X141106328Y-125307322D01*
X140799901Y-125400275D01*
X140517496Y-125551223D01*
X140269967Y-125754366D01*
X140066824Y-126001895D01*
X139915876Y-126284300D01*
X139822923Y-126590727D01*
X139799401Y-126829546D01*
X139799400Y-128970453D01*
X139822922Y-129209272D01*
X139900126Y-129463780D01*
X139139875Y-129463780D01*
X139217078Y-129209273D01*
X139240600Y-128970454D01*
X139240600Y-126829546D01*
X139217078Y-126590727D01*
X139124125Y-126284300D01*
X138973177Y-126001895D01*
X138770034Y-125754366D01*
X138522505Y-125551223D01*
X138240100Y-125400275D01*
X137933673Y-125307322D01*
X137615000Y-125275935D01*
X137296328Y-125307322D01*
X136989901Y-125400275D01*
X136707496Y-125551223D01*
X136459967Y-125754366D01*
X136256824Y-126001895D01*
X136105876Y-126284300D01*
X136012923Y-126590727D01*
X135989401Y-126829546D01*
X135989400Y-128970453D01*
X136012922Y-129209272D01*
X136090126Y-129463780D01*
X135329875Y-129463780D01*
X135407078Y-129209273D01*
X135430600Y-128970454D01*
X135430600Y-126829546D01*
X135407078Y-126590727D01*
X135314125Y-126284300D01*
X135163177Y-126001895D01*
X134960034Y-125754366D01*
X134712505Y-125551223D01*
X134430100Y-125400275D01*
X134123673Y-125307322D01*
X133805000Y-125275935D01*
X133486328Y-125307322D01*
X133179901Y-125400275D01*
X132897496Y-125551223D01*
X132649967Y-125754366D01*
X132446824Y-126001895D01*
X132295876Y-126284300D01*
X132202923Y-126590727D01*
X132179401Y-126829546D01*
X132179400Y-128970453D01*
X132202922Y-129209272D01*
X132295875Y-129515699D01*
X132446823Y-129798104D01*
X132649966Y-130045634D01*
X132897495Y-130248777D01*
X133179900Y-130399725D01*
X133486327Y-130492678D01*
X133621631Y-130506004D01*
X133433379Y-130694257D01*
X133404381Y-130718055D01*
X133380583Y-130747053D01*
X133380582Y-130747054D01*
X133309407Y-130833780D01*
X133238835Y-130965810D01*
X133222342Y-131020182D01*
X133218345Y-131033360D01*
X133055034Y-130834366D01*
X132807505Y-130631223D01*
X132525100Y-130480275D01*
X132218673Y-130387322D01*
X131900000Y-130355935D01*
X131581328Y-130387322D01*
X131274901Y-130480275D01*
X130992496Y-130631223D01*
X130902086Y-130705421D01*
X130872858Y-130558481D01*
X130802376Y-130388321D01*
X130760023Y-130324935D01*
X130902504Y-130248777D01*
X131150034Y-130045634D01*
X131353177Y-129798105D01*
X131504125Y-129515700D01*
X131597078Y-129209273D01*
X131620600Y-128970454D01*
X131620600Y-126829546D01*
X131597078Y-126590727D01*
X131504125Y-126284300D01*
X131353177Y-126001895D01*
X131150034Y-125754366D01*
X130902505Y-125551223D01*
X130620100Y-125400275D01*
X130313673Y-125307322D01*
X129995000Y-125275935D01*
X129676328Y-125307322D01*
X129369901Y-125400275D01*
X129087496Y-125551223D01*
X128839967Y-125754366D01*
X128636824Y-126001895D01*
X128485876Y-126284300D01*
X128392923Y-126590727D01*
X128369401Y-126829546D01*
X128369400Y-128340974D01*
X128272729Y-128300932D01*
X128092089Y-128265000D01*
X127907911Y-128265000D01*
X127810600Y-128284357D01*
X127810600Y-126829546D01*
X127787078Y-126590727D01*
X127694125Y-126284300D01*
X127543177Y-126001895D01*
X127340034Y-125754366D01*
X127092505Y-125551223D01*
X126874142Y-125434506D01*
X127848649Y-124460000D01*
X145520799Y-124460000D01*
X147491474Y-126430675D01*
X147491474Y-126430675D01*
G37*
X147491474Y-126430675D02*
X147442923Y-126590727D01*
X147419401Y-126829546D01*
X147419400Y-128697035D01*
X146860600Y-128138235D01*
X146860600Y-126829546D01*
X146837078Y-126590727D01*
X146744125Y-126284300D01*
X146593177Y-126001895D01*
X146390034Y-125754366D01*
X146142505Y-125551223D01*
X145860100Y-125400275D01*
X145553673Y-125307322D01*
X145235000Y-125275935D01*
X144916328Y-125307322D01*
X144609901Y-125400275D01*
X144327496Y-125551223D01*
X144079967Y-125754366D01*
X143876824Y-126001895D01*
X143725876Y-126284300D01*
X143632923Y-126590727D01*
X143609401Y-126829546D01*
X143609400Y-128970453D01*
X143632922Y-129209272D01*
X143710126Y-129463780D01*
X142949875Y-129463780D01*
X143027078Y-129209273D01*
X143050600Y-128970454D01*
X143050600Y-126829546D01*
X143027078Y-126590727D01*
X142934125Y-126284300D01*
X142783177Y-126001895D01*
X142580034Y-125754366D01*
X142332505Y-125551223D01*
X142050100Y-125400275D01*
X141743673Y-125307322D01*
X141425000Y-125275935D01*
X141106328Y-125307322D01*
X140799901Y-125400275D01*
X140517496Y-125551223D01*
X140269967Y-125754366D01*
X140066824Y-126001895D01*
X139915876Y-126284300D01*
X139822923Y-126590727D01*
X139799401Y-126829546D01*
X139799400Y-128970453D01*
X139822922Y-129209272D01*
X139900126Y-129463780D01*
X139139875Y-129463780D01*
X139217078Y-129209273D01*
X139240600Y-128970454D01*
X139240600Y-126829546D01*
X139217078Y-126590727D01*
X139124125Y-126284300D01*
X138973177Y-126001895D01*
X138770034Y-125754366D01*
X138522505Y-125551223D01*
X138240100Y-125400275D01*
X137933673Y-125307322D01*
X137615000Y-125275935D01*
X137296328Y-125307322D01*
X136989901Y-125400275D01*
X136707496Y-125551223D01*
X136459967Y-125754366D01*
X136256824Y-126001895D01*
X136105876Y-126284300D01*
X136012923Y-126590727D01*
X135989401Y-126829546D01*
X135989400Y-128970453D01*
X136012922Y-129209272D01*
X136090126Y-129463780D01*
X135329875Y-129463780D01*
X135407078Y-129209273D01*
X135430600Y-128970454D01*
X135430600Y-126829546D01*
X135407078Y-126590727D01*
X135314125Y-126284300D01*
X135163177Y-126001895D01*
X134960034Y-125754366D01*
X134712505Y-125551223D01*
X134430100Y-125400275D01*
X134123673Y-125307322D01*
X133805000Y-125275935D01*
X133486328Y-125307322D01*
X133179901Y-125400275D01*
X132897496Y-125551223D01*
X132649967Y-125754366D01*
X132446824Y-126001895D01*
X132295876Y-126284300D01*
X132202923Y-126590727D01*
X132179401Y-126829546D01*
X132179400Y-128970453D01*
X132202922Y-129209272D01*
X132295875Y-129515699D01*
X132446823Y-129798104D01*
X132649966Y-130045634D01*
X132897495Y-130248777D01*
X133179900Y-130399725D01*
X133486327Y-130492678D01*
X133621631Y-130506004D01*
X133433379Y-130694257D01*
X133404381Y-130718055D01*
X133380583Y-130747053D01*
X133380582Y-130747054D01*
X133309407Y-130833780D01*
X133238835Y-130965810D01*
X133222342Y-131020182D01*
X133218345Y-131033360D01*
X133055034Y-130834366D01*
X132807505Y-130631223D01*
X132525100Y-130480275D01*
X132218673Y-130387322D01*
X131900000Y-130355935D01*
X131581328Y-130387322D01*
X131274901Y-130480275D01*
X130992496Y-130631223D01*
X130902086Y-130705421D01*
X130872858Y-130558481D01*
X130802376Y-130388321D01*
X130760023Y-130324935D01*
X130902504Y-130248777D01*
X131150034Y-130045634D01*
X131353177Y-129798105D01*
X131504125Y-129515700D01*
X131597078Y-129209273D01*
X131620600Y-128970454D01*
X131620600Y-126829546D01*
X131597078Y-126590727D01*
X131504125Y-126284300D01*
X131353177Y-126001895D01*
X131150034Y-125754366D01*
X130902505Y-125551223D01*
X130620100Y-125400275D01*
X130313673Y-125307322D01*
X129995000Y-125275935D01*
X129676328Y-125307322D01*
X129369901Y-125400275D01*
X129087496Y-125551223D01*
X128839967Y-125754366D01*
X128636824Y-126001895D01*
X128485876Y-126284300D01*
X128392923Y-126590727D01*
X128369401Y-126829546D01*
X128369400Y-128340974D01*
X128272729Y-128300932D01*
X128092089Y-128265000D01*
X127907911Y-128265000D01*
X127810600Y-128284357D01*
X127810600Y-126829546D01*
X127787078Y-126590727D01*
X127694125Y-126284300D01*
X127543177Y-126001895D01*
X127340034Y-125754366D01*
X127092505Y-125551223D01*
X126874142Y-125434506D01*
X127848649Y-124460000D01*
X145520799Y-124460000D01*
X147491474Y-126430675D01*
G36*
X160390001Y-148737191D02*
G01*
X160345868Y-148598068D01*
X160322290Y-148543058D01*
X160299508Y-148487783D01*
X160295125Y-148479677D01*
X160151836Y-148219034D01*
X160118048Y-148169687D01*
X160084936Y-148119850D01*
X160079062Y-148112749D01*
X159887876Y-147884904D01*
X159845146Y-147843060D01*
X159802987Y-147800605D01*
X159795846Y-147794781D01*
X159564045Y-147608408D01*
X159514031Y-147575680D01*
X159464398Y-147542202D01*
X159456261Y-147537876D01*
X159192675Y-147400077D01*
X159137219Y-147377672D01*
X159082068Y-147354488D01*
X159073246Y-147351825D01*
X158787915Y-147267847D01*
X158729175Y-147256642D01*
X158670558Y-147244609D01*
X158661386Y-147243710D01*
X158365178Y-147216753D01*
X158305361Y-147217171D01*
X158245544Y-147216753D01*
X158236372Y-147217653D01*
X157940569Y-147248742D01*
X157881972Y-147260771D01*
X157823210Y-147271980D01*
X157814388Y-147274644D01*
X157530257Y-147362598D01*
X157475139Y-147385768D01*
X157419650Y-147408186D01*
X157411514Y-147412513D01*
X157149878Y-147553979D01*
X157100311Y-147587412D01*
X157050232Y-147620183D01*
X157043091Y-147626008D01*
X156813915Y-147815597D01*
X156771774Y-147858034D01*
X156729024Y-147899897D01*
X156723150Y-147906998D01*
X156535164Y-148137492D01*
X156502049Y-148187334D01*
X156468265Y-148236674D01*
X156463882Y-148244781D01*
X156324246Y-148507399D01*
X156301458Y-148562687D01*
X156277886Y-148617683D01*
X156275162Y-148626487D01*
X156189193Y-148911225D01*
X156177570Y-148969925D01*
X156165137Y-149028419D01*
X156164174Y-149037584D01*
X156135150Y-149333596D01*
X156135150Y-149462406D01*
X156155801Y-149566697D01*
X156155800Y-152787952D01*
X156145478Y-152821300D01*
X156136932Y-152902622D01*
X156135299Y-152910870D01*
X156135299Y-152918164D01*
X156132016Y-152949404D01*
X156132016Y-152958620D01*
X156132165Y-152979898D01*
X156135298Y-153009700D01*
X156135298Y-153039680D01*
X156136262Y-153048844D01*
X156169416Y-153344424D01*
X156181853Y-153402936D01*
X156193471Y-153461614D01*
X156196196Y-153470413D01*
X156196197Y-153470419D01*
X156196199Y-153470425D01*
X156286130Y-153753928D01*
X156309691Y-153808899D01*
X156332491Y-153864217D01*
X156336874Y-153872323D01*
X156480163Y-154132965D01*
X156513947Y-154182305D01*
X156547062Y-154232147D01*
X156552936Y-154239247D01*
X156744122Y-154467094D01*
X156786853Y-154508939D01*
X156829013Y-154551395D01*
X156836155Y-154557219D01*
X157067956Y-154743591D01*
X157117968Y-154776318D01*
X157167600Y-154809795D01*
X157175737Y-154814121D01*
X157439323Y-154951921D01*
X157494783Y-154974328D01*
X157549931Y-154997511D01*
X157558753Y-155000174D01*
X157844083Y-155084152D01*
X157902837Y-155095360D01*
X157961441Y-155107390D01*
X157970613Y-155108289D01*
X158266820Y-155135246D01*
X158326638Y-155134828D01*
X158386455Y-155135246D01*
X158395626Y-155134347D01*
X158691430Y-155103257D01*
X158750017Y-155091230D01*
X158808787Y-155080020D01*
X158817609Y-155077356D01*
X159101740Y-154989403D01*
X159156883Y-154966223D01*
X159212348Y-154943814D01*
X159220485Y-154939487D01*
X159482121Y-154798021D01*
X159531705Y-154764576D01*
X159581768Y-154731816D01*
X159588909Y-154725992D01*
X159818085Y-154536401D01*
X159860224Y-154493966D01*
X159902974Y-154452103D01*
X159908848Y-154445002D01*
X160096834Y-154214509D01*
X160129938Y-154164682D01*
X160163733Y-154115327D01*
X160168116Y-154107221D01*
X160307753Y-153844603D01*
X160330560Y-153789269D01*
X160354114Y-153734314D01*
X160356838Y-153725515D01*
X160356840Y-153725509D01*
X160390001Y-153615674D01*
X160390000Y-165690000D01*
X152712265Y-165690000D01*
X152710000Y-164426251D01*
X152551250Y-164267501D01*
X152427000Y-164267501D01*
X152427000Y-164013501D01*
X152551250Y-164013501D01*
X152710000Y-163854751D01*
X152713072Y-162140501D01*
X152700812Y-162016019D01*
X152664502Y-161896321D01*
X152605537Y-161786007D01*
X152526185Y-161689316D01*
X152429494Y-161609964D01*
X152319180Y-161550999D01*
X152199482Y-161514689D01*
X152075000Y-161502429D01*
X151110750Y-161505501D01*
X150952000Y-161664251D01*
X150952000Y-161773000D01*
X150698000Y-161773000D01*
X150698000Y-161664251D01*
X150539250Y-161505501D01*
X149575000Y-161502429D01*
X149450518Y-161514689D01*
X149330820Y-161550999D01*
X149220506Y-161609964D01*
X149123815Y-161689316D01*
X149055138Y-161773000D01*
X148794862Y-161773000D01*
X148726185Y-161689316D01*
X148629494Y-161609964D01*
X148519180Y-161550999D01*
X148399482Y-161514689D01*
X148275000Y-161502429D01*
X145775000Y-161502429D01*
X145650518Y-161514689D01*
X145541931Y-161547629D01*
X144840512Y-160846210D01*
X147647621Y-160846210D01*
X147684943Y-160849886D01*
X147722265Y-160846210D01*
X147722276Y-160846210D01*
X147833929Y-160835213D01*
X147977190Y-160791756D01*
X148109219Y-160721184D01*
X148224944Y-160626211D01*
X148248746Y-160597208D01*
X148966612Y-159879342D01*
X148995611Y-159855544D01*
X149090584Y-159739819D01*
X149161156Y-159607790D01*
X149204613Y-159464529D01*
X149215610Y-159352876D01*
X149215610Y-159352868D01*
X149219286Y-159315543D01*
X149215610Y-159278218D01*
X149215610Y-157907000D01*
X149324400Y-157907000D01*
X149324400Y-158897600D01*
X149380412Y-159212299D01*
X149496742Y-159510023D01*
X149668920Y-159779332D01*
X149890329Y-160009876D01*
X150152461Y-160192795D01*
X150445242Y-160321060D01*
X150571041Y-160351411D01*
X150823000Y-160231942D01*
X150823000Y-157907000D01*
X151077000Y-157907000D01*
X151077000Y-160231942D01*
X151328959Y-160351411D01*
X151454758Y-160321060D01*
X151747539Y-160192795D01*
X152009671Y-160009876D01*
X152231080Y-159779332D01*
X152403258Y-159510023D01*
X152519588Y-159212299D01*
X152575600Y-158897600D01*
X152575600Y-157907000D01*
X151077000Y-157907000D01*
X150823000Y-157907000D01*
X149324400Y-157907000D01*
X149215610Y-157907000D01*
X149215610Y-156281780D01*
X149219286Y-156244457D01*
X149215610Y-156207134D01*
X149215610Y-156207124D01*
X149204613Y-156095471D01*
X149161156Y-155952210D01*
X149145787Y-155923457D01*
X149090584Y-155820180D01*
X149046291Y-155766210D01*
X149552621Y-155766210D01*
X149589943Y-155769886D01*
X149627265Y-155766210D01*
X149627276Y-155766210D01*
X149688606Y-155760169D01*
X149668920Y-155780668D01*
X149496742Y-156049977D01*
X149380412Y-156347701D01*
X149324400Y-156662400D01*
X149324400Y-157653000D01*
X150823000Y-157653000D01*
X150823000Y-155328058D01*
X151077000Y-155328058D01*
X151077000Y-157653000D01*
X152575600Y-157653000D01*
X152575600Y-156662400D01*
X152519588Y-156347701D01*
X152403258Y-156049977D01*
X152231080Y-155780668D01*
X152009671Y-155550124D01*
X151747539Y-155367205D01*
X151454758Y-155238940D01*
X151328959Y-155208589D01*
X151077000Y-155328058D01*
X150823000Y-155328058D01*
X150571041Y-155208589D01*
X150445242Y-155238940D01*
X150421701Y-155249253D01*
X150871612Y-154799342D01*
X150900611Y-154775544D01*
X150995584Y-154659819D01*
X151066156Y-154527790D01*
X151109613Y-154384529D01*
X151120610Y-154272876D01*
X151120610Y-154272868D01*
X151124286Y-154235543D01*
X151120610Y-154198218D01*
X151120610Y-151201779D01*
X151124286Y-151164456D01*
X151120610Y-151127134D01*
X151120610Y-151127124D01*
X151109613Y-151015471D01*
X151066156Y-150872210D01*
X151031674Y-150807700D01*
X150995584Y-150740180D01*
X150924409Y-150653454D01*
X150900611Y-150624456D01*
X150871614Y-150600659D01*
X147759957Y-147489003D01*
X147736154Y-147459999D01*
X147620429Y-147365026D01*
X147488400Y-147294454D01*
X147345139Y-147250997D01*
X147233486Y-147240000D01*
X147233475Y-147240000D01*
X147196153Y-147236324D01*
X147158831Y-147240000D01*
X127337322Y-147240000D01*
X127299999Y-147236324D01*
X127262676Y-147240000D01*
X127262667Y-147240000D01*
X127151014Y-147250997D01*
X127007753Y-147294454D01*
X126875724Y-147365026D01*
X126759999Y-147459999D01*
X126736201Y-147488997D01*
X123888998Y-150336201D01*
X123860000Y-150359999D01*
X123836202Y-150388997D01*
X123836201Y-150388998D01*
X123765026Y-150475724D01*
X123694454Y-150607754D01*
X123670708Y-150686037D01*
X123661907Y-150715052D01*
X123530034Y-150554366D01*
X123282505Y-150351223D01*
X123000100Y-150200275D01*
X122693673Y-150107322D01*
X122375000Y-150075935D01*
X122056328Y-150107322D01*
X121896275Y-150155873D01*
X121173184Y-149432783D01*
X121149381Y-149403779D01*
X121033656Y-149308806D01*
X120901627Y-149238234D01*
X120758366Y-149194777D01*
X120646713Y-149183780D01*
X120646702Y-149183780D01*
X120609380Y-149180104D01*
X120572058Y-149183780D01*
X114697390Y-149183780D01*
X114660067Y-149180104D01*
X114622744Y-149183780D01*
X114622734Y-149183780D01*
X114511081Y-149194777D01*
X114367820Y-149238234D01*
X114235791Y-149308806D01*
X114120066Y-149403779D01*
X114096268Y-149432777D01*
X111023388Y-152505658D01*
X110994390Y-152529456D01*
X110970592Y-152558454D01*
X110970591Y-152558455D01*
X110899416Y-152645181D01*
X110828844Y-152777211D01*
X110807072Y-152848986D01*
X110785388Y-152920471D01*
X110785052Y-152923882D01*
X110770714Y-153069457D01*
X110774391Y-153106789D01*
X110774390Y-160562569D01*
X110770714Y-160599891D01*
X110774390Y-160637213D01*
X110774390Y-160637223D01*
X110785387Y-160748876D01*
X110816028Y-160849886D01*
X110828844Y-160892137D01*
X110899416Y-161024167D01*
X110928823Y-161059999D01*
X110994389Y-161139892D01*
X111023393Y-161163695D01*
X111392106Y-161532408D01*
X111330820Y-161550999D01*
X111220506Y-161609964D01*
X111123815Y-161689316D01*
X111044463Y-161786007D01*
X110985498Y-161896321D01*
X110949188Y-162016019D01*
X110936928Y-162140501D01*
X110936928Y-165690000D01*
X103410000Y-165690000D01*
X103410000Y-153614810D01*
X103454130Y-153753928D01*
X103477691Y-153808899D01*
X103500491Y-153864217D01*
X103504874Y-153872323D01*
X103648163Y-154132965D01*
X103681947Y-154182305D01*
X103715062Y-154232147D01*
X103720936Y-154239247D01*
X103912122Y-154467094D01*
X103954853Y-154508939D01*
X103997013Y-154551395D01*
X104004155Y-154557219D01*
X104235956Y-154743591D01*
X104285968Y-154776318D01*
X104335600Y-154809795D01*
X104343737Y-154814121D01*
X104607323Y-154951921D01*
X104662783Y-154974328D01*
X104717931Y-154997511D01*
X104726753Y-155000174D01*
X105012083Y-155084152D01*
X105070837Y-155095360D01*
X105129441Y-155107390D01*
X105138613Y-155108289D01*
X105434820Y-155135246D01*
X105494638Y-155134828D01*
X105554455Y-155135246D01*
X105563626Y-155134347D01*
X105859430Y-155103257D01*
X105918017Y-155091230D01*
X105976787Y-155080020D01*
X105985609Y-155077356D01*
X106269740Y-154989403D01*
X106324883Y-154966223D01*
X106380348Y-154943814D01*
X106388485Y-154939487D01*
X106650121Y-154798021D01*
X106699705Y-154764576D01*
X106749768Y-154731816D01*
X106756909Y-154725992D01*
X106986085Y-154536401D01*
X107028224Y-154493966D01*
X107070974Y-154452103D01*
X107076848Y-154445002D01*
X107264834Y-154214509D01*
X107297938Y-154164682D01*
X107331733Y-154115327D01*
X107336116Y-154107221D01*
X107475753Y-153844603D01*
X107498560Y-153789269D01*
X107522114Y-153734314D01*
X107524838Y-153725515D01*
X107524840Y-153725509D01*
X107610806Y-153440773D01*
X107622422Y-153382108D01*
X107634862Y-153323584D01*
X107635825Y-153314419D01*
X107664850Y-153018406D01*
X107664850Y-152889596D01*
X107644200Y-152785305D01*
X107644200Y-149564047D01*
X107654522Y-149530699D01*
X107663068Y-149449377D01*
X107664701Y-149441129D01*
X107664701Y-149433835D01*
X107667984Y-149402594D01*
X107667984Y-149393379D01*
X107667835Y-149372100D01*
X107664702Y-149342298D01*
X107664702Y-149312319D01*
X107663738Y-149303154D01*
X107630584Y-149007575D01*
X107618151Y-148949081D01*
X107606528Y-148890381D01*
X107603803Y-148881578D01*
X107513868Y-148598068D01*
X107490290Y-148543058D01*
X107467508Y-148487783D01*
X107463125Y-148479677D01*
X107319836Y-148219034D01*
X107286048Y-148169687D01*
X107252936Y-148119850D01*
X107247062Y-148112749D01*
X107055876Y-147884904D01*
X107013146Y-147843060D01*
X106970987Y-147800605D01*
X106963846Y-147794781D01*
X106732045Y-147608408D01*
X106682031Y-147575680D01*
X106632398Y-147542202D01*
X106624261Y-147537876D01*
X106360675Y-147400077D01*
X106305219Y-147377672D01*
X106250068Y-147354488D01*
X106241246Y-147351825D01*
X105955915Y-147267847D01*
X105897175Y-147256642D01*
X105838558Y-147244609D01*
X105829386Y-147243710D01*
X105533178Y-147216753D01*
X105473361Y-147217171D01*
X105413544Y-147216753D01*
X105404372Y-147217653D01*
X105108569Y-147248742D01*
X105049972Y-147260771D01*
X104991210Y-147271980D01*
X104982388Y-147274644D01*
X104698257Y-147362598D01*
X104643139Y-147385768D01*
X104587650Y-147408186D01*
X104579514Y-147412513D01*
X104317878Y-147553979D01*
X104268311Y-147587412D01*
X104218232Y-147620183D01*
X104211091Y-147626008D01*
X103981915Y-147815597D01*
X103939774Y-147858034D01*
X103897024Y-147899897D01*
X103891150Y-147906998D01*
X103703164Y-148137492D01*
X103670049Y-148187334D01*
X103636265Y-148236674D01*
X103631882Y-148244781D01*
X103492246Y-148507399D01*
X103469458Y-148562687D01*
X103445886Y-148617683D01*
X103443162Y-148626487D01*
X103410000Y-148736323D01*
X103410000Y-142310000D01*
X160390001Y-142310000D01*
X160390001Y-148737191D01*
X160390001Y-148737191D01*
G37*
X160390001Y-148737191D02*
X160345868Y-148598068D01*
X160322290Y-148543058D01*
X160299508Y-148487783D01*
X160295125Y-148479677D01*
X160151836Y-148219034D01*
X160118048Y-148169687D01*
X160084936Y-148119850D01*
X160079062Y-148112749D01*
X159887876Y-147884904D01*
X159845146Y-147843060D01*
X159802987Y-147800605D01*
X159795846Y-147794781D01*
X159564045Y-147608408D01*
X159514031Y-147575680D01*
X159464398Y-147542202D01*
X159456261Y-147537876D01*
X159192675Y-147400077D01*
X159137219Y-147377672D01*
X159082068Y-147354488D01*
X159073246Y-147351825D01*
X158787915Y-147267847D01*
X158729175Y-147256642D01*
X158670558Y-147244609D01*
X158661386Y-147243710D01*
X158365178Y-147216753D01*
X158305361Y-147217171D01*
X158245544Y-147216753D01*
X158236372Y-147217653D01*
X157940569Y-147248742D01*
X157881972Y-147260771D01*
X157823210Y-147271980D01*
X157814388Y-147274644D01*
X157530257Y-147362598D01*
X157475139Y-147385768D01*
X157419650Y-147408186D01*
X157411514Y-147412513D01*
X157149878Y-147553979D01*
X157100311Y-147587412D01*
X157050232Y-147620183D01*
X157043091Y-147626008D01*
X156813915Y-147815597D01*
X156771774Y-147858034D01*
X156729024Y-147899897D01*
X156723150Y-147906998D01*
X156535164Y-148137492D01*
X156502049Y-148187334D01*
X156468265Y-148236674D01*
X156463882Y-148244781D01*
X156324246Y-148507399D01*
X156301458Y-148562687D01*
X156277886Y-148617683D01*
X156275162Y-148626487D01*
X156189193Y-148911225D01*
X156177570Y-148969925D01*
X156165137Y-149028419D01*
X156164174Y-149037584D01*
X156135150Y-149333596D01*
X156135150Y-149462406D01*
X156155801Y-149566697D01*
X156155800Y-152787952D01*
X156145478Y-152821300D01*
X156136932Y-152902622D01*
X156135299Y-152910870D01*
X156135299Y-152918164D01*
X156132016Y-152949404D01*
X156132016Y-152958620D01*
X156132165Y-152979898D01*
X156135298Y-153009700D01*
X156135298Y-153039680D01*
X156136262Y-153048844D01*
X156169416Y-153344424D01*
X156181853Y-153402936D01*
X156193471Y-153461614D01*
X156196196Y-153470413D01*
X156196197Y-153470419D01*
X156196199Y-153470425D01*
X156286130Y-153753928D01*
X156309691Y-153808899D01*
X156332491Y-153864217D01*
X156336874Y-153872323D01*
X156480163Y-154132965D01*
X156513947Y-154182305D01*
X156547062Y-154232147D01*
X156552936Y-154239247D01*
X156744122Y-154467094D01*
X156786853Y-154508939D01*
X156829013Y-154551395D01*
X156836155Y-154557219D01*
X157067956Y-154743591D01*
X157117968Y-154776318D01*
X157167600Y-154809795D01*
X157175737Y-154814121D01*
X157439323Y-154951921D01*
X157494783Y-154974328D01*
X157549931Y-154997511D01*
X157558753Y-155000174D01*
X157844083Y-155084152D01*
X157902837Y-155095360D01*
X157961441Y-155107390D01*
X157970613Y-155108289D01*
X158266820Y-155135246D01*
X158326638Y-155134828D01*
X158386455Y-155135246D01*
X158395626Y-155134347D01*
X158691430Y-155103257D01*
X158750017Y-155091230D01*
X158808787Y-155080020D01*
X158817609Y-155077356D01*
X159101740Y-154989403D01*
X159156883Y-154966223D01*
X159212348Y-154943814D01*
X159220485Y-154939487D01*
X159482121Y-154798021D01*
X159531705Y-154764576D01*
X159581768Y-154731816D01*
X159588909Y-154725992D01*
X159818085Y-154536401D01*
X159860224Y-154493966D01*
X159902974Y-154452103D01*
X159908848Y-154445002D01*
X160096834Y-154214509D01*
X160129938Y-154164682D01*
X160163733Y-154115327D01*
X160168116Y-154107221D01*
X160307753Y-153844603D01*
X160330560Y-153789269D01*
X160354114Y-153734314D01*
X160356838Y-153725515D01*
X160356840Y-153725509D01*
X160390001Y-153615674D01*
X160390000Y-165690000D01*
X152712265Y-165690000D01*
X152710000Y-164426251D01*
X152551250Y-164267501D01*
X152427000Y-164267501D01*
X152427000Y-164013501D01*
X152551250Y-164013501D01*
X152710000Y-163854751D01*
X152713072Y-162140501D01*
X152700812Y-162016019D01*
X152664502Y-161896321D01*
X152605537Y-161786007D01*
X152526185Y-161689316D01*
X152429494Y-161609964D01*
X152319180Y-161550999D01*
X152199482Y-161514689D01*
X152075000Y-161502429D01*
X151110750Y-161505501D01*
X150952000Y-161664251D01*
X150952000Y-161773000D01*
X150698000Y-161773000D01*
X150698000Y-161664251D01*
X150539250Y-161505501D01*
X149575000Y-161502429D01*
X149450518Y-161514689D01*
X149330820Y-161550999D01*
X149220506Y-161609964D01*
X149123815Y-161689316D01*
X149055138Y-161773000D01*
X148794862Y-161773000D01*
X148726185Y-161689316D01*
X148629494Y-161609964D01*
X148519180Y-161550999D01*
X148399482Y-161514689D01*
X148275000Y-161502429D01*
X145775000Y-161502429D01*
X145650518Y-161514689D01*
X145541931Y-161547629D01*
X144840512Y-160846210D01*
X147647621Y-160846210D01*
X147684943Y-160849886D01*
X147722265Y-160846210D01*
X147722276Y-160846210D01*
X147833929Y-160835213D01*
X147977190Y-160791756D01*
X148109219Y-160721184D01*
X148224944Y-160626211D01*
X148248746Y-160597208D01*
X148966612Y-159879342D01*
X148995611Y-159855544D01*
X149090584Y-159739819D01*
X149161156Y-159607790D01*
X149204613Y-159464529D01*
X149215610Y-159352876D01*
X149215610Y-159352868D01*
X149219286Y-159315543D01*
X149215610Y-159278218D01*
X149215610Y-157907000D01*
X149324400Y-157907000D01*
X149324400Y-158897600D01*
X149380412Y-159212299D01*
X149496742Y-159510023D01*
X149668920Y-159779332D01*
X149890329Y-160009876D01*
X150152461Y-160192795D01*
X150445242Y-160321060D01*
X150571041Y-160351411D01*
X150823000Y-160231942D01*
X150823000Y-157907000D01*
X151077000Y-157907000D01*
X151077000Y-160231942D01*
X151328959Y-160351411D01*
X151454758Y-160321060D01*
X151747539Y-160192795D01*
X152009671Y-160009876D01*
X152231080Y-159779332D01*
X152403258Y-159510023D01*
X152519588Y-159212299D01*
X152575600Y-158897600D01*
X152575600Y-157907000D01*
X151077000Y-157907000D01*
X150823000Y-157907000D01*
X149324400Y-157907000D01*
X149215610Y-157907000D01*
X149215610Y-156281780D01*
X149219286Y-156244457D01*
X149215610Y-156207134D01*
X149215610Y-156207124D01*
X149204613Y-156095471D01*
X149161156Y-155952210D01*
X149145787Y-155923457D01*
X149090584Y-155820180D01*
X149046291Y-155766210D01*
X149552621Y-155766210D01*
X149589943Y-155769886D01*
X149627265Y-155766210D01*
X149627276Y-155766210D01*
X149688606Y-155760169D01*
X149668920Y-155780668D01*
X149496742Y-156049977D01*
X149380412Y-156347701D01*
X149324400Y-156662400D01*
X149324400Y-157653000D01*
X150823000Y-157653000D01*
X150823000Y-155328058D01*
X151077000Y-155328058D01*
X151077000Y-157653000D01*
X152575600Y-157653000D01*
X152575600Y-156662400D01*
X152519588Y-156347701D01*
X152403258Y-156049977D01*
X152231080Y-155780668D01*
X152009671Y-155550124D01*
X151747539Y-155367205D01*
X151454758Y-155238940D01*
X151328959Y-155208589D01*
X151077000Y-155328058D01*
X150823000Y-155328058D01*
X150571041Y-155208589D01*
X150445242Y-155238940D01*
X150421701Y-155249253D01*
X150871612Y-154799342D01*
X150900611Y-154775544D01*
X150995584Y-154659819D01*
X151066156Y-154527790D01*
X151109613Y-154384529D01*
X151120610Y-154272876D01*
X151120610Y-154272868D01*
X151124286Y-154235543D01*
X151120610Y-154198218D01*
X151120610Y-151201779D01*
X151124286Y-151164456D01*
X151120610Y-151127134D01*
X151120610Y-151127124D01*
X151109613Y-151015471D01*
X151066156Y-150872210D01*
X151031674Y-150807700D01*
X150995584Y-150740180D01*
X150924409Y-150653454D01*
X150900611Y-150624456D01*
X150871614Y-150600659D01*
X147759957Y-147489003D01*
X147736154Y-147459999D01*
X147620429Y-147365026D01*
X147488400Y-147294454D01*
X147345139Y-147250997D01*
X147233486Y-147240000D01*
X147233475Y-147240000D01*
X147196153Y-147236324D01*
X147158831Y-147240000D01*
X127337322Y-147240000D01*
X127299999Y-147236324D01*
X127262676Y-147240000D01*
X127262667Y-147240000D01*
X127151014Y-147250997D01*
X127007753Y-147294454D01*
X126875724Y-147365026D01*
X126759999Y-147459999D01*
X126736201Y-147488997D01*
X123888998Y-150336201D01*
X123860000Y-150359999D01*
X123836202Y-150388997D01*
X123836201Y-150388998D01*
X123765026Y-150475724D01*
X123694454Y-150607754D01*
X123670708Y-150686037D01*
X123661907Y-150715052D01*
X123530034Y-150554366D01*
X123282505Y-150351223D01*
X123000100Y-150200275D01*
X122693673Y-150107322D01*
X122375000Y-150075935D01*
X122056328Y-150107322D01*
X121896275Y-150155873D01*
X121173184Y-149432783D01*
X121149381Y-149403779D01*
X121033656Y-149308806D01*
X120901627Y-149238234D01*
X120758366Y-149194777D01*
X120646713Y-149183780D01*
X120646702Y-149183780D01*
X120609380Y-149180104D01*
X120572058Y-149183780D01*
X114697390Y-149183780D01*
X114660067Y-149180104D01*
X114622744Y-149183780D01*
X114622734Y-149183780D01*
X114511081Y-149194777D01*
X114367820Y-149238234D01*
X114235791Y-149308806D01*
X114120066Y-149403779D01*
X114096268Y-149432777D01*
X111023388Y-152505658D01*
X110994390Y-152529456D01*
X110970592Y-152558454D01*
X110970591Y-152558455D01*
X110899416Y-152645181D01*
X110828844Y-152777211D01*
X110807072Y-152848986D01*
X110785388Y-152920471D01*
X110785052Y-152923882D01*
X110770714Y-153069457D01*
X110774391Y-153106789D01*
X110774390Y-160562569D01*
X110770714Y-160599891D01*
X110774390Y-160637213D01*
X110774390Y-160637223D01*
X110785387Y-160748876D01*
X110816028Y-160849886D01*
X110828844Y-160892137D01*
X110899416Y-161024167D01*
X110928823Y-161059999D01*
X110994389Y-161139892D01*
X111023393Y-161163695D01*
X111392106Y-161532408D01*
X111330820Y-161550999D01*
X111220506Y-161609964D01*
X111123815Y-161689316D01*
X111044463Y-161786007D01*
X110985498Y-161896321D01*
X110949188Y-162016019D01*
X110936928Y-162140501D01*
X110936928Y-165690000D01*
X103410000Y-165690000D01*
X103410000Y-153614810D01*
X103454130Y-153753928D01*
X103477691Y-153808899D01*
X103500491Y-153864217D01*
X103504874Y-153872323D01*
X103648163Y-154132965D01*
X103681947Y-154182305D01*
X103715062Y-154232147D01*
X103720936Y-154239247D01*
X103912122Y-154467094D01*
X103954853Y-154508939D01*
X103997013Y-154551395D01*
X104004155Y-154557219D01*
X104235956Y-154743591D01*
X104285968Y-154776318D01*
X104335600Y-154809795D01*
X104343737Y-154814121D01*
X104607323Y-154951921D01*
X104662783Y-154974328D01*
X104717931Y-154997511D01*
X104726753Y-155000174D01*
X105012083Y-155084152D01*
X105070837Y-155095360D01*
X105129441Y-155107390D01*
X105138613Y-155108289D01*
X105434820Y-155135246D01*
X105494638Y-155134828D01*
X105554455Y-155135246D01*
X105563626Y-155134347D01*
X105859430Y-155103257D01*
X105918017Y-155091230D01*
X105976787Y-155080020D01*
X105985609Y-155077356D01*
X106269740Y-154989403D01*
X106324883Y-154966223D01*
X106380348Y-154943814D01*
X106388485Y-154939487D01*
X106650121Y-154798021D01*
X106699705Y-154764576D01*
X106749768Y-154731816D01*
X106756909Y-154725992D01*
X106986085Y-154536401D01*
X107028224Y-154493966D01*
X107070974Y-154452103D01*
X107076848Y-154445002D01*
X107264834Y-154214509D01*
X107297938Y-154164682D01*
X107331733Y-154115327D01*
X107336116Y-154107221D01*
X107475753Y-153844603D01*
X107498560Y-153789269D01*
X107522114Y-153734314D01*
X107524838Y-153725515D01*
X107524840Y-153725509D01*
X107610806Y-153440773D01*
X107622422Y-153382108D01*
X107634862Y-153323584D01*
X107635825Y-153314419D01*
X107664850Y-153018406D01*
X107664850Y-152889596D01*
X107644200Y-152785305D01*
X107644200Y-149564047D01*
X107654522Y-149530699D01*
X107663068Y-149449377D01*
X107664701Y-149441129D01*
X107664701Y-149433835D01*
X107667984Y-149402594D01*
X107667984Y-149393379D01*
X107667835Y-149372100D01*
X107664702Y-149342298D01*
X107664702Y-149312319D01*
X107663738Y-149303154D01*
X107630584Y-149007575D01*
X107618151Y-148949081D01*
X107606528Y-148890381D01*
X107603803Y-148881578D01*
X107513868Y-148598068D01*
X107490290Y-148543058D01*
X107467508Y-148487783D01*
X107463125Y-148479677D01*
X107319836Y-148219034D01*
X107286048Y-148169687D01*
X107252936Y-148119850D01*
X107247062Y-148112749D01*
X107055876Y-147884904D01*
X107013146Y-147843060D01*
X106970987Y-147800605D01*
X106963846Y-147794781D01*
X106732045Y-147608408D01*
X106682031Y-147575680D01*
X106632398Y-147542202D01*
X106624261Y-147537876D01*
X106360675Y-147400077D01*
X106305219Y-147377672D01*
X106250068Y-147354488D01*
X106241246Y-147351825D01*
X105955915Y-147267847D01*
X105897175Y-147256642D01*
X105838558Y-147244609D01*
X105829386Y-147243710D01*
X105533178Y-147216753D01*
X105473361Y-147217171D01*
X105413544Y-147216753D01*
X105404372Y-147217653D01*
X105108569Y-147248742D01*
X105049972Y-147260771D01*
X104991210Y-147271980D01*
X104982388Y-147274644D01*
X104698257Y-147362598D01*
X104643139Y-147385768D01*
X104587650Y-147408186D01*
X104579514Y-147412513D01*
X104317878Y-147553979D01*
X104268311Y-147587412D01*
X104218232Y-147620183D01*
X104211091Y-147626008D01*
X103981915Y-147815597D01*
X103939774Y-147858034D01*
X103897024Y-147899897D01*
X103891150Y-147906998D01*
X103703164Y-148137492D01*
X103670049Y-148187334D01*
X103636265Y-148236674D01*
X103631882Y-148244781D01*
X103492246Y-148507399D01*
X103469458Y-148562687D01*
X103445886Y-148617683D01*
X103443162Y-148626487D01*
X103410000Y-148736323D01*
X103410000Y-142310000D01*
X160390001Y-142310000D01*
X160390001Y-148737191D01*
G36*
X137917923Y-156470727D02*
G01*
X137894401Y-156709546D01*
X137894400Y-158850453D01*
X137917922Y-159089272D01*
X138010875Y-159395699D01*
X138161823Y-159678104D01*
X138364966Y-159925634D01*
X138612495Y-160128777D01*
X138760000Y-160207620D01*
X138760000Y-160721338D01*
X138751647Y-160748877D01*
X138750998Y-160751015D01*
X138736324Y-160900000D01*
X138740001Y-160937332D01*
X138740001Y-161502429D01*
X138175000Y-161502429D01*
X138050518Y-161514689D01*
X137930820Y-161550999D01*
X137820506Y-161609964D01*
X137723815Y-161689316D01*
X137655138Y-161773000D01*
X137394862Y-161773000D01*
X137326185Y-161689316D01*
X137229494Y-161609964D01*
X137119180Y-161550999D01*
X136999482Y-161514689D01*
X136875000Y-161502429D01*
X136385000Y-161502429D01*
X136385000Y-160253052D01*
X136617504Y-160128777D01*
X136865034Y-159925634D01*
X137068177Y-159678105D01*
X137219125Y-159395700D01*
X137312078Y-159089273D01*
X137335600Y-158850454D01*
X137335600Y-156709546D01*
X137312078Y-156470727D01*
X137240204Y-156233790D01*
X137989797Y-156233790D01*
X137917923Y-156470727D01*
X137917923Y-156470727D01*
G37*
X137917923Y-156470727D02*
X137894401Y-156709546D01*
X137894400Y-158850453D01*
X137917922Y-159089272D01*
X138010875Y-159395699D01*
X138161823Y-159678104D01*
X138364966Y-159925634D01*
X138612495Y-160128777D01*
X138760000Y-160207620D01*
X138760000Y-160721338D01*
X138751647Y-160748877D01*
X138750998Y-160751015D01*
X138736324Y-160900000D01*
X138740001Y-160937332D01*
X138740001Y-161502429D01*
X138175000Y-161502429D01*
X138050518Y-161514689D01*
X137930820Y-161550999D01*
X137820506Y-161609964D01*
X137723815Y-161689316D01*
X137655138Y-161773000D01*
X137394862Y-161773000D01*
X137326185Y-161689316D01*
X137229494Y-161609964D01*
X137119180Y-161550999D01*
X136999482Y-161514689D01*
X136875000Y-161502429D01*
X136385000Y-161502429D01*
X136385000Y-160253052D01*
X136617504Y-160128777D01*
X136865034Y-159925634D01*
X137068177Y-159678105D01*
X137219125Y-159395700D01*
X137312078Y-159089273D01*
X137335600Y-158850454D01*
X137335600Y-156709546D01*
X137312078Y-156470727D01*
X137240204Y-156233790D01*
X137989797Y-156233790D01*
X137917923Y-156470727D01*
G36*
X123465001Y-160890956D02*
G01*
X123465001Y-161502429D01*
X122975000Y-161502429D01*
X122850518Y-161514689D01*
X122730820Y-161550999D01*
X122620506Y-161609964D01*
X122523815Y-161689316D01*
X122455138Y-161773000D01*
X122194862Y-161773000D01*
X122126185Y-161689316D01*
X122029494Y-161609964D01*
X121919180Y-161550999D01*
X121857894Y-161532408D01*
X122296614Y-161093689D01*
X122325611Y-161069892D01*
X122359182Y-161028986D01*
X122420359Y-160954442D01*
X122974424Y-160400378D01*
X123465001Y-160890956D01*
X123465001Y-160890956D01*
G37*
X123465001Y-160890956D02*
X123465001Y-161502429D01*
X122975000Y-161502429D01*
X122850518Y-161514689D01*
X122730820Y-161550999D01*
X122620506Y-161609964D01*
X122523815Y-161689316D01*
X122455138Y-161773000D01*
X122194862Y-161773000D01*
X122126185Y-161689316D01*
X122029494Y-161609964D01*
X121919180Y-161550999D01*
X121857894Y-161532408D01*
X122296614Y-161093689D01*
X122325611Y-161069892D01*
X122359182Y-161028986D01*
X122420359Y-160954442D01*
X122974424Y-160400378D01*
X123465001Y-160890956D01*
G36*
X145586474Y-156310675D02*
G01*
X145537923Y-156470727D01*
X145514401Y-156709546D01*
X145514400Y-158850453D01*
X145537922Y-159089272D01*
X145609796Y-159326210D01*
X144960412Y-159326210D01*
X144883527Y-159249325D01*
X144932078Y-159089273D01*
X144955600Y-158850454D01*
X144955600Y-156709546D01*
X144932078Y-156470727D01*
X144860204Y-156233790D01*
X145509589Y-156233790D01*
X145586474Y-156310675D01*
X145586474Y-156310675D01*
G37*
X145586474Y-156310675D02*
X145537923Y-156470727D01*
X145514401Y-156709546D01*
X145514400Y-158850453D01*
X145537922Y-159089272D01*
X145609796Y-159326210D01*
X144960412Y-159326210D01*
X144883527Y-159249325D01*
X144932078Y-159089273D01*
X144955600Y-158850454D01*
X144955600Y-156709546D01*
X144932078Y-156470727D01*
X144860204Y-156233790D01*
X145509589Y-156233790D01*
X145586474Y-156310675D01*
G36*
X147491474Y-151230675D02*
G01*
X147442923Y-151390727D01*
X147419401Y-151629546D01*
X147419400Y-153497035D01*
X146860600Y-152938235D01*
X146860600Y-151629546D01*
X146837078Y-151390727D01*
X146744125Y-151084300D01*
X146593177Y-150801895D01*
X146390034Y-150554366D01*
X146142505Y-150351223D01*
X145860100Y-150200275D01*
X145553673Y-150107322D01*
X145235000Y-150075935D01*
X144916328Y-150107322D01*
X144609901Y-150200275D01*
X144327496Y-150351223D01*
X144079967Y-150554366D01*
X143876824Y-150801895D01*
X143725876Y-151084300D01*
X143632923Y-151390727D01*
X143609401Y-151629546D01*
X143609400Y-153770453D01*
X143632922Y-154009272D01*
X143710126Y-154263780D01*
X142949875Y-154263780D01*
X143027078Y-154009273D01*
X143050600Y-153770454D01*
X143050600Y-151629546D01*
X143027078Y-151390727D01*
X142934125Y-151084300D01*
X142783177Y-150801895D01*
X142580034Y-150554366D01*
X142332505Y-150351223D01*
X142050100Y-150200275D01*
X141743673Y-150107322D01*
X141425000Y-150075935D01*
X141106328Y-150107322D01*
X140799901Y-150200275D01*
X140517496Y-150351223D01*
X140269967Y-150554366D01*
X140066824Y-150801895D01*
X139915876Y-151084300D01*
X139822923Y-151390727D01*
X139799401Y-151629546D01*
X139799400Y-153770453D01*
X139822922Y-154009272D01*
X139900126Y-154263780D01*
X139139875Y-154263780D01*
X139217078Y-154009273D01*
X139240600Y-153770454D01*
X139240600Y-151629546D01*
X139217078Y-151390727D01*
X139124125Y-151084300D01*
X138973177Y-150801895D01*
X138770034Y-150554366D01*
X138522505Y-150351223D01*
X138240100Y-150200275D01*
X137933673Y-150107322D01*
X137615000Y-150075935D01*
X137296328Y-150107322D01*
X136989901Y-150200275D01*
X136707496Y-150351223D01*
X136459967Y-150554366D01*
X136256824Y-150801895D01*
X136105876Y-151084300D01*
X136012923Y-151390727D01*
X135989401Y-151629546D01*
X135989400Y-153770453D01*
X136012922Y-154009272D01*
X136090126Y-154263780D01*
X135329875Y-154263780D01*
X135407078Y-154009273D01*
X135430600Y-153770454D01*
X135430600Y-151629546D01*
X135407078Y-151390727D01*
X135314125Y-151084300D01*
X135163177Y-150801895D01*
X134960034Y-150554366D01*
X134712505Y-150351223D01*
X134430100Y-150200275D01*
X134123673Y-150107322D01*
X133805000Y-150075935D01*
X133486328Y-150107322D01*
X133179901Y-150200275D01*
X132897496Y-150351223D01*
X132649967Y-150554366D01*
X132446824Y-150801895D01*
X132295876Y-151084300D01*
X132202923Y-151390727D01*
X132179401Y-151629546D01*
X132179400Y-153770453D01*
X132202922Y-154009272D01*
X132295875Y-154315699D01*
X132446823Y-154598104D01*
X132649966Y-154845634D01*
X132897495Y-155048777D01*
X133179900Y-155199725D01*
X133486327Y-155292678D01*
X133621631Y-155306004D01*
X133433379Y-155494257D01*
X133404381Y-155518055D01*
X133380583Y-155547053D01*
X133380582Y-155547054D01*
X133309407Y-155633780D01*
X133238835Y-155765810D01*
X133222342Y-155820182D01*
X133218345Y-155833360D01*
X133055034Y-155634366D01*
X132807505Y-155431223D01*
X132525100Y-155280275D01*
X132218673Y-155187322D01*
X131900000Y-155155935D01*
X131581328Y-155187322D01*
X131274901Y-155280275D01*
X131011515Y-155421057D01*
X130999068Y-155358481D01*
X130928586Y-155188321D01*
X130860000Y-155085675D01*
X130860000Y-155071496D01*
X130902504Y-155048777D01*
X131150034Y-154845634D01*
X131353177Y-154598105D01*
X131504125Y-154315700D01*
X131597078Y-154009273D01*
X131620600Y-153770454D01*
X131620600Y-151629546D01*
X131597078Y-151390727D01*
X131504125Y-151084300D01*
X131353177Y-150801895D01*
X131150034Y-150554366D01*
X130902505Y-150351223D01*
X130620100Y-150200275D01*
X130313673Y-150107322D01*
X129995000Y-150075935D01*
X129676328Y-150107322D01*
X129369901Y-150200275D01*
X129087496Y-150351223D01*
X128839967Y-150554366D01*
X128636824Y-150801895D01*
X128485876Y-151084300D01*
X128392923Y-151390727D01*
X128369401Y-151629546D01*
X128369400Y-153200270D01*
X128192089Y-153165000D01*
X128007911Y-153165000D01*
X127827271Y-153200932D01*
X127810600Y-153207837D01*
X127810600Y-151629546D01*
X127787078Y-151390727D01*
X127694125Y-151084300D01*
X127543177Y-150801895D01*
X127340034Y-150554366D01*
X127092505Y-150351223D01*
X126874142Y-150234506D01*
X127848649Y-149260000D01*
X145520799Y-149260000D01*
X147491474Y-151230675D01*
X147491474Y-151230675D01*
G37*
X147491474Y-151230675D02*
X147442923Y-151390727D01*
X147419401Y-151629546D01*
X147419400Y-153497035D01*
X146860600Y-152938235D01*
X146860600Y-151629546D01*
X146837078Y-151390727D01*
X146744125Y-151084300D01*
X146593177Y-150801895D01*
X146390034Y-150554366D01*
X146142505Y-150351223D01*
X145860100Y-150200275D01*
X145553673Y-150107322D01*
X145235000Y-150075935D01*
X144916328Y-150107322D01*
X144609901Y-150200275D01*
X144327496Y-150351223D01*
X144079967Y-150554366D01*
X143876824Y-150801895D01*
X143725876Y-151084300D01*
X143632923Y-151390727D01*
X143609401Y-151629546D01*
X143609400Y-153770453D01*
X143632922Y-154009272D01*
X143710126Y-154263780D01*
X142949875Y-154263780D01*
X143027078Y-154009273D01*
X143050600Y-153770454D01*
X143050600Y-151629546D01*
X143027078Y-151390727D01*
X142934125Y-151084300D01*
X142783177Y-150801895D01*
X142580034Y-150554366D01*
X142332505Y-150351223D01*
X142050100Y-150200275D01*
X141743673Y-150107322D01*
X141425000Y-150075935D01*
X141106328Y-150107322D01*
X140799901Y-150200275D01*
X140517496Y-150351223D01*
X140269967Y-150554366D01*
X140066824Y-150801895D01*
X139915876Y-151084300D01*
X139822923Y-151390727D01*
X139799401Y-151629546D01*
X139799400Y-153770453D01*
X139822922Y-154009272D01*
X139900126Y-154263780D01*
X139139875Y-154263780D01*
X139217078Y-154009273D01*
X139240600Y-153770454D01*
X139240600Y-151629546D01*
X139217078Y-151390727D01*
X139124125Y-151084300D01*
X138973177Y-150801895D01*
X138770034Y-150554366D01*
X138522505Y-150351223D01*
X138240100Y-150200275D01*
X137933673Y-150107322D01*
X137615000Y-150075935D01*
X137296328Y-150107322D01*
X136989901Y-150200275D01*
X136707496Y-150351223D01*
X136459967Y-150554366D01*
X136256824Y-150801895D01*
X136105876Y-151084300D01*
X136012923Y-151390727D01*
X135989401Y-151629546D01*
X135989400Y-153770453D01*
X136012922Y-154009272D01*
X136090126Y-154263780D01*
X135329875Y-154263780D01*
X135407078Y-154009273D01*
X135430600Y-153770454D01*
X135430600Y-151629546D01*
X135407078Y-151390727D01*
X135314125Y-151084300D01*
X135163177Y-150801895D01*
X134960034Y-150554366D01*
X134712505Y-150351223D01*
X134430100Y-150200275D01*
X134123673Y-150107322D01*
X133805000Y-150075935D01*
X133486328Y-150107322D01*
X133179901Y-150200275D01*
X132897496Y-150351223D01*
X132649967Y-150554366D01*
X132446824Y-150801895D01*
X132295876Y-151084300D01*
X132202923Y-151390727D01*
X132179401Y-151629546D01*
X132179400Y-153770453D01*
X132202922Y-154009272D01*
X132295875Y-154315699D01*
X132446823Y-154598104D01*
X132649966Y-154845634D01*
X132897495Y-155048777D01*
X133179900Y-155199725D01*
X133486327Y-155292678D01*
X133621631Y-155306004D01*
X133433379Y-155494257D01*
X133404381Y-155518055D01*
X133380583Y-155547053D01*
X133380582Y-155547054D01*
X133309407Y-155633780D01*
X133238835Y-155765810D01*
X133222342Y-155820182D01*
X133218345Y-155833360D01*
X133055034Y-155634366D01*
X132807505Y-155431223D01*
X132525100Y-155280275D01*
X132218673Y-155187322D01*
X131900000Y-155155935D01*
X131581328Y-155187322D01*
X131274901Y-155280275D01*
X131011515Y-155421057D01*
X130999068Y-155358481D01*
X130928586Y-155188321D01*
X130860000Y-155085675D01*
X130860000Y-155071496D01*
X130902504Y-155048777D01*
X131150034Y-154845634D01*
X131353177Y-154598105D01*
X131504125Y-154315700D01*
X131597078Y-154009273D01*
X131620600Y-153770454D01*
X131620600Y-151629546D01*
X131597078Y-151390727D01*
X131504125Y-151084300D01*
X131353177Y-150801895D01*
X131150034Y-150554366D01*
X130902505Y-150351223D01*
X130620100Y-150200275D01*
X130313673Y-150107322D01*
X129995000Y-150075935D01*
X129676328Y-150107322D01*
X129369901Y-150200275D01*
X129087496Y-150351223D01*
X128839967Y-150554366D01*
X128636824Y-150801895D01*
X128485876Y-151084300D01*
X128392923Y-151390727D01*
X128369401Y-151629546D01*
X128369400Y-153200270D01*
X128192089Y-153165000D01*
X128007911Y-153165000D01*
X127827271Y-153200932D01*
X127810600Y-153207837D01*
X127810600Y-151629546D01*
X127787078Y-151390727D01*
X127694125Y-151084300D01*
X127543177Y-150801895D01*
X127340034Y-150554366D01*
X127092505Y-150351223D01*
X126874142Y-150234506D01*
X127848649Y-149260000D01*
X145520799Y-149260000D01*
X147491474Y-151230675D01*
M02*
