G04 #@! TF.GenerationSoftware,KiCad,Pcbnew,(5.1.0)-1*
G04 #@! TF.CreationDate,2019-07-11T22:02:02-04:00*
G04 #@! TF.ProjectId,EUROF_to_JP21M,4555524f-465f-4746-9f5f-4a5032314d2e,rev?*
G04 #@! TF.SameCoordinates,Original*
G04 #@! TF.FileFunction,Copper,L1,Top*
G04 #@! TF.FilePolarity,Positive*
%FSLAX46Y46*%
G04 Gerber Fmt 4.6, Leading zero omitted, Abs format (unit mm)*
G04 Created by KiCad (PCBNEW (5.1.0)-1) date 2019-07-11 22:02:02*
%MOMM*%
%LPD*%
G04 APERTURE LIST*
%ADD10O,1.981200X3.962400*%
%ADD11R,2.500000X4.000000*%
%ADD12C,0.600000*%
%ADD13C,0.250000*%
%ADD14C,0.254000*%
G04 APERTURE END LIST*
D10*
X152850000Y-85430000D03*
X150945000Y-80350000D03*
X149040000Y-85430000D03*
X147135000Y-80350000D03*
X145230000Y-85430000D03*
X143325000Y-80350000D03*
X141420000Y-85430000D03*
X139515000Y-80350000D03*
X137610000Y-85430000D03*
X135705000Y-80350000D03*
X133800000Y-85430000D03*
X131895000Y-80350000D03*
X129990000Y-85430000D03*
X128085000Y-80350000D03*
X126180000Y-85430000D03*
X124275000Y-80350000D03*
X122370000Y-85430000D03*
X120465000Y-80350000D03*
X118560000Y-85430000D03*
X116655000Y-80350000D03*
X114750000Y-85430000D03*
D11*
X149825000Y-91850000D03*
X146025000Y-91850000D03*
X142225000Y-91850000D03*
X138425000Y-91850000D03*
X134625000Y-91850000D03*
X130825000Y-91850000D03*
X127025000Y-91850000D03*
X123225000Y-91850000D03*
X119425000Y-91850000D03*
X115625000Y-91850000D03*
D12*
X126662500Y-89062500D03*
X147200000Y-83350000D03*
X145250000Y-82350000D03*
X137600000Y-78650000D03*
X141350000Y-78600000D03*
X133750000Y-78200000D03*
X131750000Y-83500000D03*
X135900000Y-87600000D03*
X130000000Y-88600000D03*
X128050000Y-88900000D03*
X124150000Y-88500000D03*
X124200000Y-83650000D03*
X115800000Y-71150000D03*
X119650000Y-71300000D03*
X130850000Y-71350000D03*
X137550000Y-71350000D03*
X141450000Y-71350000D03*
X146350000Y-71650000D03*
X151700000Y-71850000D03*
X158850000Y-72000000D03*
X160850000Y-84050000D03*
X160450000Y-90700000D03*
X106650000Y-91700000D03*
X106100000Y-84900000D03*
X110900000Y-82400000D03*
X107450000Y-71700000D03*
X116000000Y-87950000D03*
X114100000Y-81650000D03*
X130100000Y-82100000D03*
D13*
X143325000Y-82581200D02*
X143325000Y-80350000D01*
X143325000Y-88500000D02*
X143325000Y-82581200D01*
X142225000Y-89600000D02*
X143325000Y-88500000D01*
X142225000Y-91850000D02*
X142225000Y-89600000D01*
X127025000Y-89425000D02*
X126662500Y-89062500D01*
X127025000Y-91850000D02*
X127025000Y-89425000D01*
X142780057Y-78043790D02*
X145819390Y-78043790D01*
X142009390Y-78814457D02*
X142780057Y-78043790D01*
X142009390Y-80706763D02*
X142009390Y-78814457D01*
X147135000Y-79359400D02*
X147135000Y-80350000D01*
X140104390Y-82611763D02*
X142009390Y-80706763D01*
X145819390Y-78043790D02*
X147135000Y-79359400D01*
X140104390Y-87920610D02*
X140104390Y-82611763D01*
X138425000Y-89600000D02*
X140104390Y-87920610D01*
X138425000Y-91850000D02*
X138425000Y-89600000D01*
X149179380Y-77593780D02*
X150945000Y-79359400D01*
X135610067Y-77593780D02*
X149179380Y-77593780D01*
X134389390Y-78814457D02*
X135610067Y-77593780D01*
X134389390Y-80706763D02*
X134389390Y-78814457D01*
X132484390Y-82611763D02*
X134389390Y-80706763D01*
X132484390Y-87940610D02*
X132484390Y-82611763D01*
X150945000Y-79359400D02*
X150945000Y-80350000D01*
X130825000Y-89600000D02*
X132484390Y-87940610D01*
X130825000Y-91850000D02*
X130825000Y-89600000D01*
X125590610Y-81885543D02*
X125590610Y-78814457D01*
X123225000Y-89600000D02*
X121054390Y-87429390D01*
X123225000Y-91850000D02*
X123225000Y-89600000D01*
X121054390Y-87429390D02*
X121054390Y-83894457D01*
X121054390Y-83894457D02*
X122292637Y-82656210D01*
X125590610Y-78814457D02*
X123526153Y-76750000D01*
X122292637Y-82656210D02*
X124819943Y-82656210D01*
X124819943Y-82656210D02*
X125590610Y-81885543D01*
X116655000Y-79359400D02*
X116655000Y-80350000D01*
X119264400Y-76750000D02*
X116655000Y-79359400D01*
X123526153Y-76750000D02*
X119264400Y-76750000D01*
X120465000Y-82581200D02*
X120465000Y-80350000D01*
X120465000Y-88560000D02*
X120465000Y-82581200D01*
X119425000Y-89600000D02*
X120465000Y-88560000D01*
X119425000Y-91850000D02*
X119425000Y-89600000D01*
X122370000Y-86420600D02*
X122370000Y-85430000D01*
X123685610Y-87736210D02*
X122370000Y-86420600D01*
X127495610Y-83894457D02*
X127495610Y-86965543D01*
X126769390Y-83168237D02*
X127495610Y-83894457D01*
X126769390Y-78480610D02*
X126769390Y-83168237D01*
X128106230Y-77143770D02*
X126769390Y-78480610D01*
X150589923Y-77143770D02*
X128106230Y-77143770D01*
X154165610Y-80719457D02*
X150589923Y-77143770D01*
X154165610Y-86965543D02*
X154165610Y-80719457D01*
X127495610Y-86965543D02*
X126724943Y-87736210D01*
X153394943Y-87736210D02*
X154165610Y-86965543D01*
X126724943Y-87736210D02*
X123685610Y-87736210D01*
X147888790Y-87736210D02*
X153394943Y-87736210D01*
X146025000Y-89600000D02*
X147888790Y-87736210D01*
X146025000Y-91850000D02*
X146025000Y-89600000D01*
X124275000Y-79359400D02*
X124275000Y-80350000D01*
X122959390Y-78043790D02*
X124275000Y-79359400D01*
X119920057Y-78043790D02*
X122959390Y-78043790D01*
X119149390Y-80706763D02*
X119149390Y-78814457D01*
X117244390Y-87980610D02*
X117244390Y-82611763D01*
X119149390Y-78814457D02*
X119920057Y-78043790D01*
X115625000Y-89600000D02*
X117244390Y-87980610D01*
X117244390Y-82611763D02*
X119149390Y-80706763D01*
X115625000Y-91850000D02*
X115625000Y-89600000D01*
X149825000Y-89600000D02*
X150575000Y-88850000D01*
X149825000Y-91850000D02*
X149825000Y-89600000D01*
X126180000Y-83198800D02*
X126180000Y-85430000D01*
X126180000Y-78433590D02*
X126180000Y-83198800D01*
X127919829Y-76693761D02*
X126180000Y-78433590D01*
X150776323Y-76693760D02*
X127919829Y-76693761D01*
X154615619Y-80533056D02*
X150776323Y-76693760D01*
X154615620Y-87151943D02*
X154615619Y-80533056D01*
X152917563Y-88850000D02*
X154615620Y-87151943D01*
X150575000Y-88850000D02*
X152917563Y-88850000D01*
X129325600Y-80350000D02*
X128085000Y-80350000D01*
X130100000Y-81124400D02*
X129325600Y-80350000D01*
X130100000Y-82100000D02*
X130100000Y-81124400D01*
X134625000Y-91850000D02*
X134625000Y-91100000D01*
D14*
G36*
X162290001Y-76387191D02*
G01*
X162245868Y-76248068D01*
X162222290Y-76193058D01*
X162199508Y-76137783D01*
X162195125Y-76129677D01*
X162051836Y-75869034D01*
X162018048Y-75819687D01*
X161984936Y-75769850D01*
X161979062Y-75762749D01*
X161787876Y-75534904D01*
X161745146Y-75493060D01*
X161702987Y-75450605D01*
X161695846Y-75444781D01*
X161464045Y-75258408D01*
X161414031Y-75225680D01*
X161364398Y-75192202D01*
X161356261Y-75187876D01*
X161092675Y-75050077D01*
X161037219Y-75027672D01*
X160982068Y-75004488D01*
X160973246Y-75001825D01*
X160687915Y-74917847D01*
X160629175Y-74906642D01*
X160570558Y-74894609D01*
X160561386Y-74893710D01*
X160265178Y-74866753D01*
X160205361Y-74867171D01*
X160145544Y-74866753D01*
X160136372Y-74867653D01*
X159840569Y-74898742D01*
X159781972Y-74910771D01*
X159723210Y-74921980D01*
X159714388Y-74924644D01*
X159430257Y-75012598D01*
X159375139Y-75035768D01*
X159319650Y-75058186D01*
X159311514Y-75062513D01*
X159049878Y-75203979D01*
X159000311Y-75237412D01*
X158950232Y-75270183D01*
X158943091Y-75276008D01*
X158713915Y-75465597D01*
X158671774Y-75508034D01*
X158629024Y-75549897D01*
X158623150Y-75556998D01*
X158435164Y-75787492D01*
X158402049Y-75837334D01*
X158368265Y-75886674D01*
X158363882Y-75894781D01*
X158224246Y-76157399D01*
X158201458Y-76212687D01*
X158177886Y-76267683D01*
X158175162Y-76276487D01*
X158089193Y-76561225D01*
X158077570Y-76619925D01*
X158065137Y-76678419D01*
X158064174Y-76687584D01*
X158035150Y-76983596D01*
X158035150Y-77112406D01*
X158055801Y-77216697D01*
X158055800Y-80437952D01*
X158045478Y-80471300D01*
X158036932Y-80552622D01*
X158035299Y-80560870D01*
X158035299Y-80568164D01*
X158032016Y-80599404D01*
X158032016Y-80608620D01*
X158032165Y-80629898D01*
X158035298Y-80659700D01*
X158035298Y-80689680D01*
X158036262Y-80698844D01*
X158069416Y-80994424D01*
X158081853Y-81052936D01*
X158093471Y-81111614D01*
X158096196Y-81120413D01*
X158096197Y-81120419D01*
X158096199Y-81120425D01*
X158186130Y-81403928D01*
X158209691Y-81458899D01*
X158232491Y-81514217D01*
X158236874Y-81522323D01*
X158380163Y-81782965D01*
X158413947Y-81832305D01*
X158447062Y-81882147D01*
X158452936Y-81889247D01*
X158644122Y-82117094D01*
X158686853Y-82158939D01*
X158729013Y-82201395D01*
X158736155Y-82207219D01*
X158967956Y-82393591D01*
X159017968Y-82426318D01*
X159067600Y-82459795D01*
X159075737Y-82464121D01*
X159339323Y-82601921D01*
X159394783Y-82624328D01*
X159449931Y-82647511D01*
X159458753Y-82650174D01*
X159744083Y-82734152D01*
X159802837Y-82745360D01*
X159861441Y-82757390D01*
X159870613Y-82758289D01*
X160166820Y-82785246D01*
X160226638Y-82784828D01*
X160286455Y-82785246D01*
X160295626Y-82784347D01*
X160591430Y-82753257D01*
X160650017Y-82741230D01*
X160708787Y-82730020D01*
X160717609Y-82727356D01*
X161001740Y-82639403D01*
X161056883Y-82616223D01*
X161112348Y-82593814D01*
X161120485Y-82589487D01*
X161382121Y-82448021D01*
X161431705Y-82414576D01*
X161481768Y-82381816D01*
X161488909Y-82375992D01*
X161718085Y-82186401D01*
X161760224Y-82143966D01*
X161802974Y-82102103D01*
X161808848Y-82095002D01*
X161996834Y-81864509D01*
X162029938Y-81814682D01*
X162063733Y-81765327D01*
X162068116Y-81757221D01*
X162207753Y-81494603D01*
X162230560Y-81439269D01*
X162254114Y-81384314D01*
X162256838Y-81375515D01*
X162256840Y-81375509D01*
X162290001Y-81265674D01*
X162290000Y-93390000D01*
X154327000Y-93390000D01*
X154327000Y-89600000D01*
X154324560Y-89575224D01*
X154317333Y-89551399D01*
X154305597Y-89529443D01*
X154289803Y-89510197D01*
X154270557Y-89494403D01*
X154248601Y-89482667D01*
X154224776Y-89475440D01*
X154200000Y-89473000D01*
X153356429Y-89473000D01*
X153457564Y-89390001D01*
X153481367Y-89360997D01*
X155126628Y-87715737D01*
X155155621Y-87691943D01*
X155179415Y-87662950D01*
X155179419Y-87662946D01*
X155250593Y-87576220D01*
X155321166Y-87444190D01*
X155361284Y-87311934D01*
X155364623Y-87300928D01*
X155375620Y-87189275D01*
X155375620Y-87189267D01*
X155379296Y-87151944D01*
X155375620Y-87114621D01*
X155375618Y-80570388D01*
X155379295Y-80533055D01*
X155364621Y-80384069D01*
X155321164Y-80240809D01*
X155250592Y-80108779D01*
X155179418Y-80022052D01*
X155179408Y-80022042D01*
X155155619Y-79993055D01*
X155126632Y-79969266D01*
X151340121Y-76182757D01*
X151316323Y-76153759D01*
X151256429Y-76104605D01*
X151200599Y-76058786D01*
X151068569Y-75988214D01*
X151026029Y-75975310D01*
X150925308Y-75944757D01*
X150813655Y-75933760D01*
X150813645Y-75933760D01*
X150776323Y-75930084D01*
X150739001Y-75933760D01*
X127957164Y-75933762D01*
X127919829Y-75930085D01*
X127770843Y-75944758D01*
X127627582Y-75988215D01*
X127495553Y-76058787D01*
X127408826Y-76129962D01*
X127408821Y-76129967D01*
X127379828Y-76153761D01*
X127356034Y-76182754D01*
X125694872Y-77843917D01*
X124089957Y-76239003D01*
X124066154Y-76209999D01*
X123950429Y-76115026D01*
X123818400Y-76044454D01*
X123675139Y-76000997D01*
X123563486Y-75990000D01*
X123563475Y-75990000D01*
X123526153Y-75986324D01*
X123488831Y-75990000D01*
X119301723Y-75990000D01*
X119264400Y-75986324D01*
X119227077Y-75990000D01*
X119227067Y-75990000D01*
X119115414Y-76000997D01*
X118972153Y-76044454D01*
X118840124Y-76115026D01*
X118724399Y-76209999D01*
X118700601Y-76238997D01*
X117133726Y-77805873D01*
X116973673Y-77757322D01*
X116655000Y-77725935D01*
X116336328Y-77757322D01*
X116029901Y-77850275D01*
X115747496Y-78001223D01*
X115499967Y-78204366D01*
X115296824Y-78451895D01*
X115145876Y-78734300D01*
X115052923Y-79040727D01*
X115029401Y-79279546D01*
X115029400Y-81420453D01*
X115052922Y-81659272D01*
X115145875Y-81965699D01*
X115296823Y-82248104D01*
X115499966Y-82495634D01*
X115747495Y-82698777D01*
X116029900Y-82849725D01*
X116336327Y-82942678D01*
X116484391Y-82957261D01*
X116484390Y-87665808D01*
X115113998Y-89036201D01*
X115085000Y-89059999D01*
X115061202Y-89088997D01*
X115061201Y-89088998D01*
X114990026Y-89175724D01*
X114970674Y-89211928D01*
X114375000Y-89211928D01*
X114250518Y-89224188D01*
X114130820Y-89260498D01*
X114020506Y-89319463D01*
X113923815Y-89398815D01*
X113862933Y-89473000D01*
X113100000Y-89473000D01*
X113075224Y-89475440D01*
X113051399Y-89482667D01*
X113029443Y-89494403D01*
X113010197Y-89510197D01*
X112994403Y-89529443D01*
X112982667Y-89551399D01*
X112975440Y-89575224D01*
X112973000Y-89600000D01*
X112973000Y-93390000D01*
X105310000Y-93390000D01*
X105310000Y-86500453D01*
X113124400Y-86500453D01*
X113147922Y-86739272D01*
X113240875Y-87045699D01*
X113391823Y-87328104D01*
X113594966Y-87575634D01*
X113842495Y-87778777D01*
X114124900Y-87929725D01*
X114431327Y-88022678D01*
X114750000Y-88054065D01*
X115068672Y-88022678D01*
X115375099Y-87929725D01*
X115657504Y-87778777D01*
X115905034Y-87575634D01*
X116108177Y-87328105D01*
X116259125Y-87045700D01*
X116352078Y-86739273D01*
X116375600Y-86500454D01*
X116375600Y-84359546D01*
X116352078Y-84120727D01*
X116259125Y-83814300D01*
X116108177Y-83531895D01*
X115905034Y-83284366D01*
X115657505Y-83081223D01*
X115375100Y-82930275D01*
X115068673Y-82837322D01*
X114750000Y-82805935D01*
X114431328Y-82837322D01*
X114124901Y-82930275D01*
X113842496Y-83081223D01*
X113594967Y-83284366D01*
X113391824Y-83531895D01*
X113240876Y-83814300D01*
X113147923Y-84120727D01*
X113124401Y-84359546D01*
X113124400Y-86500453D01*
X105310000Y-86500453D01*
X105310000Y-81264810D01*
X105354130Y-81403928D01*
X105377691Y-81458899D01*
X105400491Y-81514217D01*
X105404874Y-81522323D01*
X105548163Y-81782965D01*
X105581947Y-81832305D01*
X105615062Y-81882147D01*
X105620936Y-81889247D01*
X105812122Y-82117094D01*
X105854853Y-82158939D01*
X105897013Y-82201395D01*
X105904155Y-82207219D01*
X106135956Y-82393591D01*
X106185968Y-82426318D01*
X106235600Y-82459795D01*
X106243737Y-82464121D01*
X106507323Y-82601921D01*
X106562783Y-82624328D01*
X106617931Y-82647511D01*
X106626753Y-82650174D01*
X106912083Y-82734152D01*
X106970837Y-82745360D01*
X107029441Y-82757390D01*
X107038613Y-82758289D01*
X107334820Y-82785246D01*
X107394638Y-82784828D01*
X107454455Y-82785246D01*
X107463626Y-82784347D01*
X107759430Y-82753257D01*
X107818017Y-82741230D01*
X107876787Y-82730020D01*
X107885609Y-82727356D01*
X108169740Y-82639403D01*
X108224883Y-82616223D01*
X108280348Y-82593814D01*
X108288485Y-82589487D01*
X108550121Y-82448021D01*
X108599705Y-82414576D01*
X108649768Y-82381816D01*
X108656909Y-82375992D01*
X108886085Y-82186401D01*
X108928224Y-82143966D01*
X108970974Y-82102103D01*
X108976848Y-82095002D01*
X109164834Y-81864509D01*
X109197938Y-81814682D01*
X109231733Y-81765327D01*
X109236116Y-81757221D01*
X109375753Y-81494603D01*
X109398560Y-81439269D01*
X109422114Y-81384314D01*
X109424838Y-81375515D01*
X109424840Y-81375509D01*
X109510806Y-81090773D01*
X109522422Y-81032108D01*
X109534862Y-80973584D01*
X109535825Y-80964419D01*
X109564850Y-80668406D01*
X109564850Y-80539596D01*
X109544200Y-80435305D01*
X109544200Y-77214047D01*
X109554522Y-77180699D01*
X109563068Y-77099377D01*
X109564701Y-77091129D01*
X109564701Y-77083835D01*
X109567984Y-77052594D01*
X109567984Y-77043379D01*
X109567835Y-77022100D01*
X109564702Y-76992298D01*
X109564702Y-76962319D01*
X109563738Y-76953154D01*
X109530584Y-76657575D01*
X109518151Y-76599081D01*
X109506528Y-76540381D01*
X109503803Y-76531578D01*
X109413868Y-76248068D01*
X109390290Y-76193058D01*
X109367508Y-76137783D01*
X109363125Y-76129677D01*
X109219836Y-75869034D01*
X109186048Y-75819687D01*
X109152936Y-75769850D01*
X109147062Y-75762749D01*
X108955876Y-75534904D01*
X108913146Y-75493060D01*
X108870987Y-75450605D01*
X108863846Y-75444781D01*
X108632045Y-75258408D01*
X108582031Y-75225680D01*
X108532398Y-75192202D01*
X108524261Y-75187876D01*
X108260675Y-75050077D01*
X108205219Y-75027672D01*
X108150068Y-75004488D01*
X108141246Y-75001825D01*
X107855915Y-74917847D01*
X107797175Y-74906642D01*
X107738558Y-74894609D01*
X107729386Y-74893710D01*
X107433178Y-74866753D01*
X107373361Y-74867171D01*
X107313544Y-74866753D01*
X107304372Y-74867653D01*
X107008569Y-74898742D01*
X106949972Y-74910771D01*
X106891210Y-74921980D01*
X106882388Y-74924644D01*
X106598257Y-75012598D01*
X106543139Y-75035768D01*
X106487650Y-75058186D01*
X106479514Y-75062513D01*
X106217878Y-75203979D01*
X106168311Y-75237412D01*
X106118232Y-75270183D01*
X106111091Y-75276008D01*
X105881915Y-75465597D01*
X105839774Y-75508034D01*
X105797024Y-75549897D01*
X105791150Y-75556998D01*
X105603164Y-75787492D01*
X105570049Y-75837334D01*
X105536265Y-75886674D01*
X105531882Y-75894781D01*
X105392246Y-76157399D01*
X105369458Y-76212687D01*
X105345886Y-76267683D01*
X105343162Y-76276487D01*
X105310000Y-76386323D01*
X105310000Y-70010000D01*
X162290001Y-70010000D01*
X162290001Y-76387191D01*
X162290001Y-76387191D01*
G37*
X162290001Y-76387191D02*
X162245868Y-76248068D01*
X162222290Y-76193058D01*
X162199508Y-76137783D01*
X162195125Y-76129677D01*
X162051836Y-75869034D01*
X162018048Y-75819687D01*
X161984936Y-75769850D01*
X161979062Y-75762749D01*
X161787876Y-75534904D01*
X161745146Y-75493060D01*
X161702987Y-75450605D01*
X161695846Y-75444781D01*
X161464045Y-75258408D01*
X161414031Y-75225680D01*
X161364398Y-75192202D01*
X161356261Y-75187876D01*
X161092675Y-75050077D01*
X161037219Y-75027672D01*
X160982068Y-75004488D01*
X160973246Y-75001825D01*
X160687915Y-74917847D01*
X160629175Y-74906642D01*
X160570558Y-74894609D01*
X160561386Y-74893710D01*
X160265178Y-74866753D01*
X160205361Y-74867171D01*
X160145544Y-74866753D01*
X160136372Y-74867653D01*
X159840569Y-74898742D01*
X159781972Y-74910771D01*
X159723210Y-74921980D01*
X159714388Y-74924644D01*
X159430257Y-75012598D01*
X159375139Y-75035768D01*
X159319650Y-75058186D01*
X159311514Y-75062513D01*
X159049878Y-75203979D01*
X159000311Y-75237412D01*
X158950232Y-75270183D01*
X158943091Y-75276008D01*
X158713915Y-75465597D01*
X158671774Y-75508034D01*
X158629024Y-75549897D01*
X158623150Y-75556998D01*
X158435164Y-75787492D01*
X158402049Y-75837334D01*
X158368265Y-75886674D01*
X158363882Y-75894781D01*
X158224246Y-76157399D01*
X158201458Y-76212687D01*
X158177886Y-76267683D01*
X158175162Y-76276487D01*
X158089193Y-76561225D01*
X158077570Y-76619925D01*
X158065137Y-76678419D01*
X158064174Y-76687584D01*
X158035150Y-76983596D01*
X158035150Y-77112406D01*
X158055801Y-77216697D01*
X158055800Y-80437952D01*
X158045478Y-80471300D01*
X158036932Y-80552622D01*
X158035299Y-80560870D01*
X158035299Y-80568164D01*
X158032016Y-80599404D01*
X158032016Y-80608620D01*
X158032165Y-80629898D01*
X158035298Y-80659700D01*
X158035298Y-80689680D01*
X158036262Y-80698844D01*
X158069416Y-80994424D01*
X158081853Y-81052936D01*
X158093471Y-81111614D01*
X158096196Y-81120413D01*
X158096197Y-81120419D01*
X158096199Y-81120425D01*
X158186130Y-81403928D01*
X158209691Y-81458899D01*
X158232491Y-81514217D01*
X158236874Y-81522323D01*
X158380163Y-81782965D01*
X158413947Y-81832305D01*
X158447062Y-81882147D01*
X158452936Y-81889247D01*
X158644122Y-82117094D01*
X158686853Y-82158939D01*
X158729013Y-82201395D01*
X158736155Y-82207219D01*
X158967956Y-82393591D01*
X159017968Y-82426318D01*
X159067600Y-82459795D01*
X159075737Y-82464121D01*
X159339323Y-82601921D01*
X159394783Y-82624328D01*
X159449931Y-82647511D01*
X159458753Y-82650174D01*
X159744083Y-82734152D01*
X159802837Y-82745360D01*
X159861441Y-82757390D01*
X159870613Y-82758289D01*
X160166820Y-82785246D01*
X160226638Y-82784828D01*
X160286455Y-82785246D01*
X160295626Y-82784347D01*
X160591430Y-82753257D01*
X160650017Y-82741230D01*
X160708787Y-82730020D01*
X160717609Y-82727356D01*
X161001740Y-82639403D01*
X161056883Y-82616223D01*
X161112348Y-82593814D01*
X161120485Y-82589487D01*
X161382121Y-82448021D01*
X161431705Y-82414576D01*
X161481768Y-82381816D01*
X161488909Y-82375992D01*
X161718085Y-82186401D01*
X161760224Y-82143966D01*
X161802974Y-82102103D01*
X161808848Y-82095002D01*
X161996834Y-81864509D01*
X162029938Y-81814682D01*
X162063733Y-81765327D01*
X162068116Y-81757221D01*
X162207753Y-81494603D01*
X162230560Y-81439269D01*
X162254114Y-81384314D01*
X162256838Y-81375515D01*
X162256840Y-81375509D01*
X162290001Y-81265674D01*
X162290000Y-93390000D01*
X154327000Y-93390000D01*
X154327000Y-89600000D01*
X154324560Y-89575224D01*
X154317333Y-89551399D01*
X154305597Y-89529443D01*
X154289803Y-89510197D01*
X154270557Y-89494403D01*
X154248601Y-89482667D01*
X154224776Y-89475440D01*
X154200000Y-89473000D01*
X153356429Y-89473000D01*
X153457564Y-89390001D01*
X153481367Y-89360997D01*
X155126628Y-87715737D01*
X155155621Y-87691943D01*
X155179415Y-87662950D01*
X155179419Y-87662946D01*
X155250593Y-87576220D01*
X155321166Y-87444190D01*
X155361284Y-87311934D01*
X155364623Y-87300928D01*
X155375620Y-87189275D01*
X155375620Y-87189267D01*
X155379296Y-87151944D01*
X155375620Y-87114621D01*
X155375618Y-80570388D01*
X155379295Y-80533055D01*
X155364621Y-80384069D01*
X155321164Y-80240809D01*
X155250592Y-80108779D01*
X155179418Y-80022052D01*
X155179408Y-80022042D01*
X155155619Y-79993055D01*
X155126632Y-79969266D01*
X151340121Y-76182757D01*
X151316323Y-76153759D01*
X151256429Y-76104605D01*
X151200599Y-76058786D01*
X151068569Y-75988214D01*
X151026029Y-75975310D01*
X150925308Y-75944757D01*
X150813655Y-75933760D01*
X150813645Y-75933760D01*
X150776323Y-75930084D01*
X150739001Y-75933760D01*
X127957164Y-75933762D01*
X127919829Y-75930085D01*
X127770843Y-75944758D01*
X127627582Y-75988215D01*
X127495553Y-76058787D01*
X127408826Y-76129962D01*
X127408821Y-76129967D01*
X127379828Y-76153761D01*
X127356034Y-76182754D01*
X125694872Y-77843917D01*
X124089957Y-76239003D01*
X124066154Y-76209999D01*
X123950429Y-76115026D01*
X123818400Y-76044454D01*
X123675139Y-76000997D01*
X123563486Y-75990000D01*
X123563475Y-75990000D01*
X123526153Y-75986324D01*
X123488831Y-75990000D01*
X119301723Y-75990000D01*
X119264400Y-75986324D01*
X119227077Y-75990000D01*
X119227067Y-75990000D01*
X119115414Y-76000997D01*
X118972153Y-76044454D01*
X118840124Y-76115026D01*
X118724399Y-76209999D01*
X118700601Y-76238997D01*
X117133726Y-77805873D01*
X116973673Y-77757322D01*
X116655000Y-77725935D01*
X116336328Y-77757322D01*
X116029901Y-77850275D01*
X115747496Y-78001223D01*
X115499967Y-78204366D01*
X115296824Y-78451895D01*
X115145876Y-78734300D01*
X115052923Y-79040727D01*
X115029401Y-79279546D01*
X115029400Y-81420453D01*
X115052922Y-81659272D01*
X115145875Y-81965699D01*
X115296823Y-82248104D01*
X115499966Y-82495634D01*
X115747495Y-82698777D01*
X116029900Y-82849725D01*
X116336327Y-82942678D01*
X116484391Y-82957261D01*
X116484390Y-87665808D01*
X115113998Y-89036201D01*
X115085000Y-89059999D01*
X115061202Y-89088997D01*
X115061201Y-89088998D01*
X114990026Y-89175724D01*
X114970674Y-89211928D01*
X114375000Y-89211928D01*
X114250518Y-89224188D01*
X114130820Y-89260498D01*
X114020506Y-89319463D01*
X113923815Y-89398815D01*
X113862933Y-89473000D01*
X113100000Y-89473000D01*
X113075224Y-89475440D01*
X113051399Y-89482667D01*
X113029443Y-89494403D01*
X113010197Y-89510197D01*
X112994403Y-89529443D01*
X112982667Y-89551399D01*
X112975440Y-89575224D01*
X112973000Y-89600000D01*
X112973000Y-93390000D01*
X105310000Y-93390000D01*
X105310000Y-86500453D01*
X113124400Y-86500453D01*
X113147922Y-86739272D01*
X113240875Y-87045699D01*
X113391823Y-87328104D01*
X113594966Y-87575634D01*
X113842495Y-87778777D01*
X114124900Y-87929725D01*
X114431327Y-88022678D01*
X114750000Y-88054065D01*
X115068672Y-88022678D01*
X115375099Y-87929725D01*
X115657504Y-87778777D01*
X115905034Y-87575634D01*
X116108177Y-87328105D01*
X116259125Y-87045700D01*
X116352078Y-86739273D01*
X116375600Y-86500454D01*
X116375600Y-84359546D01*
X116352078Y-84120727D01*
X116259125Y-83814300D01*
X116108177Y-83531895D01*
X115905034Y-83284366D01*
X115657505Y-83081223D01*
X115375100Y-82930275D01*
X115068673Y-82837322D01*
X114750000Y-82805935D01*
X114431328Y-82837322D01*
X114124901Y-82930275D01*
X113842496Y-83081223D01*
X113594967Y-83284366D01*
X113391824Y-83531895D01*
X113240876Y-83814300D01*
X113147923Y-84120727D01*
X113124401Y-84359546D01*
X113124400Y-86500453D01*
X105310000Y-86500453D01*
X105310000Y-81264810D01*
X105354130Y-81403928D01*
X105377691Y-81458899D01*
X105400491Y-81514217D01*
X105404874Y-81522323D01*
X105548163Y-81782965D01*
X105581947Y-81832305D01*
X105615062Y-81882147D01*
X105620936Y-81889247D01*
X105812122Y-82117094D01*
X105854853Y-82158939D01*
X105897013Y-82201395D01*
X105904155Y-82207219D01*
X106135956Y-82393591D01*
X106185968Y-82426318D01*
X106235600Y-82459795D01*
X106243737Y-82464121D01*
X106507323Y-82601921D01*
X106562783Y-82624328D01*
X106617931Y-82647511D01*
X106626753Y-82650174D01*
X106912083Y-82734152D01*
X106970837Y-82745360D01*
X107029441Y-82757390D01*
X107038613Y-82758289D01*
X107334820Y-82785246D01*
X107394638Y-82784828D01*
X107454455Y-82785246D01*
X107463626Y-82784347D01*
X107759430Y-82753257D01*
X107818017Y-82741230D01*
X107876787Y-82730020D01*
X107885609Y-82727356D01*
X108169740Y-82639403D01*
X108224883Y-82616223D01*
X108280348Y-82593814D01*
X108288485Y-82589487D01*
X108550121Y-82448021D01*
X108599705Y-82414576D01*
X108649768Y-82381816D01*
X108656909Y-82375992D01*
X108886085Y-82186401D01*
X108928224Y-82143966D01*
X108970974Y-82102103D01*
X108976848Y-82095002D01*
X109164834Y-81864509D01*
X109197938Y-81814682D01*
X109231733Y-81765327D01*
X109236116Y-81757221D01*
X109375753Y-81494603D01*
X109398560Y-81439269D01*
X109422114Y-81384314D01*
X109424838Y-81375515D01*
X109424840Y-81375509D01*
X109510806Y-81090773D01*
X109522422Y-81032108D01*
X109534862Y-80973584D01*
X109535825Y-80964419D01*
X109564850Y-80668406D01*
X109564850Y-80539596D01*
X109544200Y-80435305D01*
X109544200Y-77214047D01*
X109554522Y-77180699D01*
X109563068Y-77099377D01*
X109564701Y-77091129D01*
X109564701Y-77083835D01*
X109567984Y-77052594D01*
X109567984Y-77043379D01*
X109567835Y-77022100D01*
X109564702Y-76992298D01*
X109564702Y-76962319D01*
X109563738Y-76953154D01*
X109530584Y-76657575D01*
X109518151Y-76599081D01*
X109506528Y-76540381D01*
X109503803Y-76531578D01*
X109413868Y-76248068D01*
X109390290Y-76193058D01*
X109367508Y-76137783D01*
X109363125Y-76129677D01*
X109219836Y-75869034D01*
X109186048Y-75819687D01*
X109152936Y-75769850D01*
X109147062Y-75762749D01*
X108955876Y-75534904D01*
X108913146Y-75493060D01*
X108870987Y-75450605D01*
X108863846Y-75444781D01*
X108632045Y-75258408D01*
X108582031Y-75225680D01*
X108532398Y-75192202D01*
X108524261Y-75187876D01*
X108260675Y-75050077D01*
X108205219Y-75027672D01*
X108150068Y-75004488D01*
X108141246Y-75001825D01*
X107855915Y-74917847D01*
X107797175Y-74906642D01*
X107738558Y-74894609D01*
X107729386Y-74893710D01*
X107433178Y-74866753D01*
X107373361Y-74867171D01*
X107313544Y-74866753D01*
X107304372Y-74867653D01*
X107008569Y-74898742D01*
X106949972Y-74910771D01*
X106891210Y-74921980D01*
X106882388Y-74924644D01*
X106598257Y-75012598D01*
X106543139Y-75035768D01*
X106487650Y-75058186D01*
X106479514Y-75062513D01*
X106217878Y-75203979D01*
X106168311Y-75237412D01*
X106118232Y-75270183D01*
X106111091Y-75276008D01*
X105881915Y-75465597D01*
X105839774Y-75508034D01*
X105797024Y-75549897D01*
X105791150Y-75556998D01*
X105603164Y-75787492D01*
X105570049Y-75837334D01*
X105536265Y-75886674D01*
X105531882Y-75894781D01*
X105392246Y-76157399D01*
X105369458Y-76212687D01*
X105345886Y-76267683D01*
X105343162Y-76276487D01*
X105310000Y-76386323D01*
X105310000Y-70010000D01*
X162290001Y-70010000D01*
X162290001Y-76387191D01*
G36*
X138156824Y-78451895D02*
G01*
X138005876Y-78734300D01*
X137912923Y-79040727D01*
X137889401Y-79279546D01*
X137889400Y-81420453D01*
X137912922Y-81659272D01*
X138005875Y-81965699D01*
X138156823Y-82248104D01*
X138359966Y-82495634D01*
X138607495Y-82698777D01*
X138889900Y-82849725D01*
X139196327Y-82942678D01*
X139344391Y-82957261D01*
X139344390Y-87605808D01*
X137913998Y-89036201D01*
X137885000Y-89059999D01*
X137861202Y-89088997D01*
X137861201Y-89088998D01*
X137790026Y-89175724D01*
X137770674Y-89211928D01*
X137175000Y-89211928D01*
X137050518Y-89224188D01*
X136930820Y-89260498D01*
X136820506Y-89319463D01*
X136723815Y-89398815D01*
X136662933Y-89473000D01*
X136387067Y-89473000D01*
X136326185Y-89398815D01*
X136229494Y-89319463D01*
X136119180Y-89260498D01*
X135999482Y-89224188D01*
X135875000Y-89211928D01*
X133375000Y-89211928D01*
X133250518Y-89224188D01*
X133130820Y-89260498D01*
X133020506Y-89319463D01*
X132923815Y-89398815D01*
X132862933Y-89473000D01*
X132587067Y-89473000D01*
X132526185Y-89398815D01*
X132429494Y-89319463D01*
X132319180Y-89260498D01*
X132257894Y-89241907D01*
X132995394Y-88504408D01*
X133024391Y-88480611D01*
X133119364Y-88364886D01*
X133189936Y-88232857D01*
X133233393Y-88089596D01*
X133244390Y-87977943D01*
X133244390Y-87977933D01*
X133246984Y-87951591D01*
X133481327Y-88022678D01*
X133800000Y-88054065D01*
X134118672Y-88022678D01*
X134425099Y-87929725D01*
X134707504Y-87778777D01*
X134955034Y-87575634D01*
X135158177Y-87328105D01*
X135309125Y-87045700D01*
X135402078Y-86739273D01*
X135425600Y-86500454D01*
X135425600Y-86500453D01*
X135984400Y-86500453D01*
X136007922Y-86739272D01*
X136100875Y-87045699D01*
X136251823Y-87328104D01*
X136454966Y-87575634D01*
X136702495Y-87778777D01*
X136984900Y-87929725D01*
X137291327Y-88022678D01*
X137610000Y-88054065D01*
X137928672Y-88022678D01*
X138235099Y-87929725D01*
X138517504Y-87778777D01*
X138765034Y-87575634D01*
X138968177Y-87328105D01*
X139119125Y-87045700D01*
X139212078Y-86739273D01*
X139235600Y-86500454D01*
X139235600Y-84359546D01*
X139212078Y-84120727D01*
X139119125Y-83814300D01*
X138968177Y-83531895D01*
X138765034Y-83284366D01*
X138517505Y-83081223D01*
X138235100Y-82930275D01*
X137928673Y-82837322D01*
X137610000Y-82805935D01*
X137291328Y-82837322D01*
X136984901Y-82930275D01*
X136702496Y-83081223D01*
X136454967Y-83284366D01*
X136251824Y-83531895D01*
X136100876Y-83814300D01*
X136007923Y-84120727D01*
X135984401Y-84359546D01*
X135984400Y-86500453D01*
X135425600Y-86500453D01*
X135425600Y-84359546D01*
X135402078Y-84120727D01*
X135309125Y-83814300D01*
X135158177Y-83531895D01*
X134955034Y-83284366D01*
X134707505Y-83081223D01*
X134425100Y-82930275D01*
X134118673Y-82837322D01*
X133800000Y-82805935D01*
X133481328Y-82837322D01*
X133269321Y-82901633D01*
X134199143Y-81971812D01*
X134346823Y-82248104D01*
X134549966Y-82495634D01*
X134797495Y-82698777D01*
X135079900Y-82849725D01*
X135386327Y-82942678D01*
X135705000Y-82974065D01*
X136023672Y-82942678D01*
X136330099Y-82849725D01*
X136612504Y-82698777D01*
X136860034Y-82495634D01*
X137063177Y-82248105D01*
X137214125Y-81965700D01*
X137307078Y-81659273D01*
X137330600Y-81420454D01*
X137330600Y-79279546D01*
X137307078Y-79040727D01*
X137214125Y-78734300D01*
X137063177Y-78451895D01*
X136982656Y-78353780D01*
X138237345Y-78353780D01*
X138156824Y-78451895D01*
X138156824Y-78451895D01*
G37*
X138156824Y-78451895D02*
X138005876Y-78734300D01*
X137912923Y-79040727D01*
X137889401Y-79279546D01*
X137889400Y-81420453D01*
X137912922Y-81659272D01*
X138005875Y-81965699D01*
X138156823Y-82248104D01*
X138359966Y-82495634D01*
X138607495Y-82698777D01*
X138889900Y-82849725D01*
X139196327Y-82942678D01*
X139344391Y-82957261D01*
X139344390Y-87605808D01*
X137913998Y-89036201D01*
X137885000Y-89059999D01*
X137861202Y-89088997D01*
X137861201Y-89088998D01*
X137790026Y-89175724D01*
X137770674Y-89211928D01*
X137175000Y-89211928D01*
X137050518Y-89224188D01*
X136930820Y-89260498D01*
X136820506Y-89319463D01*
X136723815Y-89398815D01*
X136662933Y-89473000D01*
X136387067Y-89473000D01*
X136326185Y-89398815D01*
X136229494Y-89319463D01*
X136119180Y-89260498D01*
X135999482Y-89224188D01*
X135875000Y-89211928D01*
X133375000Y-89211928D01*
X133250518Y-89224188D01*
X133130820Y-89260498D01*
X133020506Y-89319463D01*
X132923815Y-89398815D01*
X132862933Y-89473000D01*
X132587067Y-89473000D01*
X132526185Y-89398815D01*
X132429494Y-89319463D01*
X132319180Y-89260498D01*
X132257894Y-89241907D01*
X132995394Y-88504408D01*
X133024391Y-88480611D01*
X133119364Y-88364886D01*
X133189936Y-88232857D01*
X133233393Y-88089596D01*
X133244390Y-87977943D01*
X133244390Y-87977933D01*
X133246984Y-87951591D01*
X133481327Y-88022678D01*
X133800000Y-88054065D01*
X134118672Y-88022678D01*
X134425099Y-87929725D01*
X134707504Y-87778777D01*
X134955034Y-87575634D01*
X135158177Y-87328105D01*
X135309125Y-87045700D01*
X135402078Y-86739273D01*
X135425600Y-86500454D01*
X135425600Y-86500453D01*
X135984400Y-86500453D01*
X136007922Y-86739272D01*
X136100875Y-87045699D01*
X136251823Y-87328104D01*
X136454966Y-87575634D01*
X136702495Y-87778777D01*
X136984900Y-87929725D01*
X137291327Y-88022678D01*
X137610000Y-88054065D01*
X137928672Y-88022678D01*
X138235099Y-87929725D01*
X138517504Y-87778777D01*
X138765034Y-87575634D01*
X138968177Y-87328105D01*
X139119125Y-87045700D01*
X139212078Y-86739273D01*
X139235600Y-86500454D01*
X139235600Y-84359546D01*
X139212078Y-84120727D01*
X139119125Y-83814300D01*
X138968177Y-83531895D01*
X138765034Y-83284366D01*
X138517505Y-83081223D01*
X138235100Y-82930275D01*
X137928673Y-82837322D01*
X137610000Y-82805935D01*
X137291328Y-82837322D01*
X136984901Y-82930275D01*
X136702496Y-83081223D01*
X136454967Y-83284366D01*
X136251824Y-83531895D01*
X136100876Y-83814300D01*
X136007923Y-84120727D01*
X135984401Y-84359546D01*
X135984400Y-86500453D01*
X135425600Y-86500453D01*
X135425600Y-84359546D01*
X135402078Y-84120727D01*
X135309125Y-83814300D01*
X135158177Y-83531895D01*
X134955034Y-83284366D01*
X134707505Y-83081223D01*
X134425100Y-82930275D01*
X134118673Y-82837322D01*
X133800000Y-82805935D01*
X133481328Y-82837322D01*
X133269321Y-82901633D01*
X134199143Y-81971812D01*
X134346823Y-82248104D01*
X134549966Y-82495634D01*
X134797495Y-82698777D01*
X135079900Y-82849725D01*
X135386327Y-82942678D01*
X135705000Y-82974065D01*
X136023672Y-82942678D01*
X136330099Y-82849725D01*
X136612504Y-82698777D01*
X136860034Y-82495634D01*
X137063177Y-82248105D01*
X137214125Y-81965700D01*
X137307078Y-81659273D01*
X137330600Y-81420454D01*
X137330600Y-79279546D01*
X137307078Y-79040727D01*
X137214125Y-78734300D01*
X137063177Y-78451895D01*
X136982656Y-78353780D01*
X138237345Y-78353780D01*
X138156824Y-78451895D01*
G36*
X149391474Y-78880675D02*
G01*
X149342923Y-79040727D01*
X149319401Y-79279546D01*
X149319400Y-81420453D01*
X149342922Y-81659272D01*
X149435875Y-81965699D01*
X149586823Y-82248104D01*
X149789966Y-82495634D01*
X150037495Y-82698777D01*
X150319900Y-82849725D01*
X150626327Y-82942678D01*
X150945000Y-82974065D01*
X151263672Y-82942678D01*
X151570099Y-82849725D01*
X151852504Y-82698777D01*
X152100034Y-82495634D01*
X152303177Y-82248105D01*
X152454125Y-81965700D01*
X152547078Y-81659273D01*
X152570600Y-81420454D01*
X152570600Y-80199249D01*
X153405611Y-81034260D01*
X153405611Y-82911218D01*
X153354758Y-82888940D01*
X153228959Y-82858589D01*
X152977000Y-82978058D01*
X152977000Y-85303000D01*
X152997000Y-85303000D01*
X152997000Y-85557000D01*
X152977000Y-85557000D01*
X152977000Y-85577000D01*
X152723000Y-85577000D01*
X152723000Y-85557000D01*
X151224400Y-85557000D01*
X151224400Y-86547600D01*
X151280412Y-86862299D01*
X151324921Y-86976210D01*
X150570204Y-86976210D01*
X150642078Y-86739273D01*
X150665600Y-86500454D01*
X150665600Y-84359546D01*
X150660957Y-84312400D01*
X151224400Y-84312400D01*
X151224400Y-85303000D01*
X152723000Y-85303000D01*
X152723000Y-82978058D01*
X152471041Y-82858589D01*
X152345242Y-82888940D01*
X152052461Y-83017205D01*
X151790329Y-83200124D01*
X151568920Y-83430668D01*
X151396742Y-83699977D01*
X151280412Y-83997701D01*
X151224400Y-84312400D01*
X150660957Y-84312400D01*
X150642078Y-84120727D01*
X150549125Y-83814300D01*
X150398177Y-83531895D01*
X150195034Y-83284366D01*
X149947505Y-83081223D01*
X149665100Y-82930275D01*
X149358673Y-82837322D01*
X149040000Y-82805935D01*
X148721328Y-82837322D01*
X148414901Y-82930275D01*
X148132496Y-83081223D01*
X147884967Y-83284366D01*
X147681824Y-83531895D01*
X147530876Y-83814300D01*
X147437923Y-84120727D01*
X147414401Y-84359546D01*
X147414400Y-86500453D01*
X147437922Y-86739272D01*
X147530875Y-87045699D01*
X147539217Y-87061306D01*
X147464513Y-87101236D01*
X147402726Y-87151944D01*
X147348789Y-87196209D01*
X147324991Y-87225207D01*
X145513998Y-89036201D01*
X145485000Y-89059999D01*
X145461202Y-89088997D01*
X145461201Y-89088998D01*
X145390026Y-89175724D01*
X145370674Y-89211928D01*
X144775000Y-89211928D01*
X144650518Y-89224188D01*
X144530820Y-89260498D01*
X144420506Y-89319463D01*
X144323815Y-89398815D01*
X144262933Y-89473000D01*
X143987067Y-89473000D01*
X143926185Y-89398815D01*
X143829494Y-89319463D01*
X143719180Y-89260498D01*
X143657895Y-89241907D01*
X143836004Y-89063798D01*
X143865001Y-89040001D01*
X143898662Y-88998985D01*
X143959974Y-88924277D01*
X144030546Y-88792247D01*
X144055802Y-88708987D01*
X144074003Y-88648986D01*
X144085000Y-88537333D01*
X144085000Y-88537323D01*
X144088676Y-88500000D01*
X144085000Y-88462677D01*
X144085000Y-87583869D01*
X144322495Y-87778777D01*
X144604900Y-87929725D01*
X144911327Y-88022678D01*
X145230000Y-88054065D01*
X145548672Y-88022678D01*
X145855099Y-87929725D01*
X146137504Y-87778777D01*
X146385034Y-87575634D01*
X146588177Y-87328105D01*
X146739125Y-87045700D01*
X146832078Y-86739273D01*
X146855600Y-86500454D01*
X146855600Y-84359546D01*
X146832078Y-84120727D01*
X146739125Y-83814300D01*
X146588177Y-83531895D01*
X146385034Y-83284366D01*
X146137505Y-83081223D01*
X145855100Y-82930275D01*
X145548673Y-82837322D01*
X145230000Y-82805935D01*
X144911328Y-82837322D01*
X144604901Y-82930275D01*
X144322496Y-83081223D01*
X144085000Y-83276132D01*
X144085000Y-82777619D01*
X144232504Y-82698777D01*
X144480034Y-82495634D01*
X144683177Y-82248105D01*
X144834125Y-81965700D01*
X144927078Y-81659273D01*
X144950600Y-81420454D01*
X144950600Y-79279546D01*
X144927078Y-79040727D01*
X144855204Y-78803790D01*
X145504589Y-78803790D01*
X145581474Y-78880675D01*
X145532923Y-79040727D01*
X145509401Y-79279546D01*
X145509400Y-81420453D01*
X145532922Y-81659272D01*
X145625875Y-81965699D01*
X145776823Y-82248104D01*
X145979966Y-82495634D01*
X146227495Y-82698777D01*
X146509900Y-82849725D01*
X146816327Y-82942678D01*
X147135000Y-82974065D01*
X147453672Y-82942678D01*
X147760099Y-82849725D01*
X148042504Y-82698777D01*
X148290034Y-82495634D01*
X148493177Y-82248105D01*
X148644125Y-81965700D01*
X148737078Y-81659273D01*
X148760600Y-81420454D01*
X148760600Y-79279546D01*
X148737078Y-79040727D01*
X148644125Y-78734300D01*
X148493177Y-78451895D01*
X148412656Y-78353780D01*
X148864579Y-78353780D01*
X149391474Y-78880675D01*
X149391474Y-78880675D01*
G37*
X149391474Y-78880675D02*
X149342923Y-79040727D01*
X149319401Y-79279546D01*
X149319400Y-81420453D01*
X149342922Y-81659272D01*
X149435875Y-81965699D01*
X149586823Y-82248104D01*
X149789966Y-82495634D01*
X150037495Y-82698777D01*
X150319900Y-82849725D01*
X150626327Y-82942678D01*
X150945000Y-82974065D01*
X151263672Y-82942678D01*
X151570099Y-82849725D01*
X151852504Y-82698777D01*
X152100034Y-82495634D01*
X152303177Y-82248105D01*
X152454125Y-81965700D01*
X152547078Y-81659273D01*
X152570600Y-81420454D01*
X152570600Y-80199249D01*
X153405611Y-81034260D01*
X153405611Y-82911218D01*
X153354758Y-82888940D01*
X153228959Y-82858589D01*
X152977000Y-82978058D01*
X152977000Y-85303000D01*
X152997000Y-85303000D01*
X152997000Y-85557000D01*
X152977000Y-85557000D01*
X152977000Y-85577000D01*
X152723000Y-85577000D01*
X152723000Y-85557000D01*
X151224400Y-85557000D01*
X151224400Y-86547600D01*
X151280412Y-86862299D01*
X151324921Y-86976210D01*
X150570204Y-86976210D01*
X150642078Y-86739273D01*
X150665600Y-86500454D01*
X150665600Y-84359546D01*
X150660957Y-84312400D01*
X151224400Y-84312400D01*
X151224400Y-85303000D01*
X152723000Y-85303000D01*
X152723000Y-82978058D01*
X152471041Y-82858589D01*
X152345242Y-82888940D01*
X152052461Y-83017205D01*
X151790329Y-83200124D01*
X151568920Y-83430668D01*
X151396742Y-83699977D01*
X151280412Y-83997701D01*
X151224400Y-84312400D01*
X150660957Y-84312400D01*
X150642078Y-84120727D01*
X150549125Y-83814300D01*
X150398177Y-83531895D01*
X150195034Y-83284366D01*
X149947505Y-83081223D01*
X149665100Y-82930275D01*
X149358673Y-82837322D01*
X149040000Y-82805935D01*
X148721328Y-82837322D01*
X148414901Y-82930275D01*
X148132496Y-83081223D01*
X147884967Y-83284366D01*
X147681824Y-83531895D01*
X147530876Y-83814300D01*
X147437923Y-84120727D01*
X147414401Y-84359546D01*
X147414400Y-86500453D01*
X147437922Y-86739272D01*
X147530875Y-87045699D01*
X147539217Y-87061306D01*
X147464513Y-87101236D01*
X147402726Y-87151944D01*
X147348789Y-87196209D01*
X147324991Y-87225207D01*
X145513998Y-89036201D01*
X145485000Y-89059999D01*
X145461202Y-89088997D01*
X145461201Y-89088998D01*
X145390026Y-89175724D01*
X145370674Y-89211928D01*
X144775000Y-89211928D01*
X144650518Y-89224188D01*
X144530820Y-89260498D01*
X144420506Y-89319463D01*
X144323815Y-89398815D01*
X144262933Y-89473000D01*
X143987067Y-89473000D01*
X143926185Y-89398815D01*
X143829494Y-89319463D01*
X143719180Y-89260498D01*
X143657895Y-89241907D01*
X143836004Y-89063798D01*
X143865001Y-89040001D01*
X143898662Y-88998985D01*
X143959974Y-88924277D01*
X144030546Y-88792247D01*
X144055802Y-88708987D01*
X144074003Y-88648986D01*
X144085000Y-88537333D01*
X144085000Y-88537323D01*
X144088676Y-88500000D01*
X144085000Y-88462677D01*
X144085000Y-87583869D01*
X144322495Y-87778777D01*
X144604900Y-87929725D01*
X144911327Y-88022678D01*
X145230000Y-88054065D01*
X145548672Y-88022678D01*
X145855099Y-87929725D01*
X146137504Y-87778777D01*
X146385034Y-87575634D01*
X146588177Y-87328105D01*
X146739125Y-87045700D01*
X146832078Y-86739273D01*
X146855600Y-86500454D01*
X146855600Y-84359546D01*
X146832078Y-84120727D01*
X146739125Y-83814300D01*
X146588177Y-83531895D01*
X146385034Y-83284366D01*
X146137505Y-83081223D01*
X145855100Y-82930275D01*
X145548673Y-82837322D01*
X145230000Y-82805935D01*
X144911328Y-82837322D01*
X144604901Y-82930275D01*
X144322496Y-83081223D01*
X144085000Y-83276132D01*
X144085000Y-82777619D01*
X144232504Y-82698777D01*
X144480034Y-82495634D01*
X144683177Y-82248105D01*
X144834125Y-81965700D01*
X144927078Y-81659273D01*
X144950600Y-81420454D01*
X144950600Y-79279546D01*
X144927078Y-79040727D01*
X144855204Y-78803790D01*
X145504589Y-78803790D01*
X145581474Y-78880675D01*
X145532923Y-79040727D01*
X145509401Y-79279546D01*
X145509400Y-81420453D01*
X145532922Y-81659272D01*
X145625875Y-81965699D01*
X145776823Y-82248104D01*
X145979966Y-82495634D01*
X146227495Y-82698777D01*
X146509900Y-82849725D01*
X146816327Y-82942678D01*
X147135000Y-82974065D01*
X147453672Y-82942678D01*
X147760099Y-82849725D01*
X148042504Y-82698777D01*
X148290034Y-82495634D01*
X148493177Y-82248105D01*
X148644125Y-81965700D01*
X148737078Y-81659273D01*
X148760600Y-81420454D01*
X148760600Y-79279546D01*
X148737078Y-79040727D01*
X148644125Y-78734300D01*
X148493177Y-78451895D01*
X148412656Y-78353780D01*
X148864579Y-78353780D01*
X149391474Y-78880675D01*
G36*
X129271414Y-82542889D02*
G01*
X129373738Y-82696028D01*
X129503972Y-82826262D01*
X129567611Y-82868784D01*
X129364901Y-82930275D01*
X129082496Y-83081223D01*
X128834967Y-83284366D01*
X128631824Y-83531895D01*
X128480876Y-83814300D01*
X128387923Y-84120727D01*
X128364401Y-84359546D01*
X128364400Y-86500453D01*
X128387922Y-86739272D01*
X128480875Y-87045699D01*
X128631823Y-87328104D01*
X128834966Y-87575634D01*
X129082495Y-87778777D01*
X129364900Y-87929725D01*
X129671327Y-88022678D01*
X129990000Y-88054065D01*
X130308672Y-88022678D01*
X130615099Y-87929725D01*
X130897504Y-87778777D01*
X131145034Y-87575634D01*
X131348177Y-87328105D01*
X131499125Y-87045700D01*
X131592078Y-86739273D01*
X131615600Y-86500454D01*
X131615600Y-84359546D01*
X131592078Y-84120727D01*
X131499125Y-83814300D01*
X131348177Y-83531895D01*
X131145034Y-83284366D01*
X130897505Y-83081223D01*
X130615100Y-82930275D01*
X130563697Y-82914682D01*
X130696028Y-82826262D01*
X130826262Y-82696028D01*
X130882177Y-82612345D01*
X130987495Y-82698777D01*
X131269900Y-82849725D01*
X131576327Y-82942678D01*
X131724391Y-82957261D01*
X131724390Y-87625808D01*
X130313998Y-89036201D01*
X130285000Y-89059999D01*
X130261202Y-89088997D01*
X130261201Y-89088998D01*
X130190026Y-89175724D01*
X130170674Y-89211928D01*
X129575000Y-89211928D01*
X129450518Y-89224188D01*
X129330820Y-89260498D01*
X129220506Y-89319463D01*
X129123815Y-89398815D01*
X129062933Y-89473000D01*
X128787067Y-89473000D01*
X128726185Y-89398815D01*
X128629494Y-89319463D01*
X128519180Y-89260498D01*
X128399482Y-89224188D01*
X128275000Y-89211928D01*
X127754563Y-89211928D01*
X127730546Y-89132753D01*
X127659974Y-89000724D01*
X127585472Y-88909943D01*
X127561568Y-88789771D01*
X127491086Y-88619611D01*
X127388762Y-88466472D01*
X127258528Y-88336238D01*
X127221747Y-88311662D01*
X127264944Y-88276211D01*
X127288746Y-88247208D01*
X128006612Y-87529342D01*
X128035611Y-87505544D01*
X128130584Y-87389819D01*
X128201156Y-87257790D01*
X128244613Y-87114529D01*
X128255610Y-87002876D01*
X128255610Y-87002868D01*
X128259286Y-86965543D01*
X128255610Y-86928218D01*
X128255610Y-83931779D01*
X128259286Y-83894456D01*
X128255610Y-83857133D01*
X128255610Y-83857124D01*
X128244613Y-83745471D01*
X128201156Y-83602210D01*
X128130584Y-83470181D01*
X128035611Y-83354456D01*
X128006614Y-83330659D01*
X127554322Y-82878367D01*
X127766327Y-82942678D01*
X128085000Y-82974065D01*
X128403672Y-82942678D01*
X128710099Y-82849725D01*
X128992504Y-82698777D01*
X129240034Y-82495634D01*
X129247880Y-82486073D01*
X129271414Y-82542889D01*
X129271414Y-82542889D01*
G37*
X129271414Y-82542889D02*
X129373738Y-82696028D01*
X129503972Y-82826262D01*
X129567611Y-82868784D01*
X129364901Y-82930275D01*
X129082496Y-83081223D01*
X128834967Y-83284366D01*
X128631824Y-83531895D01*
X128480876Y-83814300D01*
X128387923Y-84120727D01*
X128364401Y-84359546D01*
X128364400Y-86500453D01*
X128387922Y-86739272D01*
X128480875Y-87045699D01*
X128631823Y-87328104D01*
X128834966Y-87575634D01*
X129082495Y-87778777D01*
X129364900Y-87929725D01*
X129671327Y-88022678D01*
X129990000Y-88054065D01*
X130308672Y-88022678D01*
X130615099Y-87929725D01*
X130897504Y-87778777D01*
X131145034Y-87575634D01*
X131348177Y-87328105D01*
X131499125Y-87045700D01*
X131592078Y-86739273D01*
X131615600Y-86500454D01*
X131615600Y-84359546D01*
X131592078Y-84120727D01*
X131499125Y-83814300D01*
X131348177Y-83531895D01*
X131145034Y-83284366D01*
X130897505Y-83081223D01*
X130615100Y-82930275D01*
X130563697Y-82914682D01*
X130696028Y-82826262D01*
X130826262Y-82696028D01*
X130882177Y-82612345D01*
X130987495Y-82698777D01*
X131269900Y-82849725D01*
X131576327Y-82942678D01*
X131724391Y-82957261D01*
X131724390Y-87625808D01*
X130313998Y-89036201D01*
X130285000Y-89059999D01*
X130261202Y-89088997D01*
X130261201Y-89088998D01*
X130190026Y-89175724D01*
X130170674Y-89211928D01*
X129575000Y-89211928D01*
X129450518Y-89224188D01*
X129330820Y-89260498D01*
X129220506Y-89319463D01*
X129123815Y-89398815D01*
X129062933Y-89473000D01*
X128787067Y-89473000D01*
X128726185Y-89398815D01*
X128629494Y-89319463D01*
X128519180Y-89260498D01*
X128399482Y-89224188D01*
X128275000Y-89211928D01*
X127754563Y-89211928D01*
X127730546Y-89132753D01*
X127659974Y-89000724D01*
X127585472Y-88909943D01*
X127561568Y-88789771D01*
X127491086Y-88619611D01*
X127388762Y-88466472D01*
X127258528Y-88336238D01*
X127221747Y-88311662D01*
X127264944Y-88276211D01*
X127288746Y-88247208D01*
X128006612Y-87529342D01*
X128035611Y-87505544D01*
X128130584Y-87389819D01*
X128201156Y-87257790D01*
X128244613Y-87114529D01*
X128255610Y-87002876D01*
X128255610Y-87002868D01*
X128259286Y-86965543D01*
X128255610Y-86928218D01*
X128255610Y-83931779D01*
X128259286Y-83894456D01*
X128255610Y-83857133D01*
X128255610Y-83857124D01*
X128244613Y-83745471D01*
X128201156Y-83602210D01*
X128130584Y-83470181D01*
X128035611Y-83354456D01*
X128006614Y-83330659D01*
X127554322Y-82878367D01*
X127766327Y-82942678D01*
X128085000Y-82974065D01*
X128403672Y-82942678D01*
X128710099Y-82849725D01*
X128992504Y-82698777D01*
X129240034Y-82495634D01*
X129247880Y-82486073D01*
X129271414Y-82542889D01*
G36*
X123121811Y-88247213D02*
G01*
X123145609Y-88276211D01*
X123261334Y-88371184D01*
X123393363Y-88441756D01*
X123536624Y-88485213D01*
X123601604Y-88491613D01*
X123685610Y-88499887D01*
X123722943Y-88496210D01*
X125916368Y-88496210D01*
X125833914Y-88619611D01*
X125763432Y-88789771D01*
X125727500Y-88970411D01*
X125727500Y-89154589D01*
X125739599Y-89215415D01*
X125650518Y-89224188D01*
X125530820Y-89260498D01*
X125420506Y-89319463D01*
X125323815Y-89398815D01*
X125262933Y-89473000D01*
X124987067Y-89473000D01*
X124926185Y-89398815D01*
X124829494Y-89319463D01*
X124719180Y-89260498D01*
X124599482Y-89224188D01*
X124475000Y-89211928D01*
X123879326Y-89211928D01*
X123859974Y-89175723D01*
X123788799Y-89088997D01*
X123765001Y-89059999D01*
X123736003Y-89036201D01*
X122714611Y-88014810D01*
X122848725Y-87974127D01*
X123121811Y-88247213D01*
X123121811Y-88247213D01*
G37*
X123121811Y-88247213D02*
X123145609Y-88276211D01*
X123261334Y-88371184D01*
X123393363Y-88441756D01*
X123536624Y-88485213D01*
X123601604Y-88491613D01*
X123685610Y-88499887D01*
X123722943Y-88496210D01*
X125916368Y-88496210D01*
X125833914Y-88619611D01*
X125763432Y-88789771D01*
X125727500Y-88970411D01*
X125727500Y-89154589D01*
X125739599Y-89215415D01*
X125650518Y-89224188D01*
X125530820Y-89260498D01*
X125420506Y-89319463D01*
X125323815Y-89398815D01*
X125262933Y-89473000D01*
X124987067Y-89473000D01*
X124926185Y-89398815D01*
X124829494Y-89319463D01*
X124719180Y-89260498D01*
X124599482Y-89224188D01*
X124475000Y-89211928D01*
X123879326Y-89211928D01*
X123859974Y-89175723D01*
X123788799Y-89088997D01*
X123765001Y-89059999D01*
X123736003Y-89036201D01*
X122714611Y-88014810D01*
X122848725Y-87974127D01*
X123121811Y-88247213D01*
G36*
X124821824Y-83531895D02*
G01*
X124670876Y-83814300D01*
X124577923Y-84120727D01*
X124554401Y-84359546D01*
X124554400Y-86500453D01*
X124577922Y-86739272D01*
X124649796Y-86976210D01*
X124000412Y-86976210D01*
X123923527Y-86899325D01*
X123972078Y-86739273D01*
X123995600Y-86500454D01*
X123995600Y-84359546D01*
X123972078Y-84120727D01*
X123879125Y-83814300D01*
X123728177Y-83531895D01*
X123633236Y-83416210D01*
X124782621Y-83416210D01*
X124819943Y-83419886D01*
X124857265Y-83416210D01*
X124857276Y-83416210D01*
X124921996Y-83409836D01*
X124821824Y-83531895D01*
X124821824Y-83531895D01*
G37*
X124821824Y-83531895D02*
X124670876Y-83814300D01*
X124577923Y-84120727D01*
X124554401Y-84359546D01*
X124554400Y-86500453D01*
X124577922Y-86739272D01*
X124649796Y-86976210D01*
X124000412Y-86976210D01*
X123923527Y-86899325D01*
X123972078Y-86739273D01*
X123995600Y-86500454D01*
X123995600Y-84359546D01*
X123972078Y-84120727D01*
X123879125Y-83814300D01*
X123728177Y-83531895D01*
X123633236Y-83416210D01*
X124782621Y-83416210D01*
X124819943Y-83419886D01*
X124857265Y-83416210D01*
X124857276Y-83416210D01*
X124921996Y-83409836D01*
X124821824Y-83531895D01*
G36*
X133878388Y-78250658D02*
G01*
X133849390Y-78274456D01*
X133825592Y-78303454D01*
X133825591Y-78303455D01*
X133754416Y-78390181D01*
X133683844Y-78522211D01*
X133673961Y-78554793D01*
X133640388Y-78665471D01*
X133633609Y-78734300D01*
X133625714Y-78814457D01*
X133629391Y-78851789D01*
X133629390Y-80391961D01*
X133520600Y-80500751D01*
X133520600Y-79279546D01*
X133497078Y-79040727D01*
X133404125Y-78734300D01*
X133253177Y-78451895D01*
X133050034Y-78204366D01*
X132802505Y-78001223D01*
X132620183Y-77903770D01*
X134225276Y-77903770D01*
X133878388Y-78250658D01*
X133878388Y-78250658D01*
G37*
X133878388Y-78250658D02*
X133849390Y-78274456D01*
X133825592Y-78303454D01*
X133825591Y-78303455D01*
X133754416Y-78390181D01*
X133683844Y-78522211D01*
X133673961Y-78554793D01*
X133640388Y-78665471D01*
X133633609Y-78734300D01*
X133625714Y-78814457D01*
X133629391Y-78851789D01*
X133629390Y-80391961D01*
X133520600Y-80500751D01*
X133520600Y-79279546D01*
X133497078Y-79040727D01*
X133404125Y-78734300D01*
X133253177Y-78451895D01*
X133050034Y-78204366D01*
X132802505Y-78001223D01*
X132620183Y-77903770D01*
X134225276Y-77903770D01*
X133878388Y-78250658D01*
G36*
X141374416Y-78390181D02*
G01*
X141303844Y-78522211D01*
X141293961Y-78554793D01*
X141260388Y-78665471D01*
X141253609Y-78734300D01*
X141245714Y-78814457D01*
X141249391Y-78851789D01*
X141249390Y-80391961D01*
X141140600Y-80500751D01*
X141140600Y-79279546D01*
X141117078Y-79040727D01*
X141024125Y-78734300D01*
X140873177Y-78451895D01*
X140792656Y-78353780D01*
X141404290Y-78353780D01*
X141374416Y-78390181D01*
X141374416Y-78390181D01*
G37*
X141374416Y-78390181D02*
X141303844Y-78522211D01*
X141293961Y-78554793D01*
X141260388Y-78665471D01*
X141253609Y-78734300D01*
X141245714Y-78814457D01*
X141249391Y-78851789D01*
X141249390Y-80391961D01*
X141140600Y-80500751D01*
X141140600Y-79279546D01*
X141117078Y-79040727D01*
X141024125Y-78734300D01*
X140873177Y-78451895D01*
X140792656Y-78353780D01*
X141404290Y-78353780D01*
X141374416Y-78390181D01*
M02*
