G04 #@! TF.GenerationSoftware,KiCad,Pcbnew,(5.1.0)-1*
G04 #@! TF.CreationDate,2019-08-09T15:11:52-04:00*
G04 #@! TF.ProjectId,EUROF_to_JP21M,4555524f-465f-4746-9f5f-4a5032314d2e,rev?*
G04 #@! TF.SameCoordinates,Original*
G04 #@! TF.FileFunction,Copper,L2,Bot*
G04 #@! TF.FilePolarity,Positive*
%FSLAX46Y46*%
G04 Gerber Fmt 4.6, Leading zero omitted, Abs format (unit mm)*
G04 Created by KiCad (PCBNEW (5.1.0)-1) date 2019-08-09 15:11:52*
%MOMM*%
%LPD*%
G04 APERTURE LIST*
%ADD10O,1.981200X3.962400*%
%ADD11R,2.500000X4.000000*%
%ADD12C,0.600000*%
%ADD13C,0.250000*%
%ADD14C,0.254000*%
G04 APERTURE END LIST*
D10*
X152850000Y-85430000D03*
X150945000Y-80350000D03*
X149040000Y-85430000D03*
X147135000Y-80350000D03*
X145230000Y-85430000D03*
X143325000Y-80350000D03*
X141420000Y-85430000D03*
X139515000Y-80350000D03*
X137610000Y-85430000D03*
X135705000Y-80350000D03*
X133800000Y-85430000D03*
X131895000Y-80350000D03*
X129990000Y-85430000D03*
X128085000Y-80350000D03*
X126180000Y-85430000D03*
X124275000Y-80350000D03*
X122370000Y-85430000D03*
X120465000Y-80350000D03*
X118560000Y-85430000D03*
X116655000Y-80350000D03*
X114750000Y-85430000D03*
D11*
X152725000Y-91850000D03*
X148925000Y-91850000D03*
X145125000Y-91850000D03*
X141325000Y-91850000D03*
X137525000Y-91850000D03*
X133725000Y-91850000D03*
X129925000Y-91850000D03*
X126125000Y-91850000D03*
X122325000Y-91850000D03*
X118525000Y-91850000D03*
X114725000Y-91850000D03*
D12*
X126662500Y-89062500D03*
X128800000Y-88300000D03*
X129800000Y-88400000D03*
X147200000Y-83350000D03*
X145250000Y-82350000D03*
X137600000Y-78650000D03*
X141350000Y-78600000D03*
X133750000Y-78200000D03*
X131750000Y-83500000D03*
X135900000Y-87600000D03*
X124150000Y-88500000D03*
X124200000Y-83650000D03*
X115800000Y-71150000D03*
X119650000Y-71300000D03*
X130850000Y-71350000D03*
X137550000Y-71350000D03*
X141450000Y-71350000D03*
X146350000Y-71650000D03*
X151700000Y-71850000D03*
X158850000Y-72000000D03*
X160850000Y-84050000D03*
X160450000Y-90700000D03*
X106650000Y-91700000D03*
X106100000Y-84900000D03*
X110900000Y-82400000D03*
X107450000Y-71700000D03*
X116000000Y-87950000D03*
X114100000Y-81650000D03*
X130100000Y-82100000D03*
D13*
X148550000Y-88900000D02*
X148925000Y-89275000D01*
X145848847Y-88900000D02*
X148550000Y-88900000D01*
X133800000Y-84439400D02*
X135565620Y-82673780D01*
X133800000Y-85430000D02*
X133800000Y-84439400D01*
X148925000Y-89275000D02*
X148925000Y-91850000D01*
X135565620Y-82673780D02*
X142151344Y-82673781D01*
X142151344Y-82673781D02*
X143914390Y-84436827D01*
X143914390Y-84436827D02*
X143914390Y-86965543D01*
X143914390Y-86965543D02*
X145848847Y-88900000D01*
X137610000Y-91765000D02*
X137525000Y-91850000D01*
X137610000Y-85430000D02*
X137610000Y-91765000D01*
X141420000Y-91755000D02*
X141325000Y-91850000D01*
X141420000Y-85430000D02*
X141420000Y-91755000D01*
X126125000Y-89600000D02*
X126125000Y-91850000D01*
X127495610Y-83894457D02*
X127495610Y-88229390D01*
X126769390Y-83168237D02*
X127495610Y-83894457D01*
X126769390Y-78814457D02*
X126769390Y-83168237D01*
X149490010Y-83028857D02*
X149490010Y-79217447D01*
X150355610Y-83894457D02*
X149490010Y-83028857D01*
X149490010Y-79217447D02*
X145922553Y-75649990D01*
X149584943Y-87736210D02*
X150355610Y-86965543D01*
X145922553Y-75649990D02*
X129933857Y-75649990D01*
X146545610Y-87736210D02*
X149584943Y-87736210D01*
X129933857Y-75649990D02*
X126769390Y-78814457D01*
X145230000Y-86420600D02*
X146545610Y-87736210D01*
X150355610Y-86965543D02*
X150355610Y-83894457D01*
X145230000Y-85430000D02*
X145230000Y-86420600D01*
X127495610Y-88229390D02*
X126662500Y-89062500D01*
X126662500Y-89062500D02*
X126125000Y-89600000D01*
X128400000Y-88075000D02*
X128400000Y-88100000D01*
X127950000Y-87625000D02*
X128400000Y-88075000D01*
X149040000Y-79403847D02*
X145736153Y-76100000D01*
X149040000Y-85430000D02*
X149040000Y-79403847D01*
X145736153Y-76100000D02*
X133293847Y-76100000D01*
X133293847Y-76100000D02*
X129400610Y-79993237D01*
X127950000Y-83400000D02*
X127950000Y-87625000D01*
X129400610Y-79993237D02*
X129400610Y-81949390D01*
X129400610Y-81949390D02*
X127950000Y-83400000D01*
X128400000Y-88075000D02*
X128575000Y-88075000D01*
X128575000Y-88075000D02*
X128800000Y-88300000D01*
X129800000Y-91725000D02*
X129925000Y-91850000D01*
X129800000Y-88400000D02*
X129800000Y-91725000D01*
X152725000Y-85555000D02*
X152850000Y-85430000D01*
X152725000Y-91850000D02*
X152725000Y-85555000D01*
X115480000Y-85430000D02*
X114750000Y-85430000D01*
X117786210Y-87736210D02*
X115480000Y-85430000D01*
X120686210Y-87736210D02*
X117786210Y-87736210D01*
X122325000Y-91850000D02*
X122325000Y-89375000D01*
X122325000Y-89375000D02*
X120686210Y-87736210D01*
X118560000Y-84439400D02*
X118560000Y-85430000D01*
X119800600Y-83198800D02*
X118560000Y-84439400D01*
X120791200Y-83198800D02*
X119800600Y-83198800D01*
X121780610Y-82209390D02*
X120791200Y-83198800D01*
X121780610Y-78814457D02*
X121780610Y-82209390D01*
X121009943Y-78043790D02*
X121780610Y-78814457D01*
X116110057Y-78043790D02*
X121009943Y-78043790D01*
X112984380Y-87859380D02*
X112984380Y-81169467D01*
X112984380Y-81169467D02*
X116110057Y-78043790D01*
X114725000Y-89600000D02*
X112984380Y-87859380D01*
X114725000Y-91850000D02*
X114725000Y-89600000D01*
X119149390Y-82656210D02*
X120465000Y-81340600D01*
X114672637Y-82656210D02*
X119149390Y-82656210D01*
X120465000Y-81340600D02*
X120465000Y-80350000D01*
X118525000Y-89575000D02*
X118200000Y-89250000D01*
X118200000Y-89250000D02*
X115718847Y-89250000D01*
X115718847Y-89250000D02*
X113434390Y-86965543D01*
X118525000Y-91850000D02*
X118525000Y-89575000D01*
X113434390Y-86965543D02*
X113434390Y-83894457D01*
X113434390Y-83894457D02*
X114672637Y-82656210D01*
X133725000Y-91100000D02*
X130361210Y-87736210D01*
X133725000Y-91850000D02*
X133725000Y-91100000D01*
X130361210Y-87736210D02*
X129445057Y-87736210D01*
X129445057Y-87736210D02*
X128674390Y-86965543D01*
X128674390Y-86965543D02*
X128674390Y-83525610D01*
X128674390Y-83525610D02*
X130100000Y-82100000D01*
X141964943Y-83123790D02*
X142900000Y-84058847D01*
X137065057Y-83123790D02*
X141964943Y-83123790D01*
X129990000Y-86420600D02*
X131305610Y-87736210D01*
X129990000Y-85430000D02*
X129990000Y-86420600D01*
X131305610Y-87736210D02*
X134344943Y-87736210D01*
X136294390Y-85786763D02*
X136294390Y-83894457D01*
X134344943Y-87736210D02*
X136294390Y-85786763D01*
X136294390Y-83894457D02*
X137065057Y-83123790D01*
X145125000Y-89600000D02*
X145125000Y-91850000D01*
X142900000Y-87375000D02*
X145125000Y-89600000D01*
X142900000Y-84058847D02*
X142900000Y-87375000D01*
D14*
G36*
X162290001Y-76387191D02*
G01*
X162245868Y-76248068D01*
X162222290Y-76193058D01*
X162199508Y-76137783D01*
X162195125Y-76129677D01*
X162051836Y-75869034D01*
X162018048Y-75819687D01*
X161984936Y-75769850D01*
X161979062Y-75762749D01*
X161787876Y-75534904D01*
X161745146Y-75493060D01*
X161702987Y-75450605D01*
X161695846Y-75444781D01*
X161464045Y-75258408D01*
X161414031Y-75225680D01*
X161364398Y-75192202D01*
X161356261Y-75187876D01*
X161092675Y-75050077D01*
X161037219Y-75027672D01*
X160982068Y-75004488D01*
X160973246Y-75001825D01*
X160687915Y-74917847D01*
X160629175Y-74906642D01*
X160570558Y-74894609D01*
X160561386Y-74893710D01*
X160265178Y-74866753D01*
X160205361Y-74867171D01*
X160145544Y-74866753D01*
X160136372Y-74867653D01*
X159840569Y-74898742D01*
X159781972Y-74910771D01*
X159723210Y-74921980D01*
X159714388Y-74924644D01*
X159430257Y-75012598D01*
X159375139Y-75035768D01*
X159319650Y-75058186D01*
X159311514Y-75062513D01*
X159049878Y-75203979D01*
X159000311Y-75237412D01*
X158950232Y-75270183D01*
X158943091Y-75276008D01*
X158713915Y-75465597D01*
X158671774Y-75508034D01*
X158629024Y-75549897D01*
X158623150Y-75556998D01*
X158435164Y-75787492D01*
X158402049Y-75837334D01*
X158368265Y-75886674D01*
X158363882Y-75894781D01*
X158224246Y-76157399D01*
X158201458Y-76212687D01*
X158177886Y-76267683D01*
X158175162Y-76276487D01*
X158089193Y-76561225D01*
X158077570Y-76619925D01*
X158065137Y-76678419D01*
X158064174Y-76687584D01*
X158035150Y-76983596D01*
X158035150Y-77112406D01*
X158055801Y-77216697D01*
X158055800Y-80437952D01*
X158045478Y-80471300D01*
X158036932Y-80552622D01*
X158035299Y-80560870D01*
X158035299Y-80568164D01*
X158032016Y-80599404D01*
X158032016Y-80608620D01*
X158032165Y-80629898D01*
X158035298Y-80659700D01*
X158035298Y-80689680D01*
X158036262Y-80698844D01*
X158069416Y-80994424D01*
X158081853Y-81052936D01*
X158093471Y-81111614D01*
X158096196Y-81120413D01*
X158096197Y-81120419D01*
X158096199Y-81120425D01*
X158186130Y-81403928D01*
X158209691Y-81458899D01*
X158232491Y-81514217D01*
X158236874Y-81522323D01*
X158380163Y-81782965D01*
X158413947Y-81832305D01*
X158447062Y-81882147D01*
X158452936Y-81889247D01*
X158644122Y-82117094D01*
X158686853Y-82158939D01*
X158729013Y-82201395D01*
X158736155Y-82207219D01*
X158967956Y-82393591D01*
X159017968Y-82426318D01*
X159067600Y-82459795D01*
X159075737Y-82464121D01*
X159339323Y-82601921D01*
X159394783Y-82624328D01*
X159449931Y-82647511D01*
X159458753Y-82650174D01*
X159744083Y-82734152D01*
X159802837Y-82745360D01*
X159861441Y-82757390D01*
X159870613Y-82758289D01*
X160166820Y-82785246D01*
X160226638Y-82784828D01*
X160286455Y-82785246D01*
X160295626Y-82784347D01*
X160591430Y-82753257D01*
X160650017Y-82741230D01*
X160708787Y-82730020D01*
X160717609Y-82727356D01*
X161001740Y-82639403D01*
X161056883Y-82616223D01*
X161112348Y-82593814D01*
X161120485Y-82589487D01*
X161382121Y-82448021D01*
X161431705Y-82414576D01*
X161481768Y-82381816D01*
X161488909Y-82375992D01*
X161718085Y-82186401D01*
X161760224Y-82143966D01*
X161802974Y-82102103D01*
X161808848Y-82095002D01*
X161996834Y-81864509D01*
X162029938Y-81814682D01*
X162063733Y-81765327D01*
X162068116Y-81757221D01*
X162207753Y-81494603D01*
X162230560Y-81439269D01*
X162254114Y-81384314D01*
X162256838Y-81375515D01*
X162256840Y-81375509D01*
X162290001Y-81265674D01*
X162290000Y-93390000D01*
X154612248Y-93390000D01*
X154610000Y-92135750D01*
X154451250Y-91977000D01*
X154327000Y-91977000D01*
X154327000Y-91723000D01*
X154451250Y-91723000D01*
X154610000Y-91564250D01*
X154613072Y-89850000D01*
X154600812Y-89725518D01*
X154564502Y-89605820D01*
X154505537Y-89495506D01*
X154426185Y-89398815D01*
X154329494Y-89319463D01*
X154219180Y-89260498D01*
X154099482Y-89224188D01*
X153975000Y-89211928D01*
X153010750Y-89215000D01*
X152852000Y-89373750D01*
X152852000Y-89473000D01*
X152598000Y-89473000D01*
X152598000Y-89373750D01*
X152439250Y-89215000D01*
X151475000Y-89211928D01*
X151350518Y-89224188D01*
X151230820Y-89260498D01*
X151120506Y-89319463D01*
X151023815Y-89398815D01*
X150962933Y-89473000D01*
X150687067Y-89473000D01*
X150626185Y-89398815D01*
X150529494Y-89319463D01*
X150419180Y-89260498D01*
X150299482Y-89224188D01*
X150175000Y-89211928D01*
X149682465Y-89211928D01*
X149674003Y-89126014D01*
X149630546Y-88982753D01*
X149559974Y-88850724D01*
X149465001Y-88734999D01*
X149435998Y-88711197D01*
X149221011Y-88496210D01*
X149547621Y-88496210D01*
X149584943Y-88499886D01*
X149622265Y-88496210D01*
X149622276Y-88496210D01*
X149733929Y-88485213D01*
X149877190Y-88441756D01*
X150009219Y-88371184D01*
X150124944Y-88276211D01*
X150148746Y-88247208D01*
X150866614Y-87529341D01*
X150895611Y-87505544D01*
X150990584Y-87389819D01*
X151061156Y-87257790D01*
X151104613Y-87114529D01*
X151115610Y-87002876D01*
X151115610Y-87002868D01*
X151119286Y-86965543D01*
X151115610Y-86928218D01*
X151115610Y-85557000D01*
X151224400Y-85557000D01*
X151224400Y-86547600D01*
X151280412Y-86862299D01*
X151396742Y-87160023D01*
X151568920Y-87429332D01*
X151790329Y-87659876D01*
X152052461Y-87842795D01*
X152345242Y-87971060D01*
X152471041Y-88001411D01*
X152723000Y-87881942D01*
X152723000Y-85557000D01*
X152977000Y-85557000D01*
X152977000Y-87881942D01*
X153228959Y-88001411D01*
X153354758Y-87971060D01*
X153647539Y-87842795D01*
X153909671Y-87659876D01*
X154131080Y-87429332D01*
X154303258Y-87160023D01*
X154419588Y-86862299D01*
X154475600Y-86547600D01*
X154475600Y-85557000D01*
X152977000Y-85557000D01*
X152723000Y-85557000D01*
X151224400Y-85557000D01*
X151115610Y-85557000D01*
X151115610Y-84312400D01*
X151224400Y-84312400D01*
X151224400Y-85303000D01*
X152723000Y-85303000D01*
X152723000Y-82978058D01*
X152977000Y-82978058D01*
X152977000Y-85303000D01*
X154475600Y-85303000D01*
X154475600Y-84312400D01*
X154419588Y-83997701D01*
X154303258Y-83699977D01*
X154131080Y-83430668D01*
X153909671Y-83200124D01*
X153647539Y-83017205D01*
X153354758Y-82888940D01*
X153228959Y-82858589D01*
X152977000Y-82978058D01*
X152723000Y-82978058D01*
X152471041Y-82858589D01*
X152345242Y-82888940D01*
X152052461Y-83017205D01*
X151790329Y-83200124D01*
X151568920Y-83430668D01*
X151396742Y-83699977D01*
X151280412Y-83997701D01*
X151224400Y-84312400D01*
X151115610Y-84312400D01*
X151115610Y-83931779D01*
X151119286Y-83894456D01*
X151115610Y-83857133D01*
X151115610Y-83857124D01*
X151104613Y-83745471D01*
X151061156Y-83602210D01*
X150990584Y-83470181D01*
X150895611Y-83354456D01*
X150866613Y-83330658D01*
X150414322Y-82878367D01*
X150626327Y-82942678D01*
X150945000Y-82974065D01*
X151263672Y-82942678D01*
X151570099Y-82849725D01*
X151852504Y-82698777D01*
X152100034Y-82495634D01*
X152303177Y-82248105D01*
X152454125Y-81965700D01*
X152547078Y-81659273D01*
X152570600Y-81420454D01*
X152570600Y-79279546D01*
X152547078Y-79040727D01*
X152454125Y-78734300D01*
X152303177Y-78451895D01*
X152100034Y-78204366D01*
X151852505Y-78001223D01*
X151570100Y-77850275D01*
X151263673Y-77757322D01*
X150945000Y-77725935D01*
X150626328Y-77757322D01*
X150319901Y-77850275D01*
X150037496Y-78001223D01*
X149789967Y-78204366D01*
X149682581Y-78335216D01*
X146486357Y-75138993D01*
X146462554Y-75109989D01*
X146346829Y-75015016D01*
X146214800Y-74944444D01*
X146071539Y-74900987D01*
X145959886Y-74889990D01*
X145959875Y-74889990D01*
X145922553Y-74886314D01*
X145885231Y-74889990D01*
X129971179Y-74889990D01*
X129933856Y-74886314D01*
X129896533Y-74889990D01*
X129896524Y-74889990D01*
X129784871Y-74900987D01*
X129644824Y-74943469D01*
X129641610Y-74944444D01*
X129509580Y-75015016D01*
X129451704Y-75062514D01*
X129393856Y-75109989D01*
X129370058Y-75138987D01*
X126258393Y-78250653D01*
X126229389Y-78274456D01*
X126178852Y-78336036D01*
X126134416Y-78390181D01*
X126092583Y-78468444D01*
X126063844Y-78522211D01*
X126020387Y-78665472D01*
X126009390Y-78777125D01*
X126009390Y-78777135D01*
X126005714Y-78814457D01*
X126009390Y-78851780D01*
X126009391Y-82822739D01*
X125861328Y-82837322D01*
X125554901Y-82930275D01*
X125272496Y-83081223D01*
X125024967Y-83284366D01*
X124821824Y-83531895D01*
X124670876Y-83814300D01*
X124577923Y-84120727D01*
X124554401Y-84359546D01*
X124554400Y-86500453D01*
X124577922Y-86739272D01*
X124670875Y-87045699D01*
X124821823Y-87328104D01*
X125024966Y-87575634D01*
X125272495Y-87778777D01*
X125554900Y-87929725D01*
X125861327Y-88022678D01*
X126180000Y-88054065D01*
X126498672Y-88022678D01*
X126683624Y-87966574D01*
X126510851Y-88139347D01*
X126389771Y-88163432D01*
X126219611Y-88233914D01*
X126066472Y-88336238D01*
X125936238Y-88466472D01*
X125833914Y-88619611D01*
X125763432Y-88789771D01*
X125739347Y-88910851D01*
X125614002Y-89036197D01*
X125584999Y-89059999D01*
X125530823Y-89126013D01*
X125490026Y-89175724D01*
X125470674Y-89211928D01*
X124875000Y-89211928D01*
X124750518Y-89224188D01*
X124630820Y-89260498D01*
X124520506Y-89319463D01*
X124423815Y-89398815D01*
X124362933Y-89473000D01*
X124087067Y-89473000D01*
X124026185Y-89398815D01*
X123929494Y-89319463D01*
X123819180Y-89260498D01*
X123699482Y-89224188D01*
X123575000Y-89211928D01*
X123069730Y-89211928D01*
X123030546Y-89082753D01*
X123018384Y-89059999D01*
X122959974Y-88950723D01*
X122888799Y-88863997D01*
X122865001Y-88834999D01*
X122836003Y-88811201D01*
X122045804Y-88021003D01*
X122051327Y-88022678D01*
X122370000Y-88054065D01*
X122688672Y-88022678D01*
X122995099Y-87929725D01*
X123277504Y-87778777D01*
X123525034Y-87575634D01*
X123728177Y-87328105D01*
X123879125Y-87045700D01*
X123972078Y-86739273D01*
X123995600Y-86500454D01*
X123995600Y-84359546D01*
X123972078Y-84120727D01*
X123879125Y-83814300D01*
X123728177Y-83531895D01*
X123525034Y-83284366D01*
X123277505Y-83081223D01*
X122995100Y-82930275D01*
X122688673Y-82837322D01*
X122370000Y-82805935D01*
X122246725Y-82818077D01*
X122291613Y-82773189D01*
X122320611Y-82749391D01*
X122379660Y-82677440D01*
X122415584Y-82633667D01*
X122486156Y-82501637D01*
X122498848Y-82459795D01*
X122529613Y-82358376D01*
X122540610Y-82246723D01*
X122540610Y-82246714D01*
X122544286Y-82209391D01*
X122540610Y-82172068D01*
X122540610Y-81420453D01*
X122649400Y-81420453D01*
X122672922Y-81659272D01*
X122765875Y-81965699D01*
X122916823Y-82248104D01*
X123119966Y-82495634D01*
X123367495Y-82698777D01*
X123649900Y-82849725D01*
X123956327Y-82942678D01*
X124275000Y-82974065D01*
X124593672Y-82942678D01*
X124900099Y-82849725D01*
X125182504Y-82698777D01*
X125430034Y-82495634D01*
X125633177Y-82248105D01*
X125784125Y-81965700D01*
X125877078Y-81659273D01*
X125900600Y-81420454D01*
X125900600Y-79279546D01*
X125877078Y-79040727D01*
X125784125Y-78734300D01*
X125633177Y-78451895D01*
X125430034Y-78204366D01*
X125182505Y-78001223D01*
X124900100Y-77850275D01*
X124593673Y-77757322D01*
X124275000Y-77725935D01*
X123956328Y-77757322D01*
X123649901Y-77850275D01*
X123367496Y-78001223D01*
X123119967Y-78204366D01*
X122916824Y-78451895D01*
X122765876Y-78734300D01*
X122672923Y-79040727D01*
X122649401Y-79279546D01*
X122649400Y-81420453D01*
X122540610Y-81420453D01*
X122540610Y-78851782D01*
X122544286Y-78814457D01*
X122540610Y-78777132D01*
X122540610Y-78777124D01*
X122529613Y-78665471D01*
X122486156Y-78522210D01*
X122415584Y-78390181D01*
X122320611Y-78274456D01*
X122291614Y-78250659D01*
X121573746Y-77532792D01*
X121549944Y-77503789D01*
X121434219Y-77408816D01*
X121302190Y-77338244D01*
X121158929Y-77294787D01*
X121047276Y-77283790D01*
X121047265Y-77283790D01*
X121009943Y-77280114D01*
X120972621Y-77283790D01*
X116147380Y-77283790D01*
X116110057Y-77280114D01*
X116072734Y-77283790D01*
X116072724Y-77283790D01*
X115961071Y-77294787D01*
X115817810Y-77338244D01*
X115685781Y-77408816D01*
X115570056Y-77503789D01*
X115546258Y-77532787D01*
X112473378Y-80605668D01*
X112444380Y-80629466D01*
X112420582Y-80658464D01*
X112420581Y-80658465D01*
X112349406Y-80745191D01*
X112278834Y-80877221D01*
X112252384Y-80964419D01*
X112235378Y-81020481D01*
X112227587Y-81099579D01*
X112220704Y-81169467D01*
X112224381Y-81206799D01*
X112224380Y-87822057D01*
X112220704Y-87859380D01*
X112224380Y-87896702D01*
X112224380Y-87896712D01*
X112235377Y-88008365D01*
X112265526Y-88107753D01*
X112278834Y-88151626D01*
X112349406Y-88283656D01*
X112362819Y-88299999D01*
X112444379Y-88399381D01*
X112473382Y-88423183D01*
X113292105Y-89241907D01*
X113230820Y-89260498D01*
X113120506Y-89319463D01*
X113023815Y-89398815D01*
X112944463Y-89495506D01*
X112885498Y-89605820D01*
X112849188Y-89725518D01*
X112836928Y-89850000D01*
X112836928Y-93390000D01*
X105310000Y-93390000D01*
X105310000Y-81264810D01*
X105354130Y-81403928D01*
X105377691Y-81458899D01*
X105400491Y-81514217D01*
X105404874Y-81522323D01*
X105548163Y-81782965D01*
X105581947Y-81832305D01*
X105615062Y-81882147D01*
X105620936Y-81889247D01*
X105812122Y-82117094D01*
X105854853Y-82158939D01*
X105897013Y-82201395D01*
X105904155Y-82207219D01*
X106135956Y-82393591D01*
X106185968Y-82426318D01*
X106235600Y-82459795D01*
X106243737Y-82464121D01*
X106507323Y-82601921D01*
X106562783Y-82624328D01*
X106617931Y-82647511D01*
X106626753Y-82650174D01*
X106912083Y-82734152D01*
X106970837Y-82745360D01*
X107029441Y-82757390D01*
X107038613Y-82758289D01*
X107334820Y-82785246D01*
X107394638Y-82784828D01*
X107454455Y-82785246D01*
X107463626Y-82784347D01*
X107759430Y-82753257D01*
X107818017Y-82741230D01*
X107876787Y-82730020D01*
X107885609Y-82727356D01*
X108169740Y-82639403D01*
X108224883Y-82616223D01*
X108280348Y-82593814D01*
X108288485Y-82589487D01*
X108550121Y-82448021D01*
X108599705Y-82414576D01*
X108649768Y-82381816D01*
X108656909Y-82375992D01*
X108886085Y-82186401D01*
X108928224Y-82143966D01*
X108970974Y-82102103D01*
X108976848Y-82095002D01*
X109164834Y-81864509D01*
X109197938Y-81814682D01*
X109231733Y-81765327D01*
X109236116Y-81757221D01*
X109375753Y-81494603D01*
X109398560Y-81439269D01*
X109422114Y-81384314D01*
X109424838Y-81375515D01*
X109424840Y-81375509D01*
X109510806Y-81090773D01*
X109522422Y-81032108D01*
X109534862Y-80973584D01*
X109535825Y-80964419D01*
X109564850Y-80668406D01*
X109564850Y-80539596D01*
X109544200Y-80435305D01*
X109544200Y-77214047D01*
X109554522Y-77180699D01*
X109563068Y-77099377D01*
X109564701Y-77091129D01*
X109564701Y-77083835D01*
X109567984Y-77052594D01*
X109567984Y-77043379D01*
X109567835Y-77022100D01*
X109564702Y-76992298D01*
X109564702Y-76962319D01*
X109563738Y-76953154D01*
X109530584Y-76657575D01*
X109518151Y-76599081D01*
X109506528Y-76540381D01*
X109503803Y-76531578D01*
X109413868Y-76248068D01*
X109390290Y-76193058D01*
X109367508Y-76137783D01*
X109363125Y-76129677D01*
X109219836Y-75869034D01*
X109186048Y-75819687D01*
X109152936Y-75769850D01*
X109147062Y-75762749D01*
X108955876Y-75534904D01*
X108913146Y-75493060D01*
X108870987Y-75450605D01*
X108863846Y-75444781D01*
X108632045Y-75258408D01*
X108582031Y-75225680D01*
X108532398Y-75192202D01*
X108524261Y-75187876D01*
X108260675Y-75050077D01*
X108205219Y-75027672D01*
X108150068Y-75004488D01*
X108141246Y-75001825D01*
X107855915Y-74917847D01*
X107797175Y-74906642D01*
X107738558Y-74894609D01*
X107729386Y-74893710D01*
X107433178Y-74866753D01*
X107373361Y-74867171D01*
X107313544Y-74866753D01*
X107304372Y-74867653D01*
X107008569Y-74898742D01*
X106949972Y-74910771D01*
X106891210Y-74921980D01*
X106882388Y-74924644D01*
X106598257Y-75012598D01*
X106543139Y-75035768D01*
X106487650Y-75058186D01*
X106479514Y-75062513D01*
X106217878Y-75203979D01*
X106168311Y-75237412D01*
X106118232Y-75270183D01*
X106111091Y-75276008D01*
X105881915Y-75465597D01*
X105839774Y-75508034D01*
X105797024Y-75549897D01*
X105791150Y-75556998D01*
X105603164Y-75787492D01*
X105570049Y-75837334D01*
X105536265Y-75886674D01*
X105531882Y-75894781D01*
X105392246Y-76157399D01*
X105369458Y-76212687D01*
X105345886Y-76267683D01*
X105343162Y-76276487D01*
X105310000Y-76386323D01*
X105310000Y-70010000D01*
X162290001Y-70010000D01*
X162290001Y-76387191D01*
X162290001Y-76387191D01*
G37*
X162290001Y-76387191D02*
X162245868Y-76248068D01*
X162222290Y-76193058D01*
X162199508Y-76137783D01*
X162195125Y-76129677D01*
X162051836Y-75869034D01*
X162018048Y-75819687D01*
X161984936Y-75769850D01*
X161979062Y-75762749D01*
X161787876Y-75534904D01*
X161745146Y-75493060D01*
X161702987Y-75450605D01*
X161695846Y-75444781D01*
X161464045Y-75258408D01*
X161414031Y-75225680D01*
X161364398Y-75192202D01*
X161356261Y-75187876D01*
X161092675Y-75050077D01*
X161037219Y-75027672D01*
X160982068Y-75004488D01*
X160973246Y-75001825D01*
X160687915Y-74917847D01*
X160629175Y-74906642D01*
X160570558Y-74894609D01*
X160561386Y-74893710D01*
X160265178Y-74866753D01*
X160205361Y-74867171D01*
X160145544Y-74866753D01*
X160136372Y-74867653D01*
X159840569Y-74898742D01*
X159781972Y-74910771D01*
X159723210Y-74921980D01*
X159714388Y-74924644D01*
X159430257Y-75012598D01*
X159375139Y-75035768D01*
X159319650Y-75058186D01*
X159311514Y-75062513D01*
X159049878Y-75203979D01*
X159000311Y-75237412D01*
X158950232Y-75270183D01*
X158943091Y-75276008D01*
X158713915Y-75465597D01*
X158671774Y-75508034D01*
X158629024Y-75549897D01*
X158623150Y-75556998D01*
X158435164Y-75787492D01*
X158402049Y-75837334D01*
X158368265Y-75886674D01*
X158363882Y-75894781D01*
X158224246Y-76157399D01*
X158201458Y-76212687D01*
X158177886Y-76267683D01*
X158175162Y-76276487D01*
X158089193Y-76561225D01*
X158077570Y-76619925D01*
X158065137Y-76678419D01*
X158064174Y-76687584D01*
X158035150Y-76983596D01*
X158035150Y-77112406D01*
X158055801Y-77216697D01*
X158055800Y-80437952D01*
X158045478Y-80471300D01*
X158036932Y-80552622D01*
X158035299Y-80560870D01*
X158035299Y-80568164D01*
X158032016Y-80599404D01*
X158032016Y-80608620D01*
X158032165Y-80629898D01*
X158035298Y-80659700D01*
X158035298Y-80689680D01*
X158036262Y-80698844D01*
X158069416Y-80994424D01*
X158081853Y-81052936D01*
X158093471Y-81111614D01*
X158096196Y-81120413D01*
X158096197Y-81120419D01*
X158096199Y-81120425D01*
X158186130Y-81403928D01*
X158209691Y-81458899D01*
X158232491Y-81514217D01*
X158236874Y-81522323D01*
X158380163Y-81782965D01*
X158413947Y-81832305D01*
X158447062Y-81882147D01*
X158452936Y-81889247D01*
X158644122Y-82117094D01*
X158686853Y-82158939D01*
X158729013Y-82201395D01*
X158736155Y-82207219D01*
X158967956Y-82393591D01*
X159017968Y-82426318D01*
X159067600Y-82459795D01*
X159075737Y-82464121D01*
X159339323Y-82601921D01*
X159394783Y-82624328D01*
X159449931Y-82647511D01*
X159458753Y-82650174D01*
X159744083Y-82734152D01*
X159802837Y-82745360D01*
X159861441Y-82757390D01*
X159870613Y-82758289D01*
X160166820Y-82785246D01*
X160226638Y-82784828D01*
X160286455Y-82785246D01*
X160295626Y-82784347D01*
X160591430Y-82753257D01*
X160650017Y-82741230D01*
X160708787Y-82730020D01*
X160717609Y-82727356D01*
X161001740Y-82639403D01*
X161056883Y-82616223D01*
X161112348Y-82593814D01*
X161120485Y-82589487D01*
X161382121Y-82448021D01*
X161431705Y-82414576D01*
X161481768Y-82381816D01*
X161488909Y-82375992D01*
X161718085Y-82186401D01*
X161760224Y-82143966D01*
X161802974Y-82102103D01*
X161808848Y-82095002D01*
X161996834Y-81864509D01*
X162029938Y-81814682D01*
X162063733Y-81765327D01*
X162068116Y-81757221D01*
X162207753Y-81494603D01*
X162230560Y-81439269D01*
X162254114Y-81384314D01*
X162256838Y-81375515D01*
X162256840Y-81375509D01*
X162290001Y-81265674D01*
X162290000Y-93390000D01*
X154612248Y-93390000D01*
X154610000Y-92135750D01*
X154451250Y-91977000D01*
X154327000Y-91977000D01*
X154327000Y-91723000D01*
X154451250Y-91723000D01*
X154610000Y-91564250D01*
X154613072Y-89850000D01*
X154600812Y-89725518D01*
X154564502Y-89605820D01*
X154505537Y-89495506D01*
X154426185Y-89398815D01*
X154329494Y-89319463D01*
X154219180Y-89260498D01*
X154099482Y-89224188D01*
X153975000Y-89211928D01*
X153010750Y-89215000D01*
X152852000Y-89373750D01*
X152852000Y-89473000D01*
X152598000Y-89473000D01*
X152598000Y-89373750D01*
X152439250Y-89215000D01*
X151475000Y-89211928D01*
X151350518Y-89224188D01*
X151230820Y-89260498D01*
X151120506Y-89319463D01*
X151023815Y-89398815D01*
X150962933Y-89473000D01*
X150687067Y-89473000D01*
X150626185Y-89398815D01*
X150529494Y-89319463D01*
X150419180Y-89260498D01*
X150299482Y-89224188D01*
X150175000Y-89211928D01*
X149682465Y-89211928D01*
X149674003Y-89126014D01*
X149630546Y-88982753D01*
X149559974Y-88850724D01*
X149465001Y-88734999D01*
X149435998Y-88711197D01*
X149221011Y-88496210D01*
X149547621Y-88496210D01*
X149584943Y-88499886D01*
X149622265Y-88496210D01*
X149622276Y-88496210D01*
X149733929Y-88485213D01*
X149877190Y-88441756D01*
X150009219Y-88371184D01*
X150124944Y-88276211D01*
X150148746Y-88247208D01*
X150866614Y-87529341D01*
X150895611Y-87505544D01*
X150990584Y-87389819D01*
X151061156Y-87257790D01*
X151104613Y-87114529D01*
X151115610Y-87002876D01*
X151115610Y-87002868D01*
X151119286Y-86965543D01*
X151115610Y-86928218D01*
X151115610Y-85557000D01*
X151224400Y-85557000D01*
X151224400Y-86547600D01*
X151280412Y-86862299D01*
X151396742Y-87160023D01*
X151568920Y-87429332D01*
X151790329Y-87659876D01*
X152052461Y-87842795D01*
X152345242Y-87971060D01*
X152471041Y-88001411D01*
X152723000Y-87881942D01*
X152723000Y-85557000D01*
X152977000Y-85557000D01*
X152977000Y-87881942D01*
X153228959Y-88001411D01*
X153354758Y-87971060D01*
X153647539Y-87842795D01*
X153909671Y-87659876D01*
X154131080Y-87429332D01*
X154303258Y-87160023D01*
X154419588Y-86862299D01*
X154475600Y-86547600D01*
X154475600Y-85557000D01*
X152977000Y-85557000D01*
X152723000Y-85557000D01*
X151224400Y-85557000D01*
X151115610Y-85557000D01*
X151115610Y-84312400D01*
X151224400Y-84312400D01*
X151224400Y-85303000D01*
X152723000Y-85303000D01*
X152723000Y-82978058D01*
X152977000Y-82978058D01*
X152977000Y-85303000D01*
X154475600Y-85303000D01*
X154475600Y-84312400D01*
X154419588Y-83997701D01*
X154303258Y-83699977D01*
X154131080Y-83430668D01*
X153909671Y-83200124D01*
X153647539Y-83017205D01*
X153354758Y-82888940D01*
X153228959Y-82858589D01*
X152977000Y-82978058D01*
X152723000Y-82978058D01*
X152471041Y-82858589D01*
X152345242Y-82888940D01*
X152052461Y-83017205D01*
X151790329Y-83200124D01*
X151568920Y-83430668D01*
X151396742Y-83699977D01*
X151280412Y-83997701D01*
X151224400Y-84312400D01*
X151115610Y-84312400D01*
X151115610Y-83931779D01*
X151119286Y-83894456D01*
X151115610Y-83857133D01*
X151115610Y-83857124D01*
X151104613Y-83745471D01*
X151061156Y-83602210D01*
X150990584Y-83470181D01*
X150895611Y-83354456D01*
X150866613Y-83330658D01*
X150414322Y-82878367D01*
X150626327Y-82942678D01*
X150945000Y-82974065D01*
X151263672Y-82942678D01*
X151570099Y-82849725D01*
X151852504Y-82698777D01*
X152100034Y-82495634D01*
X152303177Y-82248105D01*
X152454125Y-81965700D01*
X152547078Y-81659273D01*
X152570600Y-81420454D01*
X152570600Y-79279546D01*
X152547078Y-79040727D01*
X152454125Y-78734300D01*
X152303177Y-78451895D01*
X152100034Y-78204366D01*
X151852505Y-78001223D01*
X151570100Y-77850275D01*
X151263673Y-77757322D01*
X150945000Y-77725935D01*
X150626328Y-77757322D01*
X150319901Y-77850275D01*
X150037496Y-78001223D01*
X149789967Y-78204366D01*
X149682581Y-78335216D01*
X146486357Y-75138993D01*
X146462554Y-75109989D01*
X146346829Y-75015016D01*
X146214800Y-74944444D01*
X146071539Y-74900987D01*
X145959886Y-74889990D01*
X145959875Y-74889990D01*
X145922553Y-74886314D01*
X145885231Y-74889990D01*
X129971179Y-74889990D01*
X129933856Y-74886314D01*
X129896533Y-74889990D01*
X129896524Y-74889990D01*
X129784871Y-74900987D01*
X129644824Y-74943469D01*
X129641610Y-74944444D01*
X129509580Y-75015016D01*
X129451704Y-75062514D01*
X129393856Y-75109989D01*
X129370058Y-75138987D01*
X126258393Y-78250653D01*
X126229389Y-78274456D01*
X126178852Y-78336036D01*
X126134416Y-78390181D01*
X126092583Y-78468444D01*
X126063844Y-78522211D01*
X126020387Y-78665472D01*
X126009390Y-78777125D01*
X126009390Y-78777135D01*
X126005714Y-78814457D01*
X126009390Y-78851780D01*
X126009391Y-82822739D01*
X125861328Y-82837322D01*
X125554901Y-82930275D01*
X125272496Y-83081223D01*
X125024967Y-83284366D01*
X124821824Y-83531895D01*
X124670876Y-83814300D01*
X124577923Y-84120727D01*
X124554401Y-84359546D01*
X124554400Y-86500453D01*
X124577922Y-86739272D01*
X124670875Y-87045699D01*
X124821823Y-87328104D01*
X125024966Y-87575634D01*
X125272495Y-87778777D01*
X125554900Y-87929725D01*
X125861327Y-88022678D01*
X126180000Y-88054065D01*
X126498672Y-88022678D01*
X126683624Y-87966574D01*
X126510851Y-88139347D01*
X126389771Y-88163432D01*
X126219611Y-88233914D01*
X126066472Y-88336238D01*
X125936238Y-88466472D01*
X125833914Y-88619611D01*
X125763432Y-88789771D01*
X125739347Y-88910851D01*
X125614002Y-89036197D01*
X125584999Y-89059999D01*
X125530823Y-89126013D01*
X125490026Y-89175724D01*
X125470674Y-89211928D01*
X124875000Y-89211928D01*
X124750518Y-89224188D01*
X124630820Y-89260498D01*
X124520506Y-89319463D01*
X124423815Y-89398815D01*
X124362933Y-89473000D01*
X124087067Y-89473000D01*
X124026185Y-89398815D01*
X123929494Y-89319463D01*
X123819180Y-89260498D01*
X123699482Y-89224188D01*
X123575000Y-89211928D01*
X123069730Y-89211928D01*
X123030546Y-89082753D01*
X123018384Y-89059999D01*
X122959974Y-88950723D01*
X122888799Y-88863997D01*
X122865001Y-88834999D01*
X122836003Y-88811201D01*
X122045804Y-88021003D01*
X122051327Y-88022678D01*
X122370000Y-88054065D01*
X122688672Y-88022678D01*
X122995099Y-87929725D01*
X123277504Y-87778777D01*
X123525034Y-87575634D01*
X123728177Y-87328105D01*
X123879125Y-87045700D01*
X123972078Y-86739273D01*
X123995600Y-86500454D01*
X123995600Y-84359546D01*
X123972078Y-84120727D01*
X123879125Y-83814300D01*
X123728177Y-83531895D01*
X123525034Y-83284366D01*
X123277505Y-83081223D01*
X122995100Y-82930275D01*
X122688673Y-82837322D01*
X122370000Y-82805935D01*
X122246725Y-82818077D01*
X122291613Y-82773189D01*
X122320611Y-82749391D01*
X122379660Y-82677440D01*
X122415584Y-82633667D01*
X122486156Y-82501637D01*
X122498848Y-82459795D01*
X122529613Y-82358376D01*
X122540610Y-82246723D01*
X122540610Y-82246714D01*
X122544286Y-82209391D01*
X122540610Y-82172068D01*
X122540610Y-81420453D01*
X122649400Y-81420453D01*
X122672922Y-81659272D01*
X122765875Y-81965699D01*
X122916823Y-82248104D01*
X123119966Y-82495634D01*
X123367495Y-82698777D01*
X123649900Y-82849725D01*
X123956327Y-82942678D01*
X124275000Y-82974065D01*
X124593672Y-82942678D01*
X124900099Y-82849725D01*
X125182504Y-82698777D01*
X125430034Y-82495634D01*
X125633177Y-82248105D01*
X125784125Y-81965700D01*
X125877078Y-81659273D01*
X125900600Y-81420454D01*
X125900600Y-79279546D01*
X125877078Y-79040727D01*
X125784125Y-78734300D01*
X125633177Y-78451895D01*
X125430034Y-78204366D01*
X125182505Y-78001223D01*
X124900100Y-77850275D01*
X124593673Y-77757322D01*
X124275000Y-77725935D01*
X123956328Y-77757322D01*
X123649901Y-77850275D01*
X123367496Y-78001223D01*
X123119967Y-78204366D01*
X122916824Y-78451895D01*
X122765876Y-78734300D01*
X122672923Y-79040727D01*
X122649401Y-79279546D01*
X122649400Y-81420453D01*
X122540610Y-81420453D01*
X122540610Y-78851782D01*
X122544286Y-78814457D01*
X122540610Y-78777132D01*
X122540610Y-78777124D01*
X122529613Y-78665471D01*
X122486156Y-78522210D01*
X122415584Y-78390181D01*
X122320611Y-78274456D01*
X122291614Y-78250659D01*
X121573746Y-77532792D01*
X121549944Y-77503789D01*
X121434219Y-77408816D01*
X121302190Y-77338244D01*
X121158929Y-77294787D01*
X121047276Y-77283790D01*
X121047265Y-77283790D01*
X121009943Y-77280114D01*
X120972621Y-77283790D01*
X116147380Y-77283790D01*
X116110057Y-77280114D01*
X116072734Y-77283790D01*
X116072724Y-77283790D01*
X115961071Y-77294787D01*
X115817810Y-77338244D01*
X115685781Y-77408816D01*
X115570056Y-77503789D01*
X115546258Y-77532787D01*
X112473378Y-80605668D01*
X112444380Y-80629466D01*
X112420582Y-80658464D01*
X112420581Y-80658465D01*
X112349406Y-80745191D01*
X112278834Y-80877221D01*
X112252384Y-80964419D01*
X112235378Y-81020481D01*
X112227587Y-81099579D01*
X112220704Y-81169467D01*
X112224381Y-81206799D01*
X112224380Y-87822057D01*
X112220704Y-87859380D01*
X112224380Y-87896702D01*
X112224380Y-87896712D01*
X112235377Y-88008365D01*
X112265526Y-88107753D01*
X112278834Y-88151626D01*
X112349406Y-88283656D01*
X112362819Y-88299999D01*
X112444379Y-88399381D01*
X112473382Y-88423183D01*
X113292105Y-89241907D01*
X113230820Y-89260498D01*
X113120506Y-89319463D01*
X113023815Y-89398815D01*
X112944463Y-89495506D01*
X112885498Y-89605820D01*
X112849188Y-89725518D01*
X112836928Y-89850000D01*
X112836928Y-93390000D01*
X105310000Y-93390000D01*
X105310000Y-81264810D01*
X105354130Y-81403928D01*
X105377691Y-81458899D01*
X105400491Y-81514217D01*
X105404874Y-81522323D01*
X105548163Y-81782965D01*
X105581947Y-81832305D01*
X105615062Y-81882147D01*
X105620936Y-81889247D01*
X105812122Y-82117094D01*
X105854853Y-82158939D01*
X105897013Y-82201395D01*
X105904155Y-82207219D01*
X106135956Y-82393591D01*
X106185968Y-82426318D01*
X106235600Y-82459795D01*
X106243737Y-82464121D01*
X106507323Y-82601921D01*
X106562783Y-82624328D01*
X106617931Y-82647511D01*
X106626753Y-82650174D01*
X106912083Y-82734152D01*
X106970837Y-82745360D01*
X107029441Y-82757390D01*
X107038613Y-82758289D01*
X107334820Y-82785246D01*
X107394638Y-82784828D01*
X107454455Y-82785246D01*
X107463626Y-82784347D01*
X107759430Y-82753257D01*
X107818017Y-82741230D01*
X107876787Y-82730020D01*
X107885609Y-82727356D01*
X108169740Y-82639403D01*
X108224883Y-82616223D01*
X108280348Y-82593814D01*
X108288485Y-82589487D01*
X108550121Y-82448021D01*
X108599705Y-82414576D01*
X108649768Y-82381816D01*
X108656909Y-82375992D01*
X108886085Y-82186401D01*
X108928224Y-82143966D01*
X108970974Y-82102103D01*
X108976848Y-82095002D01*
X109164834Y-81864509D01*
X109197938Y-81814682D01*
X109231733Y-81765327D01*
X109236116Y-81757221D01*
X109375753Y-81494603D01*
X109398560Y-81439269D01*
X109422114Y-81384314D01*
X109424838Y-81375515D01*
X109424840Y-81375509D01*
X109510806Y-81090773D01*
X109522422Y-81032108D01*
X109534862Y-80973584D01*
X109535825Y-80964419D01*
X109564850Y-80668406D01*
X109564850Y-80539596D01*
X109544200Y-80435305D01*
X109544200Y-77214047D01*
X109554522Y-77180699D01*
X109563068Y-77099377D01*
X109564701Y-77091129D01*
X109564701Y-77083835D01*
X109567984Y-77052594D01*
X109567984Y-77043379D01*
X109567835Y-77022100D01*
X109564702Y-76992298D01*
X109564702Y-76962319D01*
X109563738Y-76953154D01*
X109530584Y-76657575D01*
X109518151Y-76599081D01*
X109506528Y-76540381D01*
X109503803Y-76531578D01*
X109413868Y-76248068D01*
X109390290Y-76193058D01*
X109367508Y-76137783D01*
X109363125Y-76129677D01*
X109219836Y-75869034D01*
X109186048Y-75819687D01*
X109152936Y-75769850D01*
X109147062Y-75762749D01*
X108955876Y-75534904D01*
X108913146Y-75493060D01*
X108870987Y-75450605D01*
X108863846Y-75444781D01*
X108632045Y-75258408D01*
X108582031Y-75225680D01*
X108532398Y-75192202D01*
X108524261Y-75187876D01*
X108260675Y-75050077D01*
X108205219Y-75027672D01*
X108150068Y-75004488D01*
X108141246Y-75001825D01*
X107855915Y-74917847D01*
X107797175Y-74906642D01*
X107738558Y-74894609D01*
X107729386Y-74893710D01*
X107433178Y-74866753D01*
X107373361Y-74867171D01*
X107313544Y-74866753D01*
X107304372Y-74867653D01*
X107008569Y-74898742D01*
X106949972Y-74910771D01*
X106891210Y-74921980D01*
X106882388Y-74924644D01*
X106598257Y-75012598D01*
X106543139Y-75035768D01*
X106487650Y-75058186D01*
X106479514Y-75062513D01*
X106217878Y-75203979D01*
X106168311Y-75237412D01*
X106118232Y-75270183D01*
X106111091Y-75276008D01*
X105881915Y-75465597D01*
X105839774Y-75508034D01*
X105797024Y-75549897D01*
X105791150Y-75556998D01*
X105603164Y-75787492D01*
X105570049Y-75837334D01*
X105536265Y-75886674D01*
X105531882Y-75894781D01*
X105392246Y-76157399D01*
X105369458Y-76212687D01*
X105345886Y-76267683D01*
X105343162Y-76276487D01*
X105310000Y-76386323D01*
X105310000Y-70010000D01*
X162290001Y-70010000D01*
X162290001Y-76387191D01*
G36*
X136251823Y-87328104D02*
G01*
X136454966Y-87575634D01*
X136702495Y-87778777D01*
X136850000Y-87857620D01*
X136850001Y-89211928D01*
X136275000Y-89211928D01*
X136150518Y-89224188D01*
X136030820Y-89260498D01*
X135920506Y-89319463D01*
X135823815Y-89398815D01*
X135762933Y-89473000D01*
X135487067Y-89473000D01*
X135426185Y-89398815D01*
X135329494Y-89319463D01*
X135219180Y-89260498D01*
X135099482Y-89224188D01*
X134975000Y-89211928D01*
X132911730Y-89211928D01*
X132196012Y-88496210D01*
X134307621Y-88496210D01*
X134344943Y-88499886D01*
X134382265Y-88496210D01*
X134382276Y-88496210D01*
X134493929Y-88485213D01*
X134637190Y-88441756D01*
X134769219Y-88371184D01*
X134884944Y-88276211D01*
X134908747Y-88247208D01*
X136104143Y-87051813D01*
X136251823Y-87328104D01*
X136251823Y-87328104D01*
G37*
X136251823Y-87328104D02*
X136454966Y-87575634D01*
X136702495Y-87778777D01*
X136850000Y-87857620D01*
X136850001Y-89211928D01*
X136275000Y-89211928D01*
X136150518Y-89224188D01*
X136030820Y-89260498D01*
X135920506Y-89319463D01*
X135823815Y-89398815D01*
X135762933Y-89473000D01*
X135487067Y-89473000D01*
X135426185Y-89398815D01*
X135329494Y-89319463D01*
X135219180Y-89260498D01*
X135099482Y-89224188D01*
X134975000Y-89211928D01*
X132911730Y-89211928D01*
X132196012Y-88496210D01*
X134307621Y-88496210D01*
X134344943Y-88499886D01*
X134382265Y-88496210D01*
X134382276Y-88496210D01*
X134493929Y-88485213D01*
X134637190Y-88441756D01*
X134769219Y-88371184D01*
X134884944Y-88276211D01*
X134908747Y-88247208D01*
X136104143Y-87051813D01*
X136251823Y-87328104D01*
G36*
X117222415Y-88247218D02*
G01*
X117246209Y-88276211D01*
X117275202Y-88300005D01*
X117275206Y-88300009D01*
X117312416Y-88330546D01*
X117361934Y-88371184D01*
X117493963Y-88441756D01*
X117637224Y-88485213D01*
X117685827Y-88490000D01*
X116033649Y-88490000D01*
X115439142Y-87895493D01*
X115657504Y-87778777D01*
X115905034Y-87575634D01*
X116108177Y-87328105D01*
X116176144Y-87200946D01*
X117222415Y-88247218D01*
X117222415Y-88247218D01*
G37*
X117222415Y-88247218D02*
X117246209Y-88276211D01*
X117275202Y-88300005D01*
X117275206Y-88300009D01*
X117312416Y-88330546D01*
X117361934Y-88371184D01*
X117493963Y-88441756D01*
X117637224Y-88485213D01*
X117685827Y-88490000D01*
X116033649Y-88490000D01*
X115439142Y-87895493D01*
X115657504Y-87778777D01*
X115905034Y-87575634D01*
X116108177Y-87328105D01*
X116176144Y-87200946D01*
X117222415Y-88247218D01*
G36*
X146445858Y-77884506D02*
G01*
X146227496Y-78001223D01*
X145979967Y-78204366D01*
X145776824Y-78451895D01*
X145625876Y-78734300D01*
X145532923Y-79040727D01*
X145509401Y-79279546D01*
X145509400Y-81420453D01*
X145532922Y-81659272D01*
X145625875Y-81965699D01*
X145776823Y-82248104D01*
X145979966Y-82495634D01*
X146227495Y-82698777D01*
X146509900Y-82849725D01*
X146816327Y-82942678D01*
X147135000Y-82974065D01*
X147453672Y-82942678D01*
X147760099Y-82849725D01*
X148042504Y-82698777D01*
X148280000Y-82503868D01*
X148280000Y-83002381D01*
X148132496Y-83081223D01*
X147884967Y-83284366D01*
X147681824Y-83531895D01*
X147530876Y-83814300D01*
X147437923Y-84120727D01*
X147414401Y-84359546D01*
X147414400Y-86500453D01*
X147437922Y-86739272D01*
X147509796Y-86976210D01*
X146860412Y-86976210D01*
X146783527Y-86899325D01*
X146832078Y-86739273D01*
X146855600Y-86500454D01*
X146855600Y-84359546D01*
X146832078Y-84120727D01*
X146739125Y-83814300D01*
X146588177Y-83531895D01*
X146385034Y-83284366D01*
X146137505Y-83081223D01*
X145855100Y-82930275D01*
X145548673Y-82837322D01*
X145230000Y-82805935D01*
X144911328Y-82837322D01*
X144604901Y-82930275D01*
X144322496Y-83081223D01*
X144074967Y-83284366D01*
X143967581Y-83415216D01*
X143508369Y-82956004D01*
X143643672Y-82942678D01*
X143950099Y-82849725D01*
X144232504Y-82698777D01*
X144480034Y-82495634D01*
X144683177Y-82248105D01*
X144834125Y-81965700D01*
X144927078Y-81659273D01*
X144950600Y-81420454D01*
X144950600Y-79279546D01*
X144927078Y-79040727D01*
X144834125Y-78734300D01*
X144683177Y-78451895D01*
X144480034Y-78204366D01*
X144232505Y-78001223D01*
X143950100Y-77850275D01*
X143643673Y-77757322D01*
X143325000Y-77725935D01*
X143006328Y-77757322D01*
X142699901Y-77850275D01*
X142417496Y-78001223D01*
X142169967Y-78204366D01*
X141966824Y-78451895D01*
X141815876Y-78734300D01*
X141722923Y-79040727D01*
X141699401Y-79279546D01*
X141699400Y-81420453D01*
X141722922Y-81659272D01*
X141800126Y-81913782D01*
X141039874Y-81913782D01*
X141117078Y-81659273D01*
X141140600Y-81420454D01*
X141140600Y-79279546D01*
X141117078Y-79040727D01*
X141024125Y-78734300D01*
X140873177Y-78451895D01*
X140670034Y-78204366D01*
X140422505Y-78001223D01*
X140140100Y-77850275D01*
X139833673Y-77757322D01*
X139515000Y-77725935D01*
X139196328Y-77757322D01*
X138889901Y-77850275D01*
X138607496Y-78001223D01*
X138359967Y-78204366D01*
X138156824Y-78451895D01*
X138005876Y-78734300D01*
X137912923Y-79040727D01*
X137889401Y-79279546D01*
X137889400Y-81420453D01*
X137912922Y-81659272D01*
X137990126Y-81913781D01*
X137229875Y-81913781D01*
X137307078Y-81659273D01*
X137330600Y-81420454D01*
X137330600Y-79279546D01*
X137307078Y-79040727D01*
X137214125Y-78734300D01*
X137063177Y-78451895D01*
X136860034Y-78204366D01*
X136612505Y-78001223D01*
X136330100Y-77850275D01*
X136023673Y-77757322D01*
X135705000Y-77725935D01*
X135386328Y-77757322D01*
X135079901Y-77850275D01*
X134797496Y-78001223D01*
X134549967Y-78204366D01*
X134346824Y-78451895D01*
X134195876Y-78734300D01*
X134102923Y-79040727D01*
X134079401Y-79279546D01*
X134079400Y-81420453D01*
X134102922Y-81659272D01*
X134195875Y-81965699D01*
X134346823Y-82248104D01*
X134549966Y-82495634D01*
X134615325Y-82549273D01*
X134278725Y-82885873D01*
X134118673Y-82837322D01*
X133800000Y-82805935D01*
X133481328Y-82837322D01*
X133174901Y-82930275D01*
X132892496Y-83081223D01*
X132644967Y-83284366D01*
X132441824Y-83531895D01*
X132290876Y-83814300D01*
X132197923Y-84120727D01*
X132174401Y-84359546D01*
X132174400Y-86500453D01*
X132197922Y-86739272D01*
X132269796Y-86976210D01*
X131620412Y-86976210D01*
X131543527Y-86899325D01*
X131592078Y-86739273D01*
X131615600Y-86500454D01*
X131615600Y-84359546D01*
X131592078Y-84120727D01*
X131499125Y-83814300D01*
X131348177Y-83531895D01*
X131145034Y-83284366D01*
X130897505Y-83081223D01*
X130615100Y-82930275D01*
X130563697Y-82914682D01*
X130696028Y-82826262D01*
X130826262Y-82696028D01*
X130882177Y-82612345D01*
X130987495Y-82698777D01*
X131269900Y-82849725D01*
X131576327Y-82942678D01*
X131895000Y-82974065D01*
X132213672Y-82942678D01*
X132520099Y-82849725D01*
X132802504Y-82698777D01*
X133050034Y-82495634D01*
X133253177Y-82248105D01*
X133404125Y-81965700D01*
X133497078Y-81659273D01*
X133520600Y-81420454D01*
X133520600Y-79279546D01*
X133497078Y-79040727D01*
X133404125Y-78734300D01*
X133253177Y-78451895D01*
X133050034Y-78204366D01*
X132802505Y-78001223D01*
X132584142Y-77884506D01*
X133608649Y-76860000D01*
X145421352Y-76860000D01*
X146445858Y-77884506D01*
X146445858Y-77884506D01*
G37*
X146445858Y-77884506D02*
X146227496Y-78001223D01*
X145979967Y-78204366D01*
X145776824Y-78451895D01*
X145625876Y-78734300D01*
X145532923Y-79040727D01*
X145509401Y-79279546D01*
X145509400Y-81420453D01*
X145532922Y-81659272D01*
X145625875Y-81965699D01*
X145776823Y-82248104D01*
X145979966Y-82495634D01*
X146227495Y-82698777D01*
X146509900Y-82849725D01*
X146816327Y-82942678D01*
X147135000Y-82974065D01*
X147453672Y-82942678D01*
X147760099Y-82849725D01*
X148042504Y-82698777D01*
X148280000Y-82503868D01*
X148280000Y-83002381D01*
X148132496Y-83081223D01*
X147884967Y-83284366D01*
X147681824Y-83531895D01*
X147530876Y-83814300D01*
X147437923Y-84120727D01*
X147414401Y-84359546D01*
X147414400Y-86500453D01*
X147437922Y-86739272D01*
X147509796Y-86976210D01*
X146860412Y-86976210D01*
X146783527Y-86899325D01*
X146832078Y-86739273D01*
X146855600Y-86500454D01*
X146855600Y-84359546D01*
X146832078Y-84120727D01*
X146739125Y-83814300D01*
X146588177Y-83531895D01*
X146385034Y-83284366D01*
X146137505Y-83081223D01*
X145855100Y-82930275D01*
X145548673Y-82837322D01*
X145230000Y-82805935D01*
X144911328Y-82837322D01*
X144604901Y-82930275D01*
X144322496Y-83081223D01*
X144074967Y-83284366D01*
X143967581Y-83415216D01*
X143508369Y-82956004D01*
X143643672Y-82942678D01*
X143950099Y-82849725D01*
X144232504Y-82698777D01*
X144480034Y-82495634D01*
X144683177Y-82248105D01*
X144834125Y-81965700D01*
X144927078Y-81659273D01*
X144950600Y-81420454D01*
X144950600Y-79279546D01*
X144927078Y-79040727D01*
X144834125Y-78734300D01*
X144683177Y-78451895D01*
X144480034Y-78204366D01*
X144232505Y-78001223D01*
X143950100Y-77850275D01*
X143643673Y-77757322D01*
X143325000Y-77725935D01*
X143006328Y-77757322D01*
X142699901Y-77850275D01*
X142417496Y-78001223D01*
X142169967Y-78204366D01*
X141966824Y-78451895D01*
X141815876Y-78734300D01*
X141722923Y-79040727D01*
X141699401Y-79279546D01*
X141699400Y-81420453D01*
X141722922Y-81659272D01*
X141800126Y-81913782D01*
X141039874Y-81913782D01*
X141117078Y-81659273D01*
X141140600Y-81420454D01*
X141140600Y-79279546D01*
X141117078Y-79040727D01*
X141024125Y-78734300D01*
X140873177Y-78451895D01*
X140670034Y-78204366D01*
X140422505Y-78001223D01*
X140140100Y-77850275D01*
X139833673Y-77757322D01*
X139515000Y-77725935D01*
X139196328Y-77757322D01*
X138889901Y-77850275D01*
X138607496Y-78001223D01*
X138359967Y-78204366D01*
X138156824Y-78451895D01*
X138005876Y-78734300D01*
X137912923Y-79040727D01*
X137889401Y-79279546D01*
X137889400Y-81420453D01*
X137912922Y-81659272D01*
X137990126Y-81913781D01*
X137229875Y-81913781D01*
X137307078Y-81659273D01*
X137330600Y-81420454D01*
X137330600Y-79279546D01*
X137307078Y-79040727D01*
X137214125Y-78734300D01*
X137063177Y-78451895D01*
X136860034Y-78204366D01*
X136612505Y-78001223D01*
X136330100Y-77850275D01*
X136023673Y-77757322D01*
X135705000Y-77725935D01*
X135386328Y-77757322D01*
X135079901Y-77850275D01*
X134797496Y-78001223D01*
X134549967Y-78204366D01*
X134346824Y-78451895D01*
X134195876Y-78734300D01*
X134102923Y-79040727D01*
X134079401Y-79279546D01*
X134079400Y-81420453D01*
X134102922Y-81659272D01*
X134195875Y-81965699D01*
X134346823Y-82248104D01*
X134549966Y-82495634D01*
X134615325Y-82549273D01*
X134278725Y-82885873D01*
X134118673Y-82837322D01*
X133800000Y-82805935D01*
X133481328Y-82837322D01*
X133174901Y-82930275D01*
X132892496Y-83081223D01*
X132644967Y-83284366D01*
X132441824Y-83531895D01*
X132290876Y-83814300D01*
X132197923Y-84120727D01*
X132174401Y-84359546D01*
X132174400Y-86500453D01*
X132197922Y-86739272D01*
X132269796Y-86976210D01*
X131620412Y-86976210D01*
X131543527Y-86899325D01*
X131592078Y-86739273D01*
X131615600Y-86500454D01*
X131615600Y-84359546D01*
X131592078Y-84120727D01*
X131499125Y-83814300D01*
X131348177Y-83531895D01*
X131145034Y-83284366D01*
X130897505Y-83081223D01*
X130615100Y-82930275D01*
X130563697Y-82914682D01*
X130696028Y-82826262D01*
X130826262Y-82696028D01*
X130882177Y-82612345D01*
X130987495Y-82698777D01*
X131269900Y-82849725D01*
X131576327Y-82942678D01*
X131895000Y-82974065D01*
X132213672Y-82942678D01*
X132520099Y-82849725D01*
X132802504Y-82698777D01*
X133050034Y-82495634D01*
X133253177Y-82248105D01*
X133404125Y-81965700D01*
X133497078Y-81659273D01*
X133520600Y-81420454D01*
X133520600Y-79279546D01*
X133497078Y-79040727D01*
X133404125Y-78734300D01*
X133253177Y-78451895D01*
X133050034Y-78204366D01*
X132802505Y-78001223D01*
X132584142Y-77884506D01*
X133608649Y-76860000D01*
X145421352Y-76860000D01*
X146445858Y-77884506D01*
G36*
X115029400Y-81420453D02*
G01*
X115052922Y-81659272D01*
X115124796Y-81896210D01*
X114709962Y-81896210D01*
X114672637Y-81892534D01*
X114635312Y-81896210D01*
X114635304Y-81896210D01*
X114523651Y-81907207D01*
X114380390Y-81950664D01*
X114248361Y-82021236D01*
X114132636Y-82116209D01*
X114108838Y-82145207D01*
X113744380Y-82509665D01*
X113744380Y-81484268D01*
X115029401Y-80199248D01*
X115029400Y-81420453D01*
X115029400Y-81420453D01*
G37*
X115029400Y-81420453D02*
X115052922Y-81659272D01*
X115124796Y-81896210D01*
X114709962Y-81896210D01*
X114672637Y-81892534D01*
X114635312Y-81896210D01*
X114635304Y-81896210D01*
X114523651Y-81907207D01*
X114380390Y-81950664D01*
X114248361Y-82021236D01*
X114132636Y-82116209D01*
X114108838Y-82145207D01*
X113744380Y-82509665D01*
X113744380Y-81484268D01*
X115029401Y-80199248D01*
X115029400Y-81420453D01*
M02*
