G04 #@! TF.GenerationSoftware,KiCad,Pcbnew,(5.1.0)-1*
G04 #@! TF.CreationDate,2019-08-09T15:15:48-04:00*
G04 #@! TF.ProjectId,EUROSCART_2_JP21,4555524f-5343-4415-9254-5f325f4a5032,rev?*
G04 #@! TF.SameCoordinates,Original*
G04 #@! TF.FileFunction,Copper,L2,Bot*
G04 #@! TF.FilePolarity,Positive*
%FSLAX46Y46*%
G04 Gerber Fmt 4.6, Leading zero omitted, Abs format (unit mm)*
G04 Created by KiCad (PCBNEW (5.1.0)-1) date 2019-08-09 15:15:48*
%MOMM*%
%LPD*%
G04 APERTURE LIST*
%ADD10R,2.500000X4.000000*%
%ADD11O,1.981200X3.962400*%
%ADD12C,0.600000*%
%ADD13C,0.250000*%
%ADD14C,0.254000*%
G04 APERTURE END LIST*
D10*
X114725000Y-91840501D03*
X118525000Y-91840501D03*
X122325000Y-91840501D03*
X126125000Y-91840501D03*
X129925000Y-91840501D03*
X133725000Y-91840501D03*
X137525000Y-91840501D03*
X141325000Y-91840501D03*
X145125000Y-91840501D03*
X148925000Y-91840501D03*
X152725000Y-91840501D03*
D11*
X114750000Y-85480000D03*
X116655000Y-80400000D03*
X118560000Y-85480000D03*
X120465000Y-80400000D03*
X122370000Y-85480000D03*
X124275000Y-80400000D03*
X126180000Y-85480000D03*
X128085000Y-80400000D03*
X129990000Y-85480000D03*
X131895000Y-80400000D03*
X133800000Y-85480000D03*
X135705000Y-80400000D03*
X137610000Y-85480000D03*
X139515000Y-80400000D03*
X141420000Y-85480000D03*
X143325000Y-80400000D03*
X145230000Y-85480000D03*
X147135000Y-80400000D03*
X149040000Y-85480000D03*
X150945000Y-80400000D03*
X152850000Y-85480000D03*
D12*
X142100000Y-88000000D03*
X142575000Y-88643721D03*
X131800000Y-83400000D03*
X130000000Y-79200000D03*
X160000000Y-70400000D03*
X157500000Y-70400000D03*
X155000000Y-70400000D03*
X152500000Y-70400000D03*
X150000000Y-70400000D03*
X147500000Y-70400000D03*
X145000000Y-70400000D03*
X142500000Y-70400000D03*
X140000000Y-70400000D03*
X137500000Y-70400000D03*
X135000000Y-70400000D03*
X132500000Y-70400000D03*
X130000000Y-70400000D03*
X127500000Y-70400000D03*
X125000000Y-70400000D03*
X122500000Y-70400000D03*
X120000000Y-70400000D03*
X117500000Y-70400000D03*
X115000000Y-70400000D03*
X112500000Y-70400000D03*
X110000000Y-70400000D03*
X107500000Y-70400000D03*
X155000000Y-92500000D03*
X160000000Y-72500000D03*
X107500000Y-72500000D03*
X107500000Y-92500000D03*
X110000000Y-92500000D03*
X111700000Y-86200000D03*
X111700000Y-82500000D03*
X113300000Y-79700000D03*
X117000000Y-77300000D03*
X126200000Y-76700000D03*
X130500000Y-77300000D03*
X124200000Y-88700000D03*
X122600000Y-88200000D03*
X120300000Y-88600000D03*
X116600000Y-87400000D03*
X116600000Y-84200000D03*
X137600000Y-78000000D03*
X133800000Y-79500000D03*
X148400000Y-88800000D03*
X139500000Y-85400000D03*
X147100000Y-85400000D03*
X106800000Y-84900000D03*
X106900000Y-87600000D03*
X106500000Y-90000000D03*
X156600000Y-92600000D03*
X160300000Y-89900000D03*
X160600000Y-87600000D03*
X160600000Y-84900000D03*
X161100000Y-92499998D03*
D13*
X149040000Y-84489400D02*
X149040000Y-85480000D01*
X147724390Y-83173790D02*
X149040000Y-84489400D01*
X137065057Y-83173790D02*
X147724390Y-83173790D01*
X136294390Y-83944457D02*
X137065057Y-83173790D01*
X136294390Y-87021111D02*
X136294390Y-83944457D01*
X133725000Y-89590501D02*
X136294390Y-87021111D01*
X133725000Y-91840501D02*
X133725000Y-89590501D01*
X137525000Y-85565000D02*
X137610000Y-85480000D01*
X137525000Y-91840501D02*
X137525000Y-85565000D01*
X141420000Y-88580000D02*
X141420000Y-85480000D01*
X141400000Y-88600000D02*
X141420000Y-88580000D01*
X141400000Y-91015501D02*
X141400000Y-88600000D01*
X141325000Y-91840501D02*
X141325000Y-91090501D01*
X141325000Y-91090501D02*
X141400000Y-91015501D01*
X126180000Y-82305000D02*
X128085000Y-80400000D01*
X126180000Y-85480000D02*
X126180000Y-82305000D01*
X141900000Y-88200000D02*
X142100000Y-88000000D01*
X141900000Y-89000000D02*
X141900000Y-88200000D01*
X142200000Y-89300000D02*
X141900000Y-89000000D01*
X145100000Y-89300000D02*
X142200000Y-89300000D01*
X145125000Y-91840501D02*
X145125000Y-89325000D01*
X145125000Y-89325000D02*
X145100000Y-89300000D01*
X148925000Y-91840501D02*
X148925000Y-91090501D01*
X145619501Y-88500000D02*
X142550010Y-88500000D01*
X148925000Y-91840501D02*
X148925000Y-91805499D01*
X148925000Y-91805499D02*
X145619501Y-88500000D01*
X142550010Y-88500000D02*
X142550010Y-88618731D01*
X142550010Y-88618731D02*
X142575000Y-88643721D01*
X131800000Y-80495000D02*
X131895000Y-80400000D01*
X131800000Y-83400000D02*
X131800000Y-80495000D01*
X130000000Y-85470000D02*
X129990000Y-85480000D01*
X130000000Y-79200000D02*
X130000000Y-85470000D01*
X152725000Y-85605000D02*
X152850000Y-85480000D01*
X152725000Y-91840501D02*
X152725000Y-85605000D01*
X152725000Y-91840501D02*
X160440503Y-91840501D01*
X160800001Y-92199999D02*
X161100000Y-92499998D01*
X160440503Y-91840501D02*
X160800001Y-92199999D01*
X122370000Y-84489400D02*
X122370000Y-85480000D01*
X121054390Y-83173790D02*
X122370000Y-84489400D01*
X114205057Y-83173790D02*
X121054390Y-83173790D01*
X113434390Y-83944457D02*
X114205057Y-83173790D01*
X113434390Y-88299891D02*
X113434390Y-83944457D01*
X114725000Y-89590501D02*
X113434390Y-88299891D01*
X114725000Y-91840501D02*
X114725000Y-89590501D01*
X114750000Y-87150000D02*
X114750000Y-85480000D01*
X116500000Y-88900000D02*
X114750000Y-87150000D01*
X117900000Y-88900000D02*
X116500000Y-88900000D01*
X118525000Y-91840501D02*
X118525000Y-89525000D01*
X118525000Y-89525000D02*
X117900000Y-88900000D01*
X122325000Y-91840501D02*
X122325000Y-91090501D01*
X149753773Y-82706210D02*
X147447563Y-80400000D01*
X152260610Y-81935543D02*
X151489943Y-82706210D01*
X152260610Y-78864457D02*
X152260610Y-81935543D01*
X122325000Y-89590501D02*
X123685610Y-88229891D01*
X151489943Y-82706210D02*
X149753773Y-82706210D01*
X122325000Y-91840501D02*
X122325000Y-89590501D01*
X147696153Y-74300000D02*
X152260610Y-78864457D01*
X123685610Y-82661763D02*
X122959390Y-81935543D01*
X147447563Y-80400000D02*
X147135000Y-80400000D01*
X126400000Y-74300000D02*
X147696153Y-74300000D01*
X122959390Y-81935543D02*
X122959390Y-77740610D01*
X123685610Y-88229891D02*
X123685610Y-82661763D01*
X122959390Y-77740610D02*
X126400000Y-74300000D01*
X126125000Y-91840501D02*
X126125000Y-91090501D01*
X126769390Y-78864457D02*
X129433847Y-76200000D01*
X126769390Y-80756763D02*
X126769390Y-78864457D01*
X124864390Y-82661763D02*
X126769390Y-80756763D01*
X124864390Y-88329891D02*
X124864390Y-82661763D01*
X126125000Y-91840501D02*
X126125000Y-89590501D01*
X126125000Y-89590501D02*
X124864390Y-88329891D01*
X150945000Y-79409400D02*
X150945000Y-80400000D01*
X147735600Y-76200000D02*
X150945000Y-79409400D01*
X129433847Y-76200000D02*
X147735600Y-76200000D01*
X145230000Y-86470600D02*
X145230000Y-85480000D01*
X146545610Y-87786210D02*
X145230000Y-86470600D01*
X149584943Y-87786210D02*
X146545610Y-87786210D01*
X150355610Y-87015543D02*
X149584943Y-87786210D01*
X150355610Y-83944457D02*
X150355610Y-87015543D01*
X135844381Y-83758056D02*
X136878657Y-82723780D01*
X135844380Y-86286773D02*
X135844381Y-83758056D01*
X134344943Y-87786210D02*
X135844380Y-86286773D01*
X149134933Y-82723780D02*
X150355610Y-83944457D01*
X131729291Y-87786210D02*
X134344943Y-87786210D01*
X129925000Y-89590501D02*
X131729291Y-87786210D01*
X136878657Y-82723780D02*
X149134933Y-82723780D01*
X129925000Y-91840501D02*
X129925000Y-89590501D01*
D14*
G36*
X162290001Y-76437191D02*
G01*
X162245868Y-76298068D01*
X162222290Y-76243058D01*
X162199508Y-76187783D01*
X162195125Y-76179677D01*
X162051836Y-75919034D01*
X162018048Y-75869687D01*
X161984936Y-75819850D01*
X161979062Y-75812749D01*
X161787876Y-75584904D01*
X161745146Y-75543060D01*
X161702987Y-75500605D01*
X161695846Y-75494781D01*
X161464045Y-75308408D01*
X161414031Y-75275680D01*
X161364398Y-75242202D01*
X161356261Y-75237876D01*
X161092675Y-75100077D01*
X161037219Y-75077672D01*
X160982068Y-75054488D01*
X160973246Y-75051825D01*
X160687915Y-74967847D01*
X160629175Y-74956642D01*
X160570558Y-74944609D01*
X160561386Y-74943710D01*
X160265178Y-74916753D01*
X160205361Y-74917171D01*
X160145544Y-74916753D01*
X160136372Y-74917653D01*
X159840569Y-74948742D01*
X159781972Y-74960771D01*
X159723210Y-74971980D01*
X159714388Y-74974644D01*
X159430257Y-75062598D01*
X159375139Y-75085768D01*
X159319650Y-75108186D01*
X159311514Y-75112513D01*
X159049878Y-75253979D01*
X159000311Y-75287412D01*
X158950232Y-75320183D01*
X158943091Y-75326008D01*
X158713915Y-75515597D01*
X158671774Y-75558034D01*
X158629024Y-75599897D01*
X158623150Y-75606998D01*
X158435164Y-75837492D01*
X158402049Y-75887334D01*
X158368265Y-75936674D01*
X158363882Y-75944781D01*
X158224246Y-76207399D01*
X158201458Y-76262687D01*
X158177886Y-76317683D01*
X158175162Y-76326487D01*
X158089193Y-76611225D01*
X158077570Y-76669925D01*
X158065137Y-76728419D01*
X158064174Y-76737584D01*
X158035150Y-77033596D01*
X158035150Y-77162406D01*
X158055801Y-77266697D01*
X158055800Y-80487952D01*
X158045478Y-80521300D01*
X158036932Y-80602622D01*
X158035299Y-80610870D01*
X158035299Y-80618164D01*
X158032016Y-80649404D01*
X158032016Y-80658620D01*
X158032165Y-80679898D01*
X158035298Y-80709700D01*
X158035298Y-80739680D01*
X158036262Y-80748844D01*
X158069416Y-81044424D01*
X158081853Y-81102936D01*
X158093471Y-81161614D01*
X158096196Y-81170413D01*
X158096197Y-81170419D01*
X158096199Y-81170425D01*
X158186130Y-81453928D01*
X158209691Y-81508899D01*
X158232491Y-81564217D01*
X158236874Y-81572323D01*
X158380163Y-81832965D01*
X158413947Y-81882305D01*
X158447062Y-81932147D01*
X158452936Y-81939247D01*
X158644122Y-82167094D01*
X158686853Y-82208939D01*
X158729013Y-82251395D01*
X158736155Y-82257219D01*
X158967956Y-82443591D01*
X159017968Y-82476318D01*
X159067600Y-82509795D01*
X159075737Y-82514121D01*
X159339323Y-82651921D01*
X159394783Y-82674328D01*
X159449931Y-82697511D01*
X159458753Y-82700174D01*
X159744083Y-82784152D01*
X159802837Y-82795360D01*
X159861441Y-82807390D01*
X159870613Y-82808289D01*
X160166820Y-82835246D01*
X160226638Y-82834828D01*
X160286455Y-82835246D01*
X160295626Y-82834347D01*
X160591430Y-82803257D01*
X160650017Y-82791230D01*
X160708787Y-82780020D01*
X160717609Y-82777356D01*
X161001740Y-82689403D01*
X161056883Y-82666223D01*
X161112348Y-82643814D01*
X161120485Y-82639487D01*
X161382121Y-82498021D01*
X161431705Y-82464576D01*
X161481768Y-82431816D01*
X161488909Y-82425992D01*
X161718085Y-82236401D01*
X161760224Y-82193966D01*
X161802974Y-82152103D01*
X161808848Y-82145002D01*
X161996834Y-81914509D01*
X162029938Y-81864682D01*
X162063733Y-81815327D01*
X162068116Y-81807221D01*
X162207753Y-81544603D01*
X162230560Y-81489269D01*
X162254114Y-81434314D01*
X162256838Y-81425515D01*
X162256840Y-81425509D01*
X162290001Y-81315674D01*
X162290000Y-93390000D01*
X154612265Y-93390000D01*
X154610000Y-92126251D01*
X154451250Y-91967501D01*
X154327000Y-91967501D01*
X154327000Y-91713501D01*
X154451250Y-91713501D01*
X154610000Y-91554751D01*
X154613072Y-89840501D01*
X154600812Y-89716019D01*
X154564502Y-89596321D01*
X154505537Y-89486007D01*
X154426185Y-89389316D01*
X154329494Y-89309964D01*
X154219180Y-89250999D01*
X154099482Y-89214689D01*
X153975000Y-89202429D01*
X153010750Y-89205501D01*
X152852000Y-89364251D01*
X152852000Y-89473000D01*
X152598000Y-89473000D01*
X152598000Y-89364251D01*
X152439250Y-89205501D01*
X151475000Y-89202429D01*
X151350518Y-89214689D01*
X151230820Y-89250999D01*
X151120506Y-89309964D01*
X151023815Y-89389316D01*
X150955138Y-89473000D01*
X150694862Y-89473000D01*
X150626185Y-89389316D01*
X150529494Y-89309964D01*
X150419180Y-89250999D01*
X150299482Y-89214689D01*
X150175000Y-89202429D01*
X147675000Y-89202429D01*
X147550518Y-89214689D01*
X147441931Y-89247629D01*
X146740512Y-88546210D01*
X149547621Y-88546210D01*
X149584943Y-88549886D01*
X149622265Y-88546210D01*
X149622276Y-88546210D01*
X149733929Y-88535213D01*
X149877190Y-88491756D01*
X150009219Y-88421184D01*
X150124944Y-88326211D01*
X150148746Y-88297208D01*
X150866612Y-87579342D01*
X150895611Y-87555544D01*
X150990584Y-87439819D01*
X151061156Y-87307790D01*
X151104613Y-87164529D01*
X151115610Y-87052876D01*
X151115610Y-87052868D01*
X151119286Y-87015543D01*
X151115610Y-86978218D01*
X151115610Y-85607000D01*
X151224400Y-85607000D01*
X151224400Y-86597600D01*
X151280412Y-86912299D01*
X151396742Y-87210023D01*
X151568920Y-87479332D01*
X151790329Y-87709876D01*
X152052461Y-87892795D01*
X152345242Y-88021060D01*
X152471041Y-88051411D01*
X152723000Y-87931942D01*
X152723000Y-85607000D01*
X152977000Y-85607000D01*
X152977000Y-87931942D01*
X153228959Y-88051411D01*
X153354758Y-88021060D01*
X153647539Y-87892795D01*
X153909671Y-87709876D01*
X154131080Y-87479332D01*
X154303258Y-87210023D01*
X154419588Y-86912299D01*
X154475600Y-86597600D01*
X154475600Y-85607000D01*
X152977000Y-85607000D01*
X152723000Y-85607000D01*
X151224400Y-85607000D01*
X151115610Y-85607000D01*
X151115610Y-83981780D01*
X151119286Y-83944457D01*
X151115610Y-83907134D01*
X151115610Y-83907124D01*
X151104613Y-83795471D01*
X151061156Y-83652210D01*
X150990584Y-83520180D01*
X150946291Y-83466210D01*
X151452621Y-83466210D01*
X151489943Y-83469886D01*
X151527265Y-83466210D01*
X151527276Y-83466210D01*
X151588606Y-83460169D01*
X151568920Y-83480668D01*
X151396742Y-83749977D01*
X151280412Y-84047701D01*
X151224400Y-84362400D01*
X151224400Y-85353000D01*
X152723000Y-85353000D01*
X152723000Y-83028058D01*
X152977000Y-83028058D01*
X152977000Y-85353000D01*
X154475600Y-85353000D01*
X154475600Y-84362400D01*
X154419588Y-84047701D01*
X154303258Y-83749977D01*
X154131080Y-83480668D01*
X153909671Y-83250124D01*
X153647539Y-83067205D01*
X153354758Y-82938940D01*
X153228959Y-82908589D01*
X152977000Y-83028058D01*
X152723000Y-83028058D01*
X152471041Y-82908589D01*
X152345242Y-82938940D01*
X152321701Y-82949253D01*
X152771612Y-82499342D01*
X152800611Y-82475544D01*
X152895584Y-82359819D01*
X152966156Y-82227790D01*
X153009613Y-82084529D01*
X153020610Y-81972876D01*
X153020610Y-81972868D01*
X153024286Y-81935543D01*
X153020610Y-81898218D01*
X153020610Y-78901779D01*
X153024286Y-78864457D01*
X153020610Y-78827134D01*
X153020610Y-78827124D01*
X153009613Y-78715471D01*
X152966156Y-78572210D01*
X152931674Y-78507700D01*
X152895584Y-78440180D01*
X152824409Y-78353454D01*
X152800611Y-78324456D01*
X152771614Y-78300659D01*
X148259957Y-73789003D01*
X148236154Y-73759999D01*
X148120429Y-73665026D01*
X147988400Y-73594454D01*
X147845139Y-73550997D01*
X147733486Y-73540000D01*
X147733475Y-73540000D01*
X147696153Y-73536324D01*
X147658831Y-73540000D01*
X126437322Y-73540000D01*
X126399999Y-73536324D01*
X126362676Y-73540000D01*
X126362667Y-73540000D01*
X126251014Y-73550997D01*
X126107753Y-73594454D01*
X125975724Y-73665026D01*
X125859999Y-73759999D01*
X125836201Y-73788997D01*
X122448388Y-77176811D01*
X122419390Y-77200609D01*
X122395592Y-77229607D01*
X122395591Y-77229608D01*
X122324416Y-77316334D01*
X122253844Y-77448364D01*
X122210388Y-77591625D01*
X122195714Y-77740610D01*
X122199391Y-77777942D01*
X122199390Y-81898220D01*
X122195714Y-81935543D01*
X122199390Y-81972865D01*
X122199390Y-81972875D01*
X122210387Y-82084528D01*
X122240494Y-82183779D01*
X122253844Y-82227789D01*
X122324416Y-82359819D01*
X122357506Y-82400139D01*
X122419389Y-82475544D01*
X122448392Y-82499346D01*
X122900678Y-82951633D01*
X122688673Y-82887322D01*
X122370000Y-82855935D01*
X122051328Y-82887322D01*
X121891275Y-82935873D01*
X121618194Y-82662793D01*
X121594391Y-82633789D01*
X121553504Y-82600234D01*
X121620034Y-82545634D01*
X121823177Y-82298105D01*
X121974125Y-82015700D01*
X122067078Y-81709273D01*
X122090600Y-81470454D01*
X122090600Y-79329546D01*
X122067078Y-79090727D01*
X121974125Y-78784300D01*
X121823177Y-78501895D01*
X121620034Y-78254366D01*
X121372505Y-78051223D01*
X121090100Y-77900275D01*
X120783673Y-77807322D01*
X120465000Y-77775935D01*
X120146328Y-77807322D01*
X119839901Y-77900275D01*
X119557496Y-78051223D01*
X119309967Y-78254366D01*
X119106824Y-78501895D01*
X118955876Y-78784300D01*
X118862923Y-79090727D01*
X118839401Y-79329546D01*
X118839400Y-81470453D01*
X118862922Y-81709272D01*
X118955875Y-82015699D01*
X119106823Y-82298104D01*
X119201764Y-82413790D01*
X117918236Y-82413790D01*
X118013177Y-82298105D01*
X118164125Y-82015700D01*
X118257078Y-81709273D01*
X118280600Y-81470454D01*
X118280600Y-79329546D01*
X118257078Y-79090727D01*
X118164125Y-78784300D01*
X118013177Y-78501895D01*
X117810034Y-78254366D01*
X117562505Y-78051223D01*
X117280100Y-77900275D01*
X116973673Y-77807322D01*
X116655000Y-77775935D01*
X116336328Y-77807322D01*
X116029901Y-77900275D01*
X115747496Y-78051223D01*
X115499967Y-78254366D01*
X115296824Y-78501895D01*
X115145876Y-78784300D01*
X115052923Y-79090727D01*
X115029401Y-79329546D01*
X115029400Y-81470453D01*
X115052922Y-81709272D01*
X115145875Y-82015699D01*
X115296823Y-82298104D01*
X115391764Y-82413790D01*
X114242382Y-82413790D01*
X114205057Y-82410114D01*
X114167732Y-82413790D01*
X114167724Y-82413790D01*
X114056071Y-82424787D01*
X113912810Y-82468244D01*
X113780781Y-82538816D01*
X113665056Y-82633789D01*
X113641258Y-82662788D01*
X112923388Y-83380658D01*
X112894390Y-83404456D01*
X112870592Y-83433454D01*
X112870591Y-83433455D01*
X112799416Y-83520181D01*
X112728844Y-83652211D01*
X112685388Y-83795472D01*
X112670714Y-83944457D01*
X112674391Y-83981789D01*
X112674390Y-88262568D01*
X112670714Y-88299891D01*
X112674390Y-88337213D01*
X112674390Y-88337223D01*
X112685387Y-88448876D01*
X112716028Y-88549886D01*
X112728844Y-88592137D01*
X112799416Y-88724167D01*
X112831942Y-88763799D01*
X112894389Y-88839892D01*
X112923393Y-88863695D01*
X113292106Y-89232408D01*
X113230820Y-89250999D01*
X113120506Y-89309964D01*
X113023815Y-89389316D01*
X112944463Y-89486007D01*
X112885498Y-89596321D01*
X112849188Y-89716019D01*
X112836928Y-89840501D01*
X112836928Y-93390000D01*
X105310000Y-93390000D01*
X105310000Y-81314810D01*
X105354130Y-81453928D01*
X105377691Y-81508899D01*
X105400491Y-81564217D01*
X105404874Y-81572323D01*
X105548163Y-81832965D01*
X105581947Y-81882305D01*
X105615062Y-81932147D01*
X105620936Y-81939247D01*
X105812122Y-82167094D01*
X105854853Y-82208939D01*
X105897013Y-82251395D01*
X105904155Y-82257219D01*
X106135956Y-82443591D01*
X106185968Y-82476318D01*
X106235600Y-82509795D01*
X106243737Y-82514121D01*
X106507323Y-82651921D01*
X106562783Y-82674328D01*
X106617931Y-82697511D01*
X106626753Y-82700174D01*
X106912083Y-82784152D01*
X106970837Y-82795360D01*
X107029441Y-82807390D01*
X107038613Y-82808289D01*
X107334820Y-82835246D01*
X107394638Y-82834828D01*
X107454455Y-82835246D01*
X107463626Y-82834347D01*
X107759430Y-82803257D01*
X107818017Y-82791230D01*
X107876787Y-82780020D01*
X107885609Y-82777356D01*
X108169740Y-82689403D01*
X108224883Y-82666223D01*
X108280348Y-82643814D01*
X108288485Y-82639487D01*
X108550121Y-82498021D01*
X108599705Y-82464576D01*
X108649768Y-82431816D01*
X108656909Y-82425992D01*
X108886085Y-82236401D01*
X108928224Y-82193966D01*
X108970974Y-82152103D01*
X108976848Y-82145002D01*
X109164834Y-81914509D01*
X109197938Y-81864682D01*
X109231733Y-81815327D01*
X109236116Y-81807221D01*
X109375753Y-81544603D01*
X109398560Y-81489269D01*
X109422114Y-81434314D01*
X109424838Y-81425515D01*
X109424840Y-81425509D01*
X109510806Y-81140773D01*
X109522422Y-81082108D01*
X109534862Y-81023584D01*
X109535825Y-81014419D01*
X109564850Y-80718406D01*
X109564850Y-80589596D01*
X109544200Y-80485305D01*
X109544200Y-77264047D01*
X109554522Y-77230699D01*
X109563068Y-77149377D01*
X109564701Y-77141129D01*
X109564701Y-77133835D01*
X109567984Y-77102594D01*
X109567984Y-77093379D01*
X109567835Y-77072100D01*
X109564702Y-77042298D01*
X109564702Y-77012319D01*
X109563738Y-77003154D01*
X109530584Y-76707575D01*
X109518151Y-76649081D01*
X109506528Y-76590381D01*
X109503803Y-76581578D01*
X109413868Y-76298068D01*
X109390290Y-76243058D01*
X109367508Y-76187783D01*
X109363125Y-76179677D01*
X109219836Y-75919034D01*
X109186048Y-75869687D01*
X109152936Y-75819850D01*
X109147062Y-75812749D01*
X108955876Y-75584904D01*
X108913146Y-75543060D01*
X108870987Y-75500605D01*
X108863846Y-75494781D01*
X108632045Y-75308408D01*
X108582031Y-75275680D01*
X108532398Y-75242202D01*
X108524261Y-75237876D01*
X108260675Y-75100077D01*
X108205219Y-75077672D01*
X108150068Y-75054488D01*
X108141246Y-75051825D01*
X107855915Y-74967847D01*
X107797175Y-74956642D01*
X107738558Y-74944609D01*
X107729386Y-74943710D01*
X107433178Y-74916753D01*
X107373361Y-74917171D01*
X107313544Y-74916753D01*
X107304372Y-74917653D01*
X107008569Y-74948742D01*
X106949972Y-74960771D01*
X106891210Y-74971980D01*
X106882388Y-74974644D01*
X106598257Y-75062598D01*
X106543139Y-75085768D01*
X106487650Y-75108186D01*
X106479514Y-75112513D01*
X106217878Y-75253979D01*
X106168311Y-75287412D01*
X106118232Y-75320183D01*
X106111091Y-75326008D01*
X105881915Y-75515597D01*
X105839774Y-75558034D01*
X105797024Y-75599897D01*
X105791150Y-75606998D01*
X105603164Y-75837492D01*
X105570049Y-75887334D01*
X105536265Y-75936674D01*
X105531882Y-75944781D01*
X105392246Y-76207399D01*
X105369458Y-76262687D01*
X105345886Y-76317683D01*
X105343162Y-76326487D01*
X105310000Y-76436323D01*
X105310000Y-70010000D01*
X162290001Y-70010000D01*
X162290001Y-76437191D01*
X162290001Y-76437191D01*
G37*
X162290001Y-76437191D02*
X162245868Y-76298068D01*
X162222290Y-76243058D01*
X162199508Y-76187783D01*
X162195125Y-76179677D01*
X162051836Y-75919034D01*
X162018048Y-75869687D01*
X161984936Y-75819850D01*
X161979062Y-75812749D01*
X161787876Y-75584904D01*
X161745146Y-75543060D01*
X161702987Y-75500605D01*
X161695846Y-75494781D01*
X161464045Y-75308408D01*
X161414031Y-75275680D01*
X161364398Y-75242202D01*
X161356261Y-75237876D01*
X161092675Y-75100077D01*
X161037219Y-75077672D01*
X160982068Y-75054488D01*
X160973246Y-75051825D01*
X160687915Y-74967847D01*
X160629175Y-74956642D01*
X160570558Y-74944609D01*
X160561386Y-74943710D01*
X160265178Y-74916753D01*
X160205361Y-74917171D01*
X160145544Y-74916753D01*
X160136372Y-74917653D01*
X159840569Y-74948742D01*
X159781972Y-74960771D01*
X159723210Y-74971980D01*
X159714388Y-74974644D01*
X159430257Y-75062598D01*
X159375139Y-75085768D01*
X159319650Y-75108186D01*
X159311514Y-75112513D01*
X159049878Y-75253979D01*
X159000311Y-75287412D01*
X158950232Y-75320183D01*
X158943091Y-75326008D01*
X158713915Y-75515597D01*
X158671774Y-75558034D01*
X158629024Y-75599897D01*
X158623150Y-75606998D01*
X158435164Y-75837492D01*
X158402049Y-75887334D01*
X158368265Y-75936674D01*
X158363882Y-75944781D01*
X158224246Y-76207399D01*
X158201458Y-76262687D01*
X158177886Y-76317683D01*
X158175162Y-76326487D01*
X158089193Y-76611225D01*
X158077570Y-76669925D01*
X158065137Y-76728419D01*
X158064174Y-76737584D01*
X158035150Y-77033596D01*
X158035150Y-77162406D01*
X158055801Y-77266697D01*
X158055800Y-80487952D01*
X158045478Y-80521300D01*
X158036932Y-80602622D01*
X158035299Y-80610870D01*
X158035299Y-80618164D01*
X158032016Y-80649404D01*
X158032016Y-80658620D01*
X158032165Y-80679898D01*
X158035298Y-80709700D01*
X158035298Y-80739680D01*
X158036262Y-80748844D01*
X158069416Y-81044424D01*
X158081853Y-81102936D01*
X158093471Y-81161614D01*
X158096196Y-81170413D01*
X158096197Y-81170419D01*
X158096199Y-81170425D01*
X158186130Y-81453928D01*
X158209691Y-81508899D01*
X158232491Y-81564217D01*
X158236874Y-81572323D01*
X158380163Y-81832965D01*
X158413947Y-81882305D01*
X158447062Y-81932147D01*
X158452936Y-81939247D01*
X158644122Y-82167094D01*
X158686853Y-82208939D01*
X158729013Y-82251395D01*
X158736155Y-82257219D01*
X158967956Y-82443591D01*
X159017968Y-82476318D01*
X159067600Y-82509795D01*
X159075737Y-82514121D01*
X159339323Y-82651921D01*
X159394783Y-82674328D01*
X159449931Y-82697511D01*
X159458753Y-82700174D01*
X159744083Y-82784152D01*
X159802837Y-82795360D01*
X159861441Y-82807390D01*
X159870613Y-82808289D01*
X160166820Y-82835246D01*
X160226638Y-82834828D01*
X160286455Y-82835246D01*
X160295626Y-82834347D01*
X160591430Y-82803257D01*
X160650017Y-82791230D01*
X160708787Y-82780020D01*
X160717609Y-82777356D01*
X161001740Y-82689403D01*
X161056883Y-82666223D01*
X161112348Y-82643814D01*
X161120485Y-82639487D01*
X161382121Y-82498021D01*
X161431705Y-82464576D01*
X161481768Y-82431816D01*
X161488909Y-82425992D01*
X161718085Y-82236401D01*
X161760224Y-82193966D01*
X161802974Y-82152103D01*
X161808848Y-82145002D01*
X161996834Y-81914509D01*
X162029938Y-81864682D01*
X162063733Y-81815327D01*
X162068116Y-81807221D01*
X162207753Y-81544603D01*
X162230560Y-81489269D01*
X162254114Y-81434314D01*
X162256838Y-81425515D01*
X162256840Y-81425509D01*
X162290001Y-81315674D01*
X162290000Y-93390000D01*
X154612265Y-93390000D01*
X154610000Y-92126251D01*
X154451250Y-91967501D01*
X154327000Y-91967501D01*
X154327000Y-91713501D01*
X154451250Y-91713501D01*
X154610000Y-91554751D01*
X154613072Y-89840501D01*
X154600812Y-89716019D01*
X154564502Y-89596321D01*
X154505537Y-89486007D01*
X154426185Y-89389316D01*
X154329494Y-89309964D01*
X154219180Y-89250999D01*
X154099482Y-89214689D01*
X153975000Y-89202429D01*
X153010750Y-89205501D01*
X152852000Y-89364251D01*
X152852000Y-89473000D01*
X152598000Y-89473000D01*
X152598000Y-89364251D01*
X152439250Y-89205501D01*
X151475000Y-89202429D01*
X151350518Y-89214689D01*
X151230820Y-89250999D01*
X151120506Y-89309964D01*
X151023815Y-89389316D01*
X150955138Y-89473000D01*
X150694862Y-89473000D01*
X150626185Y-89389316D01*
X150529494Y-89309964D01*
X150419180Y-89250999D01*
X150299482Y-89214689D01*
X150175000Y-89202429D01*
X147675000Y-89202429D01*
X147550518Y-89214689D01*
X147441931Y-89247629D01*
X146740512Y-88546210D01*
X149547621Y-88546210D01*
X149584943Y-88549886D01*
X149622265Y-88546210D01*
X149622276Y-88546210D01*
X149733929Y-88535213D01*
X149877190Y-88491756D01*
X150009219Y-88421184D01*
X150124944Y-88326211D01*
X150148746Y-88297208D01*
X150866612Y-87579342D01*
X150895611Y-87555544D01*
X150990584Y-87439819D01*
X151061156Y-87307790D01*
X151104613Y-87164529D01*
X151115610Y-87052876D01*
X151115610Y-87052868D01*
X151119286Y-87015543D01*
X151115610Y-86978218D01*
X151115610Y-85607000D01*
X151224400Y-85607000D01*
X151224400Y-86597600D01*
X151280412Y-86912299D01*
X151396742Y-87210023D01*
X151568920Y-87479332D01*
X151790329Y-87709876D01*
X152052461Y-87892795D01*
X152345242Y-88021060D01*
X152471041Y-88051411D01*
X152723000Y-87931942D01*
X152723000Y-85607000D01*
X152977000Y-85607000D01*
X152977000Y-87931942D01*
X153228959Y-88051411D01*
X153354758Y-88021060D01*
X153647539Y-87892795D01*
X153909671Y-87709876D01*
X154131080Y-87479332D01*
X154303258Y-87210023D01*
X154419588Y-86912299D01*
X154475600Y-86597600D01*
X154475600Y-85607000D01*
X152977000Y-85607000D01*
X152723000Y-85607000D01*
X151224400Y-85607000D01*
X151115610Y-85607000D01*
X151115610Y-83981780D01*
X151119286Y-83944457D01*
X151115610Y-83907134D01*
X151115610Y-83907124D01*
X151104613Y-83795471D01*
X151061156Y-83652210D01*
X150990584Y-83520180D01*
X150946291Y-83466210D01*
X151452621Y-83466210D01*
X151489943Y-83469886D01*
X151527265Y-83466210D01*
X151527276Y-83466210D01*
X151588606Y-83460169D01*
X151568920Y-83480668D01*
X151396742Y-83749977D01*
X151280412Y-84047701D01*
X151224400Y-84362400D01*
X151224400Y-85353000D01*
X152723000Y-85353000D01*
X152723000Y-83028058D01*
X152977000Y-83028058D01*
X152977000Y-85353000D01*
X154475600Y-85353000D01*
X154475600Y-84362400D01*
X154419588Y-84047701D01*
X154303258Y-83749977D01*
X154131080Y-83480668D01*
X153909671Y-83250124D01*
X153647539Y-83067205D01*
X153354758Y-82938940D01*
X153228959Y-82908589D01*
X152977000Y-83028058D01*
X152723000Y-83028058D01*
X152471041Y-82908589D01*
X152345242Y-82938940D01*
X152321701Y-82949253D01*
X152771612Y-82499342D01*
X152800611Y-82475544D01*
X152895584Y-82359819D01*
X152966156Y-82227790D01*
X153009613Y-82084529D01*
X153020610Y-81972876D01*
X153020610Y-81972868D01*
X153024286Y-81935543D01*
X153020610Y-81898218D01*
X153020610Y-78901779D01*
X153024286Y-78864457D01*
X153020610Y-78827134D01*
X153020610Y-78827124D01*
X153009613Y-78715471D01*
X152966156Y-78572210D01*
X152931674Y-78507700D01*
X152895584Y-78440180D01*
X152824409Y-78353454D01*
X152800611Y-78324456D01*
X152771614Y-78300659D01*
X148259957Y-73789003D01*
X148236154Y-73759999D01*
X148120429Y-73665026D01*
X147988400Y-73594454D01*
X147845139Y-73550997D01*
X147733486Y-73540000D01*
X147733475Y-73540000D01*
X147696153Y-73536324D01*
X147658831Y-73540000D01*
X126437322Y-73540000D01*
X126399999Y-73536324D01*
X126362676Y-73540000D01*
X126362667Y-73540000D01*
X126251014Y-73550997D01*
X126107753Y-73594454D01*
X125975724Y-73665026D01*
X125859999Y-73759999D01*
X125836201Y-73788997D01*
X122448388Y-77176811D01*
X122419390Y-77200609D01*
X122395592Y-77229607D01*
X122395591Y-77229608D01*
X122324416Y-77316334D01*
X122253844Y-77448364D01*
X122210388Y-77591625D01*
X122195714Y-77740610D01*
X122199391Y-77777942D01*
X122199390Y-81898220D01*
X122195714Y-81935543D01*
X122199390Y-81972865D01*
X122199390Y-81972875D01*
X122210387Y-82084528D01*
X122240494Y-82183779D01*
X122253844Y-82227789D01*
X122324416Y-82359819D01*
X122357506Y-82400139D01*
X122419389Y-82475544D01*
X122448392Y-82499346D01*
X122900678Y-82951633D01*
X122688673Y-82887322D01*
X122370000Y-82855935D01*
X122051328Y-82887322D01*
X121891275Y-82935873D01*
X121618194Y-82662793D01*
X121594391Y-82633789D01*
X121553504Y-82600234D01*
X121620034Y-82545634D01*
X121823177Y-82298105D01*
X121974125Y-82015700D01*
X122067078Y-81709273D01*
X122090600Y-81470454D01*
X122090600Y-79329546D01*
X122067078Y-79090727D01*
X121974125Y-78784300D01*
X121823177Y-78501895D01*
X121620034Y-78254366D01*
X121372505Y-78051223D01*
X121090100Y-77900275D01*
X120783673Y-77807322D01*
X120465000Y-77775935D01*
X120146328Y-77807322D01*
X119839901Y-77900275D01*
X119557496Y-78051223D01*
X119309967Y-78254366D01*
X119106824Y-78501895D01*
X118955876Y-78784300D01*
X118862923Y-79090727D01*
X118839401Y-79329546D01*
X118839400Y-81470453D01*
X118862922Y-81709272D01*
X118955875Y-82015699D01*
X119106823Y-82298104D01*
X119201764Y-82413790D01*
X117918236Y-82413790D01*
X118013177Y-82298105D01*
X118164125Y-82015700D01*
X118257078Y-81709273D01*
X118280600Y-81470454D01*
X118280600Y-79329546D01*
X118257078Y-79090727D01*
X118164125Y-78784300D01*
X118013177Y-78501895D01*
X117810034Y-78254366D01*
X117562505Y-78051223D01*
X117280100Y-77900275D01*
X116973673Y-77807322D01*
X116655000Y-77775935D01*
X116336328Y-77807322D01*
X116029901Y-77900275D01*
X115747496Y-78051223D01*
X115499967Y-78254366D01*
X115296824Y-78501895D01*
X115145876Y-78784300D01*
X115052923Y-79090727D01*
X115029401Y-79329546D01*
X115029400Y-81470453D01*
X115052922Y-81709272D01*
X115145875Y-82015699D01*
X115296823Y-82298104D01*
X115391764Y-82413790D01*
X114242382Y-82413790D01*
X114205057Y-82410114D01*
X114167732Y-82413790D01*
X114167724Y-82413790D01*
X114056071Y-82424787D01*
X113912810Y-82468244D01*
X113780781Y-82538816D01*
X113665056Y-82633789D01*
X113641258Y-82662788D01*
X112923388Y-83380658D01*
X112894390Y-83404456D01*
X112870592Y-83433454D01*
X112870591Y-83433455D01*
X112799416Y-83520181D01*
X112728844Y-83652211D01*
X112685388Y-83795472D01*
X112670714Y-83944457D01*
X112674391Y-83981789D01*
X112674390Y-88262568D01*
X112670714Y-88299891D01*
X112674390Y-88337213D01*
X112674390Y-88337223D01*
X112685387Y-88448876D01*
X112716028Y-88549886D01*
X112728844Y-88592137D01*
X112799416Y-88724167D01*
X112831942Y-88763799D01*
X112894389Y-88839892D01*
X112923393Y-88863695D01*
X113292106Y-89232408D01*
X113230820Y-89250999D01*
X113120506Y-89309964D01*
X113023815Y-89389316D01*
X112944463Y-89486007D01*
X112885498Y-89596321D01*
X112849188Y-89716019D01*
X112836928Y-89840501D01*
X112836928Y-93390000D01*
X105310000Y-93390000D01*
X105310000Y-81314810D01*
X105354130Y-81453928D01*
X105377691Y-81508899D01*
X105400491Y-81564217D01*
X105404874Y-81572323D01*
X105548163Y-81832965D01*
X105581947Y-81882305D01*
X105615062Y-81932147D01*
X105620936Y-81939247D01*
X105812122Y-82167094D01*
X105854853Y-82208939D01*
X105897013Y-82251395D01*
X105904155Y-82257219D01*
X106135956Y-82443591D01*
X106185968Y-82476318D01*
X106235600Y-82509795D01*
X106243737Y-82514121D01*
X106507323Y-82651921D01*
X106562783Y-82674328D01*
X106617931Y-82697511D01*
X106626753Y-82700174D01*
X106912083Y-82784152D01*
X106970837Y-82795360D01*
X107029441Y-82807390D01*
X107038613Y-82808289D01*
X107334820Y-82835246D01*
X107394638Y-82834828D01*
X107454455Y-82835246D01*
X107463626Y-82834347D01*
X107759430Y-82803257D01*
X107818017Y-82791230D01*
X107876787Y-82780020D01*
X107885609Y-82777356D01*
X108169740Y-82689403D01*
X108224883Y-82666223D01*
X108280348Y-82643814D01*
X108288485Y-82639487D01*
X108550121Y-82498021D01*
X108599705Y-82464576D01*
X108649768Y-82431816D01*
X108656909Y-82425992D01*
X108886085Y-82236401D01*
X108928224Y-82193966D01*
X108970974Y-82152103D01*
X108976848Y-82145002D01*
X109164834Y-81914509D01*
X109197938Y-81864682D01*
X109231733Y-81815327D01*
X109236116Y-81807221D01*
X109375753Y-81544603D01*
X109398560Y-81489269D01*
X109422114Y-81434314D01*
X109424838Y-81425515D01*
X109424840Y-81425509D01*
X109510806Y-81140773D01*
X109522422Y-81082108D01*
X109534862Y-81023584D01*
X109535825Y-81014419D01*
X109564850Y-80718406D01*
X109564850Y-80589596D01*
X109544200Y-80485305D01*
X109544200Y-77264047D01*
X109554522Y-77230699D01*
X109563068Y-77149377D01*
X109564701Y-77141129D01*
X109564701Y-77133835D01*
X109567984Y-77102594D01*
X109567984Y-77093379D01*
X109567835Y-77072100D01*
X109564702Y-77042298D01*
X109564702Y-77012319D01*
X109563738Y-77003154D01*
X109530584Y-76707575D01*
X109518151Y-76649081D01*
X109506528Y-76590381D01*
X109503803Y-76581578D01*
X109413868Y-76298068D01*
X109390290Y-76243058D01*
X109367508Y-76187783D01*
X109363125Y-76179677D01*
X109219836Y-75919034D01*
X109186048Y-75869687D01*
X109152936Y-75819850D01*
X109147062Y-75812749D01*
X108955876Y-75584904D01*
X108913146Y-75543060D01*
X108870987Y-75500605D01*
X108863846Y-75494781D01*
X108632045Y-75308408D01*
X108582031Y-75275680D01*
X108532398Y-75242202D01*
X108524261Y-75237876D01*
X108260675Y-75100077D01*
X108205219Y-75077672D01*
X108150068Y-75054488D01*
X108141246Y-75051825D01*
X107855915Y-74967847D01*
X107797175Y-74956642D01*
X107738558Y-74944609D01*
X107729386Y-74943710D01*
X107433178Y-74916753D01*
X107373361Y-74917171D01*
X107313544Y-74916753D01*
X107304372Y-74917653D01*
X107008569Y-74948742D01*
X106949972Y-74960771D01*
X106891210Y-74971980D01*
X106882388Y-74974644D01*
X106598257Y-75062598D01*
X106543139Y-75085768D01*
X106487650Y-75108186D01*
X106479514Y-75112513D01*
X106217878Y-75253979D01*
X106168311Y-75287412D01*
X106118232Y-75320183D01*
X106111091Y-75326008D01*
X105881915Y-75515597D01*
X105839774Y-75558034D01*
X105797024Y-75599897D01*
X105791150Y-75606998D01*
X105603164Y-75837492D01*
X105570049Y-75887334D01*
X105536265Y-75936674D01*
X105531882Y-75944781D01*
X105392246Y-76207399D01*
X105369458Y-76262687D01*
X105345886Y-76317683D01*
X105343162Y-76326487D01*
X105310000Y-76436323D01*
X105310000Y-70010000D01*
X162290001Y-70010000D01*
X162290001Y-76437191D01*
G36*
X124260667Y-88792246D02*
G01*
X124324389Y-88869892D01*
X124353393Y-88893695D01*
X124692106Y-89232408D01*
X124630820Y-89250999D01*
X124520506Y-89309964D01*
X124423815Y-89389316D01*
X124355138Y-89473000D01*
X124094862Y-89473000D01*
X124026185Y-89389316D01*
X123929494Y-89309964D01*
X123819180Y-89250999D01*
X123757894Y-89232408D01*
X124196614Y-88793689D01*
X124225611Y-88769892D01*
X124233966Y-88759711D01*
X124260667Y-88792246D01*
X124260667Y-88792246D01*
G37*
X124260667Y-88792246D02*
X124324389Y-88869892D01*
X124353393Y-88893695D01*
X124692106Y-89232408D01*
X124630820Y-89250999D01*
X124520506Y-89309964D01*
X124423815Y-89389316D01*
X124355138Y-89473000D01*
X124094862Y-89473000D01*
X124026185Y-89389316D01*
X123929494Y-89309964D01*
X123819180Y-89250999D01*
X123757894Y-89232408D01*
X124196614Y-88793689D01*
X124225611Y-88769892D01*
X124233966Y-88759711D01*
X124260667Y-88792246D01*
G36*
X116957923Y-84170727D02*
G01*
X116934401Y-84409546D01*
X116934400Y-86550453D01*
X116957922Y-86789272D01*
X117050875Y-87095699D01*
X117201823Y-87378104D01*
X117404966Y-87625634D01*
X117652495Y-87828777D01*
X117934900Y-87979725D01*
X118241327Y-88072678D01*
X118560000Y-88104065D01*
X118878672Y-88072678D01*
X119185099Y-87979725D01*
X119467504Y-87828777D01*
X119715034Y-87625634D01*
X119918177Y-87378105D01*
X120069125Y-87095700D01*
X120162078Y-86789273D01*
X120185600Y-86550454D01*
X120185600Y-84409546D01*
X120162078Y-84170727D01*
X120090204Y-83933790D01*
X120739589Y-83933790D01*
X120816474Y-84010675D01*
X120767923Y-84170727D01*
X120744401Y-84409546D01*
X120744400Y-86550453D01*
X120767922Y-86789272D01*
X120860875Y-87095699D01*
X121011823Y-87378104D01*
X121214966Y-87625634D01*
X121462495Y-87828777D01*
X121744900Y-87979725D01*
X122051327Y-88072678D01*
X122370000Y-88104065D01*
X122688672Y-88072678D01*
X122802572Y-88038127D01*
X121813998Y-89026702D01*
X121785000Y-89050500D01*
X121761202Y-89079498D01*
X121761201Y-89079499D01*
X121690026Y-89166225D01*
X121670674Y-89202429D01*
X121075000Y-89202429D01*
X120950518Y-89214689D01*
X120830820Y-89250999D01*
X120720506Y-89309964D01*
X120623815Y-89389316D01*
X120555138Y-89473000D01*
X120294862Y-89473000D01*
X120226185Y-89389316D01*
X120129494Y-89309964D01*
X120019180Y-89250999D01*
X119899482Y-89214689D01*
X119775000Y-89202429D01*
X119214337Y-89202429D01*
X119159974Y-89100724D01*
X119129481Y-89063568D01*
X119088799Y-89013996D01*
X119088795Y-89013992D01*
X119065001Y-88984999D01*
X119036008Y-88961205D01*
X118463803Y-88389002D01*
X118440001Y-88359999D01*
X118324276Y-88265026D01*
X118192247Y-88194454D01*
X118048986Y-88150997D01*
X117937333Y-88140000D01*
X117937322Y-88140000D01*
X117900000Y-88136324D01*
X117862678Y-88140000D01*
X116814802Y-88140000D01*
X116083263Y-87408462D01*
X116108177Y-87378105D01*
X116259125Y-87095700D01*
X116352078Y-86789273D01*
X116375600Y-86550454D01*
X116375600Y-84409546D01*
X116352078Y-84170727D01*
X116280204Y-83933790D01*
X117029797Y-83933790D01*
X116957923Y-84170727D01*
X116957923Y-84170727D01*
G37*
X116957923Y-84170727D02*
X116934401Y-84409546D01*
X116934400Y-86550453D01*
X116957922Y-86789272D01*
X117050875Y-87095699D01*
X117201823Y-87378104D01*
X117404966Y-87625634D01*
X117652495Y-87828777D01*
X117934900Y-87979725D01*
X118241327Y-88072678D01*
X118560000Y-88104065D01*
X118878672Y-88072678D01*
X119185099Y-87979725D01*
X119467504Y-87828777D01*
X119715034Y-87625634D01*
X119918177Y-87378105D01*
X120069125Y-87095700D01*
X120162078Y-86789273D01*
X120185600Y-86550454D01*
X120185600Y-84409546D01*
X120162078Y-84170727D01*
X120090204Y-83933790D01*
X120739589Y-83933790D01*
X120816474Y-84010675D01*
X120767923Y-84170727D01*
X120744401Y-84409546D01*
X120744400Y-86550453D01*
X120767922Y-86789272D01*
X120860875Y-87095699D01*
X121011823Y-87378104D01*
X121214966Y-87625634D01*
X121462495Y-87828777D01*
X121744900Y-87979725D01*
X122051327Y-88072678D01*
X122370000Y-88104065D01*
X122688672Y-88072678D01*
X122802572Y-88038127D01*
X121813998Y-89026702D01*
X121785000Y-89050500D01*
X121761202Y-89079498D01*
X121761201Y-89079499D01*
X121690026Y-89166225D01*
X121670674Y-89202429D01*
X121075000Y-89202429D01*
X120950518Y-89214689D01*
X120830820Y-89250999D01*
X120720506Y-89309964D01*
X120623815Y-89389316D01*
X120555138Y-89473000D01*
X120294862Y-89473000D01*
X120226185Y-89389316D01*
X120129494Y-89309964D01*
X120019180Y-89250999D01*
X119899482Y-89214689D01*
X119775000Y-89202429D01*
X119214337Y-89202429D01*
X119159974Y-89100724D01*
X119129481Y-89063568D01*
X119088799Y-89013996D01*
X119088795Y-89013992D01*
X119065001Y-88984999D01*
X119036008Y-88961205D01*
X118463803Y-88389002D01*
X118440001Y-88359999D01*
X118324276Y-88265026D01*
X118192247Y-88194454D01*
X118048986Y-88150997D01*
X117937333Y-88140000D01*
X117937322Y-88140000D01*
X117900000Y-88136324D01*
X117862678Y-88140000D01*
X116814802Y-88140000D01*
X116083263Y-87408462D01*
X116108177Y-87378105D01*
X116259125Y-87095700D01*
X116352078Y-86789273D01*
X116375600Y-86550454D01*
X116375600Y-84409546D01*
X116352078Y-84170727D01*
X116280204Y-83933790D01*
X117029797Y-83933790D01*
X116957923Y-84170727D01*
G36*
X139817923Y-84170727D02*
G01*
X139794401Y-84409546D01*
X139794400Y-86550453D01*
X139817922Y-86789272D01*
X139910875Y-87095699D01*
X140061823Y-87378104D01*
X140264966Y-87625634D01*
X140512495Y-87828777D01*
X140660000Y-87907620D01*
X140660000Y-88421338D01*
X140651647Y-88448877D01*
X140650998Y-88451015D01*
X140636324Y-88600000D01*
X140640001Y-88637332D01*
X140640001Y-89202429D01*
X140075000Y-89202429D01*
X139950518Y-89214689D01*
X139830820Y-89250999D01*
X139720506Y-89309964D01*
X139623815Y-89389316D01*
X139555138Y-89473000D01*
X139294862Y-89473000D01*
X139226185Y-89389316D01*
X139129494Y-89309964D01*
X139019180Y-89250999D01*
X138899482Y-89214689D01*
X138775000Y-89202429D01*
X138285000Y-89202429D01*
X138285000Y-87953052D01*
X138517504Y-87828777D01*
X138765034Y-87625634D01*
X138968177Y-87378105D01*
X139119125Y-87095700D01*
X139212078Y-86789273D01*
X139235600Y-86550454D01*
X139235600Y-84409546D01*
X139212078Y-84170727D01*
X139140204Y-83933790D01*
X139889797Y-83933790D01*
X139817923Y-84170727D01*
X139817923Y-84170727D01*
G37*
X139817923Y-84170727D02*
X139794401Y-84409546D01*
X139794400Y-86550453D01*
X139817922Y-86789272D01*
X139910875Y-87095699D01*
X140061823Y-87378104D01*
X140264966Y-87625634D01*
X140512495Y-87828777D01*
X140660000Y-87907620D01*
X140660000Y-88421338D01*
X140651647Y-88448877D01*
X140650998Y-88451015D01*
X140636324Y-88600000D01*
X140640001Y-88637332D01*
X140640001Y-89202429D01*
X140075000Y-89202429D01*
X139950518Y-89214689D01*
X139830820Y-89250999D01*
X139720506Y-89309964D01*
X139623815Y-89389316D01*
X139555138Y-89473000D01*
X139294862Y-89473000D01*
X139226185Y-89389316D01*
X139129494Y-89309964D01*
X139019180Y-89250999D01*
X138899482Y-89214689D01*
X138775000Y-89202429D01*
X138285000Y-89202429D01*
X138285000Y-87953052D01*
X138517504Y-87828777D01*
X138765034Y-87625634D01*
X138968177Y-87378105D01*
X139119125Y-87095700D01*
X139212078Y-86789273D01*
X139235600Y-86550454D01*
X139235600Y-84409546D01*
X139212078Y-84170727D01*
X139140204Y-83933790D01*
X139889797Y-83933790D01*
X139817923Y-84170727D01*
G36*
X147486474Y-84010675D02*
G01*
X147437923Y-84170727D01*
X147414401Y-84409546D01*
X147414400Y-86550453D01*
X147437922Y-86789272D01*
X147509796Y-87026210D01*
X146860412Y-87026210D01*
X146783527Y-86949325D01*
X146832078Y-86789273D01*
X146855600Y-86550454D01*
X146855600Y-84409546D01*
X146832078Y-84170727D01*
X146760204Y-83933790D01*
X147409589Y-83933790D01*
X147486474Y-84010675D01*
X147486474Y-84010675D01*
G37*
X147486474Y-84010675D02*
X147437923Y-84170727D01*
X147414401Y-84409546D01*
X147414400Y-86550453D01*
X147437922Y-86789272D01*
X147509796Y-87026210D01*
X146860412Y-87026210D01*
X146783527Y-86949325D01*
X146832078Y-86789273D01*
X146855600Y-86550454D01*
X146855600Y-84409546D01*
X146832078Y-84170727D01*
X146760204Y-83933790D01*
X147409589Y-83933790D01*
X147486474Y-84010675D01*
G36*
X149391474Y-78930675D02*
G01*
X149342923Y-79090727D01*
X149319401Y-79329546D01*
X149319400Y-81197035D01*
X148760600Y-80638235D01*
X148760600Y-79329546D01*
X148737078Y-79090727D01*
X148644125Y-78784300D01*
X148493177Y-78501895D01*
X148290034Y-78254366D01*
X148042505Y-78051223D01*
X147760100Y-77900275D01*
X147453673Y-77807322D01*
X147135000Y-77775935D01*
X146816328Y-77807322D01*
X146509901Y-77900275D01*
X146227496Y-78051223D01*
X145979967Y-78254366D01*
X145776824Y-78501895D01*
X145625876Y-78784300D01*
X145532923Y-79090727D01*
X145509401Y-79329546D01*
X145509400Y-81470453D01*
X145532922Y-81709272D01*
X145610126Y-81963780D01*
X144849875Y-81963780D01*
X144927078Y-81709273D01*
X144950600Y-81470454D01*
X144950600Y-79329546D01*
X144927078Y-79090727D01*
X144834125Y-78784300D01*
X144683177Y-78501895D01*
X144480034Y-78254366D01*
X144232505Y-78051223D01*
X143950100Y-77900275D01*
X143643673Y-77807322D01*
X143325000Y-77775935D01*
X143006328Y-77807322D01*
X142699901Y-77900275D01*
X142417496Y-78051223D01*
X142169967Y-78254366D01*
X141966824Y-78501895D01*
X141815876Y-78784300D01*
X141722923Y-79090727D01*
X141699401Y-79329546D01*
X141699400Y-81470453D01*
X141722922Y-81709272D01*
X141800126Y-81963780D01*
X141039875Y-81963780D01*
X141117078Y-81709273D01*
X141140600Y-81470454D01*
X141140600Y-79329546D01*
X141117078Y-79090727D01*
X141024125Y-78784300D01*
X140873177Y-78501895D01*
X140670034Y-78254366D01*
X140422505Y-78051223D01*
X140140100Y-77900275D01*
X139833673Y-77807322D01*
X139515000Y-77775935D01*
X139196328Y-77807322D01*
X138889901Y-77900275D01*
X138607496Y-78051223D01*
X138359967Y-78254366D01*
X138156824Y-78501895D01*
X138005876Y-78784300D01*
X137912923Y-79090727D01*
X137889401Y-79329546D01*
X137889400Y-81470453D01*
X137912922Y-81709272D01*
X137990126Y-81963780D01*
X137229875Y-81963780D01*
X137307078Y-81709273D01*
X137330600Y-81470454D01*
X137330600Y-79329546D01*
X137307078Y-79090727D01*
X137214125Y-78784300D01*
X137063177Y-78501895D01*
X136860034Y-78254366D01*
X136612505Y-78051223D01*
X136330100Y-77900275D01*
X136023673Y-77807322D01*
X135705000Y-77775935D01*
X135386328Y-77807322D01*
X135079901Y-77900275D01*
X134797496Y-78051223D01*
X134549967Y-78254366D01*
X134346824Y-78501895D01*
X134195876Y-78784300D01*
X134102923Y-79090727D01*
X134079401Y-79329546D01*
X134079400Y-81470453D01*
X134102922Y-81709272D01*
X134195875Y-82015699D01*
X134346823Y-82298104D01*
X134549966Y-82545634D01*
X134797495Y-82748777D01*
X135079900Y-82899725D01*
X135386327Y-82992678D01*
X135521631Y-83006004D01*
X135333379Y-83194257D01*
X135304381Y-83218055D01*
X135280583Y-83247053D01*
X135280582Y-83247054D01*
X135209407Y-83333780D01*
X135138835Y-83465810D01*
X135118345Y-83533360D01*
X134955034Y-83334366D01*
X134707505Y-83131223D01*
X134425100Y-82980275D01*
X134118673Y-82887322D01*
X133800000Y-82855935D01*
X133481328Y-82887322D01*
X133174901Y-82980275D01*
X132892496Y-83131223D01*
X132726889Y-83267134D01*
X132699068Y-83127271D01*
X132628586Y-82957111D01*
X132571783Y-82872099D01*
X132802504Y-82748777D01*
X133050034Y-82545634D01*
X133253177Y-82298105D01*
X133404125Y-82015700D01*
X133497078Y-81709273D01*
X133520600Y-81470454D01*
X133520600Y-79329546D01*
X133497078Y-79090727D01*
X133404125Y-78784300D01*
X133253177Y-78501895D01*
X133050034Y-78254366D01*
X132802505Y-78051223D01*
X132520100Y-77900275D01*
X132213673Y-77807322D01*
X131895000Y-77775935D01*
X131576328Y-77807322D01*
X131269901Y-77900275D01*
X130987496Y-78051223D01*
X130739967Y-78254366D01*
X130572716Y-78458161D01*
X130442889Y-78371414D01*
X130272729Y-78300932D01*
X130092089Y-78265000D01*
X129907911Y-78265000D01*
X129727271Y-78300932D01*
X129557111Y-78371414D01*
X129414368Y-78466792D01*
X129240034Y-78254366D01*
X128992505Y-78051223D01*
X128774142Y-77934506D01*
X129748649Y-76960000D01*
X147420799Y-76960000D01*
X149391474Y-78930675D01*
X149391474Y-78930675D01*
G37*
X149391474Y-78930675D02*
X149342923Y-79090727D01*
X149319401Y-79329546D01*
X149319400Y-81197035D01*
X148760600Y-80638235D01*
X148760600Y-79329546D01*
X148737078Y-79090727D01*
X148644125Y-78784300D01*
X148493177Y-78501895D01*
X148290034Y-78254366D01*
X148042505Y-78051223D01*
X147760100Y-77900275D01*
X147453673Y-77807322D01*
X147135000Y-77775935D01*
X146816328Y-77807322D01*
X146509901Y-77900275D01*
X146227496Y-78051223D01*
X145979967Y-78254366D01*
X145776824Y-78501895D01*
X145625876Y-78784300D01*
X145532923Y-79090727D01*
X145509401Y-79329546D01*
X145509400Y-81470453D01*
X145532922Y-81709272D01*
X145610126Y-81963780D01*
X144849875Y-81963780D01*
X144927078Y-81709273D01*
X144950600Y-81470454D01*
X144950600Y-79329546D01*
X144927078Y-79090727D01*
X144834125Y-78784300D01*
X144683177Y-78501895D01*
X144480034Y-78254366D01*
X144232505Y-78051223D01*
X143950100Y-77900275D01*
X143643673Y-77807322D01*
X143325000Y-77775935D01*
X143006328Y-77807322D01*
X142699901Y-77900275D01*
X142417496Y-78051223D01*
X142169967Y-78254366D01*
X141966824Y-78501895D01*
X141815876Y-78784300D01*
X141722923Y-79090727D01*
X141699401Y-79329546D01*
X141699400Y-81470453D01*
X141722922Y-81709272D01*
X141800126Y-81963780D01*
X141039875Y-81963780D01*
X141117078Y-81709273D01*
X141140600Y-81470454D01*
X141140600Y-79329546D01*
X141117078Y-79090727D01*
X141024125Y-78784300D01*
X140873177Y-78501895D01*
X140670034Y-78254366D01*
X140422505Y-78051223D01*
X140140100Y-77900275D01*
X139833673Y-77807322D01*
X139515000Y-77775935D01*
X139196328Y-77807322D01*
X138889901Y-77900275D01*
X138607496Y-78051223D01*
X138359967Y-78254366D01*
X138156824Y-78501895D01*
X138005876Y-78784300D01*
X137912923Y-79090727D01*
X137889401Y-79329546D01*
X137889400Y-81470453D01*
X137912922Y-81709272D01*
X137990126Y-81963780D01*
X137229875Y-81963780D01*
X137307078Y-81709273D01*
X137330600Y-81470454D01*
X137330600Y-79329546D01*
X137307078Y-79090727D01*
X137214125Y-78784300D01*
X137063177Y-78501895D01*
X136860034Y-78254366D01*
X136612505Y-78051223D01*
X136330100Y-77900275D01*
X136023673Y-77807322D01*
X135705000Y-77775935D01*
X135386328Y-77807322D01*
X135079901Y-77900275D01*
X134797496Y-78051223D01*
X134549967Y-78254366D01*
X134346824Y-78501895D01*
X134195876Y-78784300D01*
X134102923Y-79090727D01*
X134079401Y-79329546D01*
X134079400Y-81470453D01*
X134102922Y-81709272D01*
X134195875Y-82015699D01*
X134346823Y-82298104D01*
X134549966Y-82545634D01*
X134797495Y-82748777D01*
X135079900Y-82899725D01*
X135386327Y-82992678D01*
X135521631Y-83006004D01*
X135333379Y-83194257D01*
X135304381Y-83218055D01*
X135280583Y-83247053D01*
X135280582Y-83247054D01*
X135209407Y-83333780D01*
X135138835Y-83465810D01*
X135118345Y-83533360D01*
X134955034Y-83334366D01*
X134707505Y-83131223D01*
X134425100Y-82980275D01*
X134118673Y-82887322D01*
X133800000Y-82855935D01*
X133481328Y-82887322D01*
X133174901Y-82980275D01*
X132892496Y-83131223D01*
X132726889Y-83267134D01*
X132699068Y-83127271D01*
X132628586Y-82957111D01*
X132571783Y-82872099D01*
X132802504Y-82748777D01*
X133050034Y-82545634D01*
X133253177Y-82298105D01*
X133404125Y-82015700D01*
X133497078Y-81709273D01*
X133520600Y-81470454D01*
X133520600Y-79329546D01*
X133497078Y-79090727D01*
X133404125Y-78784300D01*
X133253177Y-78501895D01*
X133050034Y-78254366D01*
X132802505Y-78051223D01*
X132520100Y-77900275D01*
X132213673Y-77807322D01*
X131895000Y-77775935D01*
X131576328Y-77807322D01*
X131269901Y-77900275D01*
X130987496Y-78051223D01*
X130739967Y-78254366D01*
X130572716Y-78458161D01*
X130442889Y-78371414D01*
X130272729Y-78300932D01*
X130092089Y-78265000D01*
X129907911Y-78265000D01*
X129727271Y-78300932D01*
X129557111Y-78371414D01*
X129414368Y-78466792D01*
X129240034Y-78254366D01*
X128992505Y-78051223D01*
X128774142Y-77934506D01*
X129748649Y-76960000D01*
X147420799Y-76960000D01*
X149391474Y-78930675D01*
G36*
X147760088Y-75438736D02*
G01*
X147735600Y-75436324D01*
X147698278Y-75440000D01*
X129471169Y-75440000D01*
X129433846Y-75436324D01*
X129396523Y-75440000D01*
X129396514Y-75440000D01*
X129284861Y-75450997D01*
X129141600Y-75494454D01*
X129009571Y-75565026D01*
X128893846Y-75659999D01*
X128870048Y-75688997D01*
X126258388Y-78300658D01*
X126229390Y-78324456D01*
X126205592Y-78353454D01*
X126205591Y-78353455D01*
X126134416Y-78440181D01*
X126063844Y-78572211D01*
X126020388Y-78715472D01*
X126005714Y-78864457D01*
X126009391Y-78901789D01*
X126009390Y-80441961D01*
X125900600Y-80550751D01*
X125900600Y-79329546D01*
X125877078Y-79090727D01*
X125784125Y-78784300D01*
X125633177Y-78501895D01*
X125430034Y-78254366D01*
X125182505Y-78051223D01*
X124900100Y-77900275D01*
X124593673Y-77807322D01*
X124275000Y-77775935D01*
X123968697Y-77806104D01*
X126714802Y-75060000D01*
X147381352Y-75060000D01*
X147760088Y-75438736D01*
X147760088Y-75438736D01*
G37*
X147760088Y-75438736D02*
X147735600Y-75436324D01*
X147698278Y-75440000D01*
X129471169Y-75440000D01*
X129433846Y-75436324D01*
X129396523Y-75440000D01*
X129396514Y-75440000D01*
X129284861Y-75450997D01*
X129141600Y-75494454D01*
X129009571Y-75565026D01*
X128893846Y-75659999D01*
X128870048Y-75688997D01*
X126258388Y-78300658D01*
X126229390Y-78324456D01*
X126205592Y-78353454D01*
X126205591Y-78353455D01*
X126134416Y-78440181D01*
X126063844Y-78572211D01*
X126020388Y-78715472D01*
X126005714Y-78864457D01*
X126009391Y-78901789D01*
X126009390Y-80441961D01*
X125900600Y-80550751D01*
X125900600Y-79329546D01*
X125877078Y-79090727D01*
X125784125Y-78784300D01*
X125633177Y-78501895D01*
X125430034Y-78254366D01*
X125182505Y-78051223D01*
X124900100Y-77900275D01*
X124593673Y-77807322D01*
X124275000Y-77775935D01*
X123968697Y-77806104D01*
X126714802Y-75060000D01*
X147381352Y-75060000D01*
X147760088Y-75438736D01*
M02*
