M48
; DRILL file {KiCad (5.1.0)-1} date 7/11/2019 6:39:28 PM
; FORMAT={-:-/ absolute / inch / decimal}
; #@! TF.CreationDate,2019-07-11T18:39:28-04:00
; #@! TF.GenerationSoftware,Kicad,Pcbnew,(5.1.0)-1
FMAT,2
INCH
T1C0.0157
T2C0.0520
T3C0.1190
%
G90
G05
T1
X4.1929Y-3.5433
X4.2047Y-3.3425
X4.2087Y-3.4488
X4.2323Y-2.7717
X4.2323Y-2.8543
X4.2323Y-3.6417
X4.3307Y-2.7717
X4.3307Y-3.6417
X4.3976Y-3.248
X4.3976Y-3.3937
X4.4291Y-2.7717
X4.4606Y-3.1378
X4.5276Y-2.7717
X4.5906Y-3.315
X4.5906Y-3.4409
X4.6063Y-3.0433
X4.626Y-2.7717
X4.7244Y-2.7717
X4.7362Y-3.4882
X4.8228Y-2.7717
X4.8268Y-3.4724
X4.8898Y-3.4921
X4.9213Y-2.7717
X4.9685Y-3.0197
X5.0197Y-2.7717
X5.1181Y-2.7717
X5.1378Y-3.0433
X5.2165Y-2.7717
X5.2677Y-3.1299
X5.315Y-2.7717
X5.4134Y-2.7717
X5.4173Y-3.0709
X5.4921Y-3.3622
X5.5118Y-2.7717
X5.5945Y-3.4646
X5.6102Y-2.7717
X5.6132Y-3.4899
X5.7087Y-2.7717
X5.7913Y-3.3622
X5.8071Y-2.7717
X5.8425Y-3.4961
X5.9055Y-2.7717
X6.0039Y-2.7717
X6.1024Y-2.7717
X6.1024Y-3.6417
X6.1654Y-3.6457
X6.2008Y-2.7717
X6.2992Y-2.7717
X6.2992Y-2.8543
X6.311Y-3.5394
X6.3228Y-3.3425
X6.3228Y-3.4488
X6.3425Y-3.6417
T2
X4.5177Y-3.3654
X4.5927Y-3.1654
X4.6677Y-3.3654
X4.7427Y-3.1654
X4.8177Y-3.3654
X4.8927Y-3.1654
X4.9677Y-3.3654
X5.0427Y-3.1654
X5.1177Y-3.3654
X5.1927Y-3.1654
X5.2677Y-3.3654
X5.3427Y-3.1654
X5.4177Y-3.3654
X5.4927Y-3.1654
X5.5677Y-3.3654
X5.6427Y-3.1654
X5.7177Y-3.3654
X5.7927Y-3.1654
X5.8677Y-3.3654
X5.9427Y-3.1654
X6.0177Y-3.3654
T3
X4.2277Y-3.0354
X4.2277Y-3.1754
X6.3077Y-3.0354
X6.3077Y-3.1754
T0
M30
