G04 #@! TF.GenerationSoftware,KiCad,Pcbnew,(5.1.0)-1*
G04 #@! TF.CreationDate,2019-08-12T13:57:41-04:00*
G04 #@! TF.ProjectId,JP21F_to_EUROM,4a503231-465f-4746-9f5f-4555524f4d2e,rev?*
G04 #@! TF.SameCoordinates,Original*
G04 #@! TF.FileFunction,Copper,L1,Top*
G04 #@! TF.FilePolarity,Positive*
%FSLAX46Y46*%
G04 Gerber Fmt 4.6, Leading zero omitted, Abs format (unit mm)*
G04 Created by KiCad (PCBNEW (5.1.0)-1) date 2019-08-12 13:57:41*
%MOMM*%
%LPD*%
G04 APERTURE LIST*
%ADD10R,2.500000X4.000000*%
%ADD11O,1.981200X3.962400*%
%ADD12C,0.600000*%
%ADD13C,0.250000*%
%ADD14C,0.254000*%
G04 APERTURE END LIST*
D10*
X115625000Y-91840501D03*
X119425000Y-91840501D03*
X123225000Y-91840501D03*
X127025000Y-91840501D03*
X130825000Y-91840501D03*
X134625000Y-91840501D03*
X138425000Y-91840501D03*
X142225000Y-91840501D03*
X146025000Y-91840501D03*
X149825000Y-91840501D03*
D11*
X114750000Y-85480000D03*
X116655000Y-80400000D03*
X118560000Y-85480000D03*
X120465000Y-80400000D03*
X122370000Y-85480000D03*
X124275000Y-80400000D03*
X126180000Y-85480000D03*
X128085000Y-80400000D03*
X129990000Y-85480000D03*
X131895000Y-80400000D03*
X133800000Y-85480000D03*
X135705000Y-80400000D03*
X137610000Y-85480000D03*
X139515000Y-80400000D03*
X141420000Y-85480000D03*
X143325000Y-80400000D03*
X145230000Y-85480000D03*
X147135000Y-80400000D03*
X149040000Y-85480000D03*
X150945000Y-80400000D03*
X152850000Y-85480000D03*
D12*
X142100000Y-88000000D03*
X142575000Y-88643721D03*
X131800000Y-83400000D03*
X130000000Y-79200000D03*
X160000000Y-70400000D03*
X157500000Y-70400000D03*
X155000000Y-70400000D03*
X152500000Y-70400000D03*
X150000000Y-70400000D03*
X147500000Y-70400000D03*
X145000000Y-70400000D03*
X142500000Y-70400000D03*
X140000000Y-70400000D03*
X137500000Y-70400000D03*
X135000000Y-70400000D03*
X132500000Y-70400000D03*
X130000000Y-70400000D03*
X127500000Y-70400000D03*
X125000000Y-70400000D03*
X122500000Y-70400000D03*
X120000000Y-70400000D03*
X117500000Y-70400000D03*
X115000000Y-70400000D03*
X112500000Y-70400000D03*
X110000000Y-70400000D03*
X107500000Y-70400000D03*
X155000000Y-92500000D03*
X160000000Y-72500000D03*
X107500000Y-72500000D03*
X107500000Y-92500000D03*
X110000000Y-92500000D03*
X130500000Y-77300000D03*
X124200000Y-88700000D03*
X137600000Y-78000000D03*
X133800000Y-79500000D03*
X148400000Y-88800000D03*
X139500000Y-85400000D03*
X147100000Y-85400000D03*
X106800000Y-84900000D03*
X106900000Y-87600000D03*
X106500000Y-90000000D03*
X156600000Y-92600000D03*
X160300000Y-89900000D03*
X160600000Y-87600000D03*
X160600000Y-84900000D03*
X161100000Y-92499998D03*
X128100000Y-83600000D03*
X122100000Y-88400000D03*
X119700000Y-88600000D03*
X117800000Y-88300000D03*
X114800000Y-88600000D03*
D13*
X143325000Y-82631200D02*
X143325000Y-80400000D01*
X143200000Y-82756200D02*
X143325000Y-82631200D01*
X143200000Y-90115501D02*
X143200000Y-82756200D01*
X142225000Y-91840501D02*
X142225000Y-91090501D01*
X142225000Y-91090501D02*
X143200000Y-90115501D01*
X129400610Y-82706210D02*
X135206210Y-82706210D01*
X136200000Y-87100000D02*
X137100000Y-88000000D01*
X128085000Y-81390600D02*
X129400610Y-82706210D01*
X137100000Y-88000000D02*
X141675736Y-88000000D01*
X141675736Y-88000000D02*
X142100000Y-88000000D01*
X136200000Y-83700000D02*
X136200000Y-87100000D01*
X135206210Y-82706210D02*
X136200000Y-83700000D01*
X128085000Y-80400000D02*
X128085000Y-81390600D01*
X139515000Y-79409400D02*
X139515000Y-80400000D01*
X140830610Y-78093790D02*
X139515000Y-79409400D01*
X151489943Y-78093790D02*
X140830610Y-78093790D01*
X154165610Y-80769457D02*
X151489943Y-78093790D01*
X154165610Y-87334390D02*
X154165610Y-80769457D01*
X147829291Y-87786210D02*
X153713790Y-87786210D01*
X146025000Y-89590501D02*
X147829291Y-87786210D01*
X153713790Y-87786210D02*
X154165610Y-87334390D01*
X146025000Y-91840501D02*
X146025000Y-89590501D01*
X132026210Y-83173790D02*
X131800000Y-83400000D01*
X134344943Y-83173790D02*
X132026210Y-83173790D01*
X135115610Y-83944457D02*
X134344943Y-83173790D01*
X135115610Y-86652020D02*
X135115610Y-83944457D01*
X142575000Y-88643721D02*
X137107311Y-88643721D01*
X137107311Y-88643721D02*
X135115610Y-86652020D01*
X149825000Y-88875000D02*
X149825000Y-91840501D01*
X152100000Y-77200000D02*
X155100000Y-80200000D01*
X133000000Y-77200000D02*
X152100000Y-77200000D01*
X155100000Y-80200000D02*
X155100000Y-87200000D01*
X155100000Y-87200000D02*
X153600000Y-88700000D01*
X153600000Y-88700000D02*
X150000000Y-88700000D01*
X150000000Y-88700000D02*
X149825000Y-88875000D01*
X133000000Y-77200000D02*
X132000000Y-77200000D01*
X132000000Y-77200000D02*
X130000000Y-79200000D01*
X122370000Y-84489400D02*
X122370000Y-85480000D01*
X120586810Y-82706210D02*
X122370000Y-84489400D01*
X114672637Y-82706210D02*
X120586810Y-82706210D01*
X113434390Y-83944457D02*
X114672637Y-82706210D01*
X113434390Y-91149891D02*
X113434390Y-83944457D01*
X114125000Y-91840501D02*
X113434390Y-91149891D01*
X115625000Y-91840501D02*
X114125000Y-91840501D01*
X118560000Y-85480000D02*
X118560000Y-86470600D01*
X118560000Y-88605501D02*
X118560000Y-85480000D01*
X119425000Y-91840501D02*
X119425000Y-89470501D01*
X119425000Y-89470501D02*
X118560000Y-88605501D01*
X116065610Y-83173790D02*
X114750000Y-84489400D01*
X119104943Y-83173790D02*
X116065610Y-83173790D01*
X119875610Y-83944457D02*
X119104943Y-83173790D01*
X114750000Y-84489400D02*
X114750000Y-85480000D01*
X119875610Y-87741111D02*
X119875610Y-83944457D01*
X123225000Y-91090501D02*
X119875610Y-87741111D01*
X123225000Y-91840501D02*
X123225000Y-91090501D01*
X133800000Y-86470600D02*
X133800000Y-85480000D01*
X132559400Y-87711200D02*
X133800000Y-86470600D01*
X130988800Y-87711200D02*
X132559400Y-87711200D01*
X127700000Y-88500000D02*
X130200000Y-88500000D01*
X130200000Y-88500000D02*
X130988800Y-87711200D01*
X127025000Y-89175000D02*
X127025000Y-91840501D01*
X127700000Y-88500000D02*
X127025000Y-89175000D01*
D14*
G36*
X162290001Y-76437191D02*
G01*
X162245868Y-76298068D01*
X162222290Y-76243058D01*
X162199508Y-76187783D01*
X162195125Y-76179677D01*
X162051836Y-75919034D01*
X162018048Y-75869687D01*
X161984936Y-75819850D01*
X161979062Y-75812749D01*
X161787876Y-75584904D01*
X161745146Y-75543060D01*
X161702987Y-75500605D01*
X161695846Y-75494781D01*
X161464045Y-75308408D01*
X161414031Y-75275680D01*
X161364398Y-75242202D01*
X161356261Y-75237876D01*
X161092675Y-75100077D01*
X161037219Y-75077672D01*
X160982068Y-75054488D01*
X160973246Y-75051825D01*
X160687915Y-74967847D01*
X160629175Y-74956642D01*
X160570558Y-74944609D01*
X160561386Y-74943710D01*
X160265178Y-74916753D01*
X160205361Y-74917171D01*
X160145544Y-74916753D01*
X160136372Y-74917653D01*
X159840569Y-74948742D01*
X159781972Y-74960771D01*
X159723210Y-74971980D01*
X159714388Y-74974644D01*
X159430257Y-75062598D01*
X159375139Y-75085768D01*
X159319650Y-75108186D01*
X159311514Y-75112513D01*
X159049878Y-75253979D01*
X159000311Y-75287412D01*
X158950232Y-75320183D01*
X158943091Y-75326008D01*
X158713915Y-75515597D01*
X158671774Y-75558034D01*
X158629024Y-75599897D01*
X158623150Y-75606998D01*
X158435164Y-75837492D01*
X158402049Y-75887334D01*
X158368265Y-75936674D01*
X158363882Y-75944781D01*
X158224246Y-76207399D01*
X158201458Y-76262687D01*
X158177886Y-76317683D01*
X158175162Y-76326487D01*
X158089193Y-76611225D01*
X158077570Y-76669925D01*
X158065137Y-76728419D01*
X158064174Y-76737584D01*
X158035150Y-77033596D01*
X158035150Y-77162406D01*
X158055801Y-77266697D01*
X158055800Y-80487952D01*
X158045478Y-80521300D01*
X158036932Y-80602622D01*
X158035299Y-80610870D01*
X158035299Y-80618164D01*
X158032016Y-80649404D01*
X158032016Y-80658620D01*
X158032165Y-80679898D01*
X158035298Y-80709700D01*
X158035298Y-80739680D01*
X158036262Y-80748844D01*
X158069416Y-81044424D01*
X158081853Y-81102936D01*
X158093471Y-81161614D01*
X158096196Y-81170413D01*
X158096197Y-81170419D01*
X158096199Y-81170425D01*
X158186130Y-81453928D01*
X158209691Y-81508899D01*
X158232491Y-81564217D01*
X158236874Y-81572323D01*
X158380163Y-81832965D01*
X158413947Y-81882305D01*
X158447062Y-81932147D01*
X158452936Y-81939247D01*
X158644122Y-82167094D01*
X158686853Y-82208939D01*
X158729013Y-82251395D01*
X158736155Y-82257219D01*
X158967956Y-82443591D01*
X159017968Y-82476318D01*
X159067600Y-82509795D01*
X159075737Y-82514121D01*
X159339323Y-82651921D01*
X159394783Y-82674328D01*
X159449931Y-82697511D01*
X159458753Y-82700174D01*
X159744083Y-82784152D01*
X159802837Y-82795360D01*
X159861441Y-82807390D01*
X159870613Y-82808289D01*
X160166820Y-82835246D01*
X160226638Y-82834828D01*
X160286455Y-82835246D01*
X160295626Y-82834347D01*
X160591430Y-82803257D01*
X160650017Y-82791230D01*
X160708787Y-82780020D01*
X160717609Y-82777356D01*
X161001740Y-82689403D01*
X161056883Y-82666223D01*
X161112348Y-82643814D01*
X161120485Y-82639487D01*
X161382121Y-82498021D01*
X161431705Y-82464576D01*
X161481768Y-82431816D01*
X161488909Y-82425992D01*
X161718085Y-82236401D01*
X161760224Y-82193966D01*
X161802974Y-82152103D01*
X161808848Y-82145002D01*
X161996834Y-81914509D01*
X162029938Y-81864682D01*
X162063733Y-81815327D01*
X162068116Y-81807221D01*
X162207753Y-81544603D01*
X162230560Y-81489269D01*
X162254114Y-81434314D01*
X162256838Y-81425515D01*
X162256840Y-81425509D01*
X162290001Y-81315674D01*
X162290000Y-93390000D01*
X154327000Y-93390000D01*
X154327000Y-89600000D01*
X154324560Y-89575224D01*
X154317333Y-89551399D01*
X154305597Y-89529443D01*
X154289803Y-89510197D01*
X154270557Y-89494403D01*
X154248601Y-89482667D01*
X154224776Y-89475440D01*
X154200000Y-89473000D01*
X151594862Y-89473000D01*
X151584194Y-89460000D01*
X153562678Y-89460000D01*
X153600000Y-89463676D01*
X153637322Y-89460000D01*
X153637333Y-89460000D01*
X153748986Y-89449003D01*
X153892247Y-89405546D01*
X154024276Y-89334974D01*
X154140001Y-89240001D01*
X154163804Y-89210997D01*
X155611003Y-87763799D01*
X155640001Y-87740001D01*
X155734974Y-87624276D01*
X155805546Y-87492247D01*
X155849003Y-87348986D01*
X155860000Y-87237333D01*
X155860000Y-87237324D01*
X155863676Y-87200001D01*
X155860000Y-87162678D01*
X155860000Y-80237325D01*
X155863676Y-80200000D01*
X155860000Y-80162675D01*
X155860000Y-80162667D01*
X155849003Y-80051014D01*
X155805546Y-79907753D01*
X155734974Y-79775724D01*
X155640001Y-79659999D01*
X155611004Y-79636202D01*
X152663804Y-76689003D01*
X152640001Y-76659999D01*
X152524276Y-76565026D01*
X152392247Y-76494454D01*
X152248986Y-76450997D01*
X152137333Y-76440000D01*
X152137322Y-76440000D01*
X152100000Y-76436324D01*
X152062678Y-76440000D01*
X132037322Y-76440000D01*
X131999999Y-76436324D01*
X131962676Y-76440000D01*
X131962667Y-76440000D01*
X131851014Y-76450997D01*
X131742117Y-76484030D01*
X131707753Y-76494454D01*
X131575723Y-76565026D01*
X131519430Y-76611225D01*
X131459999Y-76659999D01*
X131436201Y-76688997D01*
X129848352Y-78276847D01*
X129727271Y-78300932D01*
X129557111Y-78371414D01*
X129414368Y-78466792D01*
X129240034Y-78254366D01*
X128992505Y-78051223D01*
X128710100Y-77900275D01*
X128403673Y-77807322D01*
X128085000Y-77775935D01*
X127766328Y-77807322D01*
X127459901Y-77900275D01*
X127177496Y-78051223D01*
X126929967Y-78254366D01*
X126726824Y-78501895D01*
X126575876Y-78784300D01*
X126482923Y-79090727D01*
X126459401Y-79329546D01*
X126459400Y-81470453D01*
X126482922Y-81709272D01*
X126575875Y-82015699D01*
X126726823Y-82298104D01*
X126929966Y-82545634D01*
X127177495Y-82748777D01*
X127459900Y-82899725D01*
X127766327Y-82992678D01*
X128085000Y-83024065D01*
X128403672Y-82992678D01*
X128563725Y-82944127D01*
X128836810Y-83217212D01*
X128860609Y-83246211D01*
X128901496Y-83279766D01*
X128834967Y-83334366D01*
X128631824Y-83581895D01*
X128480876Y-83864300D01*
X128387923Y-84170727D01*
X128364401Y-84409546D01*
X128364400Y-86550453D01*
X128387922Y-86789272D01*
X128480875Y-87095699D01*
X128631823Y-87378104D01*
X128834966Y-87625634D01*
X128974321Y-87740000D01*
X127737322Y-87740000D01*
X127699999Y-87736324D01*
X127662676Y-87740000D01*
X127662667Y-87740000D01*
X127551014Y-87750997D01*
X127407753Y-87794454D01*
X127275723Y-87865026D01*
X127226350Y-87905546D01*
X127159999Y-87959999D01*
X127136200Y-87988998D01*
X126514002Y-88611197D01*
X126484999Y-88634999D01*
X126431655Y-88700000D01*
X126390026Y-88750724D01*
X126337503Y-88848987D01*
X126319454Y-88882754D01*
X126275997Y-89026015D01*
X126265000Y-89137668D01*
X126265000Y-89137678D01*
X126261324Y-89175000D01*
X126264026Y-89202429D01*
X125775000Y-89202429D01*
X125650518Y-89214689D01*
X125530820Y-89250999D01*
X125420506Y-89309964D01*
X125323815Y-89389316D01*
X125255138Y-89473000D01*
X124994862Y-89473000D01*
X124926185Y-89389316D01*
X124829494Y-89309964D01*
X124719180Y-89250999D01*
X124599482Y-89214689D01*
X124475000Y-89202429D01*
X122411730Y-89202429D01*
X120635610Y-87426310D01*
X120635610Y-83981782D01*
X120639286Y-83944457D01*
X120635610Y-83907132D01*
X120635610Y-83907124D01*
X120627163Y-83821365D01*
X120816474Y-84010676D01*
X120767923Y-84170727D01*
X120744401Y-84409546D01*
X120744400Y-86550453D01*
X120767922Y-86789272D01*
X120860875Y-87095699D01*
X121011823Y-87378104D01*
X121214966Y-87625634D01*
X121462495Y-87828777D01*
X121744900Y-87979725D01*
X122051327Y-88072678D01*
X122370000Y-88104065D01*
X122688672Y-88072678D01*
X122995099Y-87979725D01*
X123277504Y-87828777D01*
X123525034Y-87625634D01*
X123728177Y-87378105D01*
X123879125Y-87095700D01*
X123972078Y-86789273D01*
X123995600Y-86550454D01*
X123995600Y-86550453D01*
X124554400Y-86550453D01*
X124577922Y-86789272D01*
X124670875Y-87095699D01*
X124821823Y-87378104D01*
X125024966Y-87625634D01*
X125272495Y-87828777D01*
X125554900Y-87979725D01*
X125861327Y-88072678D01*
X126180000Y-88104065D01*
X126498672Y-88072678D01*
X126805099Y-87979725D01*
X127087504Y-87828777D01*
X127335034Y-87625634D01*
X127538177Y-87378105D01*
X127689125Y-87095700D01*
X127782078Y-86789273D01*
X127805600Y-86550454D01*
X127805600Y-84409546D01*
X127782078Y-84170727D01*
X127689125Y-83864300D01*
X127538177Y-83581895D01*
X127335034Y-83334366D01*
X127087505Y-83131223D01*
X126805100Y-82980275D01*
X126498673Y-82887322D01*
X126180000Y-82855935D01*
X125861328Y-82887322D01*
X125554901Y-82980275D01*
X125272496Y-83131223D01*
X125024967Y-83334366D01*
X124821824Y-83581895D01*
X124670876Y-83864300D01*
X124577923Y-84170727D01*
X124554401Y-84409546D01*
X124554400Y-86550453D01*
X123995600Y-86550453D01*
X123995600Y-84409546D01*
X123972078Y-84170727D01*
X123879125Y-83864300D01*
X123728177Y-83581895D01*
X123525034Y-83334366D01*
X123277505Y-83131223D01*
X122995100Y-82980275D01*
X122688673Y-82887322D01*
X122370000Y-82855935D01*
X122051328Y-82887322D01*
X121891275Y-82935873D01*
X121554675Y-82599273D01*
X121620034Y-82545634D01*
X121823177Y-82298105D01*
X121974125Y-82015700D01*
X122067078Y-81709273D01*
X122090600Y-81470454D01*
X122090600Y-81470453D01*
X122649400Y-81470453D01*
X122672922Y-81709272D01*
X122765875Y-82015699D01*
X122916823Y-82298104D01*
X123119966Y-82545634D01*
X123367495Y-82748777D01*
X123649900Y-82899725D01*
X123956327Y-82992678D01*
X124275000Y-83024065D01*
X124593672Y-82992678D01*
X124900099Y-82899725D01*
X125182504Y-82748777D01*
X125430034Y-82545634D01*
X125633177Y-82298105D01*
X125784125Y-82015700D01*
X125877078Y-81709273D01*
X125900600Y-81470454D01*
X125900600Y-79329546D01*
X125877078Y-79090727D01*
X125784125Y-78784300D01*
X125633177Y-78501895D01*
X125430034Y-78254366D01*
X125182505Y-78051223D01*
X124900100Y-77900275D01*
X124593673Y-77807322D01*
X124275000Y-77775935D01*
X123956328Y-77807322D01*
X123649901Y-77900275D01*
X123367496Y-78051223D01*
X123119967Y-78254366D01*
X122916824Y-78501895D01*
X122765876Y-78784300D01*
X122672923Y-79090727D01*
X122649401Y-79329546D01*
X122649400Y-81470453D01*
X122090600Y-81470453D01*
X122090600Y-79329546D01*
X122067078Y-79090727D01*
X121974125Y-78784300D01*
X121823177Y-78501895D01*
X121620034Y-78254366D01*
X121372505Y-78051223D01*
X121090100Y-77900275D01*
X120783673Y-77807322D01*
X120465000Y-77775935D01*
X120146328Y-77807322D01*
X119839901Y-77900275D01*
X119557496Y-78051223D01*
X119309967Y-78254366D01*
X119106824Y-78501895D01*
X118955876Y-78784300D01*
X118862923Y-79090727D01*
X118839401Y-79329546D01*
X118839400Y-81470453D01*
X118862922Y-81709272D01*
X118934796Y-81946210D01*
X118185204Y-81946210D01*
X118257078Y-81709273D01*
X118280600Y-81470454D01*
X118280600Y-79329546D01*
X118257078Y-79090727D01*
X118164125Y-78784300D01*
X118013177Y-78501895D01*
X117810034Y-78254366D01*
X117562505Y-78051223D01*
X117280100Y-77900275D01*
X116973673Y-77807322D01*
X116655000Y-77775935D01*
X116336328Y-77807322D01*
X116029901Y-77900275D01*
X115747496Y-78051223D01*
X115499967Y-78254366D01*
X115296824Y-78501895D01*
X115145876Y-78784300D01*
X115052923Y-79090727D01*
X115029401Y-79329546D01*
X115029400Y-81470453D01*
X115052922Y-81709272D01*
X115124796Y-81946210D01*
X114709962Y-81946210D01*
X114672637Y-81942534D01*
X114635312Y-81946210D01*
X114635304Y-81946210D01*
X114523651Y-81957207D01*
X114380390Y-82000664D01*
X114248361Y-82071236D01*
X114132636Y-82166209D01*
X114108838Y-82195207D01*
X112923388Y-83380658D01*
X112894390Y-83404456D01*
X112870592Y-83433454D01*
X112870591Y-83433455D01*
X112799416Y-83520181D01*
X112728844Y-83652211D01*
X112685388Y-83795472D01*
X112670714Y-83944457D01*
X112674391Y-83981789D01*
X112674390Y-91112568D01*
X112670714Y-91149891D01*
X112674390Y-91187213D01*
X112674390Y-91187223D01*
X112685387Y-91298876D01*
X112710829Y-91382747D01*
X112728844Y-91442137D01*
X112799416Y-91574167D01*
X112839261Y-91622717D01*
X112894389Y-91689892D01*
X112923392Y-91713694D01*
X112973000Y-91763302D01*
X112973000Y-93390000D01*
X105310000Y-93390000D01*
X105310000Y-81314810D01*
X105354130Y-81453928D01*
X105377691Y-81508899D01*
X105400491Y-81564217D01*
X105404874Y-81572323D01*
X105548163Y-81832965D01*
X105581947Y-81882305D01*
X105615062Y-81932147D01*
X105620936Y-81939247D01*
X105812122Y-82167094D01*
X105854853Y-82208939D01*
X105897013Y-82251395D01*
X105904155Y-82257219D01*
X106135956Y-82443591D01*
X106185968Y-82476318D01*
X106235600Y-82509795D01*
X106243737Y-82514121D01*
X106507323Y-82651921D01*
X106562783Y-82674328D01*
X106617931Y-82697511D01*
X106626753Y-82700174D01*
X106912083Y-82784152D01*
X106970837Y-82795360D01*
X107029441Y-82807390D01*
X107038613Y-82808289D01*
X107334820Y-82835246D01*
X107394638Y-82834828D01*
X107454455Y-82835246D01*
X107463626Y-82834347D01*
X107759430Y-82803257D01*
X107818017Y-82791230D01*
X107876787Y-82780020D01*
X107885609Y-82777356D01*
X108169740Y-82689403D01*
X108224883Y-82666223D01*
X108280348Y-82643814D01*
X108288485Y-82639487D01*
X108550121Y-82498021D01*
X108599705Y-82464576D01*
X108649768Y-82431816D01*
X108656909Y-82425992D01*
X108886085Y-82236401D01*
X108928224Y-82193966D01*
X108970974Y-82152103D01*
X108976848Y-82145002D01*
X109164834Y-81914509D01*
X109197938Y-81864682D01*
X109231733Y-81815327D01*
X109236116Y-81807221D01*
X109375753Y-81544603D01*
X109398560Y-81489269D01*
X109422114Y-81434314D01*
X109424838Y-81425515D01*
X109424840Y-81425509D01*
X109510806Y-81140773D01*
X109522422Y-81082108D01*
X109534862Y-81023584D01*
X109535825Y-81014419D01*
X109564850Y-80718406D01*
X109564850Y-80589596D01*
X109544200Y-80485305D01*
X109544200Y-77264047D01*
X109554522Y-77230699D01*
X109563068Y-77149377D01*
X109564701Y-77141129D01*
X109564701Y-77133835D01*
X109567984Y-77102594D01*
X109567984Y-77093379D01*
X109567835Y-77072100D01*
X109564702Y-77042298D01*
X109564702Y-77012319D01*
X109563738Y-77003154D01*
X109530584Y-76707575D01*
X109518151Y-76649081D01*
X109506528Y-76590381D01*
X109503803Y-76581578D01*
X109413868Y-76298068D01*
X109390290Y-76243058D01*
X109367508Y-76187783D01*
X109363125Y-76179677D01*
X109219836Y-75919034D01*
X109186048Y-75869687D01*
X109152936Y-75819850D01*
X109147062Y-75812749D01*
X108955876Y-75584904D01*
X108913146Y-75543060D01*
X108870987Y-75500605D01*
X108863846Y-75494781D01*
X108632045Y-75308408D01*
X108582031Y-75275680D01*
X108532398Y-75242202D01*
X108524261Y-75237876D01*
X108260675Y-75100077D01*
X108205219Y-75077672D01*
X108150068Y-75054488D01*
X108141246Y-75051825D01*
X107855915Y-74967847D01*
X107797175Y-74956642D01*
X107738558Y-74944609D01*
X107729386Y-74943710D01*
X107433178Y-74916753D01*
X107373361Y-74917171D01*
X107313544Y-74916753D01*
X107304372Y-74917653D01*
X107008569Y-74948742D01*
X106949972Y-74960771D01*
X106891210Y-74971980D01*
X106882388Y-74974644D01*
X106598257Y-75062598D01*
X106543139Y-75085768D01*
X106487650Y-75108186D01*
X106479514Y-75112513D01*
X106217878Y-75253979D01*
X106168311Y-75287412D01*
X106118232Y-75320183D01*
X106111091Y-75326008D01*
X105881915Y-75515597D01*
X105839774Y-75558034D01*
X105797024Y-75599897D01*
X105791150Y-75606998D01*
X105603164Y-75837492D01*
X105570049Y-75887334D01*
X105536265Y-75936674D01*
X105531882Y-75944781D01*
X105392246Y-76207399D01*
X105369458Y-76262687D01*
X105345886Y-76317683D01*
X105343162Y-76326487D01*
X105310000Y-76436323D01*
X105310000Y-70010000D01*
X162290001Y-70010000D01*
X162290001Y-76437191D01*
X162290001Y-76437191D01*
G37*
X162290001Y-76437191D02*
X162245868Y-76298068D01*
X162222290Y-76243058D01*
X162199508Y-76187783D01*
X162195125Y-76179677D01*
X162051836Y-75919034D01*
X162018048Y-75869687D01*
X161984936Y-75819850D01*
X161979062Y-75812749D01*
X161787876Y-75584904D01*
X161745146Y-75543060D01*
X161702987Y-75500605D01*
X161695846Y-75494781D01*
X161464045Y-75308408D01*
X161414031Y-75275680D01*
X161364398Y-75242202D01*
X161356261Y-75237876D01*
X161092675Y-75100077D01*
X161037219Y-75077672D01*
X160982068Y-75054488D01*
X160973246Y-75051825D01*
X160687915Y-74967847D01*
X160629175Y-74956642D01*
X160570558Y-74944609D01*
X160561386Y-74943710D01*
X160265178Y-74916753D01*
X160205361Y-74917171D01*
X160145544Y-74916753D01*
X160136372Y-74917653D01*
X159840569Y-74948742D01*
X159781972Y-74960771D01*
X159723210Y-74971980D01*
X159714388Y-74974644D01*
X159430257Y-75062598D01*
X159375139Y-75085768D01*
X159319650Y-75108186D01*
X159311514Y-75112513D01*
X159049878Y-75253979D01*
X159000311Y-75287412D01*
X158950232Y-75320183D01*
X158943091Y-75326008D01*
X158713915Y-75515597D01*
X158671774Y-75558034D01*
X158629024Y-75599897D01*
X158623150Y-75606998D01*
X158435164Y-75837492D01*
X158402049Y-75887334D01*
X158368265Y-75936674D01*
X158363882Y-75944781D01*
X158224246Y-76207399D01*
X158201458Y-76262687D01*
X158177886Y-76317683D01*
X158175162Y-76326487D01*
X158089193Y-76611225D01*
X158077570Y-76669925D01*
X158065137Y-76728419D01*
X158064174Y-76737584D01*
X158035150Y-77033596D01*
X158035150Y-77162406D01*
X158055801Y-77266697D01*
X158055800Y-80487952D01*
X158045478Y-80521300D01*
X158036932Y-80602622D01*
X158035299Y-80610870D01*
X158035299Y-80618164D01*
X158032016Y-80649404D01*
X158032016Y-80658620D01*
X158032165Y-80679898D01*
X158035298Y-80709700D01*
X158035298Y-80739680D01*
X158036262Y-80748844D01*
X158069416Y-81044424D01*
X158081853Y-81102936D01*
X158093471Y-81161614D01*
X158096196Y-81170413D01*
X158096197Y-81170419D01*
X158096199Y-81170425D01*
X158186130Y-81453928D01*
X158209691Y-81508899D01*
X158232491Y-81564217D01*
X158236874Y-81572323D01*
X158380163Y-81832965D01*
X158413947Y-81882305D01*
X158447062Y-81932147D01*
X158452936Y-81939247D01*
X158644122Y-82167094D01*
X158686853Y-82208939D01*
X158729013Y-82251395D01*
X158736155Y-82257219D01*
X158967956Y-82443591D01*
X159017968Y-82476318D01*
X159067600Y-82509795D01*
X159075737Y-82514121D01*
X159339323Y-82651921D01*
X159394783Y-82674328D01*
X159449931Y-82697511D01*
X159458753Y-82700174D01*
X159744083Y-82784152D01*
X159802837Y-82795360D01*
X159861441Y-82807390D01*
X159870613Y-82808289D01*
X160166820Y-82835246D01*
X160226638Y-82834828D01*
X160286455Y-82835246D01*
X160295626Y-82834347D01*
X160591430Y-82803257D01*
X160650017Y-82791230D01*
X160708787Y-82780020D01*
X160717609Y-82777356D01*
X161001740Y-82689403D01*
X161056883Y-82666223D01*
X161112348Y-82643814D01*
X161120485Y-82639487D01*
X161382121Y-82498021D01*
X161431705Y-82464576D01*
X161481768Y-82431816D01*
X161488909Y-82425992D01*
X161718085Y-82236401D01*
X161760224Y-82193966D01*
X161802974Y-82152103D01*
X161808848Y-82145002D01*
X161996834Y-81914509D01*
X162029938Y-81864682D01*
X162063733Y-81815327D01*
X162068116Y-81807221D01*
X162207753Y-81544603D01*
X162230560Y-81489269D01*
X162254114Y-81434314D01*
X162256838Y-81425515D01*
X162256840Y-81425509D01*
X162290001Y-81315674D01*
X162290000Y-93390000D01*
X154327000Y-93390000D01*
X154327000Y-89600000D01*
X154324560Y-89575224D01*
X154317333Y-89551399D01*
X154305597Y-89529443D01*
X154289803Y-89510197D01*
X154270557Y-89494403D01*
X154248601Y-89482667D01*
X154224776Y-89475440D01*
X154200000Y-89473000D01*
X151594862Y-89473000D01*
X151584194Y-89460000D01*
X153562678Y-89460000D01*
X153600000Y-89463676D01*
X153637322Y-89460000D01*
X153637333Y-89460000D01*
X153748986Y-89449003D01*
X153892247Y-89405546D01*
X154024276Y-89334974D01*
X154140001Y-89240001D01*
X154163804Y-89210997D01*
X155611003Y-87763799D01*
X155640001Y-87740001D01*
X155734974Y-87624276D01*
X155805546Y-87492247D01*
X155849003Y-87348986D01*
X155860000Y-87237333D01*
X155860000Y-87237324D01*
X155863676Y-87200001D01*
X155860000Y-87162678D01*
X155860000Y-80237325D01*
X155863676Y-80200000D01*
X155860000Y-80162675D01*
X155860000Y-80162667D01*
X155849003Y-80051014D01*
X155805546Y-79907753D01*
X155734974Y-79775724D01*
X155640001Y-79659999D01*
X155611004Y-79636202D01*
X152663804Y-76689003D01*
X152640001Y-76659999D01*
X152524276Y-76565026D01*
X152392247Y-76494454D01*
X152248986Y-76450997D01*
X152137333Y-76440000D01*
X152137322Y-76440000D01*
X152100000Y-76436324D01*
X152062678Y-76440000D01*
X132037322Y-76440000D01*
X131999999Y-76436324D01*
X131962676Y-76440000D01*
X131962667Y-76440000D01*
X131851014Y-76450997D01*
X131742117Y-76484030D01*
X131707753Y-76494454D01*
X131575723Y-76565026D01*
X131519430Y-76611225D01*
X131459999Y-76659999D01*
X131436201Y-76688997D01*
X129848352Y-78276847D01*
X129727271Y-78300932D01*
X129557111Y-78371414D01*
X129414368Y-78466792D01*
X129240034Y-78254366D01*
X128992505Y-78051223D01*
X128710100Y-77900275D01*
X128403673Y-77807322D01*
X128085000Y-77775935D01*
X127766328Y-77807322D01*
X127459901Y-77900275D01*
X127177496Y-78051223D01*
X126929967Y-78254366D01*
X126726824Y-78501895D01*
X126575876Y-78784300D01*
X126482923Y-79090727D01*
X126459401Y-79329546D01*
X126459400Y-81470453D01*
X126482922Y-81709272D01*
X126575875Y-82015699D01*
X126726823Y-82298104D01*
X126929966Y-82545634D01*
X127177495Y-82748777D01*
X127459900Y-82899725D01*
X127766327Y-82992678D01*
X128085000Y-83024065D01*
X128403672Y-82992678D01*
X128563725Y-82944127D01*
X128836810Y-83217212D01*
X128860609Y-83246211D01*
X128901496Y-83279766D01*
X128834967Y-83334366D01*
X128631824Y-83581895D01*
X128480876Y-83864300D01*
X128387923Y-84170727D01*
X128364401Y-84409546D01*
X128364400Y-86550453D01*
X128387922Y-86789272D01*
X128480875Y-87095699D01*
X128631823Y-87378104D01*
X128834966Y-87625634D01*
X128974321Y-87740000D01*
X127737322Y-87740000D01*
X127699999Y-87736324D01*
X127662676Y-87740000D01*
X127662667Y-87740000D01*
X127551014Y-87750997D01*
X127407753Y-87794454D01*
X127275723Y-87865026D01*
X127226350Y-87905546D01*
X127159999Y-87959999D01*
X127136200Y-87988998D01*
X126514002Y-88611197D01*
X126484999Y-88634999D01*
X126431655Y-88700000D01*
X126390026Y-88750724D01*
X126337503Y-88848987D01*
X126319454Y-88882754D01*
X126275997Y-89026015D01*
X126265000Y-89137668D01*
X126265000Y-89137678D01*
X126261324Y-89175000D01*
X126264026Y-89202429D01*
X125775000Y-89202429D01*
X125650518Y-89214689D01*
X125530820Y-89250999D01*
X125420506Y-89309964D01*
X125323815Y-89389316D01*
X125255138Y-89473000D01*
X124994862Y-89473000D01*
X124926185Y-89389316D01*
X124829494Y-89309964D01*
X124719180Y-89250999D01*
X124599482Y-89214689D01*
X124475000Y-89202429D01*
X122411730Y-89202429D01*
X120635610Y-87426310D01*
X120635610Y-83981782D01*
X120639286Y-83944457D01*
X120635610Y-83907132D01*
X120635610Y-83907124D01*
X120627163Y-83821365D01*
X120816474Y-84010676D01*
X120767923Y-84170727D01*
X120744401Y-84409546D01*
X120744400Y-86550453D01*
X120767922Y-86789272D01*
X120860875Y-87095699D01*
X121011823Y-87378104D01*
X121214966Y-87625634D01*
X121462495Y-87828777D01*
X121744900Y-87979725D01*
X122051327Y-88072678D01*
X122370000Y-88104065D01*
X122688672Y-88072678D01*
X122995099Y-87979725D01*
X123277504Y-87828777D01*
X123525034Y-87625634D01*
X123728177Y-87378105D01*
X123879125Y-87095700D01*
X123972078Y-86789273D01*
X123995600Y-86550454D01*
X123995600Y-86550453D01*
X124554400Y-86550453D01*
X124577922Y-86789272D01*
X124670875Y-87095699D01*
X124821823Y-87378104D01*
X125024966Y-87625634D01*
X125272495Y-87828777D01*
X125554900Y-87979725D01*
X125861327Y-88072678D01*
X126180000Y-88104065D01*
X126498672Y-88072678D01*
X126805099Y-87979725D01*
X127087504Y-87828777D01*
X127335034Y-87625634D01*
X127538177Y-87378105D01*
X127689125Y-87095700D01*
X127782078Y-86789273D01*
X127805600Y-86550454D01*
X127805600Y-84409546D01*
X127782078Y-84170727D01*
X127689125Y-83864300D01*
X127538177Y-83581895D01*
X127335034Y-83334366D01*
X127087505Y-83131223D01*
X126805100Y-82980275D01*
X126498673Y-82887322D01*
X126180000Y-82855935D01*
X125861328Y-82887322D01*
X125554901Y-82980275D01*
X125272496Y-83131223D01*
X125024967Y-83334366D01*
X124821824Y-83581895D01*
X124670876Y-83864300D01*
X124577923Y-84170727D01*
X124554401Y-84409546D01*
X124554400Y-86550453D01*
X123995600Y-86550453D01*
X123995600Y-84409546D01*
X123972078Y-84170727D01*
X123879125Y-83864300D01*
X123728177Y-83581895D01*
X123525034Y-83334366D01*
X123277505Y-83131223D01*
X122995100Y-82980275D01*
X122688673Y-82887322D01*
X122370000Y-82855935D01*
X122051328Y-82887322D01*
X121891275Y-82935873D01*
X121554675Y-82599273D01*
X121620034Y-82545634D01*
X121823177Y-82298105D01*
X121974125Y-82015700D01*
X122067078Y-81709273D01*
X122090600Y-81470454D01*
X122090600Y-81470453D01*
X122649400Y-81470453D01*
X122672922Y-81709272D01*
X122765875Y-82015699D01*
X122916823Y-82298104D01*
X123119966Y-82545634D01*
X123367495Y-82748777D01*
X123649900Y-82899725D01*
X123956327Y-82992678D01*
X124275000Y-83024065D01*
X124593672Y-82992678D01*
X124900099Y-82899725D01*
X125182504Y-82748777D01*
X125430034Y-82545634D01*
X125633177Y-82298105D01*
X125784125Y-82015700D01*
X125877078Y-81709273D01*
X125900600Y-81470454D01*
X125900600Y-79329546D01*
X125877078Y-79090727D01*
X125784125Y-78784300D01*
X125633177Y-78501895D01*
X125430034Y-78254366D01*
X125182505Y-78051223D01*
X124900100Y-77900275D01*
X124593673Y-77807322D01*
X124275000Y-77775935D01*
X123956328Y-77807322D01*
X123649901Y-77900275D01*
X123367496Y-78051223D01*
X123119967Y-78254366D01*
X122916824Y-78501895D01*
X122765876Y-78784300D01*
X122672923Y-79090727D01*
X122649401Y-79329546D01*
X122649400Y-81470453D01*
X122090600Y-81470453D01*
X122090600Y-79329546D01*
X122067078Y-79090727D01*
X121974125Y-78784300D01*
X121823177Y-78501895D01*
X121620034Y-78254366D01*
X121372505Y-78051223D01*
X121090100Y-77900275D01*
X120783673Y-77807322D01*
X120465000Y-77775935D01*
X120146328Y-77807322D01*
X119839901Y-77900275D01*
X119557496Y-78051223D01*
X119309967Y-78254366D01*
X119106824Y-78501895D01*
X118955876Y-78784300D01*
X118862923Y-79090727D01*
X118839401Y-79329546D01*
X118839400Y-81470453D01*
X118862922Y-81709272D01*
X118934796Y-81946210D01*
X118185204Y-81946210D01*
X118257078Y-81709273D01*
X118280600Y-81470454D01*
X118280600Y-79329546D01*
X118257078Y-79090727D01*
X118164125Y-78784300D01*
X118013177Y-78501895D01*
X117810034Y-78254366D01*
X117562505Y-78051223D01*
X117280100Y-77900275D01*
X116973673Y-77807322D01*
X116655000Y-77775935D01*
X116336328Y-77807322D01*
X116029901Y-77900275D01*
X115747496Y-78051223D01*
X115499967Y-78254366D01*
X115296824Y-78501895D01*
X115145876Y-78784300D01*
X115052923Y-79090727D01*
X115029401Y-79329546D01*
X115029400Y-81470453D01*
X115052922Y-81709272D01*
X115124796Y-81946210D01*
X114709962Y-81946210D01*
X114672637Y-81942534D01*
X114635312Y-81946210D01*
X114635304Y-81946210D01*
X114523651Y-81957207D01*
X114380390Y-82000664D01*
X114248361Y-82071236D01*
X114132636Y-82166209D01*
X114108838Y-82195207D01*
X112923388Y-83380658D01*
X112894390Y-83404456D01*
X112870592Y-83433454D01*
X112870591Y-83433455D01*
X112799416Y-83520181D01*
X112728844Y-83652211D01*
X112685388Y-83795472D01*
X112670714Y-83944457D01*
X112674391Y-83981789D01*
X112674390Y-91112568D01*
X112670714Y-91149891D01*
X112674390Y-91187213D01*
X112674390Y-91187223D01*
X112685387Y-91298876D01*
X112710829Y-91382747D01*
X112728844Y-91442137D01*
X112799416Y-91574167D01*
X112839261Y-91622717D01*
X112894389Y-91689892D01*
X112923392Y-91713694D01*
X112973000Y-91763302D01*
X112973000Y-93390000D01*
X105310000Y-93390000D01*
X105310000Y-81314810D01*
X105354130Y-81453928D01*
X105377691Y-81508899D01*
X105400491Y-81564217D01*
X105404874Y-81572323D01*
X105548163Y-81832965D01*
X105581947Y-81882305D01*
X105615062Y-81932147D01*
X105620936Y-81939247D01*
X105812122Y-82167094D01*
X105854853Y-82208939D01*
X105897013Y-82251395D01*
X105904155Y-82257219D01*
X106135956Y-82443591D01*
X106185968Y-82476318D01*
X106235600Y-82509795D01*
X106243737Y-82514121D01*
X106507323Y-82651921D01*
X106562783Y-82674328D01*
X106617931Y-82697511D01*
X106626753Y-82700174D01*
X106912083Y-82784152D01*
X106970837Y-82795360D01*
X107029441Y-82807390D01*
X107038613Y-82808289D01*
X107334820Y-82835246D01*
X107394638Y-82834828D01*
X107454455Y-82835246D01*
X107463626Y-82834347D01*
X107759430Y-82803257D01*
X107818017Y-82791230D01*
X107876787Y-82780020D01*
X107885609Y-82777356D01*
X108169740Y-82689403D01*
X108224883Y-82666223D01*
X108280348Y-82643814D01*
X108288485Y-82639487D01*
X108550121Y-82498021D01*
X108599705Y-82464576D01*
X108649768Y-82431816D01*
X108656909Y-82425992D01*
X108886085Y-82236401D01*
X108928224Y-82193966D01*
X108970974Y-82152103D01*
X108976848Y-82145002D01*
X109164834Y-81914509D01*
X109197938Y-81864682D01*
X109231733Y-81815327D01*
X109236116Y-81807221D01*
X109375753Y-81544603D01*
X109398560Y-81489269D01*
X109422114Y-81434314D01*
X109424838Y-81425515D01*
X109424840Y-81425509D01*
X109510806Y-81140773D01*
X109522422Y-81082108D01*
X109534862Y-81023584D01*
X109535825Y-81014419D01*
X109564850Y-80718406D01*
X109564850Y-80589596D01*
X109544200Y-80485305D01*
X109544200Y-77264047D01*
X109554522Y-77230699D01*
X109563068Y-77149377D01*
X109564701Y-77141129D01*
X109564701Y-77133835D01*
X109567984Y-77102594D01*
X109567984Y-77093379D01*
X109567835Y-77072100D01*
X109564702Y-77042298D01*
X109564702Y-77012319D01*
X109563738Y-77003154D01*
X109530584Y-76707575D01*
X109518151Y-76649081D01*
X109506528Y-76590381D01*
X109503803Y-76581578D01*
X109413868Y-76298068D01*
X109390290Y-76243058D01*
X109367508Y-76187783D01*
X109363125Y-76179677D01*
X109219836Y-75919034D01*
X109186048Y-75869687D01*
X109152936Y-75819850D01*
X109147062Y-75812749D01*
X108955876Y-75584904D01*
X108913146Y-75543060D01*
X108870987Y-75500605D01*
X108863846Y-75494781D01*
X108632045Y-75308408D01*
X108582031Y-75275680D01*
X108532398Y-75242202D01*
X108524261Y-75237876D01*
X108260675Y-75100077D01*
X108205219Y-75077672D01*
X108150068Y-75054488D01*
X108141246Y-75051825D01*
X107855915Y-74967847D01*
X107797175Y-74956642D01*
X107738558Y-74944609D01*
X107729386Y-74943710D01*
X107433178Y-74916753D01*
X107373361Y-74917171D01*
X107313544Y-74916753D01*
X107304372Y-74917653D01*
X107008569Y-74948742D01*
X106949972Y-74960771D01*
X106891210Y-74971980D01*
X106882388Y-74974644D01*
X106598257Y-75062598D01*
X106543139Y-75085768D01*
X106487650Y-75108186D01*
X106479514Y-75112513D01*
X106217878Y-75253979D01*
X106168311Y-75287412D01*
X106118232Y-75320183D01*
X106111091Y-75326008D01*
X105881915Y-75515597D01*
X105839774Y-75558034D01*
X105797024Y-75599897D01*
X105791150Y-75606998D01*
X105603164Y-75837492D01*
X105570049Y-75887334D01*
X105536265Y-75936674D01*
X105531882Y-75944781D01*
X105392246Y-76207399D01*
X105369458Y-76262687D01*
X105345886Y-76317683D01*
X105343162Y-76326487D01*
X105310000Y-76436323D01*
X105310000Y-70010000D01*
X162290001Y-70010000D01*
X162290001Y-76437191D01*
G36*
X145532923Y-79090727D02*
G01*
X145509401Y-79329546D01*
X145509400Y-81470453D01*
X145532922Y-81709272D01*
X145625875Y-82015699D01*
X145776823Y-82298104D01*
X145979966Y-82545634D01*
X146227495Y-82748777D01*
X146509900Y-82899725D01*
X146816327Y-82992678D01*
X147135000Y-83024065D01*
X147453672Y-82992678D01*
X147760099Y-82899725D01*
X148042504Y-82748777D01*
X148290034Y-82545634D01*
X148493177Y-82298105D01*
X148644125Y-82015700D01*
X148737078Y-81709273D01*
X148760600Y-81470454D01*
X148760600Y-79329546D01*
X148737078Y-79090727D01*
X148665204Y-78853790D01*
X149414797Y-78853790D01*
X149342923Y-79090727D01*
X149319401Y-79329546D01*
X149319400Y-81470453D01*
X149342922Y-81709272D01*
X149435875Y-82015699D01*
X149586823Y-82298104D01*
X149789966Y-82545634D01*
X150037495Y-82748777D01*
X150319900Y-82899725D01*
X150626327Y-82992678D01*
X150945000Y-83024065D01*
X151263672Y-82992678D01*
X151570099Y-82899725D01*
X151852504Y-82748777D01*
X152100034Y-82545634D01*
X152303177Y-82298105D01*
X152454125Y-82015700D01*
X152547078Y-81709273D01*
X152570600Y-81470454D01*
X152570600Y-80249249D01*
X153405611Y-81084260D01*
X153405611Y-82961218D01*
X153354758Y-82938940D01*
X153228959Y-82908589D01*
X152977000Y-83028058D01*
X152977000Y-85353000D01*
X152997000Y-85353000D01*
X152997000Y-85607000D01*
X152977000Y-85607000D01*
X152977000Y-85627000D01*
X152723000Y-85627000D01*
X152723000Y-85607000D01*
X151224400Y-85607000D01*
X151224400Y-86597600D01*
X151280412Y-86912299D01*
X151324921Y-87026210D01*
X150570204Y-87026210D01*
X150642078Y-86789273D01*
X150665600Y-86550454D01*
X150665600Y-84409546D01*
X150660957Y-84362400D01*
X151224400Y-84362400D01*
X151224400Y-85353000D01*
X152723000Y-85353000D01*
X152723000Y-83028058D01*
X152471041Y-82908589D01*
X152345242Y-82938940D01*
X152052461Y-83067205D01*
X151790329Y-83250124D01*
X151568920Y-83480668D01*
X151396742Y-83749977D01*
X151280412Y-84047701D01*
X151224400Y-84362400D01*
X150660957Y-84362400D01*
X150642078Y-84170727D01*
X150549125Y-83864300D01*
X150398177Y-83581895D01*
X150195034Y-83334366D01*
X149947505Y-83131223D01*
X149665100Y-82980275D01*
X149358673Y-82887322D01*
X149040000Y-82855935D01*
X148721328Y-82887322D01*
X148414901Y-82980275D01*
X148132496Y-83131223D01*
X147884967Y-83334366D01*
X147681824Y-83581895D01*
X147530876Y-83864300D01*
X147437923Y-84170727D01*
X147414401Y-84409546D01*
X147414400Y-86550453D01*
X147437922Y-86789272D01*
X147527811Y-87085599D01*
X147405015Y-87151236D01*
X147289290Y-87246209D01*
X147265492Y-87275207D01*
X145513998Y-89026702D01*
X145485000Y-89050500D01*
X145461202Y-89079498D01*
X145461201Y-89079499D01*
X145390026Y-89166225D01*
X145370674Y-89202429D01*
X144775000Y-89202429D01*
X144650518Y-89214689D01*
X144530820Y-89250999D01*
X144420506Y-89309964D01*
X144323815Y-89389316D01*
X144255138Y-89473000D01*
X143994862Y-89473000D01*
X143960000Y-89430520D01*
X143960000Y-87485548D01*
X144074966Y-87625634D01*
X144322495Y-87828777D01*
X144604900Y-87979725D01*
X144911327Y-88072678D01*
X145230000Y-88104065D01*
X145548672Y-88072678D01*
X145855099Y-87979725D01*
X146137504Y-87828777D01*
X146385034Y-87625634D01*
X146588177Y-87378105D01*
X146739125Y-87095700D01*
X146832078Y-86789273D01*
X146855600Y-86550454D01*
X146855600Y-84409546D01*
X146832078Y-84170727D01*
X146739125Y-83864300D01*
X146588177Y-83581895D01*
X146385034Y-83334366D01*
X146137505Y-83131223D01*
X145855100Y-82980275D01*
X145548673Y-82887322D01*
X145230000Y-82855935D01*
X144911328Y-82887322D01*
X144604901Y-82980275D01*
X144322496Y-83131223D01*
X144074967Y-83334366D01*
X143960000Y-83474453D01*
X143960000Y-83055427D01*
X144030546Y-82923447D01*
X144054702Y-82843814D01*
X144232504Y-82748777D01*
X144480034Y-82545634D01*
X144683177Y-82298105D01*
X144834125Y-82015700D01*
X144927078Y-81709273D01*
X144950600Y-81470454D01*
X144950600Y-79329546D01*
X144927078Y-79090727D01*
X144855204Y-78853790D01*
X145604797Y-78853790D01*
X145532923Y-79090727D01*
X145532923Y-79090727D01*
G37*
X145532923Y-79090727D02*
X145509401Y-79329546D01*
X145509400Y-81470453D01*
X145532922Y-81709272D01*
X145625875Y-82015699D01*
X145776823Y-82298104D01*
X145979966Y-82545634D01*
X146227495Y-82748777D01*
X146509900Y-82899725D01*
X146816327Y-82992678D01*
X147135000Y-83024065D01*
X147453672Y-82992678D01*
X147760099Y-82899725D01*
X148042504Y-82748777D01*
X148290034Y-82545634D01*
X148493177Y-82298105D01*
X148644125Y-82015700D01*
X148737078Y-81709273D01*
X148760600Y-81470454D01*
X148760600Y-79329546D01*
X148737078Y-79090727D01*
X148665204Y-78853790D01*
X149414797Y-78853790D01*
X149342923Y-79090727D01*
X149319401Y-79329546D01*
X149319400Y-81470453D01*
X149342922Y-81709272D01*
X149435875Y-82015699D01*
X149586823Y-82298104D01*
X149789966Y-82545634D01*
X150037495Y-82748777D01*
X150319900Y-82899725D01*
X150626327Y-82992678D01*
X150945000Y-83024065D01*
X151263672Y-82992678D01*
X151570099Y-82899725D01*
X151852504Y-82748777D01*
X152100034Y-82545634D01*
X152303177Y-82298105D01*
X152454125Y-82015700D01*
X152547078Y-81709273D01*
X152570600Y-81470454D01*
X152570600Y-80249249D01*
X153405611Y-81084260D01*
X153405611Y-82961218D01*
X153354758Y-82938940D01*
X153228959Y-82908589D01*
X152977000Y-83028058D01*
X152977000Y-85353000D01*
X152997000Y-85353000D01*
X152997000Y-85607000D01*
X152977000Y-85607000D01*
X152977000Y-85627000D01*
X152723000Y-85627000D01*
X152723000Y-85607000D01*
X151224400Y-85607000D01*
X151224400Y-86597600D01*
X151280412Y-86912299D01*
X151324921Y-87026210D01*
X150570204Y-87026210D01*
X150642078Y-86789273D01*
X150665600Y-86550454D01*
X150665600Y-84409546D01*
X150660957Y-84362400D01*
X151224400Y-84362400D01*
X151224400Y-85353000D01*
X152723000Y-85353000D01*
X152723000Y-83028058D01*
X152471041Y-82908589D01*
X152345242Y-82938940D01*
X152052461Y-83067205D01*
X151790329Y-83250124D01*
X151568920Y-83480668D01*
X151396742Y-83749977D01*
X151280412Y-84047701D01*
X151224400Y-84362400D01*
X150660957Y-84362400D01*
X150642078Y-84170727D01*
X150549125Y-83864300D01*
X150398177Y-83581895D01*
X150195034Y-83334366D01*
X149947505Y-83131223D01*
X149665100Y-82980275D01*
X149358673Y-82887322D01*
X149040000Y-82855935D01*
X148721328Y-82887322D01*
X148414901Y-82980275D01*
X148132496Y-83131223D01*
X147884967Y-83334366D01*
X147681824Y-83581895D01*
X147530876Y-83864300D01*
X147437923Y-84170727D01*
X147414401Y-84409546D01*
X147414400Y-86550453D01*
X147437922Y-86789272D01*
X147527811Y-87085599D01*
X147405015Y-87151236D01*
X147289290Y-87246209D01*
X147265492Y-87275207D01*
X145513998Y-89026702D01*
X145485000Y-89050500D01*
X145461202Y-89079498D01*
X145461201Y-89079499D01*
X145390026Y-89166225D01*
X145370674Y-89202429D01*
X144775000Y-89202429D01*
X144650518Y-89214689D01*
X144530820Y-89250999D01*
X144420506Y-89309964D01*
X144323815Y-89389316D01*
X144255138Y-89473000D01*
X143994862Y-89473000D01*
X143960000Y-89430520D01*
X143960000Y-87485548D01*
X144074966Y-87625634D01*
X144322495Y-87828777D01*
X144604900Y-87979725D01*
X144911327Y-88072678D01*
X145230000Y-88104065D01*
X145548672Y-88072678D01*
X145855099Y-87979725D01*
X146137504Y-87828777D01*
X146385034Y-87625634D01*
X146588177Y-87378105D01*
X146739125Y-87095700D01*
X146832078Y-86789273D01*
X146855600Y-86550454D01*
X146855600Y-84409546D01*
X146832078Y-84170727D01*
X146739125Y-83864300D01*
X146588177Y-83581895D01*
X146385034Y-83334366D01*
X146137505Y-83131223D01*
X145855100Y-82980275D01*
X145548673Y-82887322D01*
X145230000Y-82855935D01*
X144911328Y-82887322D01*
X144604901Y-82980275D01*
X144322496Y-83131223D01*
X144074967Y-83334366D01*
X143960000Y-83474453D01*
X143960000Y-83055427D01*
X144030546Y-82923447D01*
X144054702Y-82843814D01*
X144232504Y-82748777D01*
X144480034Y-82545634D01*
X144683177Y-82298105D01*
X144834125Y-82015700D01*
X144927078Y-81709273D01*
X144950600Y-81470454D01*
X144950600Y-79329546D01*
X144927078Y-79090727D01*
X144855204Y-78853790D01*
X145604797Y-78853790D01*
X145532923Y-79090727D01*
G36*
X116957923Y-84170727D02*
G01*
X116934401Y-84409546D01*
X116934400Y-86550453D01*
X116957922Y-86789272D01*
X117050875Y-87095699D01*
X117201823Y-87378104D01*
X117404966Y-87625634D01*
X117652495Y-87828777D01*
X117800000Y-87907620D01*
X117800000Y-88568178D01*
X117796324Y-88605501D01*
X117800000Y-88642823D01*
X117800000Y-88642833D01*
X117810997Y-88754486D01*
X117839663Y-88848986D01*
X117854454Y-88897747D01*
X117925026Y-89029777D01*
X117956393Y-89067997D01*
X118019999Y-89145502D01*
X118049002Y-89169304D01*
X118090454Y-89210756D01*
X118050518Y-89214689D01*
X117930820Y-89250999D01*
X117820506Y-89309964D01*
X117723815Y-89389316D01*
X117655138Y-89473000D01*
X117394862Y-89473000D01*
X117326185Y-89389316D01*
X117229494Y-89309964D01*
X117119180Y-89250999D01*
X116999482Y-89214689D01*
X116875000Y-89202429D01*
X114375000Y-89202429D01*
X114250518Y-89214689D01*
X114194390Y-89231715D01*
X114194390Y-88000804D01*
X114431327Y-88072678D01*
X114750000Y-88104065D01*
X115068672Y-88072678D01*
X115375099Y-87979725D01*
X115657504Y-87828777D01*
X115905034Y-87625634D01*
X116108177Y-87378105D01*
X116259125Y-87095700D01*
X116352078Y-86789273D01*
X116375600Y-86550454D01*
X116375600Y-84409546D01*
X116352078Y-84170727D01*
X116303527Y-84010675D01*
X116380412Y-83933790D01*
X117029797Y-83933790D01*
X116957923Y-84170727D01*
X116957923Y-84170727D01*
G37*
X116957923Y-84170727D02*
X116934401Y-84409546D01*
X116934400Y-86550453D01*
X116957922Y-86789272D01*
X117050875Y-87095699D01*
X117201823Y-87378104D01*
X117404966Y-87625634D01*
X117652495Y-87828777D01*
X117800000Y-87907620D01*
X117800000Y-88568178D01*
X117796324Y-88605501D01*
X117800000Y-88642823D01*
X117800000Y-88642833D01*
X117810997Y-88754486D01*
X117839663Y-88848986D01*
X117854454Y-88897747D01*
X117925026Y-89029777D01*
X117956393Y-89067997D01*
X118019999Y-89145502D01*
X118049002Y-89169304D01*
X118090454Y-89210756D01*
X118050518Y-89214689D01*
X117930820Y-89250999D01*
X117820506Y-89309964D01*
X117723815Y-89389316D01*
X117655138Y-89473000D01*
X117394862Y-89473000D01*
X117326185Y-89389316D01*
X117229494Y-89309964D01*
X117119180Y-89250999D01*
X116999482Y-89214689D01*
X116875000Y-89202429D01*
X114375000Y-89202429D01*
X114250518Y-89214689D01*
X114194390Y-89231715D01*
X114194390Y-88000804D01*
X114431327Y-88072678D01*
X114750000Y-88104065D01*
X115068672Y-88072678D01*
X115375099Y-87979725D01*
X115657504Y-87828777D01*
X115905034Y-87625634D01*
X116108177Y-87378105D01*
X116259125Y-87095700D01*
X116352078Y-86789273D01*
X116375600Y-86550454D01*
X116375600Y-84409546D01*
X116352078Y-84170727D01*
X116303527Y-84010675D01*
X116380412Y-83933790D01*
X117029797Y-83933790D01*
X116957923Y-84170727D01*
G36*
X149136420Y-88551014D02*
G01*
X149119454Y-88582754D01*
X149075997Y-88726015D01*
X149065000Y-88837668D01*
X149065000Y-88837678D01*
X149061324Y-88875000D01*
X149065000Y-88912323D01*
X149065000Y-89202429D01*
X148575000Y-89202429D01*
X148450518Y-89214689D01*
X148330820Y-89250999D01*
X148220506Y-89309964D01*
X148123815Y-89389316D01*
X148055138Y-89473000D01*
X147794862Y-89473000D01*
X147726185Y-89389316D01*
X147629494Y-89309964D01*
X147519180Y-89250999D01*
X147457894Y-89232408D01*
X148144093Y-88546210D01*
X149138987Y-88546210D01*
X149136420Y-88551014D01*
X149136420Y-88551014D01*
G37*
X149136420Y-88551014D02*
X149119454Y-88582754D01*
X149075997Y-88726015D01*
X149065000Y-88837668D01*
X149065000Y-88837678D01*
X149061324Y-88875000D01*
X149065000Y-88912323D01*
X149065000Y-89202429D01*
X148575000Y-89202429D01*
X148450518Y-89214689D01*
X148330820Y-89250999D01*
X148220506Y-89309964D01*
X148123815Y-89389316D01*
X148055138Y-89473000D01*
X147794862Y-89473000D01*
X147726185Y-89389316D01*
X147629494Y-89309964D01*
X147519180Y-89250999D01*
X147457894Y-89232408D01*
X148144093Y-88546210D01*
X149138987Y-88546210D01*
X149136420Y-88551014D01*
G36*
X119335609Y-88281112D02*
G01*
X119364613Y-88304915D01*
X120262127Y-89202429D01*
X120137879Y-89202429D01*
X120130546Y-89178254D01*
X120059974Y-89046225D01*
X119965001Y-88930500D01*
X119936003Y-88906702D01*
X119320000Y-88290700D01*
X119320000Y-88262092D01*
X119335609Y-88281112D01*
X119335609Y-88281112D01*
G37*
X119335609Y-88281112D02*
X119364613Y-88304915D01*
X120262127Y-89202429D01*
X120137879Y-89202429D01*
X120130546Y-89178254D01*
X120059974Y-89046225D01*
X119965001Y-88930500D01*
X119936003Y-88906702D01*
X119320000Y-88290700D01*
X119320000Y-88262092D01*
X119335609Y-88281112D01*
G36*
X138607496Y-78051223D02*
G01*
X138359967Y-78254366D01*
X138156824Y-78501895D01*
X138005876Y-78784300D01*
X137912923Y-79090727D01*
X137889401Y-79329546D01*
X137889400Y-81470453D01*
X137912922Y-81709272D01*
X138005875Y-82015699D01*
X138156823Y-82298104D01*
X138359966Y-82545634D01*
X138607495Y-82748777D01*
X138889900Y-82899725D01*
X139196327Y-82992678D01*
X139515000Y-83024065D01*
X139833672Y-82992678D01*
X140140099Y-82899725D01*
X140422504Y-82748777D01*
X140670034Y-82545634D01*
X140873177Y-82298105D01*
X141024125Y-82015700D01*
X141117078Y-81709273D01*
X141140600Y-81470454D01*
X141140600Y-79329546D01*
X141117078Y-79090727D01*
X141068527Y-78930675D01*
X141145412Y-78853790D01*
X141794797Y-78853790D01*
X141722923Y-79090727D01*
X141699401Y-79329546D01*
X141699400Y-81470453D01*
X141722922Y-81709272D01*
X141815875Y-82015699D01*
X141966823Y-82298104D01*
X142169966Y-82545634D01*
X142417495Y-82748777D01*
X142436599Y-82758988D01*
X142440001Y-82793532D01*
X142440001Y-83223547D01*
X142327505Y-83131223D01*
X142045100Y-82980275D01*
X141738673Y-82887322D01*
X141420000Y-82855935D01*
X141101328Y-82887322D01*
X140794901Y-82980275D01*
X140512496Y-83131223D01*
X140264967Y-83334366D01*
X140061824Y-83581895D01*
X139910876Y-83864300D01*
X139817923Y-84170727D01*
X139794401Y-84409546D01*
X139794400Y-86550453D01*
X139817922Y-86789272D01*
X139910875Y-87095699D01*
X139988005Y-87240000D01*
X139041995Y-87240000D01*
X139119125Y-87095700D01*
X139212078Y-86789273D01*
X139235600Y-86550454D01*
X139235600Y-84409546D01*
X139212078Y-84170727D01*
X139119125Y-83864300D01*
X138968177Y-83581895D01*
X138765034Y-83334366D01*
X138517505Y-83131223D01*
X138235100Y-82980275D01*
X137928673Y-82887322D01*
X137610000Y-82855935D01*
X137291328Y-82887322D01*
X136984901Y-82980275D01*
X136704796Y-83129994D01*
X136424219Y-82849417D01*
X136612504Y-82748777D01*
X136860034Y-82545634D01*
X137063177Y-82298105D01*
X137214125Y-82015700D01*
X137307078Y-81709273D01*
X137330600Y-81470454D01*
X137330600Y-79329546D01*
X137307078Y-79090727D01*
X137214125Y-78784300D01*
X137063177Y-78501895D01*
X136860034Y-78254366D01*
X136612505Y-78051223D01*
X136441838Y-77960000D01*
X138778163Y-77960000D01*
X138607496Y-78051223D01*
X138607496Y-78051223D01*
G37*
X138607496Y-78051223D02*
X138359967Y-78254366D01*
X138156824Y-78501895D01*
X138005876Y-78784300D01*
X137912923Y-79090727D01*
X137889401Y-79329546D01*
X137889400Y-81470453D01*
X137912922Y-81709272D01*
X138005875Y-82015699D01*
X138156823Y-82298104D01*
X138359966Y-82545634D01*
X138607495Y-82748777D01*
X138889900Y-82899725D01*
X139196327Y-82992678D01*
X139515000Y-83024065D01*
X139833672Y-82992678D01*
X140140099Y-82899725D01*
X140422504Y-82748777D01*
X140670034Y-82545634D01*
X140873177Y-82298105D01*
X141024125Y-82015700D01*
X141117078Y-81709273D01*
X141140600Y-81470454D01*
X141140600Y-79329546D01*
X141117078Y-79090727D01*
X141068527Y-78930675D01*
X141145412Y-78853790D01*
X141794797Y-78853790D01*
X141722923Y-79090727D01*
X141699401Y-79329546D01*
X141699400Y-81470453D01*
X141722922Y-81709272D01*
X141815875Y-82015699D01*
X141966823Y-82298104D01*
X142169966Y-82545634D01*
X142417495Y-82748777D01*
X142436599Y-82758988D01*
X142440001Y-82793532D01*
X142440001Y-83223547D01*
X142327505Y-83131223D01*
X142045100Y-82980275D01*
X141738673Y-82887322D01*
X141420000Y-82855935D01*
X141101328Y-82887322D01*
X140794901Y-82980275D01*
X140512496Y-83131223D01*
X140264967Y-83334366D01*
X140061824Y-83581895D01*
X139910876Y-83864300D01*
X139817923Y-84170727D01*
X139794401Y-84409546D01*
X139794400Y-86550453D01*
X139817922Y-86789272D01*
X139910875Y-87095699D01*
X139988005Y-87240000D01*
X139041995Y-87240000D01*
X139119125Y-87095700D01*
X139212078Y-86789273D01*
X139235600Y-86550454D01*
X139235600Y-84409546D01*
X139212078Y-84170727D01*
X139119125Y-83864300D01*
X138968177Y-83581895D01*
X138765034Y-83334366D01*
X138517505Y-83131223D01*
X138235100Y-82980275D01*
X137928673Y-82887322D01*
X137610000Y-82855935D01*
X137291328Y-82887322D01*
X136984901Y-82980275D01*
X136704796Y-83129994D01*
X136424219Y-82849417D01*
X136612504Y-82748777D01*
X136860034Y-82545634D01*
X137063177Y-82298105D01*
X137214125Y-82015700D01*
X137307078Y-81709273D01*
X137330600Y-81470454D01*
X137330600Y-79329546D01*
X137307078Y-79090727D01*
X137214125Y-78784300D01*
X137063177Y-78501895D01*
X136860034Y-78254366D01*
X136612505Y-78051223D01*
X136441838Y-77960000D01*
X138778163Y-77960000D01*
X138607496Y-78051223D01*
G36*
X134797496Y-78051223D02*
G01*
X134549967Y-78254366D01*
X134346824Y-78501895D01*
X134195876Y-78784300D01*
X134102923Y-79090727D01*
X134079401Y-79329546D01*
X134079400Y-81470453D01*
X134102922Y-81709272D01*
X134174796Y-81946210D01*
X133425204Y-81946210D01*
X133497078Y-81709273D01*
X133520600Y-81470454D01*
X133520600Y-79329546D01*
X133497078Y-79090727D01*
X133404125Y-78784300D01*
X133253177Y-78501895D01*
X133050034Y-78254366D01*
X132802505Y-78051223D01*
X132631838Y-77960000D01*
X134968163Y-77960000D01*
X134797496Y-78051223D01*
X134797496Y-78051223D01*
G37*
X134797496Y-78051223D02*
X134549967Y-78254366D01*
X134346824Y-78501895D01*
X134195876Y-78784300D01*
X134102923Y-79090727D01*
X134079401Y-79329546D01*
X134079400Y-81470453D01*
X134102922Y-81709272D01*
X134174796Y-81946210D01*
X133425204Y-81946210D01*
X133497078Y-81709273D01*
X133520600Y-81470454D01*
X133520600Y-79329546D01*
X133497078Y-79090727D01*
X133404125Y-78784300D01*
X133253177Y-78501895D01*
X133050034Y-78254366D01*
X132802505Y-78051223D01*
X132631838Y-77960000D01*
X134968163Y-77960000D01*
X134797496Y-78051223D01*
M02*
