G04 #@! TF.GenerationSoftware,KiCad,Pcbnew,(5.1.0)-1*
G04 #@! TF.CreationDate,2019-08-12T13:57:41-04:00*
G04 #@! TF.ProjectId,JP21F_to_EUROM,4a503231-465f-4746-9f5f-4555524f4d2e,rev?*
G04 #@! TF.SameCoordinates,Original*
G04 #@! TF.FileFunction,Legend,Bot*
G04 #@! TF.FilePolarity,Positive*
%FSLAX46Y46*%
G04 Gerber Fmt 4.6, Leading zero omitted, Abs format (unit mm)*
G04 Created by KiCad (PCBNEW (5.1.0)-1) date 2019-08-12 13:57:41*
%MOMM*%
%LPD*%
G04 APERTURE LIST*
%ADD10C,0.500000*%
%ADD11C,0.300000*%
G04 APERTURE END LIST*
D10*
X149250000Y-72196428D02*
X148416666Y-72196428D01*
X148059523Y-73505952D02*
X149250000Y-73505952D01*
X149250000Y-71005952D01*
X148059523Y-71005952D01*
X146988095Y-71005952D02*
X146988095Y-73029761D01*
X146869047Y-73267857D01*
X146750000Y-73386904D01*
X146511904Y-73505952D01*
X146035714Y-73505952D01*
X145797619Y-73386904D01*
X145678571Y-73267857D01*
X145559523Y-73029761D01*
X145559523Y-71005952D01*
X142940476Y-73505952D02*
X143773809Y-72315476D01*
X144369047Y-73505952D02*
X144369047Y-71005952D01*
X143416666Y-71005952D01*
X143178571Y-71125000D01*
X143059523Y-71244047D01*
X142940476Y-71482142D01*
X142940476Y-71839285D01*
X143059523Y-72077380D01*
X143178571Y-72196428D01*
X143416666Y-72315476D01*
X144369047Y-72315476D01*
X141392857Y-71005952D02*
X140916666Y-71005952D01*
X140678571Y-71125000D01*
X140440476Y-71363095D01*
X140321428Y-71839285D01*
X140321428Y-72672619D01*
X140440476Y-73148809D01*
X140678571Y-73386904D01*
X140916666Y-73505952D01*
X141392857Y-73505952D01*
X141630952Y-73386904D01*
X141869047Y-73148809D01*
X141988095Y-72672619D01*
X141988095Y-71839285D01*
X141869047Y-71363095D01*
X141630952Y-71125000D01*
X141392857Y-71005952D01*
X139369047Y-73386904D02*
X139011904Y-73505952D01*
X138416666Y-73505952D01*
X138178571Y-73386904D01*
X138059523Y-73267857D01*
X137940476Y-73029761D01*
X137940476Y-72791666D01*
X138059523Y-72553571D01*
X138178571Y-72434523D01*
X138416666Y-72315476D01*
X138892857Y-72196428D01*
X139130952Y-72077380D01*
X139250000Y-71958333D01*
X139369047Y-71720238D01*
X139369047Y-71482142D01*
X139250000Y-71244047D01*
X139130952Y-71125000D01*
X138892857Y-71005952D01*
X138297619Y-71005952D01*
X137940476Y-71125000D01*
X135440476Y-73267857D02*
X135559523Y-73386904D01*
X135916666Y-73505952D01*
X136154761Y-73505952D01*
X136511904Y-73386904D01*
X136750000Y-73148809D01*
X136869047Y-72910714D01*
X136988095Y-72434523D01*
X136988095Y-72077380D01*
X136869047Y-71601190D01*
X136750000Y-71363095D01*
X136511904Y-71125000D01*
X136154761Y-71005952D01*
X135916666Y-71005952D01*
X135559523Y-71125000D01*
X135440476Y-71244047D01*
X134488095Y-72791666D02*
X133297619Y-72791666D01*
X134726190Y-73505952D02*
X133892857Y-71005952D01*
X133059523Y-73505952D01*
X130797619Y-73505952D02*
X131630952Y-72315476D01*
X132226190Y-73505952D02*
X132226190Y-71005952D01*
X131273809Y-71005952D01*
X131035714Y-71125000D01*
X130916666Y-71244047D01*
X130797619Y-71482142D01*
X130797619Y-71839285D01*
X130916666Y-72077380D01*
X131035714Y-72196428D01*
X131273809Y-72315476D01*
X132226190Y-72315476D01*
X130083333Y-71005952D02*
X128654761Y-71005952D01*
X129369047Y-73505952D02*
X129369047Y-71005952D01*
X125916666Y-73029761D02*
X127821428Y-73029761D01*
X127821428Y-72077380D02*
X125916666Y-72077380D01*
X126392857Y-72553571D02*
X125916666Y-72077380D01*
X126392857Y-71601190D01*
X127345238Y-73505952D02*
X127821428Y-73029761D01*
X127345238Y-72553571D01*
X124011904Y-71005952D02*
X124011904Y-72791666D01*
X124130952Y-73148809D01*
X124369047Y-73386904D01*
X124726190Y-73505952D01*
X124964285Y-73505952D01*
X122821428Y-73505952D02*
X122821428Y-71005952D01*
X121869047Y-71005952D01*
X121630952Y-71125000D01*
X121511904Y-71244047D01*
X121392857Y-71482142D01*
X121392857Y-71839285D01*
X121511904Y-72077380D01*
X121630952Y-72196428D01*
X121869047Y-72315476D01*
X122821428Y-72315476D01*
X120440476Y-71244047D02*
X120321428Y-71125000D01*
X120083333Y-71005952D01*
X119488095Y-71005952D01*
X119250000Y-71125000D01*
X119130952Y-71244047D01*
X119011904Y-71482142D01*
X119011904Y-71720238D01*
X119130952Y-72077380D01*
X120559523Y-73505952D01*
X119011904Y-73505952D01*
X116630952Y-73505952D02*
X118059523Y-73505952D01*
X117345238Y-73505952D02*
X117345238Y-71005952D01*
X117583333Y-71363095D01*
X117821428Y-71601190D01*
X118059523Y-71720238D01*
X145142857Y-76446428D02*
X144785714Y-76565476D01*
X144666666Y-76684523D01*
X144547619Y-76922619D01*
X144547619Y-77279761D01*
X144666666Y-77517857D01*
X144785714Y-77636904D01*
X145023809Y-77755952D01*
X145976190Y-77755952D01*
X145976190Y-75255952D01*
X145142857Y-75255952D01*
X144904761Y-75375000D01*
X144785714Y-75494047D01*
X144666666Y-75732142D01*
X144666666Y-75970238D01*
X144785714Y-76208333D01*
X144904761Y-76327380D01*
X145142857Y-76446428D01*
X145976190Y-76446428D01*
X143476190Y-77755952D02*
X143476190Y-75255952D01*
X142285714Y-77755952D02*
X142285714Y-75255952D01*
X141690476Y-75255952D01*
X141333333Y-75375000D01*
X141095238Y-75613095D01*
X140976190Y-75851190D01*
X140857142Y-76327380D01*
X140857142Y-76684523D01*
X140976190Y-77160714D01*
X141095238Y-77398809D01*
X141333333Y-77636904D01*
X141690476Y-77755952D01*
X142285714Y-77755952D01*
X139785714Y-77755952D02*
X139785714Y-75255952D01*
X137166666Y-77755952D02*
X138000000Y-76565476D01*
X138595238Y-77755952D02*
X138595238Y-75255952D01*
X137642857Y-75255952D01*
X137404761Y-75375000D01*
X137285714Y-75494047D01*
X137166666Y-75732142D01*
X137166666Y-76089285D01*
X137285714Y-76327380D01*
X137404761Y-76446428D01*
X137642857Y-76565476D01*
X138595238Y-76565476D01*
X136095238Y-76446428D02*
X135261904Y-76446428D01*
X134904761Y-77755952D02*
X136095238Y-77755952D01*
X136095238Y-75255952D01*
X134904761Y-75255952D01*
X132404761Y-77517857D02*
X132523809Y-77636904D01*
X132880952Y-77755952D01*
X133119047Y-77755952D01*
X133476190Y-77636904D01*
X133714285Y-77398809D01*
X133833333Y-77160714D01*
X133952380Y-76684523D01*
X133952380Y-76327380D01*
X133833333Y-75851190D01*
X133714285Y-75613095D01*
X133476190Y-75375000D01*
X133119047Y-75255952D01*
X132880952Y-75255952D01*
X132523809Y-75375000D01*
X132404761Y-75494047D01*
X131690476Y-75255952D02*
X130261904Y-75255952D01*
X130976190Y-77755952D02*
X130976190Y-75255952D01*
X129428571Y-77755952D02*
X129428571Y-75255952D01*
X127761904Y-75255952D02*
X127285714Y-75255952D01*
X127047619Y-75375000D01*
X126809523Y-75613095D01*
X126690476Y-76089285D01*
X126690476Y-76922619D01*
X126809523Y-77398809D01*
X127047619Y-77636904D01*
X127285714Y-77755952D01*
X127761904Y-77755952D01*
X128000000Y-77636904D01*
X128238095Y-77398809D01*
X128357142Y-76922619D01*
X128357142Y-76089285D01*
X128238095Y-75613095D01*
X128000000Y-75375000D01*
X127761904Y-75255952D01*
X125619047Y-77755952D02*
X125619047Y-75255952D01*
X124190476Y-77755952D01*
X124190476Y-75255952D01*
X123119047Y-77041666D02*
X121928571Y-77041666D01*
X123357142Y-77755952D02*
X122523809Y-75255952D01*
X121690476Y-77755952D01*
X119666666Y-77755952D02*
X120857142Y-77755952D01*
X120857142Y-75255952D01*
D11*
X108157142Y-91138095D02*
X108157142Y-92661904D01*
X107776190Y-92280952D02*
X108157142Y-92661904D01*
X108538095Y-92280952D01*
X108442857Y-90185714D02*
X108442857Y-89519047D01*
X107395238Y-89233333D02*
X107395238Y-90185714D01*
X109395238Y-90185714D01*
X109395238Y-89233333D01*
X109395238Y-88376190D02*
X107776190Y-88376190D01*
X107585714Y-88280952D01*
X107490476Y-88185714D01*
X107395238Y-87995238D01*
X107395238Y-87614285D01*
X107490476Y-87423809D01*
X107585714Y-87328571D01*
X107776190Y-87233333D01*
X109395238Y-87233333D01*
X107395238Y-85138095D02*
X108347619Y-85804761D01*
X107395238Y-86280952D02*
X109395238Y-86280952D01*
X109395238Y-85519047D01*
X109300000Y-85328571D01*
X109204761Y-85233333D01*
X109014285Y-85138095D01*
X108728571Y-85138095D01*
X108538095Y-85233333D01*
X108442857Y-85328571D01*
X108347619Y-85519047D01*
X108347619Y-86280952D01*
X109395238Y-83900000D02*
X109395238Y-83519047D01*
X109300000Y-83328571D01*
X109109523Y-83138095D01*
X108728571Y-83042857D01*
X108061904Y-83042857D01*
X107680952Y-83138095D01*
X107490476Y-83328571D01*
X107395238Y-83519047D01*
X107395238Y-83900000D01*
X107490476Y-84090476D01*
X107680952Y-84280952D01*
X108061904Y-84376190D01*
X108728571Y-84376190D01*
X109109523Y-84280952D01*
X109300000Y-84090476D01*
X109395238Y-83900000D01*
X158542857Y-84995238D02*
X158542857Y-83471428D01*
X158923809Y-83852380D02*
X158542857Y-83471428D01*
X158161904Y-83852380D01*
X157304761Y-86519047D02*
X158733333Y-86519047D01*
X159019047Y-86423809D01*
X159209523Y-86233333D01*
X159304761Y-85947619D01*
X159304761Y-85757142D01*
X159304761Y-87471428D02*
X157304761Y-87471428D01*
X157304761Y-88233333D01*
X157400000Y-88423809D01*
X157495238Y-88519047D01*
X157685714Y-88614285D01*
X157971428Y-88614285D01*
X158161904Y-88519047D01*
X158257142Y-88423809D01*
X158352380Y-88233333D01*
X158352380Y-87471428D01*
X157495238Y-89376190D02*
X157400000Y-89471428D01*
X157304761Y-89661904D01*
X157304761Y-90138095D01*
X157400000Y-90328571D01*
X157495238Y-90423809D01*
X157685714Y-90519047D01*
X157876190Y-90519047D01*
X158161904Y-90423809D01*
X159304761Y-89280952D01*
X159304761Y-90519047D01*
X159304761Y-92423809D02*
X159304761Y-91280952D01*
X159304761Y-91852380D02*
X157304761Y-91852380D01*
X157590476Y-91661904D01*
X157780952Y-91471428D01*
X157876190Y-91280952D01*
M02*
